  0
SECTION
  2
HEADER
  9
$ACADVER
  1
AC1014
  9
$ACADMAINTVER
 70
     9
  9
$DWGCODEPAGE
  3
ANSI_936
  9
$INSBASE
 10
0.0
 20
0.0
 30
0.0
  9
$EXTMIN
 10
-0.0000000000008349
 20
-13.132003
 30
0.0
  9
$EXTMAX
 10
64.92240000000085
 20
56.00700000000084
 30
0.0
  9
$LIMMIN
 10
-126.365
 20
-260.7818
  9
$LIMMAX
 10
788.035
 20
348.8182
  9
$ORTHOMODE
 70
     0
  9
$REGENMODE
 70
     1
  9
$FILLMODE
 70
     1
  9
$QTEXTMODE
 70
     0
  9
$MIRRTEXT
 70
     1
  9
$DRAGMODE
 70
     2
  9
$LTSCALE
 40
1.0
  9
$OSMODE
 70
    37
  9
$ATTMODE
 70
     0
  9
$TEXTSIZE
 40
0.2
  9
$TRACEWID
 40
0.05
  9
$TEXTSTYLE
  7
STANDARD
  9
$CLAYER
  8
0
  9
$CELTYPE
  6
BYBLOCK
  9
$CECOLOR
 62
   256
  9
$CELTSCALE
 40
1.0
  9
$DELOBJ
 70
     1
  9
$DISPSILH
 70
     0
  9
$DIMSCALE
 40
1.0
  9
$DIMASZ
 40
0.18
  9
$DIMEXO
 40
0.0625
  9
$DIMDLI
 40
0.38
  9
$DIMRND
 40
0.0
  9
$DIMDLE
 40
0.0
  9
$DIMEXE
 40
0.18
  9
$DIMTP
 40
0.0
  9
$DIMTM
 40
0.0
  9
$DIMTXT
 40
0.18
  9
$DIMCEN
 40
0.09
  9
$DIMTSZ
 40
0.0
  9
$DIMTOL
 70
     0
  9
$DIMLIM
 70
     0
  9
$DIMTIH
 70
     1
  9
$DIMTOH
 70
     1
  9
$DIMSE1
 70
     0
  9
$DIMSE2
 70
     0
  9
$DIMTAD
 70
     0
  9
$DIMZIN
 70
     0
  9
$DIMBLK
  1

  9
$DIMASO
 70
     1
  9
$DIMSHO
 70
     1
  9
$DIMPOST
  1

  9
$DIMAPOST
  1

  9
$DIMALT
 70
     0
  9
$DIMALTD
 70
     2
  9
$DIMALTF
 40
25.4
  9
$DIMLFAC
 40
1.0
  9
$DIMTOFL
 70
     0
  9
$DIMTVP
 40
0.0
  9
$DIMTIX
 70
     0
  9
$DIMSOXD
 70
     0
  9
$DIMSAH
 70
     0
  9
$DIMBLK1
  1

  9
$DIMBLK2
  1

  9
$DIMSTYLE
  2
STANDARD
  9
$DIMCLRD
 70
     0
  9
$DIMCLRE
 70
     0
  9
$DIMCLRT
 70
     0
  9
$DIMTFAC
 40
1.0
  9
$DIMGAP
 40
0.09
  9
$DIMJUST
 70
     0
  9
$DIMSD1
 70
     0
  9
$DIMSD2
 70
     0
  9
$DIMTOLJ
 70
     1
  9
$DIMTZIN
 70
     0
  9
$DIMALTZ
 70
     0
  9
$DIMALTTZ
 70
     0
  9
$DIMFIT
 70
     5
  9
$DIMUPT
 70
     0
  9
$DIMUNIT
 70
     2
  9
$DIMDEC
 70
     3
  9
$DIMTDEC
 70
     3
  9
$DIMALTU
 70
     2
  9
$DIMALTTD
 70
     2
  9
$DIMTXSTY
  7
STANDARD
  9
$DIMAUNIT
 70
     0
  9
$LUNITS
 70
     2
  9
$LUPREC
 70
     3
  9
$SKETCHINC
 40
0.1
  9
$FILLETRAD
 40
0.5
  9
$AUNITS
 70
     0
  9
$AUPREC
 70
     0
  9
$MENU
  1
.
  9
$ELEVATION
 40
0.0
  9
$PELEVATION
 40
0.0
  9
$THICKNESS
 40
1.156387
  9
$LIMCHECK
 70
     0
  9
$CHAMFERA
 40
0.0
  9
$CHAMFERB
 40
0.0
  9
$CHAMFERC
 40
0.0
  9
$CHAMFERD
 40
0.0
  9
$SKPOLY
 70
     0
  9
$TDCREATE
 40
2458619.422369213
  9
$TDUPDATE
 40
2459496.654621377
  9
$TDINDWG
 40
0.0010389931
  9
$TDUSRTIMER
 40
2458619.089038287
  9
$USRTIMER
 70
     1
  9
$ANGBASE
 50
0.0
  9
$ANGDIR
 70
     0
  9
$PDMODE
 70
     0
  9
$PDSIZE
 40
0.0
  9
$PLINEWID
 40
0.0
  9
$COORDS
 70
     1
  9
$SPLFRAME
 70
     0
  9
$SPLINETYPE
 70
     6
  9
$SPLINESEGS
 70
     8
  9
$ATTDIA
 70
     0
  9
$ATTREQ
 70
     1
  9
$HANDLING
 70
     1
  9
$HANDSEED
  5
EE0
  9
$SURFTAB1
 70
     6
  9
$SURFTAB2
 70
     6
  9
$SURFTYPE
 70
     6
  9
$SURFU
 70
     6
  9
$SURFV
 70
     6
  9
$UCSNAME
  2

  9
$UCSORG
 10
0.0
 20
0.0
 30
0.0
  9
$UCSXDIR
 10
1.0
 20
0.0
 30
0.0
  9
$UCSYDIR
 10
0.0
 20
1.0
 30
0.0
  9
$PUCSNAME
  2

  9
$PUCSORG
 10
0.0
 20
0.0
 30
0.0
  9
$PUCSXDIR
 10
1.0
 20
0.0
 30
0.0
  9
$PUCSYDIR
 10
0.0
 20
1.0
 30
0.0
  9
$USERI1
 70
     0
  9
$USERI2
 70
     0
  9
$USERI3
 70
     0
  9
$USERI4
 70
     0
  9
$USERI5
 70
     0
  9
$USERR1
 40
0.0
  9
$USERR2
 40
0.0
  9
$USERR3
 40
0.0
  9
$USERR4
 40
0.0
  9
$USERR5
 40
0.0
  9
$WORLDVIEW
 70
     1
  9
$SHADEDGE
 70
     3
  9
$SHADEDIF
 70
    70
  9
$TILEMODE
 70
     1
  9
$MAXACTVP
 70
    64
  9
$PINSBASE
 10
0.0
 20
0.0
 30
0.0
  9
$PLIMCHECK
 70
     0
  9
$PEXTMIN
 10
1.000000000000000E+20
 20
1.000000000000000E+20
 30
1.000000000000000E+20
  9
$PEXTMAX
 10
-1.000000000000000E+20
 20
-1.000000000000000E+20
 30
-1.000000000000000E+20
  9
$PLIMMIN
 10
0.0
 20
0.0
  9
$PLIMMAX
 10
12.0
 20
9.0
  9
$UNITMODE
 70
     0
  9
$VISRETAIN
 70
     1
  9
$PLINEGEN
 70
     0
  9
$PSLTSCALE
 70
     1
  9
$TREEDEPTH
 70
  3020
  9
$PICKSTYLE
 70
     1
  9
$CMLSTYLE
  2
STANDARD
  9
$CMLJUST
 70
     0
  9
$CMLSCALE
 40
1.0
  9
$PROXYGRAPHICS
 70
     1
  9
$MEASUREMENT
 70
     0
  0
ENDSEC
  0
SECTION
  2
CLASSES
  0
CLASS
  1
ACDBDICTIONARYWDFLT
  2
AcDbDictionaryWithDefault
  3
ObjectDBX Classes
 90
        0
280
     0
281
     0
  0
CLASS
  1
SCALE
  2
AcDbScale
  3
ObjectDBX Classes
 90
     1153
280
     0
281
     0
  0
CLASS
  1
VISUALSTYLE
  2
AcDbVisualStyle
  3
ObjectDBX Classes
 90
     4095
280
     0
281
     0
  0
CLASS
  1
MATERIAL
  2
AcDbMaterial
  3
ObjectDBX Classes
 90
     1153
280
     0
281
     0
  0
CLASS
  1
TABLESTYLE
  2
AcDbTableStyle
  3
ObjectDBX Classes
 90
     4095
280
     0
281
     0
  0
CLASS
  1
MLEADERSTYLE
  2
AcDbMLeaderStyle
  3
ACDB_MLEADERSTYLE_CLASS
 90
     4095
280
     0
281
     0
  0
CLASS
  1
DICTIONARYVAR
  2
AcDbDictionaryVar
  3
ObjectDBX Classes
 90
        0
280
     0
281
     0
  0
CLASS
  1
SUN
  2
AcDbSun
  3
SCENEOE
 90
     1153
280
     0
281
     0
  0
CLASS
  1
XRECORD
  2
AcDbXrecord
  3
ObjectDBX Classes
 90
        0
280
     0
281
     0
  0
CLASS
  1
LWPOLYLINE
  2
AcDbPolyline
  3
ObjectDBX Classes
 90
        0
280
     0
281
     1
  0
CLASS
  1
HATCH
  2
AcDbHatch
  3
ObjectDBX Classes
 90
        0
280
     0
281
     1
  0
CLASS
  1
ACDBPLACEHOLDER
  2
AcDbPlaceHolder
  3
ObjectDBX Classes
 90
        0
280
     0
281
     0
  0
CLASS
  1
LAYOUT
  2
AcDbLayout
  3
ObjectDBX Classes
 90
        0
280
     0
281
     0
  0
ENDSEC
  0
SECTION
  2
TABLES
  0
TABLE
  2
VPORT
  5
8
102
{ACAD_XDICTIONARY
360
ED7
102
}
330
0
100
AcDbSymbolTable
 70
     1
  0
VPORT
  5
2D
330
8
100
AcDbSymbolTableRecord
100
AcDbViewportTableRecord
  2
*ACTIVE
 70
     0
 10
0.0
 20
0.0
 11
1.0
 21
1.0
 12
-18.55260277477977
 22
19.53582157916894
 13
0.0
 23
0.0
 14
0.5
 24
0.5
 15
0.5
 25
0.5
 16
0.0
 26
0.0
 36
1.0
 17
0.0
 27
0.0
 37
0.0
 40
104.7737896442413
 41
2.2882096069869
 42
50.0
 43
0.0
 44
0.0
 50
0.0
 51
0.0
 71
    16
 72
   100
 73
     1
 74
     3
 75
     0
 76
     0
 77
     0
 78
     0
  0
ENDTAB
  0
TABLE
  2
LTYPE
  5
5
330
0
100
AcDbSymbolTable
 70
     1
  0
LTYPE
  5
14
330
5
100
AcDbSymbolTableRecord
100
AcDbLinetypeTableRecord
  2
BYBLOCK
 70
     0
  3

 72
    65
 73
     0
 40
0.0
  0
LTYPE
  5
15
330
5
100
AcDbSymbolTableRecord
100
AcDbLinetypeTableRecord
  2
BYLAYER
 70
     0
  3

 72
    65
 73
     0
 40
0.0
  0
LTYPE
  5
16
330
5
100
AcDbSymbolTableRecord
100
AcDbLinetypeTableRecord
  2
CONTINUOUS
 70
     0
  3
Solid Line
 72
    65
 73
     0
 40
0.0
  0
ENDTAB
  0
TABLE
  2
LAYER
  5
2
330
0
100
AcDbSymbolTable
 70
    11
  0
LAYER
  5
10
330
2
100
AcDbSymbolTableRecord
100
AcDbLayerTableRecord
  2
0
 70
     0
 62
     7
  6
CONTINUOUS
  0
LAYER
  5
21
330
2
100
AcDbSymbolTableRecord
100
AcDbLayerTableRecord
  2
BG_SILKSCREEN_TOP
 70
     0
 62
     9
  6
CONTINUOUS
  0
LAYER
  5
22
330
2
100
AcDbSymbolTableRecord
100
AcDbLayerTableRecord
  2
BG_OUTLINE
 70
     0
 62
   254
  6
CONTINUOUS
  0
LAYER
  5
23
330
2
100
AcDbSymbolTableRecord
100
AcDbLayerTableRecord
  2
DF_REVISION_DATA
 70
     0
 62
     9
  6
CONTINUOUS
  0
LAYER
  5
24
330
2
100
AcDbSymbolTableRecord
100
AcDbLayerTableRecord
  2
DF_REVISION_BLOCK
 70
     0
 62
     9
  6
CONTINUOUS
  0
LAYER
  5
25
330
2
100
AcDbSymbolTableRecord
100
AcDbLayerTableRecord
  2
DF_TITLE_DATA
 70
     0
 62
     9
  6
CONTINUOUS
  0
LAYER
  5
26
330
2
100
AcDbSymbolTableRecord
100
AcDbLayerTableRecord
  2
DF_TITLE_BLOCK
 70
     0
 62
     9
  6
CONTINUOUS
  0
LAYER
  5
27
330
2
100
AcDbSymbolTableRecord
100
AcDbLayerTableRecord
  2
DF_OUTLINE
 70
     0
 62
     9
  6
CONTINUOUS
  0
LAYER
  5
28
330
2
100
AcDbSymbolTableRecord
100
AcDbLayerTableRecord
  2
PG_SILKSCREEN_TOP
 70
     0
 62
     9
  6
CONTINUOUS
  0
LAYER
  5
29
330
2
100
AcDbSymbolTableRecord
100
AcDbLayerTableRecord
  2
PIN_TOP
 70
     0
 62
   110
  6
CONTINUOUS
  0
LAYER
  5
2A
330
2
100
AcDbSymbolTableRecord
100
AcDbLayerTableRecord
  2
RD_SILKSCREEN_TOP
 70
     0
 62
   132
  6
CONTINUOUS
  0
ENDTAB
  0
TABLE
  2
STYLE
  5
3
330
0
100
AcDbSymbolTable
 70
     1
  0
STYLE
  5
11
330
3
100
AcDbSymbolTableRecord
100
AcDbTextStyleTableRecord
  2
STANDARD
 70
     0
 40
0.0
 41
1.0
 50
0.0
 71
     0
 42
0.2
  3
txt
  4

  0
ENDTAB
  0
TABLE
  2
VIEW
  5
6
330
0
100
AcDbSymbolTable
 70
     0
  0
ENDTAB
  0
TABLE
  2
UCS
  5
7
330
0
100
AcDbSymbolTable
 70
     0
  0
ENDTAB
  0
TABLE
  2
APPID
  5
9
330
0
100
AcDbSymbolTable
 70
     2
  0
APPID
  5
12
330
9
100
AcDbSymbolTableRecord
100
AcDbRegAppTableRecord
  2
ACAD
 70
     0
  0
APPID
  5
EDF
330
9
100
AcDbSymbolTableRecord
100
AcDbRegAppTableRecord
  2
ACAD_MLEADERVER
 70
     0
  0
ENDTAB
  0
TABLE
  2
DIMSTYLE
  5
A
330
0
100
AcDbSymbolTable
 70
     1
  0
DIMSTYLE
105
2C
330
A
100
AcDbSymbolTableRecord
100
AcDbDimStyleTableRecord
  2
STANDARD
 70
     0
  3

  4

  5

  6

  7

 40
1.0
 41
0.18
 42
0.0625
 43
0.38
 44
0.18
 45
0.0
 46
0.0
 47
0.0
 48
0.0
140
0.18
141
0.09
142
0.0
143
25.4
144
1.0
145
0.0
146
1.0
147
0.09
 71
     0
 72
     0
 73
     1
 74
     1
 75
     0
 76
     0
 77
     0
 78
     0
170
     0
171
     2
172
     0
173
     0
174
     0
175
     0
176
     0
177
     0
178
     0
270
     2
271
     4
272
     4
273
     2
274
     2
340
11
275
     0
280
     0
281
     0
282
     0
283
     1
284
     0
285
     0
286
     0
287
     3
288
     0
  0
ENDTAB
  0
TABLE
  2
BLOCK_RECORD
  5
1
330
0
100
AcDbSymbolTable
 70
     8
  0
BLOCK_RECORD
  5
1D
330
1
100
AcDbSymbolTableRecord
100
AcDbBlockTableRecord
  2
*MODEL_SPACE
  0
BLOCK_RECORD
  5
1B
330
1
100
AcDbSymbolTableRecord
100
AcDbBlockTableRecord
  2
*PAPER_SPACE
  0
BLOCK_RECORD
  5
2F
330
1
100
AcDbSymbolTableRecord
100
AcDbBlockTableRecord
  2
FIGURE_CIRCLE
  0
BLOCK_RECORD
  5
33
330
1
100
AcDbSymbolTableRecord
100
AcDbBlockTableRecord
  2
FIGURE_SQUARE
  0
BLOCK_RECORD
  5
3C
330
1
100
AcDbSymbolTableRecord
100
AcDbBlockTableRecord
  2
FIGURE_HEX
  0
BLOCK_RECORD
  5
47
330
1
100
AcDbSymbolTableRecord
100
AcDbBlockTableRecord
  2
FIGURE_OCT
  0
BLOCK_RECORD
  5
54
330
1
100
AcDbSymbolTableRecord
100
AcDbBlockTableRecord
  2
FIGURE_OBLONG
  0
BLOCK_RECORD
  5
65
330
1
100
AcDbSymbolTableRecord
100
AcDbBlockTableRecord
  2
FIGURE_TRI
  0
BLOCK_RECORD
  5
6D
330
1
100
AcDbSymbolTableRecord
100
AcDbBlockTableRecord
  2
FIGURE_CROSS
  0
BLOCK_RECORD
  5
78
330
1
100
AcDbSymbolTableRecord
100
AcDbBlockTableRecord
  2
FIGURE_DIAMOND
  0
ENDTAB
  0
ENDSEC
  0
SECTION
  2
BLOCKS
  0
BLOCK
  5
E85
330
1D
100
AcDbEntity
  8
0
100
AcDbBlockBegin
  2
*MODEL_SPACE
 70
     0
 10
0.0
 20
0.0
 30
0.0
  3
*MODEL_SPACE
  1

  0
ENDBLK
  5
E86
330
1D
100
AcDbEntity
  8
0
100
AcDbBlockEnd
  0
BLOCK
  5
E87
330
1B
100
AcDbEntity
 67
     1
  8
0
100
AcDbBlockBegin
  2
*PAPER_SPACE
 70
     0
 10
0.0
 20
0.0
 30
0.0
  3
*PAPER_SPACE
  1

  0
ENDBLK
  5
E88
330
1B
100
AcDbEntity
 67
     1
  8
0
100
AcDbBlockEnd
  0
BLOCK
  5
2E
330
2F
100
AcDbEntity
  8
0
100
AcDbBlockBegin
  2
FIGURE_CIRCLE
 70
     0
 10
0.0
 20
0.0
 30
0.0
  3
FIGURE_CIRCLE
  1

  0
CIRCLE
  5
30
330
2F
100
AcDbEntity
  8
0
100
AcDbCircle
 10
0.0
 20
0.0
 30
0.0
 40
0.5
  0
ENDBLK
  5
31
330
2F
100
AcDbEntity
  8
0
100
AcDbBlockEnd
  0
BLOCK
  5
32
330
33
100
AcDbEntity
  8
0
100
AcDbBlockBegin
  2
FIGURE_SQUARE
 70
     0
 10
0.0
 20
0.0
 30
0.0
  3
FIGURE_SQUARE
  1

  0
LWPOLYLINE
  5
34
330
33
100
AcDbEntity
  8
0
100
AcDbPolyline
 90
        4
 70
     1
 43
0.0
 10
-0.5
 20
-0.5
 10
-0.5
 20
0.5
 10
0.5
 20
0.5
 10
0.5
 20
-0.5
  0
ENDBLK
  5
3A
330
33
100
AcDbEntity
  8
0
100
AcDbBlockEnd
  0
BLOCK
  5
3B
330
3C
100
AcDbEntity
  8
0
100
AcDbBlockBegin
  2
FIGURE_HEX
 70
     0
 10
0.0
 20
0.0
 30
0.0
  3
FIGURE_HEX
  1

  0
LWPOLYLINE
  5
3D
330
3C
100
AcDbEntity
  8
0
100
AcDbPolyline
 90
        6
 70
     1
 43
0.0
 10
-0.5
 20
0.0
 10
-0.25
 20
0.5
 10
0.25
 20
0.5
 10
0.5
 20
0.0
 10
0.25
 20
-0.5
 10
-0.25
 20
-0.5
  0
ENDBLK
  5
45
330
3C
100
AcDbEntity
  8
0
100
AcDbBlockEnd
  0
BLOCK
  5
46
330
47
100
AcDbEntity
  8
0
100
AcDbBlockBegin
  2
FIGURE_OCT
 70
     0
 10
0.0
 20
0.0
 30
0.0
  3
FIGURE_OCT
  1

  0
LWPOLYLINE
  5
48
330
47
100
AcDbEntity
  8
0
100
AcDbPolyline
 90
        8
 70
     1
 43
0.0
 10
-0.5
 20
-0.2071
 10
-0.5
 20
0.2071
 10
-0.2071
 20
0.5
 10
0.2071
 20
0.5
 10
0.5
 20
0.2071
 10
0.5
 20
-0.2071
 10
0.2071
 20
-0.5
 10
-0.2071
 20
-0.5
  0
ENDBLK
  5
52
330
47
100
AcDbEntity
  8
0
100
AcDbBlockEnd
  0
BLOCK
  5
53
330
54
100
AcDbEntity
  8
0
100
AcDbBlockBegin
  2
FIGURE_OBLONG
 70
     0
 10
0.0
 20
0.0
 30
0.0
  3
FIGURE_OBLONG
  1

  0
LWPOLYLINE
  5
55
330
54
100
AcDbEntity
  8
0
100
AcDbPolyline
 90
       12
 70
     1
 43
0.0
 10
-0.5
 20
-0.125
 10
-0.5
 20
0.125
 10
-0.416
 20
0.375
 10
-0.25
 20
0.5
 10
0.25
 20
0.5
 10
0.416
 20
0.375
 10
0.5
 20
0.125
 10
0.5
 20
-0.125
 10
0.416
 20
-0.375
 10
0.25
 20
-0.5
 10
-0.25
 20
-0.5
 10
-0.416
 20
-0.375
  0
ENDBLK
  5
63
330
54
100
AcDbEntity
  8
0
100
AcDbBlockEnd
  0
BLOCK
  5
64
330
65
100
AcDbEntity
  8
0
100
AcDbBlockBegin
  2
FIGURE_TRI
 70
     0
 10
0.0
 20
0.0
 30
0.0
  3
FIGURE_TRI
  1

  0
LWPOLYLINE
  5
66
330
65
100
AcDbEntity
  8
0
100
AcDbPolyline
 90
        3
 70
     1
 43
0.0
 10
-0.5
 20
-0.5
 10
0.0
 20
0.5
 10
0.5
 20
-0.5
  0
ENDBLK
  5
6B
330
65
100
AcDbEntity
  8
0
100
AcDbBlockEnd
  0
BLOCK
  5
6C
330
6D
100
AcDbEntity
  8
0
100
AcDbBlockBegin
  2
FIGURE_CROSS
 70
     0
 10
0.0
 20
0.0
 30
0.0
  3
FIGURE_CROSS
  1

  0
LWPOLYLINE
  5
6E
330
6D
100
AcDbEntity
  8
0
100
AcDbPolyline
 90
        2
 70
     0
 43
0.0
 10
-0.5
 20
0.0
 10
0.5
 20
0.0
  0
LWPOLYLINE
  5
72
330
6D
100
AcDbEntity
  8
0
100
AcDbPolyline
 90
        2
 70
     0
 43
0.0
 10
0.0
 20
0.5
 10
0.0
 20
-0.5
  0
ENDBLK
  5
76
330
6D
100
AcDbEntity
  8
0
100
AcDbBlockEnd
  0
BLOCK
  5
77
330
78
100
AcDbEntity
  8
0
100
AcDbBlockBegin
  2
FIGURE_DIAMOND
 70
     0
 10
0.0
 20
0.0
 30
0.0
  3
FIGURE_DIAMOND
  1

  0
LWPOLYLINE
  5
79
330
78
100
AcDbEntity
  8
0
100
AcDbPolyline
 90
        4
 70
     1
 43
0.0
 10
-0.5
 20
0.0
 10
0.0
 20
0.5
 10
0.5
 20
0.0
 10
0.0
 20
-0.5
  0
ENDBLK
  5
7F
330
78
100
AcDbEntity
  8
0
100
AcDbBlockEnd
  0
ENDSEC
  0
SECTION
  2
ENTITIES
  0
LWPOLYLINE
  5
80
330
1D
100
AcDbEntity
  8
PIN_TOP
100
AcDbPolyline
 90
        4
 70
     1
 43
0.0
 10
19.37004
 20
5.48132
 10
20.89404
 20
5.48132
 10
20.89404
 20
3.95732
 10
19.37004
 20
3.95732
  0
CIRCLE
  5
86
330
1D
100
AcDbEntity
  8
PIN_TOP
100
AcDbCircle
 10
20.13204
 20
2.17932
 30
0.0
 40
0.762
  0
LWPOLYLINE
  5
87
330
1D
100
AcDbEntity
  8
PG_SILKSCREEN_TOP
100
AcDbPolyline
 90
        4
 70
     0
 43
0.1524
 10
19.62404
 20
3.44932
 10
18.86204
 20
4.21132
 10
18.86204
 20
5.22732
 10
19.62404
 20
5.98932
  0
LWPOLYLINE
  5
8D
330
1D
100
AcDbEntity
  8
PG_SILKSCREEN_TOP
100
AcDbPolyline
 90
        6
 70
     0
 43
0.1524
 10
19.62404
 20
3.44932
 10
20.64004
 20
3.44932
 10
21.40204
 20
4.21132
 10
21.40204
 20
5.22732
 10
20.64004
 20
5.98932
 10
19.62404
 20
5.98932
  0
LWPOLYLINE
  5
95
330
1D
100
AcDbEntity
  8
PG_SILKSCREEN_TOP
100
AcDbPolyline
 90
        6
 70
     0
 43
0.1524
 10
19.62404
 20
0.90932
 10
20.64004
 20
0.90932
 10
21.40204
 20
1.67132
 10
21.40204
 20
2.68732
 10
20.64004
 20
3.44932
 10
19.62404
 20
3.44932
  0
LWPOLYLINE
  5
9D
330
1D
100
AcDbEntity
  8
PG_SILKSCREEN_TOP
100
AcDbPolyline
 90
        4
 70
     0
 43
0.1524
 10
19.62404
 20
0.90932
 10
18.86204
 20
1.67132
 10
18.86204
 20
2.68732
 10
19.62404
 20
3.44932
  0
LWPOLYLINE
  5
A3
330
1D
100
AcDbEntity
  8
PG_SILKSCREEN_TOP
100
AcDbPolyline
 90
        5
 70
     0
 43
0.254
 10
21.40204
 20
5.98932
 10
21.40204
 20
3.44932
 10
18.86204
 20
3.44932
 10
18.86204
 20
5.98932
 10
21.40204
 20
5.98932
  0
TEXT
  5
AA
330
1D
100
AcDbEntity
  8
RD_SILKSCREEN_TOP
100
AcDbText
 10
22.63648
 20
2.94132
 30
0.0
 40
0.7874
  1
J1
 50
90.0
 41
0.935484
100
AcDbText
  0
LWPOLYLINE
  5
AB
330
1D
100
AcDbEntity
  8
PIN_TOP
100
AcDbPolyline
 90
        4
 70
     1
 43
0.0
 10
54.589426
 20
45.949768
 10
54.589426
 20
47.448368
 10
56.088026
 20
47.448368
 10
56.088026
 20
45.949768
  0
CIRCLE
  5
B1
330
1D
100
AcDbEntity
  8
PIN_TOP
100
AcDbCircle
 10
57.338722
 20
46.699068
 30
0.0
 40
0.7493
  0
CIRCLE
  5
B2
330
1D
100
AcDbEntity
  8
PIN_TOP
100
AcDbCircle
 10
59.338718
 20
46.699068
 30
0.0
 40
0.7493
  0
CIRCLE
  5
B3
330
1D
100
AcDbEntity
  8
PIN_TOP
100
AcDbCircle
 10
61.338714
 20
46.699068
 30
0.0
 40
0.7493
  0
LWPOLYLINE
  5
B4
330
1D
100
AcDbEntity
  8
PG_SILKSCREEN_TOP
100
AcDbPolyline
 90
        5
 70
     0
 43
0.2
 10
53.388717
 20
44.999072
 10
63.288723
 20
44.999072
 10
63.288723
 20
49.499088
 10
53.388717
 20
49.499088
 10
53.388717
 20
44.999072
  0
LWPOLYLINE
  5
BB
330
1D
100
AcDbEntity
  8
PG_SILKSCREEN_TOP
100
AcDbPolyline
 90
        4
 70
     0
 43
0.2
 10
55.238726
 20
45.049084
 10
55.238726
 20
45.449084
 10
56.238724
 20
45.449084
 10
56.238724
 20
45.049084
  0
LWPOLYLINE
  5
C1
330
1D
100
AcDbEntity
  8
PG_SILKSCREEN_TOP
100
AcDbPolyline
 90
        4
 70
     0
 43
0.2
 10
60.438716
 20
45.049084
 10
60.438716
 20
45.449084
 10
61.438714
 20
45.449084
 10
61.438714
 20
45.049084
  0
TEXT
  5
C7
330
1D
100
AcDbEntity
  8
RD_SILKSCREEN_TOP
100
AcDbText
 10
57.06618
 20
43.88866
 30
0.0
 40
0.7874
  1
USB2
 41
0.935484
100
AcDbText
  0
LWPOLYLINE
  5
C8
330
1D
100
AcDbEntity
  8
PIN_TOP
100
AcDbPolyline
 90
        4
 70
     1
 43
0.0
 10
44.327826
 20
45.931988
 10
44.327826
 20
47.430588
 10
45.826426
 20
47.430588
 10
45.826426
 20
45.931988
  0
CIRCLE
  5
CE
330
1D
100
AcDbEntity
  8
PIN_TOP
100
AcDbCircle
 10
47.077122
 20
46.681288
 30
0.0
 40
0.7493
  0
CIRCLE
  5
CF
330
1D
100
AcDbEntity
  8
PIN_TOP
100
AcDbCircle
 10
49.077118
 20
46.681288
 30
0.0
 40
0.7493
  0
CIRCLE
  5
D0
330
1D
100
AcDbEntity
  8
PIN_TOP
100
AcDbCircle
 10
51.077114
 20
46.681288
 30
0.0
 40
0.7493
  0
LWPOLYLINE
  5
D1
330
1D
100
AcDbEntity
  8
PG_SILKSCREEN_TOP
100
AcDbPolyline
 90
        5
 70
     0
 43
0.2
 10
43.127117
 20
44.981292
 10
53.027123
 20
44.981292
 10
53.027123
 20
49.481308
 10
43.127117
 20
49.481308
 10
43.127117
 20
44.981292
  0
LWPOLYLINE
  5
D8
330
1D
100
AcDbEntity
  8
PG_SILKSCREEN_TOP
100
AcDbPolyline
 90
        4
 70
     0
 43
0.2
 10
44.977126
 20
45.031304
 10
44.977126
 20
45.431304
 10
45.977124
 20
45.431304
 10
45.977124
 20
45.031304
  0
LWPOLYLINE
  5
DE
330
1D
100
AcDbEntity
  8
PG_SILKSCREEN_TOP
100
AcDbPolyline
 90
        4
 70
     0
 43
0.2
 10
50.177116
 20
45.031304
 10
50.177116
 20
45.431304
 10
51.177114
 20
45.431304
 10
51.177114
 20
45.031304
  0
TEXT
  5
E4
330
1D
100
AcDbEntity
  8
RD_SILKSCREEN_TOP
100
AcDbText
 10
46.92142
 20
43.8658
 30
0.0
 40
0.7874
  1
USB1
 41
0.935484
100
AcDbText
  0
CIRCLE
  5
E5
330
1D
100
AcDbEntity
  8
PIN_TOP
100
AcDbCircle
 10
27.609038
 20
4.517898
 30
0.0
 40
0.7493
  0
CIRCLE
  5
E6
330
1D
100
AcDbEntity
  8
PIN_TOP
100
AcDbCircle
 10
25.609042
 20
4.517898
 30
0.0
 40
0.7493
  0
LWPOLYLINE
  5
E7
330
1D
100
AcDbEntity
  8
PG_SILKSCREEN_TOP
100
AcDbPolyline
 90
        5
 70
     0
 43
0.2
 10
23.556747
 20
6.042889
 10
23.556747
 20
1.042899
 10
29.550131
 20
1.042899
 10
29.550131
 20
6.042889
 10
23.556747
 20
6.042889
  0
TEXT
  5
EE
330
1D
100
AcDbEntity
  8
RD_SILKSCREEN_TOP
100
AcDbText
 10
30.6324
 20
3.5306
 30
0.0
 40
0.7874
  1
FAN
 50
90.0
 41
0.935484
100
AcDbText
  0
LWPOLYLINE
  5
EF
330
1D
100
AcDbEntity
  8
PIN_TOP
100
AcDbPolyline
 90
        4
 70
     1
 43
0.0
 10
28.17114
 20
7.76224
 10
27.25674
 20
7.76224
 10
27.25674
 20
8.67664
 10
28.17114
 20
8.67664
  0
LWPOLYLINE
  5
F5
330
1D
100
AcDbEntity
  8
PIN_TOP
100
AcDbPolyline
 90
        4
 70
     1
 43
0.0
 10
30.45714
 20
8.71474
 10
29.54274
 20
8.71474
 10
29.54274
 20
9.62914
 10
30.45714
 20
9.62914
  0
LWPOLYLINE
  5
FB
330
1D
100
AcDbEntity
  8
PIN_TOP
100
AcDbPolyline
 90
        4
 70
     1
 43
0.0
 10
30.45714
 20
6.80974
 10
29.54274
 20
6.80974
 10
29.54274
 20
7.72414
 10
30.45714
 20
7.72414
  0
LWPOLYLINE
  5
101
330
1D
100
AcDbEntity
  8
PG_SILKSCREEN_TOP
100
AcDbPolyline
 90
        4
 70
     1
 43
0.0
 10
28.34894
 20
6.82244
 10
29.33954
 20
6.82244
 10
29.33954
 20
9.51484
 10
28.34894
 20
9.51484
  0
TEXT
  5
107
330
1D
100
AcDbEntity
  8
RD_SILKSCREEN_TOP
100
AcDbText
 10
45.1612
 20
12.9667
 30
0.0
 40
0.7874
  1
Q1
 50
90.0
 41
0.935484
100
AcDbText
  0
LWPOLYLINE
  5
108
330
1D
100
AcDbEntity
  8
PIN_TOP
100
AcDbPolyline
 90
        4
 70
     1
 43
0.0
 10
25.31618
 20
16.95958
 10
25.31618
 20
17.87398
 10
26.23058
 20
17.87398
 10
26.23058
 20
16.95958
  0
LWPOLYLINE
  5
10E
330
1D
100
AcDbEntity
  8
PIN_TOP
100
AcDbPolyline
 90
        4
 70
     1
 43
0.0
 10
26.26868
 20
14.67358
 10
26.26868
 20
15.58798
 10
27.18308
 20
15.58798
 10
27.18308
 20
14.67358
  0
LWPOLYLINE
  5
114
330
1D
100
AcDbEntity
  8
PIN_TOP
100
AcDbPolyline
 90
        4
 70
     1
 43
0.0
 10
24.36368
 20
14.67358
 10
24.36368
 20
15.58798
 10
25.27808
 20
15.58798
 10
25.27808
 20
14.67358
  0
LWPOLYLINE
  5
11A
330
1D
100
AcDbEntity
  8
PG_SILKSCREEN_TOP
100
AcDbPolyline
 90
        4
 70
     1
 43
0.0
 10
24.37638
 20
16.78178
 10
24.37638
 20
15.79118
 10
27.06878
 20
15.79118
 10
27.06878
 20
16.78178
  0
TEXT
  5
120
330
1D
100
AcDbEntity
  8
RD_SILKSCREEN_TOP
100
AcDbText
 10
42.94632
 20
20.447
 30
0.0
 40
0.7874
  1
Q52
 41
0.935484
100
AcDbText
  0
LWPOLYLINE
  5
121
330
1D
100
AcDbEntity
  8
PIN_TOP
100
AcDbPolyline
 90
        4
 70
     1
 43
0.0
 10
21.84908
 20
16.95958
 10
21.84908
 20
17.87398
 10
22.76348
 20
17.87398
 10
22.76348
 20
16.95958
  0
LWPOLYLINE
  5
127
330
1D
100
AcDbEntity
  8
PIN_TOP
100
AcDbPolyline
 90
        4
 70
     1
 43
0.0
 10
22.80158
 20
14.67358
 10
22.80158
 20
15.58798
 10
23.71598
 20
15.58798
 10
23.71598
 20
14.67358
  0
LWPOLYLINE
  5
12D
330
1D
100
AcDbEntity
  8
PIN_TOP
100
AcDbPolyline
 90
        4
 70
     1
 43
0.0
 10
20.89658
 20
14.67358
 10
20.89658
 20
15.58798
 10
21.81098
 20
15.58798
 10
21.81098
 20
14.67358
  0
LWPOLYLINE
  5
133
330
1D
100
AcDbEntity
  8
PG_SILKSCREEN_TOP
100
AcDbPolyline
 90
        4
 70
     1
 43
0.0
 10
20.90928
 20
16.78178
 10
20.90928
 20
15.79118
 10
23.60168
 20
15.79118
 10
23.60168
 20
16.78178
  0
TEXT
  5
139
330
1D
100
AcDbEntity
  8
RD_SILKSCREEN_TOP
100
AcDbText
 10
40.28186
 20
20.40128
 30
0.0
 40
0.7874
  1
Q51
 41
0.935484
100
AcDbText
  0
CIRCLE
  5
13A
330
1D
100
AcDbEntity
  8
PIN_TOP
100
AcDbCircle
 10
34.483472
 20
7.880147
 30
0.0
 40
1.2192
  0
CIRCLE
  5
13B
330
1D
100
AcDbEntity
  8
PIN_TOP
100
AcDbCircle
 10
38.683463
 20
7.880147
 30
0.0
 40
1.2192
  0
LWPOLYLINE
  5
13C
330
1D
100
AcDbEntity
  8
PIN_TOP
100
AcDbPolyline
 90
        4
 70
     1
 43
0.0
 10
37.464263
 20
1.160932
 10
37.464263
 20
3.599332
 10
39.902663
 20
3.599332
 10
39.902663
 20
1.160932
  0
CIRCLE
  5
142
330
1D
100
AcDbEntity
  8
PIN_TOP
100
AcDbCircle
 10
34.483472
 20
2.380132
 30
0.0
 40
1.2192
  0
LWPOLYLINE
  5
143
330
1D
100
AcDbEntity
  8
PG_SILKSCREEN_TOP
100
AcDbPolyline
 90
       12
 70
     0
 43
0.2
 10
31.77347
 20
6.520129
 10
31.77347
 20
0.13015
 10
41.37345
 20
0.13015
 10
41.37345
 20
1.930146
 42
0.41422
 10
41.77345
 20
2.330145
 10
41.77345
 20
2.37015
 42
0.414207
 10
41.413455
 20
2.730144
 10
41.37345
 20
2.730144
 10
41.37345
 20
9.720148
 10
41.363468
 20
9.73013
 10
31.77347
 20
9.73013
 10
31.77347
 20
6.520129
  0
LWPOLYLINE
  5
151
330
1D
100
AcDbEntity
  8
PG_SILKSCREEN_TOP
100
AcDbPolyline
 90
        4
 70
     0
 43
0.2
 10
34.873463
 20
9.740138
 10
34.873463
 20
11.130128
 10
38.273457
 20
11.130128
 10
38.273457
 20
9.740138
  0
LWPOLYLINE
  5
157
330
1D
100
AcDbEntity
  8
PG_SILKSCREEN_TOP
100
AcDbPolyline
 90
        5
 70
     0
 43
0.2
 10
32.693458
 20
8.830132
 10
36.273461
 20
8.830132
 10
36.273461
 20
5.240147
 10
32.693458
 20
5.240147
 10
32.693458
 20
8.830132
  0
LWPOLYLINE
  5
15E
330
1D
100
AcDbEntity
  8
PG_SILKSCREEN_TOP
100
AcDbPolyline
 90
        7
 70
     0
 43
0.2
 10
36.873459
 20
8.830132
 10
40.473452
 20
8.830132
 10
40.473452
 20
6.130138
 10
39.573454
 20
5.230139
 10
37.773458
 20
5.230139
 10
36.873459
 20
6.130138
 10
36.873459
 20
8.830132
  0
LWPOLYLINE
  5
167
330
1D
100
AcDbEntity
  8
PG_SILKSCREEN_TOP
100
AcDbPolyline
 90
        5
 70
     0
 43
0.2
 10
36.873459
 20
4.640148
 10
40.473452
 20
4.640148
 10
40.473452
 20
1.030148
 10
36.873459
 20
1.030148
 10
36.873459
 20
4.640148
  0
LWPOLYLINE
  5
16E
330
1D
100
AcDbEntity
  8
PG_SILKSCREEN_TOP
100
AcDbPolyline
 90
        7
 70
     0
 43
0.2
 10
32.68345
 20
4.630141
 10
36.273461
 20
4.630141
 10
36.273461
 20
1.930146
 10
35.373462
 20
1.030148
 10
33.573466
 20
1.030148
 10
32.68345
 20
1.920138
 10
32.68345
 20
4.630141
  0
TEXT
  5
177
330
1D
100
AcDbEntity
  8
RD_SILKSCREEN_TOP
100
AcDbText
 10
38.86454
 20
10.34796
 30
0.0
 40
0.7874
  1
CON1
 41
0.935484
100
AcDbText
  0
CIRCLE
  5
178
330
1D
100
AcDbEntity
  8
PIN_TOP
100
AcDbCircle
 10
33.7058
 20
16.764
 30
0.0
 40
3.0988
  0
CIRCLE
  5
179
330
1D
100
AcDbEntity
  8
PIN_TOP
100
AcDbCircle
 10
55.7149
 20
40.74922
 30
0.0
 40
3.0988
  0
LWPOLYLINE
  5
17A
330
1D
100
AcDbEntity
  8
PIN_TOP
100
AcDbPolyline
 90
        4
 70
     1
 43
0.0
 10
23.09876
 20
22.1996
 10
20.30476
 20
22.1996
 10
20.30476
 20
24.9936
 10
23.09876
 20
24.9936
  0
CIRCLE
  5
180
330
1D
100
AcDbEntity
  8
PIN_TOP
100
AcDbCircle
 10
21.70176
 20
28.6766
 30
0.0
 40
1.397
  0
CIRCLE
  5
181
330
1D
100
AcDbEntity
  8
PIN_TOP
100
AcDbCircle
 10
21.70176
 20
33.7566
 30
0.0
 40
1.397
  0
CIRCLE
  5
182
330
1D
100
AcDbEntity
  8
PIN_TOP
100
AcDbCircle
 10
21.70176
 20
38.8366
 30
0.0
 40
1.397
  0
LWPOLYLINE
  5
183
330
1D
100
AcDbEntity
  8
PG_SILKSCREEN_TOP
100
AcDbPolyline
 90
        8
 70
     0
 43
0.2
 10
17.701768
 20
19.216599
 10
17.701768
 20
43.7166
 10
23.701756
 20
43.7166
 10
25.701752
 20
41.716604
 10
25.701752
 20
21.216595
 10
23.201757
 20
18.7166
 10
17.701768
 20
18.7166
 10
17.701768
 20
19.216599
  0
LWPOLYLINE
  5
18D
330
1D
100
AcDbEntity
  8
PG_SILKSCREEN_TOP
100
AcDbPolyline
 90
        7
 70
     0
 43
0.2
 10
18.201767
 20
43.216601
 10
18.201767
 20
19.216599
 10
23.001757
 20
19.216599
 10
25.201753
 20
21.416594
 10
25.201753
 20
41.516605
 10
23.501756
 20
43.216601
 10
23.201757
 20
43.216601
  0
LWPOLYLINE
  5
196
330
1D
100
AcDbEntity
  8
PG_SILKSCREEN_TOP
100
AcDbPolyline
 90
        2
 70
     0
 43
0.2
 10
23.201757
 20
43.216601
 10
18.201767
 20
43.216601
  0
TEXT
  5
19A
330
1D
100
AcDbEntity
  8
RD_SILKSCREEN_TOP
100
AcDbText
 10
27.41168
 20
25.30094
 30
0.0
 40
0.7874
  1
SATA-PWR
 50
90.0
 41
0.935484
100
AcDbText
  0
LWPOLYLINE
  5
19B
330
1D
100
AcDbEntity
  8
PIN_TOP
100
AcDbPolyline
 90
        4
 70
     1
 43
0.0
 10
19.668922
 20
8.006309
 10
20.557922
 20
8.006309
 10
20.557922
 20
7.396709
 10
19.668922
 20
7.396709
  0
LWPOLYLINE
  5
1A1
330
1D
100
AcDbEntity
  8
PIN_TOP
100
AcDbPolyline
 90
        4
 70
     1
 43
0.0
 10
21.468918
 20
8.65632
 10
22.357918
 20
8.65632
 10
22.357918
 20
8.04672
 10
21.468918
 20
8.04672
  0
LWPOLYLINE
  5
1A7
330
1D
100
AcDbEntity
  8
PIN_TOP
100
AcDbPolyline
 90
        4
 70
     1
 43
0.0
 10
19.668922
 20
9.306331
 10
20.557922
 20
9.306331
 10
20.557922
 20
8.696731
 10
19.668922
 20
8.696731
  0
LWPOLYLINE
  5
1AD
330
1D
100
AcDbEntity
  8
PG_SILKSCREEN_TOP
100
AcDbPolyline
 90
        5
 70
     0
 43
0.1524
 10
22.66442
 20
9.49452
 10
19.36242
 20
9.49452
 10
19.36242
 20
7.20852
 10
22.66442
 20
7.20852
 10
22.66442
 20
9.49452
  0
TEXT
  5
1B4
330
1D
100
AcDbEntity
  8
RD_SILKSCREEN_TOP
100
AcDbText
 10
39.40556
 20
14.6177
 30
0.0
 40
0.7874
  1
Q41
 50
270.0
 41
0.935484
100
AcDbText
  0
LWPOLYLINE
  5
1B5
330
1D
100
AcDbEntity
  8
PIN_TOP
100
AcDbPolyline
 90
        4
 70
     1
 43
0.0
 10
19.623811
 20
14.957222
 10
19.623811
 20
15.846222
 10
20.233411
 20
15.846222
 10
20.233411
 20
14.957222
  0
LWPOLYLINE
  5
1BB
330
1D
100
AcDbEntity
  8
PIN_TOP
100
AcDbPolyline
 90
        4
 70
     1
 43
0.0
 10
18.9738
 20
16.757218
 10
18.9738
 20
17.646218
 10
19.5834
 20
17.646218
 10
19.5834
 20
16.757218
  0
LWPOLYLINE
  5
1C1
330
1D
100
AcDbEntity
  8
PIN_TOP
100
AcDbPolyline
 90
        4
 70
     1
 43
0.0
 10
18.323789
 20
14.957222
 10
18.323789
 20
15.846222
 10
18.933389
 20
15.846222
 10
18.933389
 20
14.957222
  0
LWPOLYLINE
  5
1C7
330
1D
100
AcDbEntity
  8
PG_SILKSCREEN_TOP
100
AcDbPolyline
 90
        5
 70
     0
 43
0.1524
 10
18.1356
 20
17.95272
 10
18.1356
 20
14.65072
 10
20.4216
 20
14.65072
 10
20.4216
 20
17.95272
 10
18.1356
 20
17.95272
  0
TEXT
  5
1CE
330
1D
100
AcDbEntity
  8
RD_SILKSCREEN_TOP
100
AcDbText
 10
36.83508
 20
20.42414
 30
0.0
 40
0.7874
  1
Q48
 41
0.935484
100
AcDbText
  0
LWPOLYLINE
  5
1CF
330
1D
100
AcDbEntity
  8
PIN_TOP
100
AcDbPolyline
 90
        4
 70
     1
 43
0.0
 10
64.52108
 20
13.97
 10
63.60668
 20
13.97
 10
63.60668
 20
14.8844
 10
64.52108
 20
14.8844
  0
LWPOLYLINE
  5
1D5
330
1D
100
AcDbEntity
  8
PIN_TOP
100
AcDbPolyline
 90
        4
 70
     1
 43
0.0
 10
64.52108
 20
15.494
 10
63.60668
 20
15.494
 10
63.60668
 20
16.4084
 10
64.52108
 20
16.4084
  0
LWPOLYLINE
  5
1DB
330
1D
100
AcDbEntity
  8
PG_SILKSCREEN_TOP
100
AcDbPolyline
 90
        5
 70
     0
 43
0.1524
 10
63.80988
 20
15.0622
 10
64.44488
 20
15.0622
 10
64.06388
 20
15.3162
 10
63.68288
 20
15.0622
 10
63.80988
 20
15.0622
  0
LWPOLYLINE
  5
1E2
330
1D
100
AcDbEntity
  8
PG_SILKSCREEN_TOP
100
AcDbPolyline
 90
        5
 70
     0
 43
0.1524
 10
63.42888
 20
13.7922
 10
63.42888
 20
16.5862
 10
64.69888
 20
16.5862
 10
64.69888
 20
13.7922
 10
63.42888
 20
13.7922
  0
TEXT
  5
1E9
330
1D
100
AcDbEntity
  8
RD_SILKSCREEN_TOP
100
AcDbText
 10
64.46266
 20
11.53414
 30
0.0
 40
0.7874
  1
PWR
 50
90.0
 41
0.935484
100
AcDbText
  0
LWPOLYLINE
  5
1EA
330
1D
100
AcDbEntity
  8
PIN_TOP
100
AcDbPolyline
 90
        4
 70
     1
 43
0.0
 10
64.48044
 20
21.11248
 10
63.56604
 20
21.11248
 10
63.56604
 20
22.02688
 10
64.48044
 20
22.02688
  0
LWPOLYLINE
  5
1F0
330
1D
100
AcDbEntity
  8
PIN_TOP
100
AcDbPolyline
 90
        4
 70
     1
 43
0.0
 10
64.48044
 20
22.63648
 10
63.56604
 20
22.63648
 10
63.56604
 20
23.55088
 10
64.48044
 20
23.55088
  0
LWPOLYLINE
  5
1F6
330
1D
100
AcDbEntity
  8
PG_SILKSCREEN_TOP
100
AcDbPolyline
 90
        5
 70
     0
 43
0.1524
 10
63.76924
 20
22.20468
 10
64.40424
 20
22.20468
 10
64.02324
 20
22.45868
 10
63.64224
 20
22.20468
 10
63.76924
 20
22.20468
  0
LWPOLYLINE
  5
1FD
330
1D
100
AcDbEntity
  8
PG_SILKSCREEN_TOP
100
AcDbPolyline
 90
        5
 70
     0
 43
0.1524
 10
63.38824
 20
20.93468
 10
63.38824
 20
23.72868
 10
64.65824
 20
23.72868
 10
64.65824
 20
20.93468
 10
63.38824
 20
20.93468
  0
TEXT
  5
204
330
1D
100
AcDbEntity
  8
RD_SILKSCREEN_TOP
100
AcDbText
 10
64.42202
 20
18.75282
 30
0.0
 40
0.7874
  1
HD1
 50
90.0
 41
0.935484
100
AcDbText
  0
LWPOLYLINE
  5
205
330
1D
100
AcDbEntity
  8
PIN_TOP
100
AcDbPolyline
 90
        4
 70
     1
 43
0.0
 10
64.56172
 20
27.69108
 10
63.64732
 20
27.69108
 10
63.64732
 20
28.60548
 10
64.56172
 20
28.60548
  0
LWPOLYLINE
  5
20B
330
1D
100
AcDbEntity
  8
PIN_TOP
100
AcDbPolyline
 90
        4
 70
     1
 43
0.0
 10
64.56172
 20
29.21508
 10
63.64732
 20
29.21508
 10
63.64732
 20
30.12948
 10
64.56172
 20
30.12948
  0
LWPOLYLINE
  5
211
330
1D
100
AcDbEntity
  8
PG_SILKSCREEN_TOP
100
AcDbPolyline
 90
        5
 70
     0
 43
0.1524
 10
63.85052
 20
28.78328
 10
64.48552
 20
28.78328
 10
64.10452
 20
29.03728
 10
63.72352
 20
28.78328
 10
63.85052
 20
28.78328
  0
LWPOLYLINE
  5
218
330
1D
100
AcDbEntity
  8
PG_SILKSCREEN_TOP
100
AcDbPolyline
 90
        5
 70
     0
 43
0.1524
 10
63.46952
 20
27.51328
 10
63.46952
 20
30.30728
 10
64.73952
 20
30.30728
 10
64.73952
 20
27.51328
 10
63.46952
 20
27.51328
  0
TEXT
  5
21F
330
1D
100
AcDbEntity
  8
RD_SILKSCREEN_TOP
100
AcDbText
 10
64.42202
 20
25.2857
 30
0.0
 40
0.7874
  1
HD2
 50
90.0
 41
0.935484
100
AcDbText
  0
LWPOLYLINE
  5
220
330
1D
100
AcDbEntity
  8
PIN_TOP
100
AcDbPolyline
 90
        4
 70
     1
 43
0.0
 10
64.52108
 20
34.10712
 10
63.60668
 20
34.10712
 10
63.60668
 20
35.02152
 10
64.52108
 20
35.02152
  0
LWPOLYLINE
  5
226
330
1D
100
AcDbEntity
  8
PIN_TOP
100
AcDbPolyline
 90
        4
 70
     1
 43
0.0
 10
64.52108
 20
35.63112
 10
63.60668
 20
35.63112
 10
63.60668
 20
36.54552
 10
64.52108
 20
36.54552
  0
LWPOLYLINE
  5
22C
330
1D
100
AcDbEntity
  8
PG_SILKSCREEN_TOP
100
AcDbPolyline
 90
        5
 70
     0
 43
0.1524
 10
63.80988
 20
35.19932
 10
64.44488
 20
35.19932
 10
64.06388
 20
35.45332
 10
63.68288
 20
35.19932
 10
63.80988
 20
35.19932
  0
LWPOLYLINE
  5
233
330
1D
100
AcDbEntity
  8
PG_SILKSCREEN_TOP
100
AcDbPolyline
 90
        5
 70
     0
 43
0.1524
 10
63.42888
 20
33.92932
 10
63.42888
 20
36.72332
 10
64.69888
 20
36.72332
 10
64.69888
 20
33.92932
 10
63.42888
 20
33.92932
  0
TEXT
  5
23A
330
1D
100
AcDbEntity
  8
RD_SILKSCREEN_TOP
100
AcDbText
 10
64.44234
 20
31.66364
 30
0.0
 40
0.7874
  1
HD3
 50
90.0
 41
0.935484
100
AcDbText
  0
LWPOLYLINE
  5
23B
330
1D
100
AcDbEntity
  8
PIN_TOP
100
AcDbPolyline
 90
        4
 70
     1
 43
0.0
 10
64.56172
 20
40.52316
 10
63.64732
 20
40.52316
 10
63.64732
 20
41.43756
 10
64.56172
 20
41.43756
  0
LWPOLYLINE
  5
241
330
1D
100
AcDbEntity
  8
PIN_TOP
100
AcDbPolyline
 90
        4
 70
     1
 43
0.0
 10
64.56172
 20
42.04716
 10
63.64732
 20
42.04716
 10
63.64732
 20
42.96156
 10
64.56172
 20
42.96156
  0
LWPOLYLINE
  5
247
330
1D
100
AcDbEntity
  8
PG_SILKSCREEN_TOP
100
AcDbPolyline
 90
        5
 70
     0
 43
0.1524
 10
63.85052
 20
41.61536
 10
64.48552
 20
41.61536
 10
64.10452
 20
41.86936
 10
63.72352
 20
41.61536
 10
63.85052
 20
41.61536
  0
LWPOLYLINE
  5
24E
330
1D
100
AcDbEntity
  8
PG_SILKSCREEN_TOP
100
AcDbPolyline
 90
        5
 70
     0
 43
0.1524
 10
63.46952
 20
40.34536
 10
63.46952
 20
43.13936
 10
64.73952
 20
43.13936
 10
64.73952
 20
40.34536
 10
63.46952
 20
40.34536
  0
TEXT
  5
255
330
1D
100
AcDbEntity
  8
RD_SILKSCREEN_TOP
100
AcDbText
 10
64.48044
 20
38.11778
 30
0.0
 40
0.7874
  1
HD4
 50
90.0
 41
0.935484
100
AcDbText
  0
LWPOLYLINE
  5
256
330
1D
100
AcDbEntity
  8
PIN_TOP
100
AcDbPolyline
 90
        4
 70
     1
 43
0.0
 10
54.88686
 20
34.6075
 10
55.77586
 20
34.6075
 10
55.77586
 20
33.0835
 10
54.88686
 20
33.0835
  0
LWPOLYLINE
  5
25C
330
1D
100
AcDbEntity
  8
PIN_TOP
100
AcDbPolyline
 90
        4
 70
     1
 43
0.0
 10
56.66486
 20
34.6075
 10
57.55386
 20
34.6075
 10
57.55386
 20
33.0835
 10
56.66486
 20
33.0835
  0
LWPOLYLINE
  5
262
330
1D
100
AcDbEntity
  8
PG_SILKSCREEN_TOP
100
AcDbPolyline
 90
        2
 70
     0
 43
0.2
 10
57.49036
 20
32.9565
 10
54.82336
 20
32.9565
  0
LWPOLYLINE
  5
266
330
1D
100
AcDbEntity
  8
PG_SILKSCREEN_TOP
100
AcDbPolyline
 90
        2
 70
     0
 43
0.2
 10
57.49036
 20
34.7345
 10
54.82336
 20
34.7345
  0
TEXT
  5
26A
330
1D
100
AcDbEntity
  8
RD_SILKSCREEN_TOP
100
AcDbText
 10
55.03672
 20
31.7754
 30
0.0
 40
0.7874
  1
L66
 41
0.935484
100
AcDbText
  0
LWPOLYLINE
  5
26B
330
1D
100
AcDbEntity
  8
PIN_TOP
100
AcDbPolyline
 90
        4
 70
     1
 43
0.0
 10
58.541082
 20
33.916849
 10
58.083882
 20
33.916849
 10
58.083882
 20
34.170849
 10
58.541082
 20
34.170849
  0
LWPOLYLINE
  5
271
330
1D
100
AcDbEntity
  8
PIN_TOP
100
AcDbPolyline
 90
        4
 70
     1
 43
0.0
 10
58.541082
 20
34.56686
 10
58.083882
 20
34.56686
 10
58.083882
 20
34.82086
 10
58.541082
 20
34.82086
  0
LWPOLYLINE
  5
277
330
1D
100
AcDbEntity
  8
PIN_TOP
100
AcDbPolyline
 90
        4
 70
     1
 43
0.0
 10
58.541082
 20
35.216871
 10
58.083882
 20
35.216871
 10
58.083882
 20
35.470871
 10
58.541082
 20
35.470871
  0
LWPOLYLINE
  5
27D
330
1D
100
AcDbEntity
  8
PIN_TOP
100
AcDbPolyline
 90
        4
 70
     1
 43
0.0
 10
60.341078
 20
33.916849
 10
59.883878
 20
33.916849
 10
59.883878
 20
34.170849
 10
60.341078
 20
34.170849
  0
LWPOLYLINE
  5
283
330
1D
100
AcDbEntity
  8
PIN_TOP
100
AcDbPolyline
 90
        4
 70
     1
 43
0.0
 10
60.341078
 20
34.56686
 10
59.883878
 20
34.56686
 10
59.883878
 20
34.82086
 10
60.341078
 20
34.82086
  0
LWPOLYLINE
  5
289
330
1D
100
AcDbEntity
  8
PIN_TOP
100
AcDbPolyline
 90
        4
 70
     1
 43
0.0
 10
60.341078
 20
35.216871
 10
59.883878
 20
35.216871
 10
59.883878
 20
35.470871
 10
60.341078
 20
35.470871
  0
LWPOLYLINE
  5
28F
330
1D
100
AcDbEntity
  8
PIN_TOP
100
AcDbPolyline
 90
        4
 70
     1
 43
0.0
 10
59.64428
 20
35.41776
 10
59.64428
 20
33.96996
 10
58.78068
 20
33.96996
 10
58.78068
 20
35.41776
  0
LWPOLYLINE
  5
295
330
1D
100
AcDbEntity
  8
PG_SILKSCREEN_TOP
100
AcDbPolyline
 90
        6
 70
     0
 43
0.1
 10
58.212482
 20
33.713852
 10
58.212482
 20
35.703866
 10
60.212478
 20
35.703866
 10
60.212478
 20
33.693862
 10
58.232472
 20
33.693862
 10
58.212482
 20
33.713852
  0
LWPOLYLINE
  5
29D
330
1D
100
AcDbEntity
  8
PG_SILKSCREEN_TOP
100
AcDbPolyline
 90
        3
 70
     0
 43
0.1
 10
59.722487
 20
33.70387
 10
59.732469
 20
33.70387
 10
60.20247
 20
34.173871
  0
LWPOLYLINE
  5
2A2
330
1D
100
AcDbEntity
  8
PG_SILKSCREEN_TOP
100
AcDbPolyline
 90
        2
 70
     1
 43
0.0
 10
60.230487
 20
33.463865
 42
1.0
 10
59.874473
 20
33.463855
 42
1.0
  0
TEXT
  5
2A6
330
1D
100
AcDbEntity
  8
RD_SILKSCREEN_TOP
100
AcDbText
 10
57.76214
 20
32.69488
 30
0.0
 40
0.7874
  1
U32
 41
0.935484
100
AcDbText
  0
LWPOLYLINE
  5
2A7
330
1D
100
AcDbEntity
  8
PG_SILKSCREEN_TOP
100
AcDbPolyline
 90
        5
 70
     1
 43
0.0
 10
28.457042
 20
41.71348
 10
31.137047
 20
41.71348
 10
31.137047
 20
40.503475
 42
-0.251482
 10
29.437051
 20
39.593469
 42
-0.145098
 10
28.457042
 20
39.823492
  0
LWPOLYLINE
  5
2AE
330
1D
100
AcDbEntity
  8
PG_SILKSCREEN_TOP
100
AcDbPolyline
 90
        2
 70
     1
 43
0.0
 10
30.657343
 20
40.833472
 42
1.0
 10
30.316737
 20
40.833488
 42
1.0
  0
LWPOLYLINE
  5
2B2
330
1D
100
AcDbEntity
  8
PG_SILKSCREEN_TOP
100
AcDbPolyline
 90
        2
 70
     1
 43
0.0
 10
29.318229
 20
40.82349
 42
1.0
 10
28.975851
 20
40.82347
 42
1.0
  0
LWPOLYLINE
  5
2B6
330
1D
100
AcDbEntity
  8
PG_SILKSCREEN_TOP
100
AcDbPolyline
 90
        5
 70
     1
 43
0.0
 10
28.457042
 20
39.47348
 10
28.457042
 20
39.033475
 10
31.137047
 20
39.033475
 10
31.137047
 20
40.003476
 42
-0.182829
 10
29.407028
 20
39.263472
 42
-0.112071
  0
LWPOLYLINE
  5
2BD
330
1D
100
AcDbEntity
  8
PG_SILKSCREEN_TOP
100
AcDbPolyline
 90
       12
 70
     1
 43
0.0
 10
31.817031
 20
41.653485
 10
32.47705
 20
41.653485
 10
32.47705
 20
41.453486
 10
32.467042
 20
41.443478
 10
32.037045
 20
41.443478
 10
32.037045
 20
41.253486
 10
32.457034
 20
41.253486
 10
32.457034
 20
41.053487
 10
32.037045
 20
41.053487
 10
32.037045
 20
40.653487
 10
31.827038
 20
40.653487
 10
31.817031
 20
40.66347
  0
LWPOLYLINE
  5
2CB
330
1D
100
AcDbEntity
  8
PG_SILKSCREEN_TOP
100
AcDbPolyline
 90
       10
 70
     1
 43
0.0
 10
32.627037
 20
41.653485
 10
33.177048
 20
41.653485
 42
-0.779257
 10
33.177048
 20
41.083484
 10
33.427035
 20
40.66347
 10
33.427035
 20
40.653487
 10
33.157033
 20
40.653487
 10
32.957033
 20
41.053487
 10
32.847051
 20
41.053487
 10
32.847051
 20
40.66347
 10
32.627037
 20
40.66347
  0
LWPOLYLINE
  5
2D7
330
1D
100
AcDbEntity
  8
PG_SILKSCREEN_TOP
100
AcDbPolyline
 90
        4
 70
     1
 43
0.0
 10
33.097038
 20
41.253486
 10
32.847051
 20
41.253486
 10
32.847051
 20
41.473476
 10
33.027036
 20
41.473476
 42
-0.780739
  0
LWPOLYLINE
  5
2DD
330
1D
100
AcDbEntity
  8
PG_SILKSCREEN_TOP
100
AcDbPolyline
 90
        4
 70
     1
 43
0.0
 10
33.527035
 20
41.653485
 10
33.527035
 20
40.653487
 10
33.757032
 20
40.653487
 10
33.757032
 20
41.653485
  0
LWPOLYLINE
  5
2E3
330
1D
100
AcDbEntity
  8
PG_SILKSCREEN_TOP
100
AcDbPolyline
 90
       12
 70
     1
 43
0.0
 10
33.947049
 20
41.653485
 10
34.63704
 20
41.653485
 10
34.63704
 20
41.443478
 10
34.167039
 20
41.443478
 10
34.167039
 20
41.273476
 10
34.61705
 20
41.273476
 10
34.61705
 20
41.073476
 10
34.167039
 20
41.073476
 10
34.167039
 20
40.853487
 10
34.65703
 20
40.853487
 10
34.65703
 20
40.653487
 10
33.947049
 20
40.653487
  0
LWPOLYLINE
  5
2F1
330
1D
100
AcDbEntity
  8
PG_SILKSCREEN_TOP
100
AcDbPolyline
 90
       12
 70
     1
 43
0.0
 10
34.827032
 20
41.653485
 10
35.157029
 20
41.653485
 10
35.547046
 20
40.993492
 10
35.557028
 20
40.993492
 10
35.557028
 20
41.643478
 10
35.777043
 20
41.643478
 10
35.777043
 20
40.653487
 10
35.467036
 20
40.653487
 10
35.057029
 20
41.333471
 10
35.047047
 20
41.333471
 10
35.047047
 20
40.653487
 10
34.827032
 20
40.653487
  0
LWPOLYLINE
  5
2FF
330
1D
100
AcDbEntity
  8
PG_SILKSCREEN_TOP
100
AcDbPolyline
 90
        4
 70
     1
 43
0.0
 10
35.977043
 20
41.653485
 10
36.457052
 20
41.653485
 42
-0.872811
 10
36.457052
 20
40.66347
 10
35.977043
 20
40.66347
  0
LWPOLYLINE
  5
305
330
1D
100
AcDbEntity
  8
PG_SILKSCREEN_TOP
100
AcDbPolyline
 90
        4
 70
     1
 43
0.0
 10
36.347044
 20
40.863469
 10
36.197032
 20
40.863469
 10
36.197032
 20
41.453486
 10
36.347044
 20
41.453486
 42
-0.981991
  0
LWPOLYLINE
  5
30B
330
1D
100
AcDbEntity
  8
PG_SILKSCREEN_TOP
100
AcDbPolyline
 90
        6
 70
     1
 43
0.0
 10
37.027028
 20
41.653485
 10
37.247043
 20
41.653485
 10
37.247043
 20
40.853487
 10
37.667032
 20
40.853487
 10
37.667032
 20
40.653487
 10
37.027028
 20
40.653487
  0
LWPOLYLINE
  5
313
330
1D
100
AcDbEntity
  8
PG_SILKSCREEN_TOP
100
AcDbPolyline
 90
        9
 70
     1
 43
0.0
 10
37.47704
 20
41.653485
 10
37.797029
 20
41.653485
 10
37.987046
 20
41.293491
 10
38.167031
 20
41.653485
 10
38.457048
 20
41.653485
 10
38.087046
 20
41.073476
 10
38.087046
 20
40.653487
 10
37.857049
 20
40.653487
 10
37.857049
 20
41.073476
  0
LWPOLYLINE
  5
31E
330
1D
100
AcDbEntity
  8
PG_SILKSCREEN_TOP
100
AcDbPolyline
 90
        8
 70
     1
 43
0.0
 10
32.387032
 20
40.023491
 10
32.387032
 20
40.113483
 10
31.817031
 20
40.113483
 10
31.817031
 20
39.09347
 10
32.39704
 20
39.09347
 10
32.39704
 20
39.183488
 10
31.907048
 20
39.183488
 10
31.907048
 20
40.023491
  0
LWPOLYLINE
  5
328
330
1D
100
AcDbEntity
  8
PG_SILKSCREEN_TOP
100
AcDbPolyline
 90
        8
 70
     1
 43
0.0
 10
32.387032
 20
40.003476
 10
31.927038
 20
40.003476
 10
31.927038
 20
39.623492
 10
32.387032
 20
39.623492
 10
32.387032
 20
39.713484
 10
32.01703
 20
39.713484
 10
32.01703
 20
39.913484
 10
32.387032
 20
39.913484
  0
LWPOLYLINE
  5
332
330
1D
100
AcDbEntity
  8
PG_SILKSCREEN_TOP
100
AcDbPolyline
 90
        8
 70
     1
 43
0.0
 10
31.927038
 20
39.603477
 10
32.387032
 20
39.603477
 10
32.387032
 20
39.513485
 10
32.01703
 20
39.513485
 10
32.01703
 20
39.29347
 10
32.387032
 20
39.29347
 10
32.387032
 20
39.203478
 10
31.927038
 20
39.203478
  0
LWPOLYLINE
  5
33C
330
1D
100
AcDbEntity
  8
PG_SILKSCREEN_TOP
100
AcDbPolyline
 90
        6
 70
     1
 43
0.0
 10
32.697039
 20
40.113483
 10
32.787031
 20
40.113483
 10
32.787031
 20
39.183488
 10
33.26704
 20
39.183488
 10
33.26704
 20
39.09347
 10
32.697039
 20
39.09347
  0
LWPOLYLINE
  5
344
330
1D
100
AcDbEntity
  8
PG_SILKSCREEN_TOP
100
AcDbPolyline
 90
        6
 70
     1
 43
0.0
 10
32.807046
 20
40.113483
 10
32.897039
 20
40.113483
 10
32.897039
 20
39.29347
 10
33.26704
 20
39.29347
 10
33.26704
 20
39.213485
 10
32.807046
 20
39.213485
  0
LWPOLYLINE
  5
34C
330
1D
100
AcDbEntity
  8
PG_SILKSCREEN_TOP
100
AcDbPolyline
 90
        8
 70
     1
 43
0.0
 10
33.417027
 20
40.113483
 10
33.997036
 20
40.113483
 10
33.997036
 20
40.023491
 10
33.507045
 20
40.023491
 10
33.507045
 20
39.183488
 10
33.997036
 20
39.183488
 10
33.997036
 20
39.09347
 10
33.417027
 20
39.09347
  0
LWPOLYLINE
  5
356
330
1D
100
AcDbEntity
  8
PG_SILKSCREEN_TOP
100
AcDbPolyline
 90
        8
 70
     1
 43
0.0
 10
33.537042
 20
40.003476
 10
33.997036
 20
40.003476
 10
33.997036
 20
39.913484
 10
33.617052
 20
39.913484
 10
33.617052
 20
39.713484
 10
33.997036
 20
39.713484
 10
33.997036
 20
39.623492
 10
33.537042
 20
39.623492
  0
LWPOLYLINE
  5
360
330
1D
100
AcDbEntity
  8
PG_SILKSCREEN_TOP
100
AcDbPolyline
 90
        8
 70
     1
 43
0.0
 10
33.537042
 20
39.603477
 10
33.997036
 20
39.603477
 10
33.997036
 20
39.513485
 10
33.617052
 20
39.513485
 10
33.617052
 20
39.29347
 10
33.997036
 20
39.29347
 10
33.997036
 20
39.203478
 10
33.537042
 20
39.203478
  0
LWPOLYLINE
  5
36A
330
1D
100
AcDbEntity
  8
PG_SILKSCREEN_TOP
100
AcDbPolyline
 90
       10
 70
     1
 43
0.0
 10
35.067037
 20
39.823492
 42
0.212453
 10
34.797035
 20
39.933474
 42
0.434958
 10
34.477046
 20
39.603477
 42
0.415545
 10
34.797035
 20
39.27348
 42
0.233171
 10
35.077044
 20
39.39347
 10
35.127032
 20
39.333475
 42
-0.233334
 10
34.797035
 20
39.183488
 42
-0.412653
 10
34.387028
 20
39.623492
 42
-0.384369
 10
34.797035
 20
40.023491
 42
-0.162283
 10
35.137039
 20
39.893469
  0
LWPOLYLINE
  5
376
330
1D
100
AcDbEntity
  8
PG_SILKSCREEN_TOP
100
AcDbPolyline
 90
       11
 70
     1
 43
0.0
 10
35.147047
 20
39.903476
 10
35.217049
 20
39.973479
 42
0.191249
 10
34.81705
 20
40.133473
 42
0.434172
 10
34.277046
 20
39.583487
 42
0.409084
 10
34.81705
 20
39.07348
 42
0.177231
 10
35.207042
 20
39.233475
 10
35.217049
 20
39.243483
 10
35.147047
 20
39.313485
 42
-0.1942
 10
34.807042
 20
39.163473
 42
-0.423064
 10
34.367038
 20
39.583487
 42
-0.428491
 10
34.81705
 20
40.043481
 42
-0.161119
  0
LWPOLYLINE
  5
383
330
1D
100
AcDbEntity
  8
PIN_TOP
100
AcDbPolyline
 90
        4
 70
     1
 43
0.0
 10
44.018302
 20
24.456009
 10
44.018302
 20
23.948009
 42
-1.0
 10
43.789702
 20
23.948009
 10
43.789702
 20
24.456009
 42
-1.0
  0
LWPOLYLINE
  5
389
330
1D
100
AcDbEntity
  8
PIN_TOP
100
AcDbPolyline
 90
        4
 70
     1
 43
0.0
 10
44.418301
 20
24.456009
 10
44.418301
 20
23.948009
 42
-1.0
 10
44.189701
 20
23.948009
 10
44.189701
 20
24.456009
 42
-1.0
  0
LWPOLYLINE
  5
38F
330
1D
100
AcDbEntity
  8
PIN_TOP
100
AcDbPolyline
 90
        4
 70
     1
 43
0.0
 10
44.8183
 20
24.456009
 10
44.8183
 20
23.948009
 42
-1.0
 10
44.5897
 20
23.948009
 10
44.5897
 20
24.456009
 42
-1.0
  0
LWPOLYLINE
  5
395
330
1D
100
AcDbEntity
  8
PIN_TOP
100
AcDbPolyline
 90
        4
 70
     1
 43
0.0
 10
45.218299
 20
24.456009
 10
45.218299
 20
23.948009
 42
-1.0
 10
44.989699
 20
23.948009
 10
44.989699
 20
24.456009
 42
-1.0
  0
LWPOLYLINE
  5
39B
330
1D
100
AcDbEntity
  8
PIN_TOP
100
AcDbPolyline
 90
        4
 70
     1
 43
0.0
 10
45.618298
 20
24.456009
 10
45.618298
 20
23.948009
 42
-1.0
 10
45.389698
 20
23.948009
 10
45.389698
 20
24.456009
 42
-1.0
  0
LWPOLYLINE
  5
3A1
330
1D
100
AcDbEntity
  8
PIN_TOP
100
AcDbPolyline
 90
        4
 70
     1
 43
0.0
 10
46.018298
 20
24.456009
 10
46.018298
 20
23.948009
 42
-1.0
 10
45.789698
 20
23.948009
 10
45.789698
 20
24.456009
 42
-1.0
  0
LWPOLYLINE
  5
3A7
330
1D
100
AcDbEntity
  8
PIN_TOP
100
AcDbPolyline
 90
        4
 70
     1
 43
0.0
 10
46.418297
 20
24.456009
 10
46.418297
 20
23.948009
 42
-1.0
 10
46.189697
 20
23.948009
 10
46.189697
 20
24.456009
 42
-1.0
  0
LWPOLYLINE
  5
3AD
330
1D
100
AcDbEntity
  8
PIN_TOP
100
AcDbPolyline
 90
        4
 70
     1
 43
0.0
 10
46.818296
 20
24.456009
 10
46.818296
 20
23.948009
 42
-1.0
 10
46.589696
 20
23.948009
 10
46.589696
 20
24.456009
 42
-1.0
  0
LWPOLYLINE
  5
3B3
330
1D
100
AcDbEntity
  8
PIN_TOP
100
AcDbPolyline
 90
        4
 70
     1
 43
0.0
 10
47.218295
 20
24.456009
 10
47.218295
 20
23.948009
 42
-1.0
 10
46.989695
 20
23.948009
 10
46.989695
 20
24.456009
 42
-1.0
  0
LWPOLYLINE
  5
3B9
330
1D
100
AcDbEntity
  8
PIN_TOP
100
AcDbPolyline
 90
        4
 70
     1
 43
0.0
 10
47.618294
 20
24.456009
 10
47.618294
 20
23.948009
 42
-1.0
 10
47.389694
 20
23.948009
 10
47.389694
 20
24.456009
 42
-1.0
  0
LWPOLYLINE
  5
3BF
330
1D
100
AcDbEntity
  8
PIN_TOP
100
AcDbPolyline
 90
        4
 70
     1
 43
0.0
 10
47.218295
 20
33.455991
 10
47.218295
 20
32.947991
 42
-1.0
 10
46.989695
 20
32.947991
 10
46.989695
 20
33.455991
 42
-1.0
  0
LWPOLYLINE
  5
3C5
330
1D
100
AcDbEntity
  8
PIN_TOP
100
AcDbPolyline
 90
        4
 70
     1
 43
0.0
 10
46.818296
 20
33.455991
 10
46.818296
 20
32.947991
 42
-1.0
 10
46.589696
 20
32.947991
 10
46.589696
 20
33.455991
 42
-1.0
  0
LWPOLYLINE
  5
3CB
330
1D
100
AcDbEntity
  8
PIN_TOP
100
AcDbPolyline
 90
        4
 70
     1
 43
0.0
 10
46.418297
 20
33.455991
 10
46.418297
 20
32.947991
 42
-1.0
 10
46.189697
 20
32.947991
 10
46.189697
 20
33.455991
 42
-1.0
  0
LWPOLYLINE
  5
3D1
330
1D
100
AcDbEntity
  8
PIN_TOP
100
AcDbPolyline
 90
        4
 70
     1
 43
0.0
 10
46.018298
 20
33.455991
 10
46.018298
 20
32.947991
 42
-1.0
 10
45.789698
 20
32.947991
 10
45.789698
 20
33.455991
 42
-1.0
  0
LWPOLYLINE
  5
3D7
330
1D
100
AcDbEntity
  8
PIN_TOP
100
AcDbPolyline
 90
        4
 70
     1
 43
0.0
 10
45.618298
 20
33.455991
 10
45.618298
 20
32.947991
 42
-1.0
 10
45.389698
 20
32.947991
 10
45.389698
 20
33.455991
 42
-1.0
  0
LWPOLYLINE
  5
3DD
330
1D
100
AcDbEntity
  8
PIN_TOP
100
AcDbPolyline
 90
        4
 70
     1
 43
0.0
 10
45.218299
 20
33.455991
 10
45.218299
 20
32.947991
 42
-1.0
 10
44.989699
 20
32.947991
 10
44.989699
 20
33.455991
 42
-1.0
  0
LWPOLYLINE
  5
3E3
330
1D
100
AcDbEntity
  8
PIN_TOP
100
AcDbPolyline
 90
        4
 70
     1
 43
0.0
 10
44.8183
 20
33.455991
 10
44.8183
 20
32.947991
 42
-1.0
 10
44.5897
 20
32.947991
 10
44.5897
 20
33.455991
 42
-1.0
  0
LWPOLYLINE
  5
3E9
330
1D
100
AcDbEntity
  8
PIN_TOP
100
AcDbPolyline
 90
        4
 70
     1
 43
0.0
 10
44.418301
 20
33.455991
 10
44.418301
 20
32.947991
 42
-1.0
 10
44.189701
 20
32.947991
 10
44.189701
 20
33.455991
 42
-1.0
  0
LWPOLYLINE
  5
3EF
330
1D
100
AcDbEntity
  8
PIN_TOP
100
AcDbPolyline
 90
        4
 70
     1
 43
0.0
 10
44.018302
 20
33.455991
 10
44.018302
 20
32.947991
 42
-1.0
 10
43.789702
 20
32.947991
 10
43.789702
 20
33.455991
 42
-1.0
  0
LWPOLYLINE
  5
3F5
330
1D
100
AcDbEntity
  8
PIN_TOP
100
AcDbPolyline
 90
        4
 70
     1
 43
0.0
 10
43.618302
 20
33.455991
 10
43.618302
 20
32.947991
 42
-1.0
 10
43.389702
 20
32.947991
 10
43.389702
 20
33.455991
 42
-1.0
  0
LWPOLYLINE
  5
3FB
330
1D
100
AcDbEntity
  8
PIN_TOP
100
AcDbPolyline
 90
        4
 70
     1
 43
0.0
 10
49.457991
 20
26.987703
 10
48.949991
 20
26.987703
 42
-1.0
 10
48.949991
 20
27.216303
 10
49.457991
 20
27.216303
 42
-1.0
  0
LWPOLYLINE
  5
401
330
1D
100
AcDbEntity
  8
PIN_TOP
100
AcDbPolyline
 90
        4
 70
     1
 43
0.0
 10
49.457991
 20
27.387702
 10
48.949991
 20
27.387702
 42
-1.0
 10
48.949991
 20
27.616302
 10
49.457991
 20
27.616302
 42
-1.0
  0
LWPOLYLINE
  5
407
330
1D
100
AcDbEntity
  8
PIN_TOP
100
AcDbPolyline
 90
        4
 70
     1
 43
0.0
 10
49.457991
 20
27.787702
 10
48.949991
 20
27.787702
 42
-1.0
 10
48.949991
 20
28.016302
 10
49.457991
 20
28.016302
 42
-1.0
  0
LWPOLYLINE
  5
40D
330
1D
100
AcDbEntity
  8
PIN_TOP
100
AcDbPolyline
 90
        4
 70
     1
 43
0.0
 10
49.457991
 20
28.187701
 10
48.949991
 20
28.187701
 42
-1.0
 10
48.949991
 20
28.416301
 10
49.457991
 20
28.416301
 42
-1.0
  0
LWPOLYLINE
  5
413
330
1D
100
AcDbEntity
  8
PIN_TOP
100
AcDbPolyline
 90
        4
 70
     1
 43
0.0
 10
49.457991
 20
28.5877
 10
48.949991
 20
28.5877
 42
-1.0
 10
48.949991
 20
28.8163
 10
49.457991
 20
28.8163
 42
-1.0
  0
LWPOLYLINE
  5
419
330
1D
100
AcDbEntity
  8
PIN_TOP
100
AcDbPolyline
 90
        4
 70
     1
 43
0.0
 10
49.457991
 20
28.987699
 10
48.949991
 20
28.987699
 42
-1.0
 10
48.949991
 20
29.216299
 10
49.457991
 20
29.216299
 42
-1.0
  0
LWPOLYLINE
  5
41F
330
1D
100
AcDbEntity
  8
PIN_TOP
100
AcDbPolyline
 90
        4
 70
     1
 43
0.0
 10
49.457991
 20
29.387698
 10
48.949991
 20
29.387698
 42
-1.0
 10
48.949991
 20
29.616298
 10
49.457991
 20
29.616298
 42
-1.0
  0
LWPOLYLINE
  5
425
330
1D
100
AcDbEntity
  8
PIN_TOP
100
AcDbPolyline
 90
        4
 70
     1
 43
0.0
 10
49.457991
 20
29.787698
 10
48.949991
 20
29.787698
 42
-1.0
 10
48.949991
 20
30.016298
 10
49.457991
 20
30.016298
 42
-1.0
  0
LWPOLYLINE
  5
42B
330
1D
100
AcDbEntity
  8
PIN_TOP
100
AcDbPolyline
 90
        4
 70
     1
 43
0.0
 10
49.457991
 20
30.187697
 10
48.949991
 20
30.187697
 42
-1.0
 10
48.949991
 20
30.416297
 10
49.457991
 20
30.416297
 42
-1.0
  0
LWPOLYLINE
  5
431
330
1D
100
AcDbEntity
  8
PIN_TOP
100
AcDbPolyline
 90
        4
 70
     1
 43
0.0
 10
49.457991
 20
30.587696
 10
48.949991
 20
30.587696
 42
-1.0
 10
48.949991
 20
30.816296
 10
49.457991
 20
30.816296
 42
-1.0
  0
LWPOLYLINE
  5
437
330
1D
100
AcDbEntity
  8
PIN_TOP
100
AcDbPolyline
 90
        4
 70
     1
 43
0.0
 10
39.950009
 20
32.016294
 10
40.458009
 20
32.016294
 42
-1.0
 10
40.458009
 20
31.787694
 10
39.950009
 20
31.787694
 42
-1.0
  0
LWPOLYLINE
  5
43D
330
1D
100
AcDbEntity
  8
PIN_TOP
100
AcDbPolyline
 90
        4
 70
     1
 43
0.0
 10
39.950009
 20
31.616294
 10
40.458009
 20
31.616294
 42
-1.0
 10
40.458009
 20
31.387694
 10
39.950009
 20
31.387694
 42
-1.0
  0
LWPOLYLINE
  5
443
330
1D
100
AcDbEntity
  8
PIN_TOP
100
AcDbPolyline
 90
        4
 70
     1
 43
0.0
 10
39.950009
 20
31.216295
 10
40.458009
 20
31.216295
 42
-1.0
 10
40.458009
 20
30.987695
 10
39.950009
 20
30.987695
 42
-1.0
  0
LWPOLYLINE
  5
449
330
1D
100
AcDbEntity
  8
PIN_TOP
100
AcDbPolyline
 90
        4
 70
     1
 43
0.0
 10
39.950009
 20
30.816296
 10
40.458009
 20
30.816296
 42
-1.0
 10
40.458009
 20
30.587696
 10
39.950009
 20
30.587696
 42
-1.0
  0
LWPOLYLINE
  5
44F
330
1D
100
AcDbEntity
  8
PIN_TOP
100
AcDbPolyline
 90
        4
 70
     1
 43
0.0
 10
39.950009
 20
30.416297
 10
40.458009
 20
30.416297
 42
-1.0
 10
40.458009
 20
30.187697
 10
39.950009
 20
30.187697
 42
-1.0
  0
LWPOLYLINE
  5
455
330
1D
100
AcDbEntity
  8
PIN_TOP
100
AcDbPolyline
 90
        4
 70
     1
 43
0.0
 10
39.950009
 20
30.016298
 10
40.458009
 20
30.016298
 42
-1.0
 10
40.458009
 20
29.787698
 10
39.950009
 20
29.787698
 42
-1.0
  0
LWPOLYLINE
  5
45B
330
1D
100
AcDbEntity
  8
PIN_TOP
100
AcDbPolyline
 90
        4
 70
     1
 43
0.0
 10
47.618294
 20
33.455991
 10
47.618294
 20
32.947991
 42
-1.0
 10
47.389694
 20
32.947991
 10
47.389694
 20
33.455991
 42
-1.0
  0
LWPOLYLINE
  5
461
330
1D
100
AcDbEntity
  8
PIN_TOP
100
AcDbPolyline
 90
        4
 70
     1
 43
0.0
 10
48.018294
 20
33.455991
 10
48.018294
 20
32.947991
 42
-1.0
 10
47.789694
 20
32.947991
 10
47.789694
 20
33.455991
 42
-1.0
  0
LWPOLYLINE
  5
467
330
1D
100
AcDbEntity
  8
PIN_TOP
100
AcDbPolyline
 90
        4
 70
     1
 43
0.0
 10
48.418293
 20
33.455991
 10
48.418293
 20
32.947991
 42
-1.0
 10
48.189693
 20
32.947991
 10
48.189693
 20
33.455991
 42
-1.0
  0
LWPOLYLINE
  5
46D
330
1D
100
AcDbEntity
  8
PIN_TOP
100
AcDbPolyline
 90
        4
 70
     1
 43
0.0
 10
49.457991
 20
32.187693
 10
48.949991
 20
32.187693
 42
-1.0
 10
48.949991
 20
32.416293
 10
49.457991
 20
32.416293
 42
-1.0
  0
LWPOLYLINE
  5
473
330
1D
100
AcDbEntity
  8
PIN_TOP
100
AcDbPolyline
 90
        4
 70
     1
 43
0.0
 10
49.457991
 20
31.787694
 10
48.949991
 20
31.787694
 42
-1.0
 10
48.949991
 20
32.016294
 10
49.457991
 20
32.016294
 42
-1.0
  0
LWPOLYLINE
  5
479
330
1D
100
AcDbEntity
  8
PIN_TOP
100
AcDbPolyline
 90
        4
 70
     1
 43
0.0
 10
49.457991
 20
31.387694
 10
48.949991
 20
31.387694
 42
-1.0
 10
48.949991
 20
31.616294
 10
49.457991
 20
31.616294
 42
-1.0
  0
LWPOLYLINE
  5
47F
330
1D
100
AcDbEntity
  8
PIN_TOP
100
AcDbPolyline
 90
        4
 70
     1
 43
0.0
 10
49.457991
 20
30.987695
 10
48.949991
 20
30.987695
 42
-1.0
 10
48.949991
 20
31.216295
 10
49.457991
 20
31.216295
 42
-1.0
  0
LWPOLYLINE
  5
485
330
1D
100
AcDbEntity
  8
PIN_TOP
100
AcDbPolyline
 90
        4
 70
     1
 43
0.0
 10
49.457991
 20
26.587704
 10
48.949991
 20
26.587704
 42
-1.0
 10
48.949991
 20
26.816304
 10
49.457991
 20
26.816304
 42
-1.0
  0
LWPOLYLINE
  5
48B
330
1D
100
AcDbEntity
  8
PIN_TOP
100
AcDbPolyline
 90
        4
 70
     1
 43
0.0
 10
49.457991
 20
26.187705
 10
48.949991
 20
26.187705
 42
-1.0
 10
48.949991
 20
26.416305
 10
49.457991
 20
26.416305
 42
-1.0
  0
LWPOLYLINE
  5
491
330
1D
100
AcDbEntity
  8
PIN_TOP
100
AcDbPolyline
 90
        4
 70
     1
 43
0.0
 10
49.457991
 20
25.787706
 10
48.949991
 20
25.787706
 42
-1.0
 10
48.949991
 20
26.016306
 10
49.457991
 20
26.016306
 42
-1.0
  0
LWPOLYLINE
  5
497
330
1D
100
AcDbEntity
  8
PIN_TOP
100
AcDbPolyline
 90
        4
 70
     1
 43
0.0
 10
49.457991
 20
25.387706
 10
48.949991
 20
25.387706
 42
-1.0
 10
48.949991
 20
25.616306
 10
49.457991
 20
25.616306
 42
-1.0
  0
LWPOLYLINE
  5
49D
330
1D
100
AcDbEntity
  8
PIN_TOP
100
AcDbPolyline
 90
        4
 70
     1
 43
0.0
 10
49.457991
 20
24.987707
 10
48.949991
 20
24.987707
 42
-1.0
 10
48.949991
 20
25.216307
 10
49.457991
 20
25.216307
 42
-1.0
  0
LWPOLYLINE
  5
4A3
330
1D
100
AcDbEntity
  8
PIN_TOP
100
AcDbPolyline
 90
        4
 70
     1
 43
0.0
 10
48.189693
 20
23.948009
 10
48.189693
 20
24.456009
 42
-1.0
 10
48.418293
 20
24.456009
 10
48.418293
 20
23.948009
 42
-1.0
  0
LWPOLYLINE
  5
4A9
330
1D
100
AcDbEntity
  8
PIN_TOP
100
AcDbPolyline
 90
        4
 70
     1
 43
0.0
 10
47.789694
 20
23.948009
 10
47.789694
 20
24.456009
 42
-1.0
 10
48.018294
 20
24.456009
 10
48.018294
 20
23.948009
 42
-1.0
  0
LWPOLYLINE
  5
4AF
330
1D
100
AcDbEntity
  8
PIN_TOP
100
AcDbPolyline
 90
        4
 70
     1
 43
0.0
 10
43.618302
 20
24.456009
 10
43.618302
 20
23.948009
 42
-1.0
 10
43.389702
 20
23.948009
 10
43.389702
 20
24.456009
 42
-1.0
  0
LWPOLYLINE
  5
4B5
330
1D
100
AcDbEntity
  8
PIN_TOP
100
AcDbPolyline
 90
        4
 70
     1
 43
0.0
 10
43.218303
 20
24.456009
 10
43.218303
 20
23.948009
 42
-1.0
 10
42.989703
 20
23.948009
 10
42.989703
 20
24.456009
 42
-1.0
  0
LWPOLYLINE
  5
4BB
330
1D
100
AcDbEntity
  8
PIN_TOP
100
AcDbPolyline
 90
        4
 70
     1
 43
0.0
 10
42.818304
 20
24.456009
 10
42.818304
 20
23.948009
 42
-1.0
 10
42.589704
 20
23.948009
 10
42.589704
 20
24.456009
 42
-1.0
  0
LWPOLYLINE
  5
4C1
330
1D
100
AcDbEntity
  8
PIN_TOP
100
AcDbPolyline
 90
        4
 70
     1
 43
0.0
 10
42.418305
 20
24.456009
 10
42.418305
 20
23.948009
 42
-1.0
 10
42.189705
 20
23.948009
 10
42.189705
 20
24.456009
 42
-1.0
  0
LWPOLYLINE
  5
4C7
330
1D
100
AcDbEntity
  8
PIN_TOP
100
AcDbPolyline
 90
        4
 70
     1
 43
0.0
 10
42.018306
 20
24.456009
 10
42.018306
 20
23.948009
 42
-1.0
 10
41.789706
 20
23.948009
 10
41.789706
 20
24.456009
 42
-1.0
  0
LWPOLYLINE
  5
4CD
330
1D
100
AcDbEntity
  8
PIN_TOP
100
AcDbPolyline
 90
        4
 70
     1
 43
0.0
 10
41.618306
 20
24.456009
 10
41.618306
 20
23.948009
 42
-1.0
 10
41.389706
 20
23.948009
 10
41.389706
 20
24.456009
 42
-1.0
  0
LWPOLYLINE
  5
4D3
330
1D
100
AcDbEntity
  8
PIN_TOP
100
AcDbPolyline
 90
        4
 70
     1
 43
0.0
 10
41.218307
 20
24.456009
 10
41.218307
 20
23.948009
 42
-1.0
 10
40.989707
 20
23.948009
 10
40.989707
 20
24.456009
 42
-1.0
  0
LWPOLYLINE
  5
4D9
330
1D
100
AcDbEntity
  8
PIN_TOP
100
AcDbPolyline
 90
        4
 70
     1
 43
0.0
 10
39.950009
 20
32.416293
 10
40.458009
 20
32.416293
 42
-1.0
 10
40.458009
 20
32.187693
 10
39.950009
 20
32.187693
 42
-1.0
  0
LWPOLYLINE
  5
4DF
330
1D
100
AcDbEntity
  8
PIN_TOP
100
AcDbPolyline
 90
        4
 70
     1
 43
0.0
 10
41.218307
 20
33.455991
 10
41.218307
 20
32.947991
 42
-1.0
 10
40.989707
 20
32.947991
 10
40.989707
 20
33.455991
 42
-1.0
  0
LWPOLYLINE
  5
4E5
330
1D
100
AcDbEntity
  8
PIN_TOP
100
AcDbPolyline
 90
        4
 70
     1
 43
0.0
 10
41.618306
 20
33.455991
 10
41.618306
 20
32.947991
 42
-1.0
 10
41.389706
 20
32.947991
 10
41.389706
 20
33.455991
 42
-1.0
  0
LWPOLYLINE
  5
4EB
330
1D
100
AcDbEntity
  8
PIN_TOP
100
AcDbPolyline
 90
        4
 70
     1
 43
0.0
 10
42.018306
 20
33.455991
 10
42.018306
 20
32.947991
 42
-1.0
 10
41.789706
 20
32.947991
 10
41.789706
 20
33.455991
 42
-1.0
  0
LWPOLYLINE
  5
4F1
330
1D
100
AcDbEntity
  8
PIN_TOP
100
AcDbPolyline
 90
        4
 70
     1
 43
0.0
 10
42.418305
 20
33.455991
 10
42.418305
 20
32.947991
 42
-1.0
 10
42.189705
 20
32.947991
 10
42.189705
 20
33.455991
 42
-1.0
  0
LWPOLYLINE
  5
4F7
330
1D
100
AcDbEntity
  8
PIN_TOP
100
AcDbPolyline
 90
        4
 70
     1
 43
0.0
 10
42.818304
 20
33.455991
 10
42.818304
 20
32.947991
 42
-1.0
 10
42.589704
 20
32.947991
 10
42.589704
 20
33.455991
 42
-1.0
  0
LWPOLYLINE
  5
4FD
330
1D
100
AcDbEntity
  8
PIN_TOP
100
AcDbPolyline
 90
        4
 70
     1
 43
0.0
 10
43.218303
 20
33.455991
 10
43.218303
 20
32.947991
 42
-1.0
 10
42.989703
 20
32.947991
 10
42.989703
 20
33.455991
 42
-1.0
  0
LWPOLYLINE
  5
503
330
1D
100
AcDbEntity
  8
PIN_TOP
100
AcDbPolyline
 90
        4
 70
     1
 43
0.0
 10
39.950009
 20
29.616298
 10
40.458009
 20
29.616298
 42
-1.0
 10
40.458009
 20
29.387698
 10
39.950009
 20
29.387698
 42
-1.0
  0
LWPOLYLINE
  5
509
330
1D
100
AcDbEntity
  8
PIN_TOP
100
AcDbPolyline
 90
        4
 70
     1
 43
0.0
 10
39.950009
 20
29.216299
 10
40.458009
 20
29.216299
 42
-1.0
 10
40.458009
 20
28.987699
 10
39.950009
 20
28.987699
 42
-1.0
  0
LWPOLYLINE
  5
50F
330
1D
100
AcDbEntity
  8
PIN_TOP
100
AcDbPolyline
 90
        4
 70
     1
 43
0.0
 10
39.950009
 20
28.8163
 10
40.458009
 20
28.8163
 42
-1.0
 10
40.458009
 20
28.5877
 10
39.950009
 20
28.5877
 42
-1.0
  0
LWPOLYLINE
  5
515
330
1D
100
AcDbEntity
  8
PIN_TOP
100
AcDbPolyline
 90
        4
 70
     1
 43
0.0
 10
39.950009
 20
28.416301
 10
40.458009
 20
28.416301
 42
-1.0
 10
40.458009
 20
28.187701
 10
39.950009
 20
28.187701
 42
-1.0
  0
LWPOLYLINE
  5
51B
330
1D
100
AcDbEntity
  8
PIN_TOP
100
AcDbPolyline
 90
        4
 70
     1
 43
0.0
 10
39.950009
 20
28.016302
 10
40.458009
 20
28.016302
 42
-1.0
 10
40.458009
 20
27.787702
 10
39.950009
 20
27.787702
 42
-1.0
  0
LWPOLYLINE
  5
521
330
1D
100
AcDbEntity
  8
PIN_TOP
100
AcDbPolyline
 90
        4
 70
     1
 43
0.0
 10
39.950009
 20
27.616302
 10
40.458009
 20
27.616302
 42
-1.0
 10
40.458009
 20
27.387702
 10
39.950009
 20
27.387702
 42
-1.0
  0
LWPOLYLINE
  5
527
330
1D
100
AcDbEntity
  8
PIN_TOP
100
AcDbPolyline
 90
        4
 70
     1
 43
0.0
 10
39.950009
 20
27.216303
 10
40.458009
 20
27.216303
 42
-1.0
 10
40.458009
 20
26.987703
 10
39.950009
 20
26.987703
 42
-1.0
  0
LWPOLYLINE
  5
52D
330
1D
100
AcDbEntity
  8
PIN_TOP
100
AcDbPolyline
 90
        4
 70
     1
 43
0.0
 10
39.950009
 20
26.816304
 10
40.458009
 20
26.816304
 42
-1.0
 10
40.458009
 20
26.587704
 10
39.950009
 20
26.587704
 42
-1.0
  0
LWPOLYLINE
  5
533
330
1D
100
AcDbEntity
  8
PIN_TOP
100
AcDbPolyline
 90
        4
 70
     1
 43
0.0
 10
39.950009
 20
26.416305
 10
40.458009
 20
26.416305
 42
-1.0
 10
40.458009
 20
26.187705
 10
39.950009
 20
26.187705
 42
-1.0
  0
LWPOLYLINE
  5
539
330
1D
100
AcDbEntity
  8
PIN_TOP
100
AcDbPolyline
 90
        4
 70
     1
 43
0.0
 10
39.950009
 20
26.016306
 10
40.458009
 20
26.016306
 42
-1.0
 10
40.458009
 20
25.787706
 10
39.950009
 20
25.787706
 42
-1.0
  0
LWPOLYLINE
  5
53F
330
1D
100
AcDbEntity
  8
PIN_TOP
100
AcDbPolyline
 90
        4
 70
     1
 43
0.0
 10
39.950009
 20
25.616306
 10
40.458009
 20
25.616306
 42
-1.0
 10
40.458009
 20
25.387706
 10
39.950009
 20
25.387706
 42
-1.0
  0
LWPOLYLINE
  5
545
330
1D
100
AcDbEntity
  8
PIN_TOP
100
AcDbPolyline
 90
        4
 70
     1
 43
0.0
 10
39.950009
 20
25.216307
 10
40.458009
 20
25.216307
 42
-1.0
 10
40.458009
 20
24.987707
 10
39.950009
 20
24.987707
 42
-1.0
  0
LWPOLYLINE
  5
54B
330
1D
100
AcDbEntity
  8
PIN_TOP
100
AcDbPolyline
 90
        4
 70
     1
 43
0.0
 10
42.1132
 20
26.1112
 10
42.1132
 20
31.2928
 10
47.2948
 20
31.2928
 10
47.2948
 20
26.1112
  0
LWPOLYLINE
  5
551
330
1D
100
AcDbEntity
  8
PG_SILKSCREEN_TOP
100
AcDbPolyline
 90
        4
 70
     0
 43
0.150012
 10
40.204009
 20
24.802008
 10
40.204009
 20
24.602008
 10
40.604008
 20
24.202009
 10
40.804008
 20
24.202009
  0
LWPOLYLINE
  5
557
330
1D
100
AcDbEntity
  8
PG_SILKSCREEN_TOP
100
AcDbPolyline
 90
        3
 70
     0
 43
0.150012
 10
48.703992
 20
33.301991
 10
49.303991
 20
33.301991
 10
49.303991
 20
32.701992
  0
LWPOLYLINE
  5
55C
330
1D
100
AcDbEntity
  8
PG_SILKSCREEN_TOP
100
AcDbPolyline
 90
        3
 70
     0
 43
0.150012
 10
40.704008
 20
33.301991
 10
40.104009
 20
33.301991
 10
40.104009
 20
32.701992
  0
LWPOLYLINE
  5
561
330
1D
100
AcDbEntity
  8
PG_SILKSCREEN_TOP
100
AcDbPolyline
 90
        3
 70
     0
 43
0.150012
 10
48.703992
 20
24.102009
 10
49.303991
 20
24.102009
 10
49.303991
 20
24.702008
  0
LWPOLYLINE
  5
566
330
1D
100
AcDbEntity
  8
PG_SILKSCREEN_TOP
100
AcDbPolyline
 90
        3
 70
     1
 43
0.0
 10
41.118003
 20
23.592003
 10
40.864003
 20
22.576003
 10
41.372003
 20
22.576003
  0
LWPOLYLINE
  5
56B
330
1D
100
AcDbEntity
  8
PG_SILKSCREEN_TOP
100
AcDbPolyline
 90
        2
 70
     1
 43
0.0
 10
40.264588
 20
23.90201
 42
1.0
 10
39.543412
 20
23.90199
 42
1.0
  0
TEXT
  5
56F
330
1D
100
AcDbEntity
  8
RD_SILKSCREEN_TOP
100
AcDbText
 10
42.16146
 20
22.0599
 30
0.0
 40
0.7874
  1
U28
 41
0.935484
100
AcDbText
  0
CIRCLE
  5
570
330
1D
100
AcDbEntity
  8
PIN_TOP
100
AcDbCircle
 10
60.62218
 20
42.36974
 30
0.0
 40
0.635
  0
LWPOLYLINE
  5
571
330
1D
100
AcDbEntity
  8
PG_SILKSCREEN_TOP
100
AcDbPolyline
 90
        3
 70
     0
 43
0.1524
 10
61.964697
 20
42.36974
 42
1.0
 10
59.279663
 20
42.36974
 42
1.0
 10
61.964697
 20
42.36974
  0
CIRCLE
  5
576
330
1D
100
AcDbEntity
  8
PIN_TOP
100
AcDbCircle
 10
12.94638
 20
4.51104
 30
0.0
 40
0.635
  0
LWPOLYLINE
  5
577
330
1D
100
AcDbEntity
  8
PG_SILKSCREEN_TOP
100
AcDbPolyline
 90
        3
 70
     0
 43
0.1524
 10
14.288897
 20
4.51104
 42
1.0
 10
11.603863
 20
4.51104
 42
1.0
 10
14.288897
 20
4.51104
  0
CIRCLE
  5
57C
330
1D
100
AcDbEntity
  8
PIN_TOP
100
AcDbCircle
 10
59.28868
 20
8.04418
 30
0.0
 40
0.635
  0
LWPOLYLINE
  5
57D
330
1D
100
AcDbEntity
  8
PG_SILKSCREEN_TOP
100
AcDbPolyline
 90
        3
 70
     0
 43
0.1524
 10
60.631197
 20
8.04418
 42
1.0
 10
57.946163
 20
8.04418
 42
1.0
 10
60.631197
 20
8.04418
  0
CIRCLE
  5
582
330
1D
100
AcDbEntity
  8
PIN_TOP
100
AcDbCircle
 10
3.89382
 20
47.26178
 30
0.0
 40
0.635
  0
LWPOLYLINE
  5
583
330
1D
100
AcDbEntity
  8
PG_SILKSCREEN_TOP
100
AcDbPolyline
 90
        3
 70
     0
 43
0.1524
 10
5.236337
 20
47.26178
 42
1.0
 10
2.551303
 20
47.26178
 42
1.0
 10
5.236337
 20
47.26178
  0
CIRCLE
  5
588
330
1D
100
AcDbEntity
  8
PIN_TOP
100
AcDbCircle
 10
49.6824
 20
10.668
 30
0.0
 40
0.9906
  0
LWPOLYLINE
  5
589
330
1D
100
AcDbEntity
  8
PIN_TOP
100
AcDbPolyline
 90
        4
 70
     1
 43
0.0
 10
53.682341
 20
7.868006
 10
53.682341
 20
9.868002
 42
-1.0
 10
55.182465
 20
9.868002
 10
55.182465
 20
7.868006
 42
-1.0
  0
LWPOLYLINE
  5
58F
330
1D
100
AcDbEntity
  8
PIN_TOP
100
AcDbPolyline
 90
        4
 70
     1
 43
0.0
 10
44.182335
 20
7.868006
 10
44.182335
 20
9.868002
 42
-1.0
 10
45.682459
 20
9.868002
 10
45.682459
 20
7.868006
 42
-1.0
  0
LWPOLYLINE
  5
595
330
1D
100
AcDbEntity
  8
PIN_TOP
100
AcDbPolyline
 90
        4
 70
     1
 43
0.0
 10
53.682341
 20
3.16799
 10
53.682341
 20
5.167986
 42
-1.0
 10
55.182465
 20
5.167986
 10
55.182465
 20
3.16799
 42
-1.0
  0
LWPOLYLINE
  5
59B
330
1D
100
AcDbEntity
  8
PIN_TOP
100
AcDbPolyline
 90
        4
 70
     1
 43
0.0
 10
44.182335
 20
3.16799
 10
44.182335
 20
5.167986
 42
-1.0
 10
45.682459
 20
5.167986
 10
45.682459
 20
3.16799
 42
-1.0
  0
LWPOLYLINE
  5
5A1
330
1D
100
AcDbEntity
  8
PIN_TOP
100
AcDbPolyline
 90
        4
 70
     1
 43
0.0
 10
48.677943
 20
5.412079
 10
50.677903
 20
5.424017
 42
-1.0
 10
50.686857
 20
3.923945
 10
48.686897
 20
3.912007
 42
-1.0
  0
CIRCLE
  5
5A7
330
1D
100
AcDbEntity
  8
PIN_TOP
100
AcDbCircle
 10
49.6824
 20
1.418006
 30
0.0
 40
0.508
  0
LWPOLYLINE
  5
5A8
330
1D
100
AcDbEntity
  8
PG_SILKSCREEN_TOP
100
AcDbPolyline
 90
        4
 70
     0
 43
0.2
 10
52.682394
 20
-1.432001
 10
52.682394
 20
-3.031998
 10
47.082405
 20
-3.031998
 10
47.082405
 20
-1.432001
  0
LWPOLYLINE
  5
5AE
330
1D
100
AcDbEntity
  8
PG_SILKSCREEN_TOP
100
AcDbPolyline
 90
        5
 70
     0
 43
0.2
 10
45.282409
 20
-3.031998
 10
54.282391
 20
-3.031998
 10
54.282391
 20
-13.032003
 10
45.282409
 20
-13.032003
 10
45.282409
 20
-3.031998
  0
LWPOLYLINE
  5
5B5
330
1D
100
AcDbEntity
  8
PG_SILKSCREEN_TOP
100
AcDbPolyline
 90
        6
 70
     0
 43
0.2
 10
49.6824
 20
12.267997
 10
54.68239
 20
12.267997
 10
54.68239
 20
-1.332001
 10
44.68241
 20
-1.332001
 10
44.68241
 20
12.267997
 10
49.6824
 20
12.267997
  0
TEXT
  5
5BD
330
1D
100
AcDbEntity
  8
RD_SILKSCREEN_TOP
100
AcDbText
 10
56.12892
 20
10.85088
 30
0.0
 40
0.7874
  1
CN1
 50
90.0
 41
0.935484
100
AcDbText
  0
CIRCLE
  5
5BE
330
1D
100
AcDbEntity
  8
PIN_TOP
100
AcDbCircle
 10
3.5052
 20
3.5052
 30
0.0
 40
1.6
  0
CIRCLE
  5
5BF
330
1D
100
AcDbEntity
  8
PIN_TOP
100
AcDbCircle
 10
61.4934
 20
3.5306
 30
0.0
 40
1.6
  0
CIRCLE
  5
5C0
330
1D
100
AcDbEntity
  8
PIN_TOP
100
AcDbCircle
 10
3.5052
 20
52.5272
 30
0.0
 40
1.6
  0
CIRCLE
  5
5C1
330
1D
100
AcDbEntity
  8
PIN_TOP
100
AcDbCircle
 10
61.4934
 20
52.5018
 30
0.0
 40
1.6
  0
LWPOLYLINE
  5
5C2
330
1D
100
AcDbEntity
  8
PIN_TOP
100
AcDbPolyline
 90
        4
 70
     1
 43
0.0
 10
25.69972
 20
7.90448
 10
26.61412
 20
7.90448
 10
26.61412
 20
6.99008
 10
25.69972
 20
6.99008
  0
LWPOLYLINE
  5
5C8
330
1D
100
AcDbEntity
  8
PIN_TOP
100
AcDbPolyline
 90
        4
 70
     1
 43
0.0
 10
25.69972
 20
9.42848
 10
26.61412
 20
9.42848
 10
26.61412
 20
8.51408
 10
25.69972
 20
8.51408
  0
LWPOLYLINE
  5
5CE
330
1D
100
AcDbEntity
  8
PG_SILKSCREEN_TOP
100
AcDbPolyline
 90
        5
 70
     0
 43
0.1524
 10
26.79192
 20
9.47928
 10
26.79192
 20
6.93928
 42
-0.520826
 10
25.52192
 20
6.93928
 10
25.52192
 20
9.47928
 42
-0.559836
 10
26.79192
 20
9.47928
  0
TEXT
  5
5D5
330
1D
100
AcDbEntity
  8
RD_SILKSCREEN_TOP
100
AcDbText
 10
43.98264
 20
12.21232
 30
0.0
 40
0.7874
  1
C745
 50
90.0
 41
0.935484
100
AcDbText
  0
LWPOLYLINE
  5
5D6
330
1D
100
AcDbEntity
  8
PIN_TOP
100
AcDbPolyline
 90
        4
 70
     1
 43
0.0
 10
53.43144
 20
33.18764
 10
54.34584
 20
33.18764
 10
54.34584
 20
32.27324
 10
53.43144
 20
32.27324
  0
LWPOLYLINE
  5
5DC
330
1D
100
AcDbEntity
  8
PIN_TOP
100
AcDbPolyline
 90
        4
 70
     1
 43
0.0
 10
53.43144
 20
34.71164
 10
54.34584
 20
34.71164
 10
54.34584
 20
33.79724
 10
53.43144
 20
33.79724
  0
LWPOLYLINE
  5
5E2
330
1D
100
AcDbEntity
  8
PG_SILKSCREEN_TOP
100
AcDbPolyline
 90
        5
 70
     0
 43
0.1524
 10
54.52364
 20
34.76244
 10
54.52364
 20
32.22244
 42
-0.520826
 10
53.25364
 20
32.22244
 10
53.25364
 20
34.76244
 42
-0.559836
 10
54.52364
 20
34.76244
  0
TEXT
  5
5E9
330
1D
100
AcDbEntity
  8
RD_SILKSCREEN_TOP
100
AcDbText
 10
53.5305
 20
29.1846
 30
0.0
 40
0.7874
  1
C171
 50
90.0
 41
0.935484
100
AcDbText
  0
LWPOLYLINE
  5
5EA
330
1D
100
AcDbEntity
  8
PIN_TOP
100
AcDbPolyline
 90
        4
 70
     1
 43
0.0
 10
58.54446
 20
37.1094
 10
58.54446
 20
36.195
 10
57.63006
 20
36.195
 10
57.63006
 20
37.1094
  0
LWPOLYLINE
  5
5F0
330
1D
100
AcDbEntity
  8
PIN_TOP
100
AcDbPolyline
 90
        4
 70
     1
 43
0.0
 10
60.06846
 20
37.1094
 10
60.06846
 20
36.195
 10
59.15406
 20
36.195
 10
59.15406
 20
37.1094
  0
LWPOLYLINE
  5
5F6
330
1D
100
AcDbEntity
  8
PG_SILKSCREEN_TOP
100
AcDbPolyline
 90
        5
 70
     0
 43
0.1524
 10
60.11926
 20
36.0172
 10
57.57926
 20
36.0172
 42
-0.520826
 10
57.57926
 20
37.2872
 10
60.11926
 20
37.2872
 42
-0.559836
 10
60.11926
 20
36.0172
  0
TEXT
  5
5FD
330
1D
100
AcDbEntity
  8
RD_SILKSCREEN_TOP
100
AcDbText
 10
57.97804
 20
37.52088
 30
0.0
 40
0.7874
  1
C204
 41
0.935484
100
AcDbText
  0
LWPOLYLINE
  5
5FE
330
1D
100
AcDbEntity
  8
PIN_TOP
100
AcDbPolyline
 90
        4
 70
     1
 43
0.0
 10
47.72025
 20
41.878758
 10
47.72025
 20
43.072558
 10
49.11725
 20
43.072558
 10
49.11725
 20
41.878758
  0
LWPOLYLINE
  5
604
330
1D
100
AcDbEntity
  8
PIN_TOP
100
AcDbPolyline
 90
        4
 70
     1
 43
0.0
 10
49.91735
 20
41.878758
 10
49.91735
 20
43.072558
 10
51.31435
 20
43.072558
 10
51.31435
 20
41.878758
  0
LWPOLYLINE
  5
60A
330
1D
100
AcDbEntity
  8
PIN_TOP
100
AcDbPolyline
 90
        4
 70
     1
 43
0.0
 10
49.91735
 20
40.285162
 10
49.91735
 20
41.478962
 10
51.31435
 20
41.478962
 10
51.31435
 20
40.285162
  0
LWPOLYLINE
  5
610
330
1D
100
AcDbEntity
  8
PIN_TOP
100
AcDbPolyline
 90
        4
 70
     1
 43
0.0
 10
47.72025
 20
40.285162
 10
47.72025
 20
41.478962
 10
49.11725
 20
41.478962
 10
49.11725
 20
40.285162
  0
LWPOLYLINE
  5
616
330
1D
100
AcDbEntity
  8
PG_SILKSCREEN_TOP
100
AcDbPolyline
 90
        5
 70
     0
 43
0.199898
 10
47.517304
 20
40.078914
 10
51.517296
 20
40.078914
 10
51.517296
 20
43.278806
 10
47.517304
 20
43.278806
 10
47.517304
 20
40.078914
  0
LWPOLYLINE
  5
61D
330
1D
100
AcDbEntity
  8
PG_SILKSCREEN_TOP
100
AcDbPolyline
 90
        4
 70
     1
 43
0.0
 10
47.4853
 20
41.01846
 10
47.4853
 20
40.20566
 10
47.0535
 20
40.20566
 10
47.0535
 20
41.01846
  0
TEXT
  5
623
330
1D
100
AcDbEntity
  8
RD_SILKSCREEN_TOP
100
AcDbText
 10
51.73218
 20
42.99458
 30
0.0
 40
0.7874
  1
X2
 41
0.935484
100
AcDbText
  0
CIRCLE
  5
624
330
1D
100
AcDbEntity
  8
PIN_TOP
100
AcDbCircle
 10
15.24127
 20
2.365502
 30
0.0
 40
0.762
  0
CIRCLE
  5
625
330
1D
100
AcDbEntity
  8
PIN_TOP
100
AcDbCircle
 10
10.441432
 20
2.365502
 30
0.0
 40
0.762
  0
CIRCLE
  5
626
330
1D
100
AcDbEntity
  8
PIN_TOP
100
AcDbCircle
 10
16.491458
 20
5.115306
 30
0.0
 40
0.999998
  0
CIRCLE
  5
627
330
1D
100
AcDbEntity
  8
PIN_TOP
100
AcDbCircle
 10
9.191244
 20
5.115306
 30
0.0
 40
0.999998
  0
LWPOLYLINE
  5
628
330
1D
100
AcDbEntity
  8
PG_SILKSCREEN_TOP
100
AcDbPolyline
 90
        9
 70
     0
 43
0.1524
 10
16.51
 20
0.1524
 10
16.51
 20
6.1214
 10
9.144
 20
6.1214
 10
9.144
 20
0.1524
 10
11.303
 20
0.1524
 10
11.303
 20
-1.3716
 10
14.351
 20
-1.3716
 10
14.351
 20
0.1524
 10
16.51
 20
0.1524
  0
TEXT
  5
633
330
1D
100
AcDbEntity
  8
RD_SILKSCREEN_TOP
100
AcDbText
 10
10.32002
 20
6.7564
 30
0.0
 40
0.7874
  1
PWR_BTN
 41
0.935484
100
AcDbText
  0
CIRCLE
  5
634
330
1D
100
AcDbEntity
  8
PIN_TOP
100
AcDbCircle
 10
4.563999
 20
13.1572
 30
0.0
 40
0.5715
  0
CIRCLE
  5
635
330
1D
100
AcDbEntity
  8
PIN_TOP
100
AcDbCircle
 10
3.564001
 20
14.4272
 30
0.0
 40
0.5715
  0
CIRCLE
  5
636
330
1D
100
AcDbEntity
  8
PIN_TOP
100
AcDbCircle
 10
3.564001
 20
15.6972
 30
0.0
 40
0.5715
  0
CIRCLE
  5
637
330
1D
100
AcDbEntity
  8
PIN_TOP
100
AcDbCircle
 10
4.563999
 20
16.9672
 30
0.0
 40
0.5715
  0
CIRCLE
  5
638
330
1D
100
AcDbEntity
  8
PIN_TOP
100
AcDbCircle
 10
3.564001
 20
18.2372
 30
0.0
 40
0.5715
  0
CIRCLE
  5
639
330
1D
100
AcDbEntity
  8
PIN_TOP
100
AcDbCircle
 10
3.564001
 20
19.5072
 30
0.0
 40
0.5715
  0
CIRCLE
  5
63A
330
1D
100
AcDbEntity
  8
PIN_TOP
100
AcDbCircle
 10
4.563999
 20
20.7772
 30
0.0
 40
0.5715
  0
CIRCLE
  5
63B
330
1D
100
AcDbEntity
  8
PIN_TOP
100
AcDbCircle
 10
4.064
 20
10.487203
 30
0.0
 40
0.8636
  0
CIRCLE
  5
63C
330
1D
100
AcDbEntity
  8
PIN_TOP
100
AcDbCircle
 10
4.064
 20
23.447197
 30
0.0
 40
0.8636
  0
LWPOLYLINE
  5
63D
330
1D
100
AcDbEntity
  8
PG_SILKSCREEN_TOP
100
AcDbPolyline
 90
        5
 70
     0
 43
0.1524
 10
0.483997
 20
25.57719
 10
6.933997
 20
25.57719
 10
6.933997
 20
8.697189
 10
0.483997
 20
8.697189
 10
0.483997
 20
25.57719
  0
LWPOLYLINE
  5
644
330
1D
100
AcDbEntity
  8
PG_SILKSCREEN_TOP
100
AcDbPolyline
 90
        4
 70
     0
 43
0.1524
 10
2.064004
 20
15.967202
 10
2.939009
 20
15.967202
 10
2.939009
 20
17.967198
 10
2.064004
 20
17.967198
  0
LWPOLYLINE
  5
64A
330
1D
100
AcDbEntity
  8
PG_SILKSCREEN_TOP
100
AcDbPolyline
 90
        3
 70
     0
 43
0.1524
 10
5.188991
 20
11.762207
 10
2.939009
 20
11.762207
 10
2.939009
 20
22.172193
  0
LWPOLYLINE
  5
64F
330
1D
100
AcDbEntity
  8
PG_SILKSCREEN_TOP
100
AcDbPolyline
 90
        2
 70
     0
 43
0.1524
 10
2.064004
 20
17.967198
 10
2.064004
 20
15.967202
  0
TEXT
  5
653
330
1D
100
AcDbEntity
  8
RD_SILKSCREEN_TOP
100
AcDbText
 10
7.98576
 20
11.9083664296
 30
0.0
 40
0.7874
  1
SATA3
 50
90.0
 41
0.935484
 72
     1
 11
7.98576
 21
13.6271
 31
0.0
100
AcDbText
  0
CIRCLE
  5
654
330
1D
100
AcDbEntity
  8
PIN_TOP
100
AcDbCircle
 10
4.563999
 20
31.3182
 30
0.0
 40
0.5715
  0
CIRCLE
  5
655
330
1D
100
AcDbEntity
  8
PIN_TOP
100
AcDbCircle
 10
3.564001
 20
32.5882
 30
0.0
 40
0.5715
  0
CIRCLE
  5
656
330
1D
100
AcDbEntity
  8
PIN_TOP
100
AcDbCircle
 10
3.564001
 20
33.8582
 30
0.0
 40
0.5715
  0
CIRCLE
  5
657
330
1D
100
AcDbEntity
  8
PIN_TOP
100
AcDbCircle
 10
4.563999
 20
35.1282
 30
0.0
 40
0.5715
  0
CIRCLE
  5
658
330
1D
100
AcDbEntity
  8
PIN_TOP
100
AcDbCircle
 10
3.564001
 20
36.3982
 30
0.0
 40
0.5715
  0
CIRCLE
  5
659
330
1D
100
AcDbEntity
  8
PIN_TOP
100
AcDbCircle
 10
3.564001
 20
37.6682
 30
0.0
 40
0.5715
  0
CIRCLE
  5
65A
330
1D
100
AcDbEntity
  8
PIN_TOP
100
AcDbCircle
 10
4.563999
 20
38.9382
 30
0.0
 40
0.5715
  0
CIRCLE
  5
65B
330
1D
100
AcDbEntity
  8
PIN_TOP
100
AcDbCircle
 10
4.064
 20
28.648203
 30
0.0
 40
0.8636
  0
CIRCLE
  5
65C
330
1D
100
AcDbEntity
  8
PIN_TOP
100
AcDbCircle
 10
4.064
 20
41.608197
 30
0.0
 40
0.8636
  0
LWPOLYLINE
  5
65D
330
1D
100
AcDbEntity
  8
PG_SILKSCREEN_TOP
100
AcDbPolyline
 90
        5
 70
     0
 43
0.1524
 10
0.483997
 20
43.73819
 10
6.933997
 20
43.73819
 10
6.933997
 20
26.858189
 10
0.483997
 20
26.858189
 10
0.483997
 20
43.73819
  0
LWPOLYLINE
  5
664
330
1D
100
AcDbEntity
  8
PG_SILKSCREEN_TOP
100
AcDbPolyline
 90
        4
 70
     0
 43
0.1524
 10
2.064004
 20
34.128202
 10
2.939009
 20
34.128202
 10
2.939009
 20
36.128198
 10
2.064004
 20
36.128198
  0
LWPOLYLINE
  5
66A
330
1D
100
AcDbEntity
  8
PG_SILKSCREEN_TOP
100
AcDbPolyline
 90
        3
 70
     0
 43
0.1524
 10
5.188991
 20
29.923207
 10
2.939009
 20
29.923207
 10
2.939009
 20
40.333193
  0
LWPOLYLINE
  5
66F
330
1D
100
AcDbEntity
  8
PG_SILKSCREEN_TOP
100
AcDbPolyline
 90
        2
 70
     0
 43
0.1524
 10
2.064004
 20
36.128198
 10
2.064004
 20
34.128202
  0
TEXT
  5
673
330
1D
100
AcDbEntity
  8
RD_SILKSCREEN_TOP
100
AcDbText
 10
8.05688
 20
28.9449931132
 30
0.0
 40
0.7874
  1
SATA1
 50
90.0
 41
0.935484
 72
     1
 11
8.05688
 21
30.54096
 31
0.0
100
AcDbText
  0
CIRCLE
  5
674
330
1D
100
AcDbEntity
  8
PIN_TOP
100
AcDbCircle
 10
13.326999
 20
31.3182
 30
0.0
 40
0.5715
  0
CIRCLE
  5
675
330
1D
100
AcDbEntity
  8
PIN_TOP
100
AcDbCircle
 10
12.327001
 20
32.5882
 30
0.0
 40
0.5715
  0
CIRCLE
  5
676
330
1D
100
AcDbEntity
  8
PIN_TOP
100
AcDbCircle
 10
12.327001
 20
33.8582
 30
0.0
 40
0.5715
  0
CIRCLE
  5
677
330
1D
100
AcDbEntity
  8
PIN_TOP
100
AcDbCircle
 10
13.326999
 20
35.1282
 30
0.0
 40
0.5715
  0
CIRCLE
  5
678
330
1D
100
AcDbEntity
  8
PIN_TOP
100
AcDbCircle
 10
12.327001
 20
36.3982
 30
0.0
 40
0.5715
  0
CIRCLE
  5
679
330
1D
100
AcDbEntity
  8
PIN_TOP
100
AcDbCircle
 10
12.327001
 20
37.6682
 30
0.0
 40
0.5715
  0
CIRCLE
  5
67A
330
1D
100
AcDbEntity
  8
PIN_TOP
100
AcDbCircle
 10
13.326999
 20
38.9382
 30
0.0
 40
0.5715
  0
CIRCLE
  5
67B
330
1D
100
AcDbEntity
  8
PIN_TOP
100
AcDbCircle
 10
12.827
 20
28.648203
 30
0.0
 40
0.8636
  0
CIRCLE
  5
67C
330
1D
100
AcDbEntity
  8
PIN_TOP
100
AcDbCircle
 10
12.827
 20
41.608197
 30
0.0
 40
0.8636
  0
LWPOLYLINE
  5
67D
330
1D
100
AcDbEntity
  8
PG_SILKSCREEN_TOP
100
AcDbPolyline
 90
        5
 70
     0
 43
0.1524
 10
9.246997
 20
43.73819
 10
15.696997
 20
43.73819
 10
15.696997
 20
26.858189
 10
9.246997
 20
26.858189
 10
9.246997
 20
43.73819
  0
LWPOLYLINE
  5
684
330
1D
100
AcDbEntity
  8
PG_SILKSCREEN_TOP
100
AcDbPolyline
 90
        4
 70
     0
 43
0.1524
 10
10.827004
 20
34.128202
 10
11.702009
 20
34.128202
 10
11.702009
 20
36.128198
 10
10.827004
 20
36.128198
  0
LWPOLYLINE
  5
68A
330
1D
100
AcDbEntity
  8
PG_SILKSCREEN_TOP
100
AcDbPolyline
 90
        3
 70
     0
 43
0.1524
 10
13.951991
 20
29.923207
 10
11.702009
 20
29.923207
 10
11.702009
 20
40.333193
  0
LWPOLYLINE
  5
68F
330
1D
100
AcDbEntity
  8
PG_SILKSCREEN_TOP
100
AcDbPolyline
 90
        2
 70
     0
 43
0.1524
 10
10.827004
 20
36.128198
 10
10.827004
 20
34.128202
  0
TEXT
  5
693
330
1D
100
AcDbEntity
  8
RD_SILKSCREEN_TOP
100
AcDbText
 10
16.83258
 20
28.7282464296
 30
0.0
 40
0.7874
  1
SATA2
 50
90.0
 41
0.935484
 72
     1
 11
16.83258
 21
30.44698
 31
0.0
100
AcDbText
  0
CIRCLE
  5
694
330
1D
100
AcDbEntity
  8
PIN_TOP
100
AcDbCircle
 10
13.326999
 20
13.1572
 30
0.0
 40
0.5715
  0
CIRCLE
  5
695
330
1D
100
AcDbEntity
  8
PIN_TOP
100
AcDbCircle
 10
12.327001
 20
14.4272
 30
0.0
 40
0.5715
  0
CIRCLE
  5
696
330
1D
100
AcDbEntity
  8
PIN_TOP
100
AcDbCircle
 10
12.327001
 20
15.6972
 30
0.0
 40
0.5715
  0
CIRCLE
  5
697
330
1D
100
AcDbEntity
  8
PIN_TOP
100
AcDbCircle
 10
13.326999
 20
16.9672
 30
0.0
 40
0.5715
  0
CIRCLE
  5
698
330
1D
100
AcDbEntity
  8
PIN_TOP
100
AcDbCircle
 10
12.327001
 20
18.2372
 30
0.0
 40
0.5715
  0
CIRCLE
  5
699
330
1D
100
AcDbEntity
  8
PIN_TOP
100
AcDbCircle
 10
12.327001
 20
19.5072
 30
0.0
 40
0.5715
  0
CIRCLE
  5
69A
330
1D
100
AcDbEntity
  8
PIN_TOP
100
AcDbCircle
 10
13.326999
 20
20.7772
 30
0.0
 40
0.5715
  0
CIRCLE
  5
69B
330
1D
100
AcDbEntity
  8
PIN_TOP
100
AcDbCircle
 10
12.827
 20
10.487203
 30
0.0
 40
0.8636
  0
CIRCLE
  5
69C
330
1D
100
AcDbEntity
  8
PIN_TOP
100
AcDbCircle
 10
12.827
 20
23.447197
 30
0.0
 40
0.8636
  0
LWPOLYLINE
  5
69D
330
1D
100
AcDbEntity
  8
PG_SILKSCREEN_TOP
100
AcDbPolyline
 90
        5
 70
     0
 43
0.1524
 10
9.246997
 20
25.57719
 10
15.696997
 20
25.57719
 10
15.696997
 20
8.697189
 10
9.246997
 20
8.697189
 10
9.246997
 20
25.57719
  0
LWPOLYLINE
  5
6A4
330
1D
100
AcDbEntity
  8
PG_SILKSCREEN_TOP
100
AcDbPolyline
 90
        4
 70
     0
 43
0.1524
 10
10.827004
 20
15.967202
 10
11.702009
 20
15.967202
 10
11.702009
 20
17.967198
 10
10.827004
 20
17.967198
  0
LWPOLYLINE
  5
6AA
330
1D
100
AcDbEntity
  8
PG_SILKSCREEN_TOP
100
AcDbPolyline
 90
        3
 70
     0
 43
0.1524
 10
13.951991
 20
11.762207
 10
11.702009
 20
11.762207
 10
11.702009
 20
22.172193
  0
LWPOLYLINE
  5
6AF
330
1D
100
AcDbEntity
  8
PG_SILKSCREEN_TOP
100
AcDbPolyline
 90
        2
 70
     0
 43
0.1524
 10
10.827004
 20
17.967198
 10
10.827004
 20
15.967202
  0
TEXT
  5
6B3
330
1D
100
AcDbEntity
  8
RD_SILKSCREEN_TOP
100
AcDbText
 10
16.92656
 20
11.8855064296
 30
0.0
 40
0.7874
  1
SATA4
 50
90.0
 41
0.935484
 72
     1
 11
16.92656
 21
13.60424
 31
0.0
100
AcDbText
  0
CIRCLE
  5
6B4
330
1D
100
AcDbEntity
  8
PIN_TOP
100
AcDbCircle
 10
41.3766
 20
48.6918
 30
0.0
 40
0.762
  0
CIRCLE
  5
6B5
330
1D
100
AcDbEntity
  8
PIN_TOP
100
AcDbCircle
 10
38.8366
 20
48.6918
 30
0.0
 40
0.762
  0
CIRCLE
  5
6B6
330
1D
100
AcDbEntity
  8
PIN_TOP
100
AcDbCircle
 10
36.2966
 20
48.6918
 30
0.0
 40
0.762
  0
CIRCLE
  5
6B7
330
1D
100
AcDbEntity
  8
PIN_TOP
100
AcDbCircle
 10
33.7566
 20
48.6918
 30
0.0
 40
0.762
  0
CIRCLE
  5
6B8
330
1D
100
AcDbEntity
  8
PIN_TOP
100
AcDbCircle
 10
31.2166
 20
48.6918
 30
0.0
 40
0.762
  0
CIRCLE
  5
6B9
330
1D
100
AcDbEntity
  8
PIN_TOP
100
AcDbCircle
 10
28.6766
 20
48.6918
 30
0.0
 40
0.762
  0
CIRCLE
  5
6BA
330
1D
100
AcDbEntity
  8
PIN_TOP
100
AcDbCircle
 10
26.1366
 20
48.6918
 30
0.0
 40
0.762
  0
CIRCLE
  5
6BB
330
1D
100
AcDbEntity
  8
PIN_TOP
100
AcDbCircle
 10
23.5966
 20
48.6918
 30
0.0
 40
0.762
  0
CIRCLE
  5
6BC
330
1D
100
AcDbEntity
  8
PIN_TOP
100
AcDbCircle
 10
21.0566
 20
48.6918
 30
0.0
 40
0.762
  0
CIRCLE
  5
6BD
330
1D
100
AcDbEntity
  8
PIN_TOP
100
AcDbCircle
 10
18.5166
 20
48.6918
 30
0.0
 40
0.762
  0
CIRCLE
  5
6BE
330
1D
100
AcDbEntity
  8
PIN_TOP
100
AcDbCircle
 10
15.9766
 20
48.6918
 30
0.0
 40
0.762
  0
CIRCLE
  5
6BF
330
1D
100
AcDbEntity
  8
PIN_TOP
100
AcDbCircle
 10
13.4366
 20
48.6918
 30
0.0
 40
0.762
  0
CIRCLE
  5
6C0
330
1D
100
AcDbEntity
  8
PIN_TOP
100
AcDbCircle
 10
41.3766
 20
46.1518
 30
0.0
 40
0.762
  0
CIRCLE
  5
6C1
330
1D
100
AcDbEntity
  8
PIN_TOP
100
AcDbCircle
 10
38.8366
 20
46.1518
 30
0.0
 40
0.762
  0
CIRCLE
  5
6C2
330
1D
100
AcDbEntity
  8
PIN_TOP
100
AcDbCircle
 10
36.2966
 20
46.1518
 30
0.0
 40
0.762
  0
CIRCLE
  5
6C3
330
1D
100
AcDbEntity
  8
PIN_TOP
100
AcDbCircle
 10
33.7566
 20
46.1518
 30
0.0
 40
0.762
  0
CIRCLE
  5
6C4
330
1D
100
AcDbEntity
  8
PIN_TOP
100
AcDbCircle
 10
31.2166
 20
46.1518
 30
0.0
 40
0.762
  0
CIRCLE
  5
6C5
330
1D
100
AcDbEntity
  8
PIN_TOP
100
AcDbCircle
 10
28.6766
 20
46.1518
 30
0.0
 40
0.762
  0
CIRCLE
  5
6C6
330
1D
100
AcDbEntity
  8
PIN_TOP
100
AcDbCircle
 10
26.1366
 20
46.1518
 30
0.0
 40
0.762
  0
CIRCLE
  5
6C7
330
1D
100
AcDbEntity
  8
PIN_TOP
100
AcDbCircle
 10
23.5966
 20
46.1518
 30
0.0
 40
0.762
  0
CIRCLE
  5
6C8
330
1D
100
AcDbEntity
  8
PIN_TOP
100
AcDbCircle
 10
21.0566
 20
46.1518
 30
0.0
 40
0.762
  0
CIRCLE
  5
6C9
330
1D
100
AcDbEntity
  8
PIN_TOP
100
AcDbCircle
 10
18.5166
 20
46.1518
 30
0.0
 40
0.762
  0
CIRCLE
  5
6CA
330
1D
100
AcDbEntity
  8
PIN_TOP
100
AcDbCircle
 10
15.9766
 20
46.1518
 30
0.0
 40
0.762
  0
CIRCLE
  5
6CB
330
1D
100
AcDbEntity
  8
PIN_TOP
100
AcDbCircle
 10
13.4366
 20
46.1518
 30
0.0
 40
0.762
  0
LWPOLYLINE
  5
6CC
330
1D
100
AcDbEntity
  8
PG_SILKSCREEN_TOP
100
AcDbPolyline
 90
        4
 70
     0
 43
0.2032
 10
14.7066
 20
49.4538
 10
14.1986
 20
49.9618
 10
12.6746
 20
49.9618
 10
12.1666
 20
49.4538
  0
LWPOLYLINE
  5
6D2
330
1D
100
AcDbEntity
  8
PG_SILKSCREEN_TOP
100
AcDbPolyline
 90
        4
 70
     0
 43
0.2032
 10
17.2466
 20
49.4538
 10
16.7386
 20
49.9618
 10
15.2146
 20
49.9618
 10
14.7066
 20
49.4538
  0
LWPOLYLINE
  5
6D8
330
1D
100
AcDbEntity
  8
PG_SILKSCREEN_TOP
100
AcDbPolyline
 90
        4
 70
     0
 43
0.2032
 10
19.7866
 20
49.4538
 10
19.2786
 20
49.9618
 10
17.7546
 20
49.9618
 10
17.2466
 20
49.4538
  0
LWPOLYLINE
  5
6DE
330
1D
100
AcDbEntity
  8
PG_SILKSCREEN_TOP
100
AcDbPolyline
 90
        4
 70
     0
 43
0.2032
 10
22.3266
 20
49.4538
 10
21.8186
 20
49.9618
 10
20.2946
 20
49.9618
 10
19.7866
 20
49.4538
  0
LWPOLYLINE
  5
6E4
330
1D
100
AcDbEntity
  8
PG_SILKSCREEN_TOP
100
AcDbPolyline
 90
        4
 70
     0
 43
0.2032
 10
24.8666
 20
49.4538
 10
24.3586
 20
49.9618
 10
22.8346
 20
49.9618
 10
22.3266
 20
49.4538
  0
LWPOLYLINE
  5
6EA
330
1D
100
AcDbEntity
  8
PG_SILKSCREEN_TOP
100
AcDbPolyline
 90
        4
 70
     0
 43
0.2032
 10
27.4066
 20
49.4538
 10
26.8986
 20
49.9618
 10
25.3746
 20
49.9618
 10
24.8666
 20
49.4538
  0
LWPOLYLINE
  5
6F0
330
1D
100
AcDbEntity
  8
PG_SILKSCREEN_TOP
100
AcDbPolyline
 90
        4
 70
     0
 43
0.2032
 10
29.9466
 20
49.4538
 10
29.4386
 20
49.9618
 10
27.9146
 20
49.9618
 10
27.4066
 20
49.4538
  0
LWPOLYLINE
  5
6F6
330
1D
100
AcDbEntity
  8
PG_SILKSCREEN_TOP
100
AcDbPolyline
 90
        4
 70
     0
 43
0.2032
 10
32.4866
 20
49.4538
 10
31.9786
 20
49.9618
 10
30.4546
 20
49.9618
 10
29.9466
 20
49.4538
  0
LWPOLYLINE
  5
6FC
330
1D
100
AcDbEntity
  8
PG_SILKSCREEN_TOP
100
AcDbPolyline
 90
        4
 70
     0
 43
0.2032
 10
35.0266
 20
49.4538
 10
34.5186
 20
49.9618
 10
32.9946
 20
49.9618
 10
32.4866
 20
49.4538
  0
LWPOLYLINE
  5
702
330
1D
100
AcDbEntity
  8
PG_SILKSCREEN_TOP
100
AcDbPolyline
 90
        4
 70
     0
 43
0.2032
 10
37.5666
 20
49.4538
 10
37.0586
 20
49.9618
 10
35.5346
 20
49.9618
 10
35.0266
 20
49.4538
  0
LWPOLYLINE
  5
708
330
1D
100
AcDbEntity
  8
PG_SILKSCREEN_TOP
100
AcDbPolyline
 90
        4
 70
     0
 43
0.2032
 10
40.1066
 20
49.4538
 10
39.5986
 20
49.9618
 10
38.0746
 20
49.9618
 10
37.5666
 20
49.4538
  0
LWPOLYLINE
  5
70E
330
1D
100
AcDbEntity
  8
PG_SILKSCREEN_TOP
100
AcDbPolyline
 90
        8
 70
     0
 43
0.2032
 10
40.1066
 20
49.4538
 10
40.6146
 20
49.9618
 10
42.1386
 20
49.9618
 10
42.6466
 20
49.4538
 10
42.6466
 20
45.3898
 10
42.1386
 20
44.8818
 10
40.6146
 20
44.8818
 10
40.1066
 20
45.3898
  0
LWPOLYLINE
  5
718
330
1D
100
AcDbEntity
  8
PG_SILKSCREEN_TOP
100
AcDbPolyline
 90
        4
 70
     0
 43
0.2032
 10
37.5666
 20
45.3898
 10
38.0746
 20
44.8818
 10
39.5986
 20
44.8818
 10
40.1066
 20
45.3898
  0
LWPOLYLINE
  5
71E
330
1D
100
AcDbEntity
  8
PG_SILKSCREEN_TOP
100
AcDbPolyline
 90
        4
 70
     0
 43
0.2032
 10
35.0266
 20
45.3898
 10
35.5346
 20
44.8818
 10
37.0586
 20
44.8818
 10
37.5666
 20
45.3898
  0
LWPOLYLINE
  5
724
330
1D
100
AcDbEntity
  8
PG_SILKSCREEN_TOP
100
AcDbPolyline
 90
        4
 70
     0
 43
0.2032
 10
32.4866
 20
45.3898
 10
32.9946
 20
44.8818
 10
34.5186
 20
44.8818
 10
35.0266
 20
45.3898
  0
LWPOLYLINE
  5
72A
330
1D
100
AcDbEntity
  8
PG_SILKSCREEN_TOP
100
AcDbPolyline
 90
        4
 70
     0
 43
0.2032
 10
29.9466
 20
45.3898
 10
30.4546
 20
44.8818
 10
31.9786
 20
44.8818
 10
32.4866
 20
45.3898
  0
LWPOLYLINE
  5
730
330
1D
100
AcDbEntity
  8
PG_SILKSCREEN_TOP
100
AcDbPolyline
 90
        4
 70
     0
 43
0.2032
 10
27.4066
 20
45.3898
 10
27.9146
 20
44.8818
 10
29.4386
 20
44.8818
 10
29.9466
 20
45.3898
  0
LWPOLYLINE
  5
736
330
1D
100
AcDbEntity
  8
PG_SILKSCREEN_TOP
100
AcDbPolyline
 90
        4
 70
     0
 43
0.2032
 10
24.8666
 20
45.3898
 10
25.3746
 20
44.8818
 10
26.8986
 20
44.8818
 10
27.4066
 20
45.3898
  0
LWPOLYLINE
  5
73C
330
1D
100
AcDbEntity
  8
PG_SILKSCREEN_TOP
100
AcDbPolyline
 90
        4
 70
     0
 43
0.2032
 10
22.3266
 20
45.3898
 10
22.8346
 20
44.8818
 10
24.3586
 20
44.8818
 10
24.8666
 20
45.3898
  0
LWPOLYLINE
  5
742
330
1D
100
AcDbEntity
  8
PG_SILKSCREEN_TOP
100
AcDbPolyline
 90
        4
 70
     0
 43
0.2032
 10
19.7866
 20
45.3898
 10
20.2946
 20
44.8818
 10
21.8186
 20
44.8818
 10
22.3266
 20
45.3898
  0
LWPOLYLINE
  5
748
330
1D
100
AcDbEntity
  8
PG_SILKSCREEN_TOP
100
AcDbPolyline
 90
        4
 70
     0
 43
0.2032
 10
17.2466
 20
45.3898
 10
17.7546
 20
44.8818
 10
19.2786
 20
44.8818
 10
19.7866
 20
45.3898
  0
LWPOLYLINE
  5
74E
330
1D
100
AcDbEntity
  8
PG_SILKSCREEN_TOP
100
AcDbPolyline
 90
        4
 70
     0
 43
0.2032
 10
14.7066
 20
45.3898
 10
15.2146
 20
44.8818
 10
16.7386
 20
44.8818
 10
17.2466
 20
45.3898
  0
LWPOLYLINE
  5
754
330
1D
100
AcDbEntity
  8
PG_SILKSCREEN_TOP
100
AcDbPolyline
 90
        4
 70
     0
 43
0.2032
 10
12.1666
 20
45.3898
 10
12.6746
 20
44.8818
 10
14.1986
 20
44.8818
 10
14.7066
 20
45.3898
  0
LWPOLYLINE
  5
75A
330
1D
100
AcDbEntity
  8
PG_SILKSCREEN_TOP
100
AcDbPolyline
 90
        4
 70
     0
 43
0.2032
 10
12.6746
 20
49.9618
 10
12.1666
 20
49.4538
 10
12.1666
 20
45.3898
 10
12.6746
 20
44.8818
  0
LWPOLYLINE
  5
760
330
1D
100
AcDbEntity
  8
PG_SILKSCREEN_TOP
100
AcDbPolyline
 90
        5
 70
     0
 43
0.254
 10
12.1666
 20
47.4218
 10
14.7066
 20
47.4218
 10
14.7066
 20
44.8818
 10
12.1666
 20
44.8818
 10
12.1666
 20
47.4218
  0
LWPOLYLINE
  5
767
330
1D
100
AcDbEntity
  8
PG_SILKSCREEN_TOP
100
AcDbPolyline
 90
        4
 70
     0
 43
0.2032
 10
13.4366
 20
44.8818
 10
12.6746
 20
44.1198
 10
14.1986
 20
44.1198
 10
13.4366
 20
44.8818
  0
TEXT
  5
76D
330
1D
100
AcDbEntity
  8
RD_SILKSCREEN_TOP
100
AcDbText
 10
8.04418
 20
45.53458
 30
0.0
 40
0.7874
  1
GPIO2
 41
0.935484
100
AcDbText
  0
CIRCLE
  5
76E
330
1D
100
AcDbEntity
  8
PIN_TOP
100
AcDbCircle
 10
56.6166
 20
53.7718
 30
0.0
 40
0.762
  0
CIRCLE
  5
76F
330
1D
100
AcDbEntity
  8
PIN_TOP
100
AcDbCircle
 10
54.0766
 20
53.7718
 30
0.0
 40
0.762
  0
CIRCLE
  5
770
330
1D
100
AcDbEntity
  8
PIN_TOP
100
AcDbCircle
 10
51.5366
 20
53.7718
 30
0.0
 40
0.762
  0
CIRCLE
  5
771
330
1D
100
AcDbEntity
  8
PIN_TOP
100
AcDbCircle
 10
48.9966
 20
53.7718
 30
0.0
 40
0.762
  0
CIRCLE
  5
772
330
1D
100
AcDbEntity
  8
PIN_TOP
100
AcDbCircle
 10
46.4566
 20
53.7718
 30
0.0
 40
0.762
  0
CIRCLE
  5
773
330
1D
100
AcDbEntity
  8
PIN_TOP
100
AcDbCircle
 10
43.9166
 20
53.7718
 30
0.0
 40
0.762
  0
CIRCLE
  5
774
330
1D
100
AcDbEntity
  8
PIN_TOP
100
AcDbCircle
 10
41.3766
 20
53.7718
 30
0.0
 40
0.762
  0
CIRCLE
  5
775
330
1D
100
AcDbEntity
  8
PIN_TOP
100
AcDbCircle
 10
38.8366
 20
53.7718
 30
0.0
 40
0.762
  0
CIRCLE
  5
776
330
1D
100
AcDbEntity
  8
PIN_TOP
100
AcDbCircle
 10
36.2966
 20
53.7718
 30
0.0
 40
0.762
  0
CIRCLE
  5
777
330
1D
100
AcDbEntity
  8
PIN_TOP
100
AcDbCircle
 10
33.7566
 20
53.7718
 30
0.0
 40
0.762
  0
CIRCLE
  5
778
330
1D
100
AcDbEntity
  8
PIN_TOP
100
AcDbCircle
 10
31.2166
 20
53.7718
 30
0.0
 40
0.762
  0
CIRCLE
  5
779
330
1D
100
AcDbEntity
  8
PIN_TOP
100
AcDbCircle
 10
28.6766
 20
53.7718
 30
0.0
 40
0.762
  0
CIRCLE
  5
77A
330
1D
100
AcDbEntity
  8
PIN_TOP
100
AcDbCircle
 10
26.1366
 20
53.7718
 30
0.0
 40
0.762
  0
CIRCLE
  5
77B
330
1D
100
AcDbEntity
  8
PIN_TOP
100
AcDbCircle
 10
23.5966
 20
53.7718
 30
0.0
 40
0.762
  0
CIRCLE
  5
77C
330
1D
100
AcDbEntity
  8
PIN_TOP
100
AcDbCircle
 10
21.0566
 20
53.7718
 30
0.0
 40
0.762
  0
CIRCLE
  5
77D
330
1D
100
AcDbEntity
  8
PIN_TOP
100
AcDbCircle
 10
18.5166
 20
53.7718
 30
0.0
 40
0.762
  0
CIRCLE
  5
77E
330
1D
100
AcDbEntity
  8
PIN_TOP
100
AcDbCircle
 10
15.9766
 20
53.7718
 30
0.0
 40
0.762
  0
CIRCLE
  5
77F
330
1D
100
AcDbEntity
  8
PIN_TOP
100
AcDbCircle
 10
13.4366
 20
53.7718
 30
0.0
 40
0.762
  0
CIRCLE
  5
780
330
1D
100
AcDbEntity
  8
PIN_TOP
100
AcDbCircle
 10
10.8966
 20
53.7718
 30
0.0
 40
0.762
  0
CIRCLE
  5
781
330
1D
100
AcDbEntity
  8
PIN_TOP
100
AcDbCircle
 10
8.3566
 20
53.7718
 30
0.0
 40
0.762
  0
CIRCLE
  5
782
330
1D
100
AcDbEntity
  8
PIN_TOP
100
AcDbCircle
 10
56.6166
 20
51.2318
 30
0.0
 40
0.762
  0
CIRCLE
  5
783
330
1D
100
AcDbEntity
  8
PIN_TOP
100
AcDbCircle
 10
54.0766
 20
51.2318
 30
0.0
 40
0.762
  0
CIRCLE
  5
784
330
1D
100
AcDbEntity
  8
PIN_TOP
100
AcDbCircle
 10
51.5366
 20
51.2318
 30
0.0
 40
0.762
  0
CIRCLE
  5
785
330
1D
100
AcDbEntity
  8
PIN_TOP
100
AcDbCircle
 10
48.9966
 20
51.2318
 30
0.0
 40
0.762
  0
CIRCLE
  5
786
330
1D
100
AcDbEntity
  8
PIN_TOP
100
AcDbCircle
 10
46.4566
 20
51.2318
 30
0.0
 40
0.762
  0
CIRCLE
  5
787
330
1D
100
AcDbEntity
  8
PIN_TOP
100
AcDbCircle
 10
43.9166
 20
51.2318
 30
0.0
 40
0.762
  0
CIRCLE
  5
788
330
1D
100
AcDbEntity
  8
PIN_TOP
100
AcDbCircle
 10
41.3766
 20
51.2318
 30
0.0
 40
0.762
  0
CIRCLE
  5
789
330
1D
100
AcDbEntity
  8
PIN_TOP
100
AcDbCircle
 10
38.8366
 20
51.2318
 30
0.0
 40
0.762
  0
CIRCLE
  5
78A
330
1D
100
AcDbEntity
  8
PIN_TOP
100
AcDbCircle
 10
36.2966
 20
51.2318
 30
0.0
 40
0.762
  0
CIRCLE
  5
78B
330
1D
100
AcDbEntity
  8
PIN_TOP
100
AcDbCircle
 10
33.7566
 20
51.2318
 30
0.0
 40
0.762
  0
CIRCLE
  5
78C
330
1D
100
AcDbEntity
  8
PIN_TOP
100
AcDbCircle
 10
31.2166
 20
51.2318
 30
0.0
 40
0.762
  0
CIRCLE
  5
78D
330
1D
100
AcDbEntity
  8
PIN_TOP
100
AcDbCircle
 10
28.6766
 20
51.2318
 30
0.0
 40
0.762
  0
CIRCLE
  5
78E
330
1D
100
AcDbEntity
  8
PIN_TOP
100
AcDbCircle
 10
26.1366
 20
51.2318
 30
0.0
 40
0.762
  0
CIRCLE
  5
78F
330
1D
100
AcDbEntity
  8
PIN_TOP
100
AcDbCircle
 10
23.5966
 20
51.2318
 30
0.0
 40
0.762
  0
CIRCLE
  5
790
330
1D
100
AcDbEntity
  8
PIN_TOP
100
AcDbCircle
 10
21.0566
 20
51.2318
 30
0.0
 40
0.762
  0
CIRCLE
  5
791
330
1D
100
AcDbEntity
  8
PIN_TOP
100
AcDbCircle
 10
18.5166
 20
51.2318
 30
0.0
 40
0.762
  0
CIRCLE
  5
792
330
1D
100
AcDbEntity
  8
PIN_TOP
100
AcDbCircle
 10
15.9766
 20
51.2318
 30
0.0
 40
0.762
  0
CIRCLE
  5
793
330
1D
100
AcDbEntity
  8
PIN_TOP
100
AcDbCircle
 10
13.4366
 20
51.2318
 30
0.0
 40
0.762
  0
CIRCLE
  5
794
330
1D
100
AcDbEntity
  8
PIN_TOP
100
AcDbCircle
 10
10.8966
 20
51.2318
 30
0.0
 40
0.762
  0
CIRCLE
  5
795
330
1D
100
AcDbEntity
  8
PIN_TOP
100
AcDbCircle
 10
8.3566
 20
51.2318
 30
0.0
 40
0.762
  0
LWPOLYLINE
  5
796
330
1D
100
AcDbEntity
  8
PG_SILKSCREEN_TOP
100
AcDbPolyline
 90
        4
 70
     0
 43
0.2032
 10
9.6266
 20
54.5338
 10
9.1186
 20
55.0418
 10
7.5946
 20
55.0418
 10
7.0866
 20
54.5338
  0
LWPOLYLINE
  5
79C
330
1D
100
AcDbEntity
  8
PG_SILKSCREEN_TOP
100
AcDbPolyline
 90
        4
 70
     0
 43
0.2032
 10
12.1666
 20
54.5338
 10
11.6586
 20
55.0418
 10
10.1346
 20
55.0418
 10
9.6266
 20
54.5338
  0
LWPOLYLINE
  5
7A2
330
1D
100
AcDbEntity
  8
PG_SILKSCREEN_TOP
100
AcDbPolyline
 90
        4
 70
     0
 43
0.2032
 10
14.7066
 20
54.5338
 10
14.1986
 20
55.0418
 10
12.6746
 20
55.0418
 10
12.1666
 20
54.5338
  0
LWPOLYLINE
  5
7A8
330
1D
100
AcDbEntity
  8
PG_SILKSCREEN_TOP
100
AcDbPolyline
 90
        4
 70
     0
 43
0.2032
 10
17.2466
 20
54.5338
 10
16.7386
 20
55.0418
 10
15.2146
 20
55.0418
 10
14.7066
 20
54.5338
  0
LWPOLYLINE
  5
7AE
330
1D
100
AcDbEntity
  8
PG_SILKSCREEN_TOP
100
AcDbPolyline
 90
        4
 70
     0
 43
0.2032
 10
19.7866
 20
54.5338
 10
19.2786
 20
55.0418
 10
17.7546
 20
55.0418
 10
17.2466
 20
54.5338
  0
LWPOLYLINE
  5
7B4
330
1D
100
AcDbEntity
  8
PG_SILKSCREEN_TOP
100
AcDbPolyline
 90
        4
 70
     0
 43
0.2032
 10
22.3266
 20
54.5338
 10
21.8186
 20
55.0418
 10
20.2946
 20
55.0418
 10
19.7866
 20
54.5338
  0
LWPOLYLINE
  5
7BA
330
1D
100
AcDbEntity
  8
PG_SILKSCREEN_TOP
100
AcDbPolyline
 90
        4
 70
     0
 43
0.2032
 10
24.8666
 20
54.5338
 10
24.3586
 20
55.0418
 10
22.8346
 20
55.0418
 10
22.3266
 20
54.5338
  0
LWPOLYLINE
  5
7C0
330
1D
100
AcDbEntity
  8
PG_SILKSCREEN_TOP
100
AcDbPolyline
 90
        4
 70
     0
 43
0.2032
 10
27.4066
 20
54.5338
 10
26.8986
 20
55.0418
 10
25.3746
 20
55.0418
 10
24.8666
 20
54.5338
  0
LWPOLYLINE
  5
7C6
330
1D
100
AcDbEntity
  8
PG_SILKSCREEN_TOP
100
AcDbPolyline
 90
        4
 70
     0
 43
0.2032
 10
29.9466
 20
54.5338
 10
29.4386
 20
55.0418
 10
27.9146
 20
55.0418
 10
27.4066
 20
54.5338
  0
LWPOLYLINE
  5
7CC
330
1D
100
AcDbEntity
  8
PG_SILKSCREEN_TOP
100
AcDbPolyline
 90
        4
 70
     0
 43
0.2032
 10
32.4866
 20
54.5338
 10
31.9786
 20
55.0418
 10
30.4546
 20
55.0418
 10
29.9466
 20
54.5338
  0
LWPOLYLINE
  5
7D2
330
1D
100
AcDbEntity
  8
PG_SILKSCREEN_TOP
100
AcDbPolyline
 90
        4
 70
     0
 43
0.2032
 10
35.0266
 20
54.5338
 10
34.5186
 20
55.0418
 10
32.9946
 20
55.0418
 10
32.4866
 20
54.5338
  0
LWPOLYLINE
  5
7D8
330
1D
100
AcDbEntity
  8
PG_SILKSCREEN_TOP
100
AcDbPolyline
 90
        4
 70
     0
 43
0.2032
 10
37.5666
 20
54.5338
 10
37.0586
 20
55.0418
 10
35.5346
 20
55.0418
 10
35.0266
 20
54.5338
  0
LWPOLYLINE
  5
7DE
330
1D
100
AcDbEntity
  8
PG_SILKSCREEN_TOP
100
AcDbPolyline
 90
        4
 70
     0
 43
0.2032
 10
40.1066
 20
54.5338
 10
39.5986
 20
55.0418
 10
38.0746
 20
55.0418
 10
37.5666
 20
54.5338
  0
LWPOLYLINE
  5
7E4
330
1D
100
AcDbEntity
  8
PG_SILKSCREEN_TOP
100
AcDbPolyline
 90
        4
 70
     0
 43
0.2032
 10
42.6466
 20
54.5338
 10
42.1386
 20
55.0418
 10
40.6146
 20
55.0418
 10
40.1066
 20
54.5338
  0
LWPOLYLINE
  5
7EA
330
1D
100
AcDbEntity
  8
PG_SILKSCREEN_TOP
100
AcDbPolyline
 90
        4
 70
     0
 43
0.2032
 10
45.1866
 20
54.5338
 10
44.6786
 20
55.0418
 10
43.1546
 20
55.0418
 10
42.6466
 20
54.5338
  0
LWPOLYLINE
  5
7F0
330
1D
100
AcDbEntity
  8
PG_SILKSCREEN_TOP
100
AcDbPolyline
 90
        4
 70
     0
 43
0.2032
 10
47.7266
 20
54.5338
 10
47.2186
 20
55.0418
 10
45.6946
 20
55.0418
 10
45.1866
 20
54.5338
  0
LWPOLYLINE
  5
7F6
330
1D
100
AcDbEntity
  8
PG_SILKSCREEN_TOP
100
AcDbPolyline
 90
        4
 70
     0
 43
0.2032
 10
50.2666
 20
54.5338
 10
49.7586
 20
55.0418
 10
48.2346
 20
55.0418
 10
47.7266
 20
54.5338
  0
LWPOLYLINE
  5
7FC
330
1D
100
AcDbEntity
  8
PG_SILKSCREEN_TOP
100
AcDbPolyline
 90
        4
 70
     0
 43
0.2032
 10
52.8066
 20
54.5338
 10
52.2986
 20
55.0418
 10
50.7746
 20
55.0418
 10
50.2666
 20
54.5338
  0
LWPOLYLINE
  5
802
330
1D
100
AcDbEntity
  8
PG_SILKSCREEN_TOP
100
AcDbPolyline
 90
        4
 70
     0
 43
0.2032
 10
55.3466
 20
54.5338
 10
54.8386
 20
55.0418
 10
53.3146
 20
55.0418
 10
52.8066
 20
54.5338
  0
LWPOLYLINE
  5
808
330
1D
100
AcDbEntity
  8
PG_SILKSCREEN_TOP
100
AcDbPolyline
 90
        4
 70
     0
 43
0.2032
 10
57.8866
 20
54.5338
 10
57.3786
 20
55.0418
 10
55.8546
 20
55.0418
 10
55.3466
 20
54.5338
  0
LWPOLYLINE
  5
80E
330
1D
100
AcDbEntity
  8
PG_SILKSCREEN_TOP
100
AcDbPolyline
 90
        4
 70
     0
 43
0.2032
 10
57.3786
 20
49.9618
 10
57.8866
 20
50.4698
 10
57.8866
 20
51.9938
 10
57.3786
 20
52.5018
  0
LWPOLYLINE
  5
814
330
1D
100
AcDbEntity
  8
PG_SILKSCREEN_TOP
100
AcDbPolyline
 90
        4
 70
     0
 43
0.2032
 10
57.3786
 20
52.5018
 10
57.8866
 20
53.0098
 10
57.8866
 20
54.5338
 10
57.3786
 20
55.0418
  0
LWPOLYLINE
  5
81A
330
1D
100
AcDbEntity
  8
PG_SILKSCREEN_TOP
100
AcDbPolyline
 90
        4
 70
     0
 43
0.2032
 10
55.3466
 20
50.4698
 10
55.8546
 20
49.9618
 10
57.3786
 20
49.9618
 10
57.8866
 20
50.4698
  0
LWPOLYLINE
  5
820
330
1D
100
AcDbEntity
  8
PG_SILKSCREEN_TOP
100
AcDbPolyline
 90
        4
 70
     0
 43
0.2032
 10
52.8066
 20
50.4698
 10
53.3146
 20
49.9618
 10
54.8386
 20
49.9618
 10
55.3466
 20
50.4698
  0
LWPOLYLINE
  5
826
330
1D
100
AcDbEntity
  8
PG_SILKSCREEN_TOP
100
AcDbPolyline
 90
        4
 70
     0
 43
0.2032
 10
50.2666
 20
50.4698
 10
50.7746
 20
49.9618
 10
52.2986
 20
49.9618
 10
52.8066
 20
50.4698
  0
LWPOLYLINE
  5
82C
330
1D
100
AcDbEntity
  8
PG_SILKSCREEN_TOP
100
AcDbPolyline
 90
        4
 70
     0
 43
0.2032
 10
47.7266
 20
50.4698
 10
48.2346
 20
49.9618
 10
49.7586
 20
49.9618
 10
50.2666
 20
50.4698
  0
LWPOLYLINE
  5
832
330
1D
100
AcDbEntity
  8
PG_SILKSCREEN_TOP
100
AcDbPolyline
 90
        4
 70
     0
 43
0.2032
 10
45.1866
 20
50.4698
 10
45.6946
 20
49.9618
 10
47.2186
 20
49.9618
 10
47.7266
 20
50.4698
  0
LWPOLYLINE
  5
838
330
1D
100
AcDbEntity
  8
PG_SILKSCREEN_TOP
100
AcDbPolyline
 90
        4
 70
     0
 43
0.2032
 10
42.6466
 20
50.4698
 10
43.1546
 20
49.9618
 10
44.6786
 20
49.9618
 10
45.1866
 20
50.4698
  0
LWPOLYLINE
  5
83E
330
1D
100
AcDbEntity
  8
PG_SILKSCREEN_TOP
100
AcDbPolyline
 90
        4
 70
     0
 43
0.2032
 10
40.1066
 20
50.4698
 10
40.6146
 20
49.9618
 10
42.1386
 20
49.9618
 10
42.6466
 20
50.4698
  0
LWPOLYLINE
  5
844
330
1D
100
AcDbEntity
  8
PG_SILKSCREEN_TOP
100
AcDbPolyline
 90
        4
 70
     0
 43
0.2032
 10
37.5666
 20
50.4698
 10
38.0746
 20
49.9618
 10
39.5986
 20
49.9618
 10
40.1066
 20
50.4698
  0
LWPOLYLINE
  5
84A
330
1D
100
AcDbEntity
  8
PG_SILKSCREEN_TOP
100
AcDbPolyline
 90
        4
 70
     0
 43
0.2032
 10
35.0266
 20
50.4698
 10
35.5346
 20
49.9618
 10
37.0586
 20
49.9618
 10
37.5666
 20
50.4698
  0
LWPOLYLINE
  5
850
330
1D
100
AcDbEntity
  8
PG_SILKSCREEN_TOP
100
AcDbPolyline
 90
        4
 70
     0
 43
0.2032
 10
32.4866
 20
50.4698
 10
32.9946
 20
49.9618
 10
34.5186
 20
49.9618
 10
35.0266
 20
50.4698
  0
LWPOLYLINE
  5
856
330
1D
100
AcDbEntity
  8
PG_SILKSCREEN_TOP
100
AcDbPolyline
 90
        4
 70
     0
 43
0.2032
 10
29.9466
 20
50.4698
 10
30.4546
 20
49.9618
 10
31.9786
 20
49.9618
 10
32.4866
 20
50.4698
  0
LWPOLYLINE
  5
85C
330
1D
100
AcDbEntity
  8
PG_SILKSCREEN_TOP
100
AcDbPolyline
 90
        4
 70
     0
 43
0.2032
 10
27.4066
 20
50.4698
 10
27.9146
 20
49.9618
 10
29.4386
 20
49.9618
 10
29.9466
 20
50.4698
  0
LWPOLYLINE
  5
862
330
1D
100
AcDbEntity
  8
PG_SILKSCREEN_TOP
100
AcDbPolyline
 90
        4
 70
     0
 43
0.2032
 10
24.8666
 20
50.4698
 10
25.3746
 20
49.9618
 10
26.8986
 20
49.9618
 10
27.4066
 20
50.4698
  0
LWPOLYLINE
  5
868
330
1D
100
AcDbEntity
  8
PG_SILKSCREEN_TOP
100
AcDbPolyline
 90
        4
 70
     0
 43
0.2032
 10
22.3266
 20
50.4698
 10
22.8346
 20
49.9618
 10
24.3586
 20
49.9618
 10
24.8666
 20
50.4698
  0
LWPOLYLINE
  5
86E
330
1D
100
AcDbEntity
  8
PG_SILKSCREEN_TOP
100
AcDbPolyline
 90
        4
 70
     0
 43
0.2032
 10
19.7866
 20
50.4698
 10
20.2946
 20
49.9618
 10
21.8186
 20
49.9618
 10
22.3266
 20
50.4698
  0
LWPOLYLINE
  5
874
330
1D
100
AcDbEntity
  8
PG_SILKSCREEN_TOP
100
AcDbPolyline
 90
        4
 70
     0
 43
0.2032
 10
17.2466
 20
50.4698
 10
17.7546
 20
49.9618
 10
19.2786
 20
49.9618
 10
19.7866
 20
50.4698
  0
LWPOLYLINE
  5
87A
330
1D
100
AcDbEntity
  8
PG_SILKSCREEN_TOP
100
AcDbPolyline
 90
        4
 70
     0
 43
0.2032
 10
14.7066
 20
50.4698
 10
15.2146
 20
49.9618
 10
16.7386
 20
49.9618
 10
17.2466
 20
50.4698
  0
LWPOLYLINE
  5
880
330
1D
100
AcDbEntity
  8
PG_SILKSCREEN_TOP
100
AcDbPolyline
 90
        4
 70
     0
 43
0.2032
 10
12.1666
 20
50.4698
 10
12.6746
 20
49.9618
 10
14.1986
 20
49.9618
 10
14.7066
 20
50.4698
  0
LWPOLYLINE
  5
886
330
1D
100
AcDbEntity
  8
PG_SILKSCREEN_TOP
100
AcDbPolyline
 90
        4
 70
     0
 43
0.2032
 10
9.6266
 20
50.4698
 10
10.1346
 20
49.9618
 10
11.6586
 20
49.9618
 10
12.1666
 20
50.4698
  0
LWPOLYLINE
  5
88C
330
1D
100
AcDbEntity
  8
PG_SILKSCREEN_TOP
100
AcDbPolyline
 90
        4
 70
     0
 43
0.2032
 10
7.0866
 20
50.4698
 10
7.5946
 20
49.9618
 10
9.1186
 20
49.9618
 10
9.6266
 20
50.4698
  0
LWPOLYLINE
  5
892
330
1D
100
AcDbEntity
  8
PG_SILKSCREEN_TOP
100
AcDbPolyline
 90
        4
 70
     0
 43
0.2032
 10
7.5946
 20
55.0418
 10
7.0866
 20
54.5338
 10
7.0866
 20
53.0098
 10
7.5946
 20
52.5018
  0
LWPOLYLINE
  5
898
330
1D
100
AcDbEntity
  8
PG_SILKSCREEN_TOP
100
AcDbPolyline
 90
        4
 70
     0
 43
0.2032
 10
7.5946
 20
52.5018
 10
7.0866
 20
51.9938
 10
7.0866
 20
50.4698
 10
7.5946
 20
49.9618
  0
LWPOLYLINE
  5
89E
330
1D
100
AcDbEntity
  8
PG_SILKSCREEN_TOP
100
AcDbPolyline
 90
        5
 70
     0
 43
0.254
 10
7.0866
 20
52.5018
 10
9.6266
 20
52.5018
 10
9.6266
 20
49.9618
 10
7.0866
 20
49.9618
 10
7.0866
 20
52.5018
  0
LWPOLYLINE
  5
8A5
330
1D
100
AcDbEntity
  8
PG_SILKSCREEN_TOP
100
AcDbPolyline
 90
        4
 70
     0
 43
0.2032
 10
7.5946
 20
49.9618
 10
7.5946
 20
49.1998
 10
9.1186
 20
49.1998
 10
9.1186
 20
49.9618
  0
TEXT
  5
8AB
330
1D
100
AcDbEntity
  8
RD_SILKSCREEN_TOP
100
AcDbText
 10
6.99008
 20
47.84344
 30
0.0
 40
0.7874
  1
GPIO1
 41
0.935484
100
AcDbText
  0
LWPOLYLINE
  5
8AC
330
1D
100
AcDbEntity
  8
PIN_TOP
100
AcDbPolyline
 90
       13
 70
     1
 43
0.0
 10
36.79952
 20
29.5529
 10
36.79952
 20
29.8831
 10
36.79952
 20
29.997654
 10
36.710874
 20
30.0863
 10
36.25342
 20
30.0863
 10
36.16452
 20
29.9974
 10
36.16452
 20
29.883354
 10
36.164774
 20
29.8831
 10
36.164774
 20
29.5402
 10
36.253674
 20
29.4513
 10
36.596574
 20
29.4513
 10
36.708334
 20
29.4513
 10
36.79952
 20
29.542486
  0
LWPOLYLINE
  5
8BB
330
1D
100
AcDbEntity
  8
PIN_TOP
100
AcDbPolyline
 90
       13
 70
     1
 43
0.0
 10
37.81552
 20
29.5529
 10
37.81552
 20
29.8831
 10
37.81552
 20
29.997654
 10
37.726874
 20
30.0863
 10
37.26942
 20
30.0863
 10
37.18052
 20
29.9974
 10
37.18052
 20
29.883354
 10
37.180774
 20
29.8831
 10
37.180774
 20
29.5402
 10
37.269674
 20
29.4513
 10
37.612574
 20
29.4513
 10
37.724334
 20
29.4513
 10
37.81552
 20
29.542486
  0
LWPOLYLINE
  5
8CA
330
1D
100
AcDbEntity
  8
PG_SILKSCREEN_TOP
100
AcDbPolyline
 90
        4
 70
     0
 43
0.1524
 10
36.040009
 20
29.968698
 10
36.040009
 20
30.218888
 10
37.940031
 20
30.218888
 10
37.940031
 20
29.968698
  0
LWPOLYLINE
  5
8D0
330
1D
100
AcDbEntity
  8
PG_SILKSCREEN_TOP
100
AcDbPolyline
 90
        4
 70
     0
 43
0.1524
 10
36.040009
 20
29.568902
 10
36.040009
 20
29.318712
 10
37.940031
 20
29.318712
 10
37.940031
 20
29.568902
  0
TEXT
  5
8D6
330
1D
100
AcDbEntity
  8
RD_SILKSCREEN_TOP
100
AcDbText
 10
32.8549
 20
29.35986
 30
0.0
 40
0.7874
  1
C549
 41
0.935484
100
AcDbText
  0
LWPOLYLINE
  5
8D7
330
1D
100
AcDbEntity
  8
PIN_TOP
100
AcDbPolyline
 90
       13
 70
     1
 43
0.0
 10
37.16274
 20
26.32456
 10
37.16274
 20
25.99436
 10
37.16274
 20
25.879806
 10
37.251386
 20
25.79116
 10
37.70884
 20
25.79116
 10
37.79774
 20
25.88006
 10
37.79774
 20
25.994106
 10
37.797486
 20
25.99436
 10
37.797486
 20
26.33726
 10
37.708586
 20
26.42616
 10
37.365686
 20
26.42616
 10
37.253926
 20
26.42616
 10
37.16274
 20
26.334974
  0
LWPOLYLINE
  5
8E6
330
1D
100
AcDbEntity
  8
PIN_TOP
100
AcDbPolyline
 90
       13
 70
     1
 43
0.0
 10
36.14674
 20
26.32456
 10
36.14674
 20
25.99436
 10
36.14674
 20
25.879806
 10
36.235386
 20
25.79116
 10
36.69284
 20
25.79116
 10
36.78174
 20
25.88006
 10
36.78174
 20
25.994106
 10
36.781486
 20
25.99436
 10
36.781486
 20
26.33726
 10
36.692586
 20
26.42616
 10
36.349686
 20
26.42616
 10
36.237926
 20
26.42616
 10
36.14674
 20
26.334974
  0
LWPOLYLINE
  5
8F5
330
1D
100
AcDbEntity
  8
PG_SILKSCREEN_TOP
100
AcDbPolyline
 90
        4
 70
     0
 43
0.1524
 10
37.922251
 20
25.908762
 10
37.922251
 20
25.658572
 10
36.022229
 20
25.658572
 10
36.022229
 20
25.908762
  0
LWPOLYLINE
  5
8FB
330
1D
100
AcDbEntity
  8
PG_SILKSCREEN_TOP
100
AcDbPolyline
 90
        4
 70
     0
 43
0.1524
 10
37.922251
 20
26.308558
 10
37.922251
 20
26.558748
 10
36.022229
 20
26.558748
 10
36.022229
 20
26.308558
  0
TEXT
  5
901
330
1D
100
AcDbEntity
  8
RD_SILKSCREEN_TOP
100
AcDbText
 10
32.79648
 20
25.68194
 30
0.0
 40
0.7874
  1
C568
 41
0.935484
100
AcDbText
  0
LWPOLYLINE
  5
902
330
1D
100
AcDbEntity
  8
PIN_TOP
100
AcDbPolyline
 90
       13
 70
     1
 43
0.0
 10
47.40148
 20
38.53688
 10
47.73168
 20
38.53688
 10
47.846234
 20
38.53688
 10
47.93488
 20
38.625526
 10
47.93488
 20
39.08298
 10
47.84598
 20
39.17188
 10
47.731934
 20
39.17188
 10
47.73168
 20
39.171626
 10
47.38878
 20
39.171626
 10
47.29988
 20
39.082726
 10
47.29988
 20
38.739826
 10
47.29988
 20
38.628066
 10
47.391066
 20
38.53688
  0
LWPOLYLINE
  5
911
330
1D
100
AcDbEntity
  8
PIN_TOP
100
AcDbPolyline
 90
       13
 70
     1
 43
0.0
 10
47.40148
 20
37.52088
 10
47.73168
 20
37.52088
 10
47.846234
 20
37.52088
 10
47.93488
 20
37.609526
 10
47.93488
 20
38.06698
 10
47.84598
 20
38.15588
 10
47.731934
 20
38.15588
 10
47.73168
 20
38.155626
 10
47.38878
 20
38.155626
 10
47.29988
 20
38.066726
 10
47.29988
 20
37.723826
 10
47.29988
 20
37.612066
 10
47.391066
 20
37.52088
  0
LWPOLYLINE
  5
920
330
1D
100
AcDbEntity
  8
PG_SILKSCREEN_TOP
100
AcDbPolyline
 90
        4
 70
     0
 43
0.1524
 10
47.817278
 20
39.296391
 10
48.067468
 20
39.296391
 10
48.067468
 20
37.396369
 10
47.817278
 20
37.396369
  0
LWPOLYLINE
  5
926
330
1D
100
AcDbEntity
  8
PG_SILKSCREEN_TOP
100
AcDbPolyline
 90
        4
 70
     0
 43
0.1524
 10
47.417482
 20
39.296391
 10
47.167292
 20
39.296391
 10
47.167292
 20
37.396369
 10
47.417482
 20
37.396369
  0
TEXT
  5
92C
330
1D
100
AcDbEntity
  8
RD_SILKSCREEN_TOP
100
AcDbText
 10
48.03394
 20
34.417
 30
0.0
 40
0.7874
  1
C347
 50
90.0
 41
0.935484
100
AcDbText
  0
LWPOLYLINE
  5
92D
330
1D
100
AcDbEntity
  8
PIN_TOP
100
AcDbPolyline
 90
       13
 70
     1
 43
0.0
 10
44.16806
 20
38.15588
 10
43.83786
 20
38.15588
 10
43.723306
 20
38.15588
 10
43.63466
 20
38.067234
 10
43.63466
 20
37.60978
 10
43.72356
 20
37.52088
 10
43.837606
 20
37.52088
 10
43.83786
 20
37.521134
 10
44.18076
 20
37.521134
 10
44.26966
 20
37.610034
 10
44.26966
 20
37.952934
 10
44.26966
 20
38.064694
 10
44.178474
 20
38.15588
  0
LWPOLYLINE
  5
93C
330
1D
100
AcDbEntity
  8
PIN_TOP
100
AcDbPolyline
 90
       13
 70
     1
 43
0.0
 10
44.16806
 20
39.17188
 10
43.83786
 20
39.17188
 10
43.723306
 20
39.17188
 10
43.63466
 20
39.083234
 10
43.63466
 20
38.62578
 10
43.72356
 20
38.53688
 10
43.837606
 20
38.53688
 10
43.83786
 20
38.537134
 10
44.18076
 20
38.537134
 10
44.26966
 20
38.626034
 10
44.26966
 20
38.968934
 10
44.26966
 20
39.080694
 10
44.178474
 20
39.17188
  0
LWPOLYLINE
  5
94B
330
1D
100
AcDbEntity
  8
PG_SILKSCREEN_TOP
100
AcDbPolyline
 90
        4
 70
     0
 43
0.1524
 10
43.752262
 20
37.396369
 10
43.502072
 20
37.396369
 10
43.502072
 20
39.296391
 10
43.752262
 20
39.296391
  0
LWPOLYLINE
  5
951
330
1D
100
AcDbEntity
  8
PG_SILKSCREEN_TOP
100
AcDbPolyline
 90
        4
 70
     0
 43
0.1524
 10
44.152058
 20
37.396369
 10
44.402248
 20
37.396369
 10
44.402248
 20
39.296391
 10
44.152058
 20
39.296391
  0
TEXT
  5
957
330
1D
100
AcDbEntity
  8
RD_SILKSCREEN_TOP
100
AcDbText
 10
44.3484
 20
34.544
 30
0.0
 40
0.7874
  1
C553
 50
90.0
 41
0.935484
100
AcDbText
  0
LWPOLYLINE
  5
958
330
1D
100
AcDbEntity
  8
PIN_TOP
100
AcDbPolyline
 90
       13
 70
     1
 43
0.0
 10
45.18406
 20
38.15588
 10
44.85386
 20
38.15588
 10
44.739306
 20
38.15588
 10
44.65066
 20
38.067234
 10
44.65066
 20
37.60978
 10
44.73956
 20
37.52088
 10
44.853606
 20
37.52088
 10
44.85386
 20
37.521134
 10
45.19676
 20
37.521134
 10
45.28566
 20
37.610034
 10
45.28566
 20
37.952934
 10
45.28566
 20
38.064694
 10
45.194474
 20
38.15588
  0
LWPOLYLINE
  5
967
330
1D
100
AcDbEntity
  8
PIN_TOP
100
AcDbPolyline
 90
       13
 70
     1
 43
0.0
 10
45.18406
 20
39.17188
 10
44.85386
 20
39.17188
 10
44.739306
 20
39.17188
 10
44.65066
 20
39.083234
 10
44.65066
 20
38.62578
 10
44.73956
 20
38.53688
 10
44.853606
 20
38.53688
 10
44.85386
 20
38.537134
 10
45.19676
 20
38.537134
 10
45.28566
 20
38.626034
 10
45.28566
 20
38.968934
 10
45.28566
 20
39.080694
 10
45.194474
 20
39.17188
  0
LWPOLYLINE
  5
976
330
1D
100
AcDbEntity
  8
PG_SILKSCREEN_TOP
100
AcDbPolyline
 90
        4
 70
     0
 43
0.1524
 10
44.768262
 20
37.396369
 10
44.518072
 20
37.396369
 10
44.518072
 20
39.296391
 10
44.768262
 20
39.296391
  0
LWPOLYLINE
  5
97C
330
1D
100
AcDbEntity
  8
PG_SILKSCREEN_TOP
100
AcDbPolyline
 90
        4
 70
     0
 43
0.1524
 10
45.168058
 20
37.396369
 10
45.418248
 20
37.396369
 10
45.418248
 20
39.296391
 10
45.168058
 20
39.296391
  0
TEXT
  5
982
330
1D
100
AcDbEntity
  8
RD_SILKSCREEN_TOP
100
AcDbText
 10
45.40504
 20
34.44748
 30
0.0
 40
0.7874
  1
C552
 50
90.0
 41
0.935484
100
AcDbText
  0
LWPOLYLINE
  5
983
330
1D
100
AcDbEntity
  8
PIN_TOP
100
AcDbPolyline
 90
       13
 70
     1
 43
0.0
 10
40.63746
 20
38.08984
 10
40.30726
 20
38.08984
 10
40.192706
 20
38.08984
 10
40.10406
 20
38.001194
 10
40.10406
 20
37.54374
 10
40.19296
 20
37.45484
 10
40.307006
 20
37.45484
 10
40.30726
 20
37.455094
 10
40.65016
 20
37.455094
 10
40.73906
 20
37.543994
 10
40.73906
 20
37.886894
 10
40.73906
 20
37.998654
 10
40.647874
 20
38.08984
  0
LWPOLYLINE
  5
992
330
1D
100
AcDbEntity
  8
PIN_TOP
100
AcDbPolyline
 90
       13
 70
     1
 43
0.0
 10
40.63746
 20
39.10584
 10
40.30726
 20
39.10584
 10
40.192706
 20
39.10584
 10
40.10406
 20
39.017194
 10
40.10406
 20
38.55974
 10
40.19296
 20
38.47084
 10
40.307006
 20
38.47084
 10
40.30726
 20
38.471094
 10
40.65016
 20
38.471094
 10
40.73906
 20
38.559994
 10
40.73906
 20
38.902894
 10
40.73906
 20
39.014654
 10
40.647874
 20
39.10584
  0
LWPOLYLINE
  5
9A1
330
1D
100
AcDbEntity
  8
PG_SILKSCREEN_TOP
100
AcDbPolyline
 90
        4
 70
     0
 43
0.1524
 10
40.221662
 20
37.330329
 10
39.971472
 20
37.330329
 10
39.971472
 20
39.230351
 10
40.221662
 20
39.230351
  0
LWPOLYLINE
  5
9A7
330
1D
100
AcDbEntity
  8
PG_SILKSCREEN_TOP
100
AcDbPolyline
 90
        4
 70
     0
 43
0.1524
 10
40.621458
 20
37.330329
 10
40.871648
 20
37.330329
 10
40.871648
 20
39.230351
 10
40.621458
 20
39.230351
  0
TEXT
  5
9AD
330
1D
100
AcDbEntity
  8
RD_SILKSCREEN_TOP
100
AcDbText
 10
40.80764
 20
34.48558
 30
0.0
 40
0.7874
  1
C551
 50
90.0
 41
0.935484
100
AcDbText
  0
LWPOLYLINE
  5
9AE
330
1D
100
AcDbEntity
  8
PIN_TOP
100
AcDbPolyline
 90
       13
 70
     1
 43
0.0
 10
41.65346
 20
38.08984
 10
41.32326
 20
38.08984
 10
41.208706
 20
38.08984
 10
41.12006
 20
38.001194
 10
41.12006
 20
37.54374
 10
41.20896
 20
37.45484
 10
41.323006
 20
37.45484
 10
41.32326
 20
37.455094
 10
41.66616
 20
37.455094
 10
41.75506
 20
37.543994
 10
41.75506
 20
37.886894
 10
41.75506
 20
37.998654
 10
41.663874
 20
38.08984
  0
LWPOLYLINE
  5
9BD
330
1D
100
AcDbEntity
  8
PIN_TOP
100
AcDbPolyline
 90
       13
 70
     1
 43
0.0
 10
41.65346
 20
39.10584
 10
41.32326
 20
39.10584
 10
41.208706
 20
39.10584
 10
41.12006
 20
39.017194
 10
41.12006
 20
38.55974
 10
41.20896
 20
38.47084
 10
41.323006
 20
38.47084
 10
41.32326
 20
38.471094
 10
41.66616
 20
38.471094
 10
41.75506
 20
38.559994
 10
41.75506
 20
38.902894
 10
41.75506
 20
39.014654
 10
41.663874
 20
39.10584
  0
LWPOLYLINE
  5
9CC
330
1D
100
AcDbEntity
  8
PG_SILKSCREEN_TOP
100
AcDbPolyline
 90
        4
 70
     0
 43
0.1524
 10
41.237662
 20
37.330329
 10
40.987472
 20
37.330329
 10
40.987472
 20
39.230351
 10
41.237662
 20
39.230351
  0
LWPOLYLINE
  5
9D2
330
1D
100
AcDbEntity
  8
PG_SILKSCREEN_TOP
100
AcDbPolyline
 90
        4
 70
     0
 43
0.1524
 10
41.637458
 20
37.330329
 10
41.887648
 20
37.330329
 10
41.887648
 20
39.230351
 10
41.637458
 20
39.230351
  0
TEXT
  5
9D8
330
1D
100
AcDbEntity
  8
RD_SILKSCREEN_TOP
100
AcDbText
 10
41.90238
 20
34.36874
 30
0.0
 40
0.7874
  1
C550
 50
90.0
 41
0.935484
100
AcDbText
  0
LWPOLYLINE
  5
9D9
330
1D
100
AcDbEntity
  8
PIN_TOP
100
AcDbPolyline
 90
       13
 70
     1
 43
0.0
 10
51.31308
 20
34.62528
 10
51.31308
 20
34.29508
 10
51.31308
 20
34.180526
 10
51.401726
 20
34.09188
 10
51.85918
 20
34.09188
 10
51.94808
 20
34.18078
 10
51.94808
 20
34.294826
 10
51.947826
 20
34.29508
 10
51.947826
 20
34.63798
 10
51.858926
 20
34.72688
 10
51.516026
 20
34.72688
 10
51.404266
 20
34.72688
 10
51.31308
 20
34.635694
  0
LWPOLYLINE
  5
9E8
330
1D
100
AcDbEntity
  8
PIN_TOP
100
AcDbPolyline
 90
       13
 70
     1
 43
0.0
 10
50.29708
 20
34.62528
 10
50.29708
 20
34.29508
 10
50.29708
 20
34.180526
 10
50.385726
 20
34.09188
 10
50.84318
 20
34.09188
 10
50.93208
 20
34.18078
 10
50.93208
 20
34.294826
 10
50.931826
 20
34.29508
 10
50.931826
 20
34.63798
 10
50.842926
 20
34.72688
 10
50.500026
 20
34.72688
 10
50.388266
 20
34.72688
 10
50.29708
 20
34.635694
  0
LWPOLYLINE
  5
9F7
330
1D
100
AcDbEntity
  8
PG_SILKSCREEN_TOP
100
AcDbPolyline
 90
        4
 70
     0
 43
0.1524
 10
52.072591
 20
34.209482
 10
52.072591
 20
33.959292
 10
50.172569
 20
33.959292
 10
50.172569
 20
34.209482
  0
LWPOLYLINE
  5
9FD
330
1D
100
AcDbEntity
  8
PG_SILKSCREEN_TOP
100
AcDbPolyline
 90
        4
 70
     0
 43
0.1524
 10
52.072591
 20
34.609278
 10
52.072591
 20
34.859468
 10
50.172569
 20
34.859468
 10
50.172569
 20
34.609278
  0
TEXT
  5
A03
330
1D
100
AcDbEntity
  8
RD_SILKSCREEN_TOP
100
AcDbText
 10
49.66716
 20
32.8803
 30
0.0
 40
0.7874
  1
C724
 41
0.935484
100
AcDbText
  0
LWPOLYLINE
  5
A04
330
1D
100
AcDbEntity
  8
PIN_TOP
100
AcDbPolyline
 90
       13
 70
     1
 43
0.0
 10
36.79444
 20
27.03576
 10
36.79444
 20
27.36596
 10
36.79444
 20
27.480514
 10
36.705794
 20
27.56916
 10
36.24834
 20
27.56916
 10
36.15944
 20
27.48026
 10
36.15944
 20
27.366214
 10
36.159694
 20
27.36596
 10
36.159694
 20
27.02306
 10
36.248594
 20
26.93416
 10
36.591494
 20
26.93416
 10
36.703254
 20
26.93416
 10
36.79444
 20
27.025346
  0
LWPOLYLINE
  5
A13
330
1D
100
AcDbEntity
  8
PIN_TOP
100
AcDbPolyline
 90
       13
 70
     1
 43
0.0
 10
37.81044
 20
27.03576
 10
37.81044
 20
27.36596
 10
37.81044
 20
27.480514
 10
37.721794
 20
27.56916
 10
37.26434
 20
27.56916
 10
37.17544
 20
27.48026
 10
37.17544
 20
27.366214
 10
37.175694
 20
27.36596
 10
37.175694
 20
27.02306
 10
37.264594
 20
26.93416
 10
37.607494
 20
26.93416
 10
37.719254
 20
26.93416
 10
37.81044
 20
27.025346
  0
LWPOLYLINE
  5
A22
330
1D
100
AcDbEntity
  8
PG_SILKSCREEN_TOP
100
AcDbPolyline
 90
        4
 70
     0
 43
0.1524
 10
36.034929
 20
27.451558
 10
36.034929
 20
27.701748
 10
37.934951
 20
27.701748
 10
37.934951
 20
27.451558
  0
LWPOLYLINE
  5
A28
330
1D
100
AcDbEntity
  8
PG_SILKSCREEN_TOP
100
AcDbPolyline
 90
        4
 70
     0
 43
0.1524
 10
36.034929
 20
27.051762
 10
36.034929
 20
26.801572
 10
37.934951
 20
26.801572
 10
37.934951
 20
27.051762
  0
TEXT
  5
A2E
330
1D
100
AcDbEntity
  8
RD_SILKSCREEN_TOP
100
AcDbText
 10
33.00984
 20
26.85542
 30
0.0
 40
0.7874
  1
C570
 41
0.935484
100
AcDbText
  0
LWPOLYLINE
  5
A2F
330
1D
100
AcDbEntity
  8
PIN_TOP
100
AcDbPolyline
 90
       13
 70
     1
 43
0.0
 10
47.69612
 20
20.97786
 10
47.36592
 20
20.97786
 10
47.251366
 20
20.97786
 10
47.16272
 20
20.889214
 10
47.16272
 20
20.43176
 10
47.25162
 20
20.34286
 10
47.365666
 20
20.34286
 10
47.36592
 20
20.343114
 10
47.70882
 20
20.343114
 10
47.79772
 20
20.432014
 10
47.79772
 20
20.774914
 10
47.79772
 20
20.886674
 10
47.706534
 20
20.97786
  0
LWPOLYLINE
  5
A3E
330
1D
100
AcDbEntity
  8
PIN_TOP
100
AcDbPolyline
 90
       13
 70
     1
 43
0.0
 10
47.69612
 20
21.99386
 10
47.36592
 20
21.99386
 10
47.251366
 20
21.99386
 10
47.16272
 20
21.905214
 10
47.16272
 20
21.44776
 10
47.25162
 20
21.35886
 10
47.365666
 20
21.35886
 10
47.36592
 20
21.359114
 10
47.70882
 20
21.359114
 10
47.79772
 20
21.448014
 10
47.79772
 20
21.790914
 10
47.79772
 20
21.902674
 10
47.706534
 20
21.99386
  0
LWPOLYLINE
  5
A4D
330
1D
100
AcDbEntity
  8
PG_SILKSCREEN_TOP
100
AcDbPolyline
 90
        4
 70
     0
 43
0.1524
 10
47.280322
 20
20.218349
 10
47.030132
 20
20.218349
 10
47.030132
 20
22.118371
 10
47.280322
 20
22.118371
  0
LWPOLYLINE
  5
A53
330
1D
100
AcDbEntity
  8
PG_SILKSCREEN_TOP
100
AcDbPolyline
 90
        4
 70
     0
 43
0.1524
 10
47.680118
 20
20.218349
 10
47.930308
 20
20.218349
 10
47.930308
 20
22.118371
 10
47.680118
 20
22.118371
  0
TEXT
  5
A59
330
1D
100
AcDbEntity
  8
RD_SILKSCREEN_TOP
100
AcDbText
 10
48.93056
 20
20.15998
 30
0.0
 40
0.7874
  1
C569
 50
90.0
 41
0.935484
100
AcDbText
  0
LWPOLYLINE
  5
A5A
330
1D
100
AcDbEntity
  8
PIN_TOP
100
AcDbPolyline
 90
       13
 70
     1
 43
0.0
 10
50.37328
 20
38.15588
 10
50.04308
 20
38.15588
 10
49.928526
 20
38.15588
 10
49.83988
 20
38.067234
 10
49.83988
 20
37.60978
 10
49.92878
 20
37.52088
 10
50.042826
 20
37.52088
 10
50.04308
 20
37.521134
 10
50.38598
 20
37.521134
 10
50.47488
 20
37.610034
 10
50.47488
 20
37.952934
 10
50.47488
 20
38.064694
 10
50.383694
 20
38.15588
  0
LWPOLYLINE
  5
A69
330
1D
100
AcDbEntity
  8
PIN_TOP
100
AcDbPolyline
 90
       13
 70
     1
 43
0.0
 10
50.37328
 20
39.17188
 10
50.04308
 20
39.17188
 10
49.928526
 20
39.17188
 10
49.83988
 20
39.083234
 10
49.83988
 20
38.62578
 10
49.92878
 20
38.53688
 10
50.042826
 20
38.53688
 10
50.04308
 20
38.537134
 10
50.38598
 20
38.537134
 10
50.47488
 20
38.626034
 10
50.47488
 20
38.968934
 10
50.47488
 20
39.080694
 10
50.383694
 20
39.17188
  0
LWPOLYLINE
  5
A78
330
1D
100
AcDbEntity
  8
PG_SILKSCREEN_TOP
100
AcDbPolyline
 90
        4
 70
     0
 43
0.1524
 10
49.957482
 20
37.396369
 10
49.707292
 20
37.396369
 10
49.707292
 20
39.296391
 10
49.957482
 20
39.296391
  0
LWPOLYLINE
  5
A7E
330
1D
100
AcDbEntity
  8
PG_SILKSCREEN_TOP
100
AcDbPolyline
 90
        4
 70
     0
 43
0.1524
 10
50.357278
 20
37.396369
 10
50.607468
 20
37.396369
 10
50.607468
 20
39.296391
 10
50.357278
 20
39.296391
  0
TEXT
  5
A84
330
1D
100
AcDbEntity
  8
RD_SILKSCREEN_TOP
100
AcDbText
 10
51.65344
 20
36.6268
 30
0.0
 40
0.7874
  1
C348
 50
90.0
 41
0.935484
100
AcDbText
  0
LWPOLYLINE
  5
A85
330
1D
100
AcDbEntity
  8
PIN_TOP
100
AcDbPolyline
 90
       13
 70
     1
 43
0.0
 10
20.04568
 20
11.09472
 10
20.04568
 20
11.42492
 10
20.04568
 20
11.539474
 10
19.957034
 20
11.62812
 10
19.49958
 20
11.62812
 10
19.41068
 20
11.53922
 10
19.41068
 20
11.425174
 10
19.410934
 20
11.42492
 10
19.410934
 20
11.08202
 10
19.499834
 20
10.99312
 10
19.842734
 20
10.99312
 10
19.954494
 20
10.99312
 10
20.04568
 20
11.084306
  0
LWPOLYLINE
  5
A94
330
1D
100
AcDbEntity
  8
PIN_TOP
100
AcDbPolyline
 90
       13
 70
     1
 43
0.0
 10
21.06168
 20
11.09472
 10
21.06168
 20
11.42492
 10
21.06168
 20
11.539474
 10
20.973034
 20
11.62812
 10
20.51558
 20
11.62812
 10
20.42668
 20
11.53922
 10
20.42668
 20
11.425174
 10
20.426934
 20
11.42492
 10
20.426934
 20
11.08202
 10
20.515834
 20
10.99312
 10
20.858734
 20
10.99312
 10
20.970494
 20
10.99312
 10
21.06168
 20
11.084306
  0
LWPOLYLINE
  5
AA3
330
1D
100
AcDbEntity
  8
PG_SILKSCREEN_TOP
100
AcDbPolyline
 90
        4
 70
     0
 43
0.1524
 10
19.28622
 20
11.08456
 10
19.286169
 20
11.760708
 10
21.186191
 20
11.760708
 10
21.186191
 20
11.510518
  0
LWPOLYLINE
  5
AA9
330
1D
100
AcDbEntity
  8
PG_SILKSCREEN_TOP
100
AcDbPolyline
 90
        4
 70
     0
 43
0.1524
 10
19.286169
 20
11.110722
 10
19.286169
 20
10.860532
 10
21.186191
 20
10.860532
 10
21.18614
 20
11.52906
  0
TEXT
  5
AAF
330
1D
100
AcDbEntity
  8
RD_SILKSCREEN_TOP
100
AcDbText
 10
37.42436
 20
16.55318
 30
0.0
 40
0.7874
  1
R938
 41
0.935484
100
AcDbText
  0
LWPOLYLINE
  5
AB0
330
1D
100
AcDbEntity
  8
PIN_TOP
100
AcDbPolyline
 90
       13
 70
     1
 43
0.0
 10
23.70582
 20
8.03656
 10
23.37562
 20
8.03656
 10
23.261066
 20
8.03656
 10
23.17242
 20
7.947914
 10
23.17242
 20
7.49046
 10
23.26132
 20
7.40156
 10
23.375366
 20
7.40156
 10
23.37562
 20
7.401814
 10
23.71852
 20
7.401814
 10
23.80742
 20
7.490714
 10
23.80742
 20
7.833614
 10
23.80742
 20
7.945374
 10
23.716234
 20
8.03656
  0
LWPOLYLINE
  5
ABF
330
1D
100
AcDbEntity
  8
PIN_TOP
100
AcDbPolyline
 90
       13
 70
     1
 43
0.0
 10
23.70582
 20
9.05256
 10
23.37562
 20
9.05256
 10
23.261066
 20
9.05256
 10
23.17242
 20
8.963914
 10
23.17242
 20
8.50646
 10
23.26132
 20
8.41756
 10
23.375366
 20
8.41756
 10
23.37562
 20
8.417814
 10
23.71852
 20
8.417814
 10
23.80742
 20
8.506714
 10
23.80742
 20
8.849614
 10
23.80742
 20
8.961374
 10
23.716234
 20
9.05256
  0
LWPOLYLINE
  5
ACE
330
1D
100
AcDbEntity
  8
PG_SILKSCREEN_TOP
100
AcDbPolyline
 90
        4
 70
     0
 43
0.1524
 10
23.71598
 20
7.2771
 10
23.039832
 20
7.277049
 10
23.039832
 20
9.177071
 10
23.290022
 20
9.177071
  0
LWPOLYLINE
  5
AD4
330
1D
100
AcDbEntity
  8
PG_SILKSCREEN_TOP
100
AcDbPolyline
 90
        4
 70
     0
 43
0.1524
 10
23.689818
 20
7.277049
 10
23.940008
 20
7.277049
 10
23.940008
 20
9.177071
 10
23.27148
 20
9.17702
  0
TEXT
  5
ADA
330
1D
100
AcDbEntity
  8
RD_SILKSCREEN_TOP
100
AcDbText
 10
41.529
 20
12.2936
 30
0.0
 40
0.7874
  1
R321
 50
90.0
 41
0.935484
100
AcDbText
  0
LWPOLYLINE
  5
ADB
330
1D
100
AcDbEntity
  8
PIN_TOP
100
AcDbPolyline
 90
       13
 70
     1
 43
0.0
 10
24.86406
 20
8.05942
 10
24.53386
 20
8.05942
 10
24.419306
 20
8.05942
 10
24.33066
 20
7.970774
 10
24.33066
 20
7.51332
 10
24.41956
 20
7.42442
 10
24.533606
 20
7.42442
 10
24.53386
 20
7.424674
 10
24.87676
 20
7.424674
 10
24.96566
 20
7.513574
 10
24.96566
 20
7.856474
 10
24.96566
 20
7.968234
 10
24.874474
 20
8.05942
  0
LWPOLYLINE
  5
AEA
330
1D
100
AcDbEntity
  8
PIN_TOP
100
AcDbPolyline
 90
       13
 70
     1
 43
0.0
 10
24.86406
 20
9.07542
 10
24.53386
 20
9.07542
 10
24.419306
 20
9.07542
 10
24.33066
 20
8.986774
 10
24.33066
 20
8.52932
 10
24.41956
 20
8.44042
 10
24.533606
 20
8.44042
 10
24.53386
 20
8.440674
 10
24.87676
 20
8.440674
 10
24.96566
 20
8.529574
 10
24.96566
 20
8.872474
 10
24.96566
 20
8.984234
 10
24.874474
 20
9.07542
  0
LWPOLYLINE
  5
AF9
330
1D
100
AcDbEntity
  8
PG_SILKSCREEN_TOP
100
AcDbPolyline
 90
        4
 70
     0
 43
0.1524
 10
24.87422
 20
7.29996
 10
24.198072
 20
7.299909
 10
24.198072
 20
9.199931
 10
24.448262
 20
9.199931
  0
LWPOLYLINE
  5
AFF
330
1D
100
AcDbEntity
  8
PG_SILKSCREEN_TOP
100
AcDbPolyline
 90
        4
 70
     0
 43
0.1524
 10
24.848058
 20
7.299909
 10
25.098248
 20
7.299909
 10
25.098248
 20
9.199931
 10
24.42972
 20
9.19988
  0
TEXT
  5
B05
330
1D
100
AcDbEntity
  8
RD_SILKSCREEN_TOP
100
AcDbText
 10
42.64914
 20
12.1666
 30
0.0
 40
0.7874
  1
R319
 50
90.0
 41
0.935484
100
AcDbText
  0
LWPOLYLINE
  5
B06
330
1D
100
AcDbEntity
  8
PIN_TOP
100
AcDbPolyline
 90
       13
 70
     1
 43
0.0
 10
20.4597
 20
10.39622
 10
20.4597
 20
10.06602
 10
20.4597
 20
9.951466
 10
20.548346
 20
9.86282
 10
21.0058
 20
9.86282
 10
21.0947
 20
9.95172
 10
21.0947
 20
10.065766
 10
21.094446
 20
10.06602
 10
21.094446
 20
10.40892
 10
21.005546
 20
10.49782
 10
20.662646
 20
10.49782
 10
20.550886
 20
10.49782
 10
20.4597
 20
10.406634
  0
LWPOLYLINE
  5
B15
330
1D
100
AcDbEntity
  8
PIN_TOP
100
AcDbPolyline
 90
       13
 70
     1
 43
0.0
 10
19.4437
 20
10.39622
 10
19.4437
 20
10.06602
 10
19.4437
 20
9.951466
 10
19.532346
 20
9.86282
 10
19.9898
 20
9.86282
 10
20.0787
 20
9.95172
 10
20.0787
 20
10.065766
 10
20.078446
 20
10.06602
 10
20.078446
 20
10.40892
 10
19.989546
 20
10.49782
 10
19.646646
 20
10.49782
 10
19.534886
 20
10.49782
 10
19.4437
 20
10.406634
  0
LWPOLYLINE
  5
B24
330
1D
100
AcDbEntity
  8
PG_SILKSCREEN_TOP
100
AcDbPolyline
 90
        4
 70
     0
 43
0.1524
 10
21.21916
 20
10.40638
 10
21.219211
 20
9.730232
 10
19.319189
 20
9.730232
 10
19.319189
 20
9.980422
  0
LWPOLYLINE
  5
B2A
330
1D
100
AcDbEntity
  8
PG_SILKSCREEN_TOP
100
AcDbPolyline
 90
        4
 70
     0
 43
0.1524
 10
21.219211
 20
10.380218
 10
21.219211
 20
10.630408
 10
19.319189
 20
10.630408
 10
19.31924
 20
9.96188
  0
TEXT
  5
B30
330
1D
100
AcDbEntity
  8
RD_SILKSCREEN_TOP
100
AcDbText
 10
37.4015
 20
15.37462
 30
0.0
 40
0.7874
  1
R318
 41
0.935484
100
AcDbText
  0
LWPOLYLINE
  5
B31
330
1D
100
AcDbEntity
  8
PIN_TOP
100
AcDbPolyline
 90
       13
 70
     1
 43
0.0
 10
24.63292
 20
10.8585
 10
24.63292
 20
11.1887
 10
24.63292
 20
11.303254
 10
24.544274
 20
11.3919
 10
24.08682
 20
11.3919
 10
23.99792
 20
11.303
 10
23.99792
 20
11.188954
 10
23.998174
 20
11.1887
 10
23.998174
 20
10.8458
 10
24.087074
 20
10.7569
 10
24.429974
 20
10.7569
 10
24.541734
 20
10.7569
 10
24.63292
 20
10.848086
  0
LWPOLYLINE
  5
B40
330
1D
100
AcDbEntity
  8
PIN_TOP
100
AcDbPolyline
 90
       13
 70
     1
 43
0.0
 10
25.64892
 20
10.8585
 10
25.64892
 20
11.1887
 10
25.64892
 20
11.303254
 10
25.560274
 20
11.3919
 10
25.10282
 20
11.3919
 10
25.01392
 20
11.303
 10
25.01392
 20
11.188954
 10
25.014174
 20
11.1887
 10
25.014174
 20
10.8458
 10
25.103074
 20
10.7569
 10
25.445974
 20
10.7569
 10
25.557734
 20
10.7569
 10
25.64892
 20
10.848086
  0
LWPOLYLINE
  5
B4F
330
1D
100
AcDbEntity
  8
PG_SILKSCREEN_TOP
100
AcDbPolyline
 90
        4
 70
     0
 43
0.1524
 10
23.87346
 20
10.84834
 10
23.873409
 20
11.524488
 10
25.773431
 20
11.524488
 10
25.773431
 20
11.274298
  0
LWPOLYLINE
  5
B55
330
1D
100
AcDbEntity
  8
PG_SILKSCREEN_TOP
100
AcDbPolyline
 90
        4
 70
     0
 43
0.1524
 10
23.873409
 20
10.874502
 10
23.873409
 20
10.624312
 10
25.773431
 20
10.624312
 10
25.77338
 20
11.29284
  0
TEXT
  5
B5B
330
1D
100
AcDbEntity
  8
RD_SILKSCREEN_TOP
100
AcDbText
 10
41.79316
 20
16.70558
 30
0.0
 40
0.7874
  1
R937
 41
0.935484
100
AcDbText
  0
LWPOLYLINE
  5
B5C
330
1D
100
AcDbEntity
  8
PIN_TOP
100
AcDbPolyline
 90
       13
 70
     1
 43
0.0
 10
24.98598
 20
12.41806
 10
24.98598
 20
12.08786
 10
24.98598
 20
11.973306
 10
25.074626
 20
11.88466
 10
25.53208
 20
11.88466
 10
25.62098
 20
11.97356
 10
25.62098
 20
12.087606
 10
25.620726
 20
12.08786
 10
25.620726
 20
12.43076
 10
25.531826
 20
12.51966
 10
25.188926
 20
12.51966
 10
25.077166
 20
12.51966
 10
24.98598
 20
12.428474
  0
LWPOLYLINE
  5
B6B
330
1D
100
AcDbEntity
  8
PIN_TOP
100
AcDbPolyline
 90
       13
 70
     1
 43
0.0
 10
23.96998
 20
12.41806
 10
23.96998
 20
12.08786
 10
23.96998
 20
11.973306
 10
24.058626
 20
11.88466
 10
24.51608
 20
11.88466
 10
24.60498
 20
11.97356
 10
24.60498
 20
12.087606
 10
24.604726
 20
12.08786
 10
24.604726
 20
12.43076
 10
24.515826
 20
12.51966
 10
24.172926
 20
12.51966
 10
24.061166
 20
12.51966
 10
23.96998
 20
12.428474
  0
LWPOLYLINE
  5
B7A
330
1D
100
AcDbEntity
  8
PG_SILKSCREEN_TOP
100
AcDbPolyline
 90
        4
 70
     0
 43
0.1524
 10
25.74544
 20
12.42822
 10
25.745491
 20
11.752072
 10
23.845469
 20
11.752072
 10
23.845469
 20
12.002262
  0
LWPOLYLINE
  5
B80
330
1D
100
AcDbEntity
  8
PG_SILKSCREEN_TOP
100
AcDbPolyline
 90
        4
 70
     0
 43
0.1524
 10
25.745491
 20
12.402058
 10
25.745491
 20
12.652248
 10
23.845469
 20
12.652248
 10
23.84552
 20
11.98372
  0
TEXT
  5
B86
330
1D
100
AcDbEntity
  8
RD_SILKSCREEN_TOP
100
AcDbText
 10
41.90746
 20
17.73174
 30
0.0
 40
0.7874
  1
R936
 41
0.935484
100
AcDbText
  0
LWPOLYLINE
  5
B87
330
1D
100
AcDbEntity
  8
PIN_TOP
100
AcDbPolyline
 90
       13
 70
     1
 43
0.0
 10
19.15922
 20
13.65504
 10
19.15922
 20
13.98524
 10
19.15922
 20
14.099794
 10
19.070574
 20
14.18844
 10
18.61312
 20
14.18844
 10
18.52422
 20
14.09954
 10
18.52422
 20
13.985494
 10
18.524474
 20
13.98524
 10
18.524474
 20
13.64234
 10
18.613374
 20
13.55344
 10
18.956274
 20
13.55344
 10
19.068034
 20
13.55344
 10
19.15922
 20
13.644626
  0
LWPOLYLINE
  5
B96
330
1D
100
AcDbEntity
  8
PIN_TOP
100
AcDbPolyline
 90
       13
 70
     1
 43
0.0
 10
20.17522
 20
13.65504
 10
20.17522
 20
13.98524
 10
20.17522
 20
14.099794
 10
20.086574
 20
14.18844
 10
19.62912
 20
14.18844
 10
19.54022
 20
14.09954
 10
19.54022
 20
13.985494
 10
19.540474
 20
13.98524
 10
19.540474
 20
13.64234
 10
19.629374
 20
13.55344
 10
19.972274
 20
13.55344
 10
20.084034
 20
13.55344
 10
20.17522
 20
13.644626
  0
LWPOLYLINE
  5
BA5
330
1D
100
AcDbEntity
  8
PG_SILKSCREEN_TOP
100
AcDbPolyline
 90
        4
 70
     0
 43
0.1524
 10
18.39976
 20
13.64488
 10
18.399709
 20
14.321028
 10
20.299731
 20
14.321028
 10
20.299731
 20
14.070838
  0
LWPOLYLINE
  5
BAB
330
1D
100
AcDbEntity
  8
PG_SILKSCREEN_TOP
100
AcDbPolyline
 90
        4
 70
     0
 43
0.1524
 10
18.399709
 20
13.671042
 10
18.399709
 20
13.420852
 10
20.299731
 20
13.420852
 10
20.29968
 20
14.08938
  0
TEXT
  5
BB1
330
1D
100
AcDbEntity
  8
RD_SILKSCREEN_TOP
100
AcDbText
 10
36.7665
 20
17.96796
 30
0.0
 40
0.7874
  1
R935
 41
0.935484
100
AcDbText
  0
LWPOLYLINE
  5
BB2
330
1D
100
AcDbEntity
  8
PIN_TOP
100
AcDbPolyline
 90
       13
 70
     1
 43
0.0
 10
19.15414
 20
12.5349
 10
19.15414
 20
12.8651
 10
19.15414
 20
12.979654
 10
19.065494
 20
13.0683
 10
18.60804
 20
13.0683
 10
18.51914
 20
12.9794
 10
18.51914
 20
12.865354
 10
18.519394
 20
12.8651
 10
18.519394
 20
12.5222
 10
18.608294
 20
12.4333
 10
18.951194
 20
12.4333
 10
19.062954
 20
12.4333
 10
19.15414
 20
12.524486
  0
LWPOLYLINE
  5
BC1
330
1D
100
AcDbEntity
  8
PIN_TOP
100
AcDbPolyline
 90
       13
 70
     1
 43
0.0
 10
20.17014
 20
12.5349
 10
20.17014
 20
12.8651
 10
20.17014
 20
12.979654
 10
20.081494
 20
13.0683
 10
19.62404
 20
13.0683
 10
19.53514
 20
12.9794
 10
19.53514
 20
12.865354
 10
19.535394
 20
12.8651
 10
19.535394
 20
12.5222
 10
19.624294
 20
12.4333
 10
19.967194
 20
12.4333
 10
20.078954
 20
12.4333
 10
20.17014
 20
12.524486
  0
LWPOLYLINE
  5
BD0
330
1D
100
AcDbEntity
  8
PG_SILKSCREEN_TOP
100
AcDbPolyline
 90
        4
 70
     0
 43
0.1524
 10
18.39468
 20
12.52474
 10
18.394629
 20
13.200888
 10
20.294651
 20
13.200888
 10
20.294651
 20
12.950698
  0
LWPOLYLINE
  5
BD6
330
1D
100
AcDbEntity
  8
PG_SILKSCREEN_TOP
100
AcDbPolyline
 90
        4
 70
     0
 43
0.1524
 10
18.394629
 20
12.550902
 10
18.394629
 20
12.300712
 10
20.294651
 20
12.300712
 10
20.2946
 20
12.96924
  0
TEXT
  5
BDC
330
1D
100
AcDbEntity
  8
RD_SILKSCREEN_TOP
100
AcDbText
 10
36.7665
 20
19.07794
 30
0.0
 40
0.7874
  1
R934
 41
0.935484
100
AcDbText
  0
LWPOLYLINE
  5
BDD
330
1D
100
AcDbEntity
  8
PIN_TOP
100
AcDbPolyline
 90
       13
 70
     1
 43
0.0
 10
55.63108
 20
35.46602
 10
55.63108
 20
35.79622
 10
55.63108
 20
35.910774
 10
55.542434
 20
35.99942
 10
55.08498
 20
35.99942
 10
54.99608
 20
35.91052
 10
54.99608
 20
35.796474
 10
54.996334
 20
35.79622
 10
54.996334
 20
35.45332
 10
55.085234
 20
35.36442
 10
55.428134
 20
35.36442
 10
55.539894
 20
35.36442
 10
55.63108
 20
35.455606
  0
LWPOLYLINE
  5
BEC
330
1D
100
AcDbEntity
  8
PIN_TOP
100
AcDbPolyline
 90
       13
 70
     1
 43
0.0
 10
56.64708
 20
35.46602
 10
56.64708
 20
35.79622
 10
56.64708
 20
35.910774
 10
56.558434
 20
35.99942
 10
56.10098
 20
35.99942
 10
56.01208
 20
35.91052
 10
56.01208
 20
35.796474
 10
56.012334
 20
35.79622
 10
56.012334
 20
35.45332
 10
56.101234
 20
35.36442
 10
56.444134
 20
35.36442
 10
56.555894
 20
35.36442
 10
56.64708
 20
35.455606
  0
LWPOLYLINE
  5
BFB
330
1D
100
AcDbEntity
  8
PG_SILKSCREEN_TOP
100
AcDbPolyline
 90
        4
 70
     0
 43
0.1524
 10
54.87162
 20
35.45586
 10
54.871569
 20
36.132008
 10
56.771591
 20
36.132008
 10
56.771591
 20
35.881818
  0
LWPOLYLINE
  5
C01
330
1D
100
AcDbEntity
  8
PG_SILKSCREEN_TOP
100
AcDbPolyline
 90
        4
 70
     0
 43
0.1524
 10
54.871569
 20
35.482022
 10
54.871569
 20
35.231832
 10
56.771591
 20
35.231832
 10
56.77154
 20
35.90036
  0
TEXT
  5
C07
330
1D
100
AcDbEntity
  8
RD_SILKSCREEN_TOP
100
AcDbText
 10
51.99634
 20
35.5219
 30
0.0
 40
0.7874
  1
R929
 41
0.935484
100
AcDbText
  0
LWPOLYLINE
  5
C08
330
1D
100
AcDbEntity
  8
PIN_TOP
100
AcDbPolyline
 90
       13
 70
     1
 43
0.0
 10
56.01208
 20
36.91382
 10
56.01208
 20
36.58362
 10
56.01208
 20
36.469066
 10
56.100726
 20
36.38042
 10
56.55818
 20
36.38042
 10
56.64708
 20
36.46932
 10
56.64708
 20
36.583366
 10
56.646826
 20
36.58362
 10
56.646826
 20
36.92652
 10
56.557926
 20
37.01542
 10
56.215026
 20
37.01542
 10
56.103266
 20
37.01542
 10
56.01208
 20
36.924234
  0
LWPOLYLINE
  5
C17
330
1D
100
AcDbEntity
  8
PIN_TOP
100
AcDbPolyline
 90
       13
 70
     1
 43
0.0
 10
54.99608
 20
36.91382
 10
54.99608
 20
36.58362
 10
54.99608
 20
36.469066
 10
55.084726
 20
36.38042
 10
55.54218
 20
36.38042
 10
55.63108
 20
36.46932
 10
55.63108
 20
36.583366
 10
55.630826
 20
36.58362
 10
55.630826
 20
36.92652
 10
55.541926
 20
37.01542
 10
55.199026
 20
37.01542
 10
55.087266
 20
37.01542
 10
54.99608
 20
36.924234
  0
LWPOLYLINE
  5
C26
330
1D
100
AcDbEntity
  8
PG_SILKSCREEN_TOP
100
AcDbPolyline
 90
        4
 70
     0
 43
0.1524
 10
56.77154
 20
36.92398
 10
56.771591
 20
36.247832
 10
54.871569
 20
36.247832
 10
54.871569
 20
36.498022
  0
LWPOLYLINE
  5
C2C
330
1D
100
AcDbEntity
  8
PG_SILKSCREEN_TOP
100
AcDbPolyline
 90
        4
 70
     0
 43
0.1524
 10
56.771591
 20
36.897818
 10
56.771591
 20
37.148008
 10
54.871569
 20
37.148008
 10
54.87162
 20
36.47948
  0
TEXT
  5
C32
330
1D
100
AcDbEntity
  8
RD_SILKSCREEN_TOP
100
AcDbText
 10
52.05984
 20
36.71062
 30
0.0
 40
0.7874
  1
R928
 41
0.935484
100
AcDbText
  0
LWPOLYLINE
  5
C33
330
1D
100
AcDbEntity
  8
PIN_TOP
100
AcDbPolyline
 90
       13
 70
     1
 43
0.0
 10
61.71438
 20
35.56762
 10
61.38418
 20
35.56762
 10
61.269626
 20
35.56762
 10
61.18098
 20
35.478974
 10
61.18098
 20
35.02152
 10
61.26988
 20
34.93262
 10
61.383926
 20
34.93262
 10
61.38418
 20
34.932874
 10
61.72708
 20
34.932874
 10
61.81598
 20
35.021774
 10
61.81598
 20
35.364674
 10
61.81598
 20
35.476434
 10
61.724794
 20
35.56762
  0
LWPOLYLINE
  5
C42
330
1D
100
AcDbEntity
  8
PIN_TOP
100
AcDbPolyline
 90
       13
 70
     1
 43
0.0
 10
61.71438
 20
36.58362
 10
61.38418
 20
36.58362
 10
61.269626
 20
36.58362
 10
61.18098
 20
36.494974
 10
61.18098
 20
36.03752
 10
61.26988
 20
35.94862
 10
61.383926
 20
35.94862
 10
61.38418
 20
35.948874
 10
61.72708
 20
35.948874
 10
61.81598
 20
36.037774
 10
61.81598
 20
36.380674
 10
61.81598
 20
36.492434
 10
61.724794
 20
36.58362
  0
LWPOLYLINE
  5
C51
330
1D
100
AcDbEntity
  8
PG_SILKSCREEN_TOP
100
AcDbPolyline
 90
        4
 70
     0
 43
0.1524
 10
61.72454
 20
34.80816
 10
61.048392
 20
34.808109
 10
61.048392
 20
36.708131
 10
61.298582
 20
36.708131
  0
LWPOLYLINE
  5
C57
330
1D
100
AcDbEntity
  8
PG_SILKSCREEN_TOP
100
AcDbPolyline
 90
        4
 70
     0
 43
0.1524
 10
61.698378
 20
34.808109
 10
61.948568
 20
34.808109
 10
61.948568
 20
36.708131
 10
61.28004
 20
36.70808
  0
TEXT
  5
C5D
330
1D
100
AcDbEntity
  8
RD_SILKSCREEN_TOP
100
AcDbText
 10
62.93612
 20
34.85134
 30
0.0
 40
0.7874
  1
R33
 50
90.0
 41
0.935484
100
AcDbText
  0
LWPOLYLINE
  5
C5E
330
1D
100
AcDbEntity
  8
PIN_TOP
100
AcDbPolyline
 90
       13
 70
     1
 43
0.0
 10
61.71438
 20
33.28162
 10
61.38418
 20
33.28162
 10
61.269626
 20
33.28162
 10
61.18098
 20
33.192974
 10
61.18098
 20
32.73552
 10
61.26988
 20
32.64662
 10
61.383926
 20
32.64662
 10
61.38418
 20
32.646874
 10
61.72708
 20
32.646874
 10
61.81598
 20
32.735774
 10
61.81598
 20
33.078674
 10
61.81598
 20
33.190434
 10
61.724794
 20
33.28162
  0
LWPOLYLINE
  5
C6D
330
1D
100
AcDbEntity
  8
PIN_TOP
100
AcDbPolyline
 90
       13
 70
     1
 43
0.0
 10
61.71438
 20
34.29762
 10
61.38418
 20
34.29762
 10
61.269626
 20
34.29762
 10
61.18098
 20
34.208974
 10
61.18098
 20
33.75152
 10
61.26988
 20
33.66262
 10
61.383926
 20
33.66262
 10
61.38418
 20
33.662874
 10
61.72708
 20
33.662874
 10
61.81598
 20
33.751774
 10
61.81598
 20
34.094674
 10
61.81598
 20
34.206434
 10
61.724794
 20
34.29762
  0
LWPOLYLINE
  5
C7C
330
1D
100
AcDbEntity
  8
PG_SILKSCREEN_TOP
100
AcDbPolyline
 90
        4
 70
     0
 43
0.1524
 10
61.72454
 20
32.52216
 10
61.048392
 20
32.522109
 10
61.048392
 20
34.422131
 10
61.298582
 20
34.422131
  0
LWPOLYLINE
  5
C82
330
1D
100
AcDbEntity
  8
PG_SILKSCREEN_TOP
100
AcDbPolyline
 90
        4
 70
     0
 43
0.1524
 10
61.698378
 20
32.522109
 10
61.948568
 20
32.522109
 10
61.948568
 20
34.422131
 10
61.28004
 20
34.42208
  0
TEXT
  5
C88
330
1D
100
AcDbEntity
  8
RD_SILKSCREEN_TOP
100
AcDbText
 10
62.93612
 20
32.46374
 30
0.0
 40
0.7874
  1
R42
 50
90.0
 41
0.935484
100
AcDbText
  0
LWPOLYLINE
  5
C89
330
1D
100
AcDbEntity
  8
PIN_TOP
100
AcDbPolyline
 90
       13
 70
     1
 43
0.0
 10
50.50536
 20
21.59
 10
50.83556
 20
21.59
 10
50.950114
 20
21.59
 10
51.03876
 20
21.678646
 10
51.03876
 20
22.1361
 10
50.94986
 20
22.225
 10
50.835814
 20
22.225
 10
50.83556
 20
22.224746
 10
50.49266
 20
22.224746
 10
50.40376
 20
22.135846
 10
50.40376
 20
21.792946
 10
50.40376
 20
21.681186
 10
50.494946
 20
21.59
  0
LWPOLYLINE
  5
C98
330
1D
100
AcDbEntity
  8
PIN_TOP
100
AcDbPolyline
 90
       13
 70
     1
 43
0.0
 10
50.50536
 20
20.574
 10
50.83556
 20
20.574
 10
50.950114
 20
20.574
 10
51.03876
 20
20.662646
 10
51.03876
 20
21.1201
 10
50.94986
 20
21.209
 10
50.835814
 20
21.209
 10
50.83556
 20
21.208746
 10
50.49266
 20
21.208746
 10
50.40376
 20
21.119846
 10
50.40376
 20
20.776946
 10
50.40376
 20
20.665186
 10
50.494946
 20
20.574
  0
LWPOLYLINE
  5
CA7
330
1D
100
AcDbEntity
  8
PG_SILKSCREEN_TOP
100
AcDbPolyline
 90
        4
 70
     0
 43
0.1524
 10
50.4952
 20
22.34946
 10
51.171348
 20
22.349511
 10
51.171348
 20
20.449489
 10
50.921158
 20
20.449489
  0
LWPOLYLINE
  5
CAD
330
1D
100
AcDbEntity
  8
PG_SILKSCREEN_TOP
100
AcDbPolyline
 90
        4
 70
     0
 43
0.1524
 10
50.521362
 20
22.349511
 10
50.271172
 20
22.349511
 10
50.271172
 20
20.449489
 10
50.9397
 20
20.44954
  0
TEXT
  5
CB3
330
1D
100
AcDbEntity
  8
RD_SILKSCREEN_TOP
100
AcDbText
 10
52.13858
 20
21.09978
 30
0.0
 40
0.7874
  1
R471
 50
90.0
 41
0.935484
100
AcDbText
  0
LWPOLYLINE
  5
CB4
330
1D
100
AcDbEntity
  8
PIN_TOP
100
AcDbPolyline
 90
       13
 70
     1
 43
0.0
 10
36.80206
 20
28.25242
 10
36.80206
 20
28.58262
 10
36.80206
 20
28.697174
 10
36.713414
 20
28.78582
 10
36.25596
 20
28.78582
 10
36.16706
 20
28.69692
 10
36.16706
 20
28.582874
 10
36.167314
 20
28.58262
 10
36.167314
 20
28.23972
 10
36.256214
 20
28.15082
 10
36.599114
 20
28.15082
 10
36.710874
 20
28.15082
 10
36.80206
 20
28.242006
  0
LWPOLYLINE
  5
CC3
330
1D
100
AcDbEntity
  8
PIN_TOP
100
AcDbPolyline
 90
       13
 70
     1
 43
0.0
 10
37.81806
 20
28.25242
 10
37.81806
 20
28.58262
 10
37.81806
 20
28.697174
 10
37.729414
 20
28.78582
 10
37.27196
 20
28.78582
 10
37.18306
 20
28.69692
 10
37.18306
 20
28.582874
 10
37.183314
 20
28.58262
 10
37.183314
 20
28.23972
 10
37.272214
 20
28.15082
 10
37.615114
 20
28.15082
 10
37.726874
 20
28.15082
 10
37.81806
 20
28.242006
  0
LWPOLYLINE
  5
CD2
330
1D
100
AcDbEntity
  8
PG_SILKSCREEN_TOP
100
AcDbPolyline
 90
        4
 70
     0
 43
0.1524
 10
36.0426
 20
28.24226
 10
36.042549
 20
28.918408
 10
37.942571
 20
28.918408
 10
37.942571
 20
28.668218
  0
LWPOLYLINE
  5
CD8
330
1D
100
AcDbEntity
  8
PG_SILKSCREEN_TOP
100
AcDbPolyline
 90
        4
 70
     0
 43
0.1524
 10
36.042549
 20
28.268422
 10
36.042549
 20
28.018232
 10
37.942571
 20
28.018232
 10
37.94252
 20
28.68676
  0
TEXT
  5
CDE
330
1D
100
AcDbEntity
  8
RD_SILKSCREEN_TOP
100
AcDbText
 10
32.99206
 20
28.06954
 30
0.0
 40
0.7874
  1
R468
 41
0.935484
100
AcDbText
  0
LWPOLYLINE
  5
CDF
330
1D
100
AcDbEntity
  8
PIN_TOP
100
AcDbPolyline
 90
       13
 70
     1
 43
0.0
 10
29.13634
 20
32.04972
 10
29.46654
 20
32.04972
 10
29.581094
 20
32.04972
 10
29.66974
 20
32.138366
 10
29.66974
 20
32.59582
 10
29.58084
 20
32.68472
 10
29.466794
 20
32.68472
 10
29.46654
 20
32.684466
 10
29.12364
 20
32.684466
 10
29.03474
 20
32.595566
 10
29.03474
 20
32.252666
 10
29.03474
 20
32.140906
 10
29.125926
 20
32.04972
  0
LWPOLYLINE
  5
CEE
330
1D
100
AcDbEntity
  8
PIN_TOP
100
AcDbPolyline
 90
       13
 70
     1
 43
0.0
 10
29.13634
 20
31.03372
 10
29.46654
 20
31.03372
 10
29.581094
 20
31.03372
 10
29.66974
 20
31.122366
 10
29.66974
 20
31.57982
 10
29.58084
 20
31.66872
 10
29.466794
 20
31.66872
 10
29.46654
 20
31.668466
 10
29.12364
 20
31.668466
 10
29.03474
 20
31.579566
 10
29.03474
 20
31.236666
 10
29.03474
 20
31.124906
 10
29.125926
 20
31.03372
  0
LWPOLYLINE
  5
CFD
330
1D
100
AcDbEntity
  8
PG_SILKSCREEN_TOP
100
AcDbPolyline
 90
        4
 70
     0
 43
0.1524
 10
29.12618
 20
32.80918
 10
29.802328
 20
32.809231
 10
29.802328
 20
30.909209
 10
29.552138
 20
30.909209
  0
LWPOLYLINE
  5
D03
330
1D
100
AcDbEntity
  8
PG_SILKSCREEN_TOP
100
AcDbPolyline
 90
        4
 70
     0
 43
0.1524
 10
29.152342
 20
32.809231
 10
28.902152
 20
32.809231
 10
28.902152
 20
30.909209
 10
29.57068
 20
30.90926
  0
TEXT
  5
D09
330
1D
100
AcDbEntity
  8
RD_SILKSCREEN_TOP
100
AcDbText
 10
29.78404
 20
27.91206
 30
0.0
 40
0.7874
  1
R466
 50
90.0
 41
0.935484
100
AcDbText
  0
LWPOLYLINE
  5
D0A
330
1D
100
AcDbEntity
  8
PIN_TOP
100
AcDbPolyline
 90
       13
 70
     1
 43
0.0
 10
46.01718
 20
38.53688
 10
46.34738
 20
38.53688
 10
46.461934
 20
38.53688
 10
46.55058
 20
38.625526
 10
46.55058
 20
39.08298
 10
46.46168
 20
39.17188
 10
46.347634
 20
39.17188
 10
46.34738
 20
39.171626
 10
46.00448
 20
39.171626
 10
45.91558
 20
39.082726
 10
45.91558
 20
38.739826
 10
45.91558
 20
38.628066
 10
46.006766
 20
38.53688
  0
LWPOLYLINE
  5
D19
330
1D
100
AcDbEntity
  8
PIN_TOP
100
AcDbPolyline
 90
       13
 70
     1
 43
0.0
 10
46.01718
 20
37.52088
 10
46.34738
 20
37.52088
 10
46.461934
 20
37.52088
 10
46.55058
 20
37.609526
 10
46.55058
 20
38.06698
 10
46.46168
 20
38.15588
 10
46.347634
 20
38.15588
 10
46.34738
 20
38.155626
 10
46.00448
 20
38.155626
 10
45.91558
 20
38.066726
 10
45.91558
 20
37.723826
 10
45.91558
 20
37.612066
 10
46.006766
 20
37.52088
  0
LWPOLYLINE
  5
D28
330
1D
100
AcDbEntity
  8
PG_SILKSCREEN_TOP
100
AcDbPolyline
 90
        4
 70
     0
 43
0.1524
 10
46.00702
 20
39.29634
 10
46.683168
 20
39.296391
 10
46.683168
 20
37.396369
 10
46.432978
 20
37.396369
  0
LWPOLYLINE
  5
D2E
330
1D
100
AcDbEntity
  8
PG_SILKSCREEN_TOP
100
AcDbPolyline
 90
        4
 70
     0
 43
0.1524
 10
46.033182
 20
39.296391
 10
45.782992
 20
39.296391
 10
45.782992
 20
37.396369
 10
46.45152
 20
37.39642
  0
TEXT
  5
D34
330
1D
100
AcDbEntity
  8
RD_SILKSCREEN_TOP
100
AcDbText
 10
46.62678
 20
34.44748
 30
0.0
 40
0.7874
  1
R464
 50
90.0
 41
0.935484
100
AcDbText
  0
LWPOLYLINE
  5
D35
330
1D
100
AcDbEntity
  8
PIN_TOP
100
AcDbPolyline
 90
       13
 70
     1
 43
0.0
 10
30.74924
 20
31.65094
 10
30.41904
 20
31.65094
 10
30.304486
 20
31.65094
 10
30.21584
 20
31.562294
 10
30.21584
 20
31.10484
 10
30.30474
 20
31.01594
 10
30.418786
 20
31.01594
 10
30.41904
 20
31.016194
 10
30.76194
 20
31.016194
 10
30.85084
 20
31.105094
 10
30.85084
 20
31.447994
 10
30.85084
 20
31.559754
 10
30.759654
 20
31.65094
  0
LWPOLYLINE
  5
D44
330
1D
100
AcDbEntity
  8
PIN_TOP
100
AcDbPolyline
 90
       13
 70
     1
 43
0.0
 10
30.74924
 20
32.66694
 10
30.41904
 20
32.66694
 10
30.304486
 20
32.66694
 10
30.21584
 20
32.578294
 10
30.21584
 20
32.12084
 10
30.30474
 20
32.03194
 10
30.418786
 20
32.03194
 10
30.41904
 20
32.032194
 10
30.76194
 20
32.032194
 10
30.85084
 20
32.121094
 10
30.85084
 20
32.463994
 10
30.85084
 20
32.575754
 10
30.759654
 20
32.66694
  0
LWPOLYLINE
  5
D53
330
1D
100
AcDbEntity
  8
PG_SILKSCREEN_TOP
100
AcDbPolyline
 90
        4
 70
     0
 43
0.1524
 10
30.7594
 20
30.89148
 10
30.083252
 20
30.891429
 10
30.083252
 20
32.791451
 10
30.333442
 20
32.791451
  0
LWPOLYLINE
  5
D59
330
1D
100
AcDbEntity
  8
PG_SILKSCREEN_TOP
100
AcDbPolyline
 90
        4
 70
     0
 43
0.1524
 10
30.733238
 20
30.891429
 10
30.983428
 20
30.891429
 10
30.983428
 20
32.791451
 10
30.3149
 20
32.7914
  0
TEXT
  5
D5F
330
1D
100
AcDbEntity
  8
RD_SILKSCREEN_TOP
100
AcDbText
 10
31.01594
 20
27.83332
 30
0.0
 40
0.7874
  1
R467
 50
90.0
 41
0.935484
100
AcDbText
  0
LWPOLYLINE
  5
D60
330
1D
100
AcDbEntity
  8
PIN_TOP
100
AcDbPolyline
 90
       13
 70
     1
 43
0.0
 10
37.16528
 20
31.17088
 10
37.16528
 20
30.84068
 10
37.16528
 20
30.726126
 10
37.253926
 20
30.63748
 10
37.71138
 20
30.63748
 10
37.80028
 20
30.72638
 10
37.80028
 20
30.840426
 10
37.800026
 20
30.84068
 10
37.800026
 20
31.18358
 10
37.711126
 20
31.27248
 10
37.368226
 20
31.27248
 10
37.256466
 20
31.27248
 10
37.16528
 20
31.181294
  0
LWPOLYLINE
  5
D6F
330
1D
100
AcDbEntity
  8
PIN_TOP
100
AcDbPolyline
 90
       13
 70
     1
 43
0.0
 10
36.14928
 20
31.17088
 10
36.14928
 20
30.84068
 10
36.14928
 20
30.726126
 10
36.237926
 20
30.63748
 10
36.69538
 20
30.63748
 10
36.78428
 20
30.72638
 10
36.78428
 20
30.840426
 10
36.784026
 20
30.84068
 10
36.784026
 20
31.18358
 10
36.695126
 20
31.27248
 10
36.352226
 20
31.27248
 10
36.240466
 20
31.27248
 10
36.14928
 20
31.181294
  0
LWPOLYLINE
  5
D7E
330
1D
100
AcDbEntity
  8
PG_SILKSCREEN_TOP
100
AcDbPolyline
 90
        4
 70
     0
 43
0.1524
 10
37.92474
 20
31.18104
 10
37.924791
 20
30.504892
 10
36.024769
 20
30.504892
 10
36.024769
 20
30.755082
  0
LWPOLYLINE
  5
D84
330
1D
100
AcDbEntity
  8
PG_SILKSCREEN_TOP
100
AcDbPolyline
 90
        4
 70
     0
 43
0.1524
 10
37.924791
 20
31.154878
 10
37.924791
 20
31.405068
 10
36.024769
 20
31.405068
 10
36.02482
 20
30.73654
  0
TEXT
  5
D8A
330
1D
100
AcDbEntity
  8
RD_SILKSCREEN_TOP
100
AcDbText
 10
32.9565
 20
30.593462
 30
0.0
 40
0.7874
  1
R461
 41
0.935484
100
AcDbText
  0
LWPOLYLINE
  5
D8B
330
1D
100
AcDbEntity
  8
PIN_TOP
100
AcDbPolyline
 90
       13
 70
     1
 43
0.0
 10
48.67148
 20
38.53688
 10
49.00168
 20
38.53688
 10
49.116234
 20
38.53688
 10
49.20488
 20
38.625526
 10
49.20488
 20
39.08298
 10
49.11598
 20
39.17188
 10
49.001934
 20
39.17188
 10
49.00168
 20
39.171626
 10
48.65878
 20
39.171626
 10
48.56988
 20
39.082726
 10
48.56988
 20
38.739826
 10
48.56988
 20
38.628066
 10
48.661066
 20
38.53688
  0
LWPOLYLINE
  5
D9A
330
1D
100
AcDbEntity
  8
PIN_TOP
100
AcDbPolyline
 90
       13
 70
     1
 43
0.0
 10
48.67148
 20
37.52088
 10
49.00168
 20
37.52088
 10
49.116234
 20
37.52088
 10
49.20488
 20
37.609526
 10
49.20488
 20
38.06698
 10
49.11598
 20
38.15588
 10
49.001934
 20
38.15588
 10
49.00168
 20
38.155626
 10
48.65878
 20
38.155626
 10
48.56988
 20
38.066726
 10
48.56988
 20
37.723826
 10
48.56988
 20
37.612066
 10
48.661066
 20
37.52088
  0
LWPOLYLINE
  5
DA9
330
1D
100
AcDbEntity
  8
PG_SILKSCREEN_TOP
100
AcDbPolyline
 90
        4
 70
     0
 43
0.1524
 10
48.66132
 20
39.29634
 10
49.337468
 20
39.296391
 10
49.337468
 20
37.396369
 10
49.087278
 20
37.396369
  0
LWPOLYLINE
  5
DAF
330
1D
100
AcDbEntity
  8
PG_SILKSCREEN_TOP
100
AcDbPolyline
 90
        4
 70
     0
 43
0.1524
 10
48.687482
 20
39.296391
 10
48.437292
 20
39.296391
 10
48.437292
 20
37.396369
 10
49.10582
 20
37.39642
  0
TEXT
  5
DB5
330
1D
100
AcDbEntity
  8
RD_SILKSCREEN_TOP
100
AcDbText
 10
49.3268
 20
34.50336
 30
0.0
 40
0.7874
  1
R217
 50
90.0
 41
0.935484
100
AcDbText
  0
LWPOLYLINE
  5
DB6
330
1D
100
AcDbEntity
  8
PIN_TOP
100
AcDbPolyline
 90
       13
 70
     1
 43
0.0
 10
29.33446
 20
35.62096
 10
29.66466
 20
35.62096
 10
29.779214
 20
35.62096
 10
29.86786
 20
35.709606
 10
29.86786
 20
36.16706
 10
29.77896
 20
36.25596
 10
29.664914
 20
36.25596
 10
29.66466
 20
36.255706
 10
29.32176
 20
36.255706
 10
29.23286
 20
36.166806
 10
29.23286
 20
35.823906
 10
29.23286
 20
35.712146
 10
29.324046
 20
35.62096
  0
LWPOLYLINE
  5
DC5
330
1D
100
AcDbEntity
  8
PIN_TOP
100
AcDbPolyline
 90
       13
 70
     1
 43
0.0
 10
29.33446
 20
34.60496
 10
29.66466
 20
34.60496
 10
29.779214
 20
34.60496
 10
29.86786
 20
34.693606
 10
29.86786
 20
35.15106
 10
29.77896
 20
35.23996
 10
29.664914
 20
35.23996
 10
29.66466
 20
35.239706
 10
29.32176
 20
35.239706
 10
29.23286
 20
35.150806
 10
29.23286
 20
34.807906
 10
29.23286
 20
34.696146
 10
29.324046
 20
34.60496
  0
LWPOLYLINE
  5
DD4
330
1D
100
AcDbEntity
  8
PG_SILKSCREEN_TOP
100
AcDbPolyline
 90
        4
 70
     0
 43
0.1524
 10
29.3243
 20
36.38042
 10
30.000448
 20
36.380471
 10
30.000448
 20
34.480449
 10
29.750258
 20
34.480449
  0
LWPOLYLINE
  5
DDA
330
1D
100
AcDbEntity
  8
PG_SILKSCREEN_TOP
100
AcDbPolyline
 90
        4
 70
     0
 43
0.1524
 10
29.350462
 20
36.380471
 10
29.100272
 20
36.380471
 10
29.100272
 20
34.480449
 10
29.7688
 20
34.4805
  0
TEXT
  5
DE0
330
1D
100
AcDbEntity
  8
RD_SILKSCREEN_TOP
100
AcDbText
 10
32.60344
 20
34.10712
 30
0.0
 40
0.7874
  1
R456
 50
90.0
 41
0.935484
100
AcDbText
  0
LWPOLYLINE
  5
DE1
330
1D
100
AcDbEntity
  8
PIN_TOP
100
AcDbPolyline
 90
       13
 70
     1
 43
0.0
 10
28.67914
 20
35.20948
 10
28.34894
 20
35.20948
 10
28.234386
 20
35.20948
 10
28.14574
 20
35.120834
 10
28.14574
 20
34.66338
 10
28.23464
 20
34.57448
 10
28.348686
 20
34.57448
 10
28.34894
 20
34.574734
 10
28.69184
 20
34.574734
 10
28.78074
 20
34.663634
 10
28.78074
 20
35.006534
 10
28.78074
 20
35.118294
 10
28.689554
 20
35.20948
  0
LWPOLYLINE
  5
DF0
330
1D
100
AcDbEntity
  8
PIN_TOP
100
AcDbPolyline
 90
       13
 70
     1
 43
0.0
 10
28.67914
 20
36.22548
 10
28.34894
 20
36.22548
 10
28.234386
 20
36.22548
 10
28.14574
 20
36.136834
 10
28.14574
 20
35.67938
 10
28.23464
 20
35.59048
 10
28.348686
 20
35.59048
 10
28.34894
 20
35.590734
 10
28.69184
 20
35.590734
 10
28.78074
 20
35.679634
 10
28.78074
 20
36.022534
 10
28.78074
 20
36.134294
 10
28.689554
 20
36.22548
  0
LWPOLYLINE
  5
DFF
330
1D
100
AcDbEntity
  8
PG_SILKSCREEN_TOP
100
AcDbPolyline
 90
        4
 70
     0
 43
0.1524
 10
28.6893
 20
34.45002
 10
28.013152
 20
34.449969
 10
28.013152
 20
36.349991
 10
28.263342
 20
36.349991
  0
LWPOLYLINE
  5
E05
330
1D
100
AcDbEntity
  8
PG_SILKSCREEN_TOP
100
AcDbPolyline
 90
        4
 70
     0
 43
0.1524
 10
28.663138
 20
34.449969
 10
28.913328
 20
34.449969
 10
28.913328
 20
36.349991
 10
28.2448
 20
36.34994
  0
TEXT
  5
E0B
330
1D
100
AcDbEntity
  8
RD_SILKSCREEN_TOP
100
AcDbText
 10
31.11754
 20
34.12744
 30
0.0
 40
0.7874
  1
R457
 50
90.0
 41
0.935484
100
AcDbText
  0
LWPOLYLINE
  5
E0C
330
1D
100
AcDbEntity
  8
PG_SILKSCREEN_TOP
100
AcDbPolyline
 90
        3
 70
     0
 43
0.2032
 10
38.29812
 20
13.34008
 10
38.28796
 20
13.34008
 10
37.592
 20
12.64412
  0
LWPOLYLINE
  5
E11
330
1D
100
AcDbEntity
  8
PG_SILKSCREEN_TOP
100
AcDbPolyline
 90
        4
 70
     0
 43
0.2032
 10
27.8003
 20
13.34008
 10
38.29812
 20
13.34008
 10
38.29812
 20
13.37564
 10
37.5793
 20
14.09446
  0
LWPOLYLINE
  5
E17
330
1D
100
AcDbEntity
  8
PG_SILKSCREEN_TOP
100
AcDbPolyline
 90
        9
 70
     0
 43
0.2032
 10
17.72666
 20
18.17624
 10
27.8257
 20
18.17624
 10
27.8257
 20
9.79932
 10
30.82036
 20
9.79932
 10
30.82036
 20
6.40334
 10
18.83664
 20
6.40334
 10
18.83664
 20
11.59256
 10
17.72666
 20
11.59256
 10
17.72666
 20
18.17624
  0
LWPOLYLINE
  5
E22
330
1D
100
AcDbEntity
  8
PG_SILKSCREEN_TOP
100
AcDbPolyline
 90
       15
 70
     0
 43
0.2032
 10
36.86048
 20
21.62556
 10
45.44568
 20
21.62556
 10
45.45838
 20
21.63826
 10
45.47108
 20
21.63826
 10
45.47108
 20
12.57808
 10
44.28998
 20
12.57808
 10
44.28998
 20
11.9888
 10
38.7477
 20
11.9888
 10
38.7477
 20
14.72438
 10
37.12464
 20
14.72438
 10
37.12464
 20
17.81048
 10
36.50742
 20
17.81048
 10
36.50742
 20
21.6662
 10
36.86048
 20
21.6662
 10
36.86048
 20
21.62556
  0
LWPOLYLINE
  5
E33
330
1D
100
AcDbEntity
  8
PG_SILKSCREEN_TOP
100
AcDbPolyline
 90
        2
 70
     1
 43
0.0
 10
44.542786
 20
44.28998
 42
1.0
 10
43.549494
 20
44.28998
 42
1.0
  0
LWPOLYLINE
  5
E37
330
1D
100
AcDbEntity
  8
PG_SILKSCREEN_TOP
100
AcDbPolyline
 90
        2
 70
     1
 43
0.0
 10
54.791686
 20
44.27982
 42
1.0
 10
53.798394
 20
44.27982
 42
1.0
  0
LWPOLYLINE
  5
E3B
330
1D
100
AcDbEntity
  8
BG_OUTLINE
100
AcDbPolyline
 90
       28
 70
     1
 43
0.0
 10
2.8702
 20
0.0
 10
62.13033
 20
0.0
 42
0.388786
 10
64.9224
 20
3.048
 10
64.9224
 20
53.0352
 42
0.383736
 10
61.6204
 20
56.007
 10
2.9972
 20
56.007
 42
0.414214
 10
0.0
 20
53.0098
 10
0.0
 20
2.8956
 10
0.0254
 20
2.6416
 10
0.0508
 20
2.4638
 10
0.1016
 20
2.2352
 10
0.2032
 20
1.9304
 10
0.3048
 20
1.6764
 10
0.381
 20
1.524
 10
0.4572
 20
1.397
 10
0.5842
 20
1.2192
 10
0.6604
 20
1.1176
 10
0.8128
 20
0.9398
 10
0.9398
 20
0.8128
 10
1.0922
 20
0.6858
 10
1.2192
 20
0.5842
 10
1.3208
 20
0.508
 10
1.5748
 20
0.3556
 10
1.7272
 20
0.2794
 10
1.9812
 20
0.1778
 10
2.1336
 20
0.127
 10
2.3368
 20
0.0762
 10
2.5908
 20
0.0254
  0
TEXT
  5
E59
330
1D
100
AcDbEntity
  8
PG_SILKSCREEN_TOP
100
AcDbText
 10
18.43532
 20
0.3937
 30
0.0
 40
0.7874
  1
PWR_KEY
 50
90.0
 41
0.935484
100
AcDbText
  0
TEXT
  5
E5A
330
1D
100
AcDbEntity
  8
PG_SILKSCREEN_TOP
100
AcDbText
 10
24.40432
 20
0.06096
 30
0.0
 40
0.7874
  1
GND
 41
0.935484
100
AcDbText
  0
TEXT
  5
E5B
330
1D
100
AcDbEntity
  8
PG_SILKSCREEN_TOP
100
AcDbText
 10
26.90622
 20
0.08636
 30
0.0
 40
0.7874
  1
12V
 41
0.935484
100
AcDbText
  0
TEXT
  5
E5C
330
1D
100
AcDbEntity
  8
PG_SILKSCREEN_TOP
100
AcDbText
 10
41.58742
 20
3.0099
 30
0.0
 40
0.7874
  1
GND
 41
0.935484
100
AcDbText
  0
TEXT
  5
E5D
330
1D
100
AcDbEntity
  8
PG_SILKSCREEN_TOP
100
AcDbText
 10
41.38676
 20
7.1501
 30
0.0
 40
0.7874
  1
12V
 41
0.935484
100
AcDbText
  0
TEXT
  5
E5E
330
1D
100
AcDbEntity
  8
PG_SILKSCREEN_TOP
100
AcDbText
 10
27.305
 20
31.74746
 30
0.0
 40
0.7874
  1
(OUT)
 50
90.0
 41
0.935484
100
AcDbText
  0
TEXT
  5
E5F
330
1D
100
AcDbEntity
  8
PG_SILKSCREEN_TOP
100
AcDbText
 10
28.13304
 20
10.44194
 30
0.0
 40
1.143
  1
12VIN
 41
1.133333
100
AcDbText
  0
TEXT
  5
E61
330
1D
100
AcDbEntity
  8
PG_SILKSCREEN_TOP
100
AcDbText
 10
56.72582
 20
4.00304
 30
0.0
 40
1.143
  1
12VIN
 50
90.0
 41
1.133333
100
AcDbText
  0
TEXT
  5
E62
330
1D
100
AcDbEntity
  8
PG_SILKSCREEN_TOP
100
AcDbText
 10
28.53436
 20
42.61612
 30
0.0
 40
1.27
  1
M4 SATA HAT
 41
1.02
100
AcDbText
  0
ENDSEC
  0
SECTION
  2
OBJECTS
  0
DICTIONARY
  5
C
330
0
100
AcDbDictionary
  3
ACAD_GROUP
350
D
  3
ACAD_LAYOUT
350
1A
  3
ACAD_MATERIAL
350
EA2
  3
ACAD_MLEADERSTYLE
350
EA8
  3
ACAD_MLINESTYLE
350
17
  3
ACAD_PLOTSETTINGS
350
19
  3
ACAD_SCALELIST
350
E63
  3
ACAD_VISUALSTYLE
350
E89
  3
ACDBHEADERROUNDTRIPXREC
350
EB3
  3
ACDBVARIABLEDICTIONARY
350
EAB
  3
APPDATA
350
EAA
  3
DWGPROPS
350
ED6
  0
DICTIONARY
  5
ED7
330
8
100
AcDbDictionary
280
     1
  3
ACAD_XREC_ROUNDTRIP
360
ED8
  0
DICTIONARY
  5
D
102
{ACAD_REACTORS
330
C
102
}
330
C
100
AcDbDictionary
  0
DICTIONARY
  5
1A
102
{ACAD_REACTORS
330
C
102
}
330
C
100
AcDbDictionary
  0
DICTIONARY
  5
EA2
102
{ACAD_REACTORS
330
C
102
}
330
C
100
AcDbDictionary
  3
BYBLOCK
350
EA4
  3
BYLAYER
350
EA3
  3
GLOBAL
350
EA5
  0
DICTIONARY
  5
EA8
102
{ACAD_REACTORS
330
C
102
}
330
C
100
AcDbDictionary
  3
STANDARD
350
EA9
  0
DICTIONARY
  5
17
102
{ACAD_REACTORS
330
C
102
}
330
C
100
AcDbDictionary
  3
STANDARD
350
18
  0
DICTIONARY
  5
19
102
{ACAD_REACTORS
330
C
102
}
330
C
100
AcDbDictionary
  0
DICTIONARY
  5
E63
102
{ACAD_REACTORS
330
C
102
}
330
C
100
AcDbDictionary
  3
A0
350
E64
  3
A1
350
E65
  3
A2
350
E66
  3
A3
350
E67
  3
A4
350
E68
  3
A5
350
E69
  3
A6
350
E6A
  3
A7
350
E6B
  3
A8
350
E6C
  3
A9
350
E6D
  3
B0
350
E6E
  3
B1
350
E6F
  3
B2
350
E70
  3
B3
350
E71
  3
B4
350
E72
  3
B5
350
E73
  3
B6
350
E74
  3
B7
350
E75
  3
B8
350
E76
  3
B9
350
E77
  3
C0
350
E78
  3
C1
350
E79
  3
C2
350
E7A
  3
C3
350
E7B
  3
C4
350
E7C
  3
C5
350
E7D
  3
C6
350
E7E
  3
C7
350
E7F
  3
C8
350
E80
  3
C9
350
E81
  3
D0
350
E82
  3
D1
350
E83
  3
D2
350
E84
  0
DICTIONARY
  5
E89
102
{ACAD_REACTORS
330
C
102
}
330
C
100
AcDbDictionary
  3
2DWIREFRAME
350
E8E
  3
BASIC
350
E91
  3
BRIGHTEN
350
E95
  3
COLORCHANGE
350
E99
  3
CONCEPTUAL
350
E93
  3
DIM
350
E94
  3
EDGECOLOROFF
350
E9C
  3
FACEPATTERN
350
E98
  3
FLAT
350
E8A
  3
FLATWITHEDGES
350
E8B
  3
GOURAUD
350
E8C
  3
GOURAUDWITHEDGES
350
E8D
  3
HIDDEN
350
E90
  3
JITTEROFF
350
E9A
  3
LINEPATTERN
350
E97
  3
OVERHANGOFF
350
E9B
  3
REALISTIC
350
E92
  3
SHADED
350
EA1
  3
SHADED_WITH_EDGES
350
EA0
  3
SHADES_OF_GRAY
350
E9D
  3
SKETCHY
350
E9E
  3
THICKEN
350
E96
  3
WIREFRAME
350
E8F
  3
X-RAY
350
E9F
  0
DICTIONARY
  5
EB3
102
{ACAD_REACTORS
330
C
102
}
330
C
100
AcDbDictionary
  3
CEPSNID
350
EBD
  3
CEPSNTYPE
350
EBC
  3
DIMSTYLEDATA
350
ED3
  3
FINGERPRINTGUID
350
EBE
  3
HYPERLINKBASE
350
EB6
  3
INSUNITS
350
EBB
  3
LAYOUTDICT
350
EB8
  3
LWETCUNION
350
EBA
  3
PLOTSETDICT
350
EB9
  3
PSVPSCALE
350
EC0
  3
PUCSBASE
350
EC3
  3
PUCSORGBACK
350
EC9
  3
PUCSORGBOTTOM
350
EC5
  3
PUCSORGFRONT
350
EC8
  3
PUCSORGLEFT
350
EC6
  3
PUCSORGRIGHT
350
EC7
  3
PUCSORGTOP
350
EC4
  3
PUCSORTHOREF
350
EC1
  3
PUCSORTHOVIEW
350
EC2
  3
STYLESHEET
350
EB7
  3
TSTACKALIGN
350
EB4
  3
TSTACKSIZE
350
EB5
  3
UCSBASE
350
ECC
  3
UCSORGBACK
350
ED2
  3
UCSORGBOTTOM
350
ECE
  3
UCSORGFRONT
350
ED1
  3
UCSORGLEFT
350
ECF
  3
UCSORGRIGHT
350
ED0
  3
UCSORGTOP
350
ECD
  3
UCSORTHOREF
350
ECA
  3
UCSORTHOVIEW
350
ECB
  3
VERSIONGUID
350
EBF
  0
DICTIONARY
  5
EAB
102
{ACAD_REACTORS
330
C
102
}
330
C
100
AcDbDictionary
  3
CANNOSCALE
350
EAC
  3
CMLEADERSTYLE
350
EAE
  3
CTABLESTYLE
350
EAD
  3
DIMASSOC
350
ED4
  3
HIDETEXT
350
ED5
  3
MSLTSCALE
350
EAF
  0
DICTIONARY
  5
EAA
102
{ACAD_REACTORS
330
C
102
}
330
C
100
AcDbDictionary
  0
XRECORD
  5
ED6
102
{ACAD_REACTORS
330
C
102
}
330
C
100
AcDbXrecord
  1
DWGPROPS COOKIE
  2

  3

  4

  6

  7

  8
chya
  9

300
=
301
=
302
=
303
=
304
=
305
=
306
=
307
=
308
=
309
=
 40
0.0
 41
2458619.08903588
 42
2459496.321288044
  1

 90
        0
  0
XRECORD
  5
ED8
102
{ACAD_REACTORS
330
ED7
102
}
330
ED7
100
AcDbXrecord
102
VTR_0.000_0.000_1.000_1.000_VISUALSTYLE
340
E8E
102
VTR_0.000_0.000_1.000_1.000_GRIDDISPLAY
 70
     3
102
VTR_0.000_0.000_1.000_1.000_GRIDMAJOR
 70
     5
102
VTR_0.000_0.000_1.000_1.000_DEFAULTLIGHTING
280
     1
102
VTR_0.000_0.000_1.000_1.000_DEFAULTLIGHTINGTYPE
 70
     1
102
VTR_0.000_0.000_1.000_1.000_BRIGHTNESS
141
0.0
102
VTR_0.000_0.000_1.000_1.000_CONTRAST
142
0.0
  0
MATERIAL
  5
EA4
102
{ACAD_REACTORS
330
EA2
102
}
102
{ACAD_XDICTIONARY
360
EDB
102
}
330
EA2
100
AcDbMaterial
  1
BYBLOCK
  0
MATERIAL
  5
EA3
102
{ACAD_REACTORS
330
EA2
102
}
102
{ACAD_XDICTIONARY
360
ED9
102
}
330
EA2
100
AcDbMaterial
  1
BYLAYER
  0
MATERIAL
  5
EA5
102
{ACAD_REACTORS
330
EA2
102
}
102
{ACAD_XDICTIONARY
360
EDD
102
}
330
EA2
100
AcDbMaterial
  1
GLOBAL
  0
ACAD_PROXY_OBJECT
  5
EA9
102
{ACAD_REACTORS
330
EA8
102
}
330
EA8
100
AcDbProxyObject
 90
      499
 91
      505
 93
      610
310
40901902A4063FBFFFFFE056BD1B81E855B9FC0AD7A3703D0AD73F4214DD185B99185C9900AD7A3703D0AC73F90140501A02B5E8DC0F42B1CFC02B5E8DC0F42B1CFE5764000000000000300FC0
340
14
340
0
340
11
340
0
 94
        0
1001
ACAD_MLEADERVER
1070
     2
  0
MLINESTYLE
  5
18
102
{ACAD_REACTORS
330
17
102
}
330
17
100
AcDbMlineStyle
  2
Standard
 70
     0
  3

 62
   256
 51
90.0
 52
90.0
 71
     2
 49
0.5
 62
   256
  6
BYLAYER
 49
-0.5
 62
   256
  6
BYLAYER
  0
ACAD_PROXY_OBJECT
  5
E64
102
{ACAD_REACTORS
330
E63
102
}
330
E63
100
AcDbProxyObject
 90
      499
 91
      501
 93
       41
310
903313A31580
  0
ACAD_PROXY_OBJECT
  5
E65
102
{ACAD_REACTORS
330
E63
102
}
330
E63
100
AcDbProxyObject
 90
      499
 91
      501
 93
      105
310
903313A324000000000000004000
  0
ACAD_PROXY_OBJECT
  5
E66
102
{ACAD_REACTORS
330
E63
102
}
330
E63
100
AcDbProxyObject
 90
      499
 91
      501
 93
      105
310
903313A344000000000000104000
  0
ACAD_PROXY_OBJECT
  5
E67
102
{ACAD_REACTORS
330
E63
102
}
330
E63
100
AcDbProxyObject
 90
      499
 91
      501
 93
      105
310
903313A354000000000000144000
  0
ACAD_PROXY_OBJECT
  5
E68
102
{ACAD_REACTORS
330
E63
102
}
330
E63
100
AcDbProxyObject
 90
      499
 91
      501
 93
      105
310
903313A384000000000000204000
  0
ACAD_PROXY_OBJECT
  5
E69
102
{ACAD_REACTORS
330
E63
102
}
330
E63
100
AcDbProxyObject
 90
      499
 91
      501
 93
      113
310
904313A31304000000000000244000
  0
ACAD_PROXY_OBJECT
  5
E6A
102
{ACAD_REACTORS
330
E63
102
}
330
E63
100
AcDbProxyObject
 90
      499
 91
      501
 93
      113
310
904313A31364000000000000304000
  0
ACAD_PROXY_OBJECT
  5
E6B
102
{ACAD_REACTORS
330
E63
102
}
330
E63
100
AcDbProxyObject
 90
      499
 91
      501
 93
      113
310
904313A32304000000000000344000
  0
ACAD_PROXY_OBJECT
  5
E6C
102
{ACAD_REACTORS
330
E63
102
}
330
E63
100
AcDbProxyObject
 90
      499
 91
      501
 93
      113
310
904313A333040000000000003E4000
  0
ACAD_PROXY_OBJECT
  5
E6D
102
{ACAD_REACTORS
330
E63
102
}
330
E63
100
AcDbProxyObject
 90
      499
 91
      501
 93
      113
310
904313A34304000000000000444000
  0
ACAD_PROXY_OBJECT
  5
E6E
102
{ACAD_REACTORS
330
E63
102
}
330
E63
100
AcDbProxyObject
 90
      499
 91
      501
 93
      113
310
904313A35304000000000000494000
  0
ACAD_PROXY_OBJECT
  5
E6F
102
{ACAD_REACTORS
330
E63
102
}
330
E63
100
AcDbProxyObject
 90
      499
 91
      501
 93
      121
310
905313A3130304000000000000594000
  0
ACAD_PROXY_OBJECT
  5
E70
102
{ACAD_REACTORS
330
E63
102
}
330
E63
100
AcDbProxyObject
 90
      499
 91
      501
 93
      105
310
903323A310000000000000010100
  0
ACAD_PROXY_OBJECT
  5
E71
102
{ACAD_REACTORS
330
E63
102
}
330
E63
100
AcDbProxyObject
 90
      499
 91
      501
 93
      105
310
903343A310000000000000410100
  0
ACAD_PROXY_OBJECT
  5
E72
102
{ACAD_REACTORS
330
E63
102
}
330
E63
100
AcDbProxyObject
 90
      499
 91
      501
 93
      105
310
903383A310000000000000810100
  0
ACAD_PROXY_OBJECT
  5
E73
102
{ACAD_REACTORS
330
E63
102
}
330
E63
100
AcDbProxyObject
 90
      499
 91
      501
 93
      113
310
90431303A310000000000000910100
  0
ACAD_PROXY_OBJECT
  5
E74
102
{ACAD_REACTORS
330
E63
102
}
330
E63
100
AcDbProxyObject
 90
      499
 91
      501
 93
      121
310
9053130303A310000000000001650100
  0
ACAD_PROXY_OBJECT
  5
E75
102
{ACAD_REACTORS
330
E63
102
}
330
E63
100
AcDbProxyObject
 90
      499
 91
      501
 93
      257
310
90E312F31323822203D2031272D3022000000000000200FC000000000000284000
  0
ACAD_PROXY_OBJECT
  5
E76
102
{ACAD_REACTORS
330
E63
102
}
330
E63
100
AcDbProxyObject
 90
      499
 91
      501
 93
      249
310
90D312F363422203D2031272D3022000000000000240FC000000000000284000
  0
ACAD_PROXY_OBJECT
  5
E77
102
{ACAD_REACTORS
330
E63
102
}
330
E63
100
AcDbProxyObject
 90
      499
 91
      501
 93
      249
310
90D312F333222203D2031272D3022000000000000280FC000000000000284000
  0
ACAD_PROXY_OBJECT
  5
E78
102
{ACAD_REACTORS
330
E63
102
}
330
E63
100
AcDbProxyObject
 90
      499
 91
      501
 93
      249
310
90D312F313622203D2031272D30220000000000002C0FC000000000000284000
  0
ACAD_PROXY_OBJECT
  5
E79
102
{ACAD_REACTORS
330
E63
102
}
330
E63
100
AcDbProxyObject
 90
      499
 91
      501
 93
      249
310
90D332F333222203D2031272D30220000000000002E0FC000000000000284000
  0
ACAD_PROXY_OBJECT
  5
E7A
102
{ACAD_REACTORS
330
E63
102
}
330
E63
100
AcDbProxyObject
 90
      499
 91
      501
 93
      241
310
90C312F3822203D2031272D3022000000000000300FC000000000000284000
  0
ACAD_PROXY_OBJECT
  5
E7B
102
{ACAD_REACTORS
330
E63
102
}
330
E63
100
AcDbProxyObject
 90
      499
 91
      501
 93
      249
310
90D332F313622203D2031272D3022000000000000320FC000000000000284000
  0
ACAD_PROXY_OBJECT
  5
E7C
102
{ACAD_REACTORS
330
E63
102
}
330
E63
100
AcDbProxyObject
 90
      499
 91
      501
 93
      241
310
90C312F3422203D2031272D3022000000000000340FC000000000000284000
  0
ACAD_PROXY_OBJECT
  5
E7D
102
{ACAD_REACTORS
330
E63
102
}
330
E63
100
AcDbProxyObject
 90
      499
 91
      501
 93
      241
310
90C332F3822203D2031272D3022000000000000360FC000000000000284000
  0
ACAD_PROXY_OBJECT
  5
E7E
102
{ACAD_REACTORS
330
E63
102
}
330
E63
100
AcDbProxyObject
 90
      499
 91
      501
 93
      241
310
90C312F3222203D2031272D3022000000000000380FC000000000000284000
  0
ACAD_PROXY_OBJECT
  5
E7F
102
{ACAD_REACTORS
330
E63
102
}
330
E63
100
AcDbProxyObject
 90
      499
 91
      501
 93
      241
310
90C332F3422203D2031272D30220000000000003A0FC000000000000284000
  0
ACAD_PROXY_OBJECT
  5
E80
102
{ACAD_REACTORS
330
E63
102
}
330
E63
100
AcDbProxyObject
 90
      499
 91
      501
 93
      161
310
90A3122203D2031272D30224000000000000284000
  0
ACAD_PROXY_OBJECT
  5
E81
102
{ACAD_REACTORS
330
E63
102
}
330
E63
100
AcDbProxyObject
 90
      499
 91
      501
 93
      257
310
90E312D312F3222203D2031272D30220000000000003E0FC000000000000284000
  0
ACAD_PROXY_OBJECT
  5
E82
102
{ACAD_REACTORS
330
E63
102
}
330
E63
100
AcDbProxyObject
 90
      499
 91
      501
 93
      225
310
90A3322203D2031272D302200000000000002100000000000000284000
  0
ACAD_PROXY_OBJECT
  5
E83
102
{ACAD_REACTORS
330
E63
102
}
330
E63
100
AcDbProxyObject
 90
      499
 91
      501
 93
      225
310
90A3622203D2031272D302200000000000006100000000000000284000
  0
ACAD_PROXY_OBJECT
  5
E84
102
{ACAD_REACTORS
330
E63
102
}
330
E63
100
AcDbProxyObject
 90
      499
 91
      501
 93
      249
310
90D31272D3022203D2031272D30220000000000000A100000000000000284000
  0
ACAD_PROXY_OBJECT
  5
E8E
102
{ACAD_REACTORS
330
E89
102
}
330
E89
100
AcDbProxyObject
 90
      499
 91
      502
 93
      436
310
42CC9915DA5C99599C985B595049028333333333333E33F0000000000000F90107901411070040501600405405064090741402480A0340
1001
ACAD
1000
AcDbSavedByObjectVersion
1070
     0
  0
ACAD_PROXY_OBJECT
  5
E91
102
{ACAD_REACTORS
330
E89
102
}
330
E89
100
AcDbProxyObject
 90
      499
 91
      502
 93
      388
310
4150985CDA58D07406404333333333333E33F0000000000000F90107A41107004050150841D405064090741402480A0350
1001
ACAD
1000
AcDbSavedByObjectVersion
1070
     0
  0
ACAD_PROXY_OBJECT
  5
E95
102
{ACAD_REACTORS
330
E89
102
}
330
E89
100
AcDbProxyObject
 90
      499
 91
      502
 93
      428
310
42109C9A59DA1D195B90C409028333333333333E33F0000000000000F9010790141107004050150841D405064090741402480A029950
1001
ACAD
1000
AcDbSavedByObjectVersion
1070
     0
  0
ACAD_PROXY_OBJECT
  5
E99
102
{ACAD_REACTORS
330
E89
102
}
330
E89
100
AcDbProxyObject
 90
      499
 91
      502
 93
      452
310
42D0DBDB1BDC90DA185B99D95104090240C333333333333E33F0000000000000F90108901411070040501508421405064090741402480A0350
1001
ACAD
1000
AcDbSavedByObjectVersion
1070
     0
  0
ACAD_PROXY_OBJECT
  5
E93
102
{ACAD_REACTORS
330
E89
102
}
330
E89
100
AcDbProxyObject
 90
      499
 91
      502
 93
      500
310
4290DBDB98D95C1D1D585B10940D028333333333333E33F0000000000000F90107902409070040501000000000018199010841D405064090740C02480A0340
1001
ACAD
1000
AcDbSavedByObjectVersion
1070
     0
  0
ACAD_PROXY_OBJECT
  5
E94
102
{ACAD_REACTORS
330
E89
102
}
330
E89
100
AcDbProxyObject
 90
      499
 91
      502
 93
      412
310
40D11A5B50B409028333333333333E33F0000000000000F9010790141107004050150841D405064090741402480A02677FFFFFD0
1001
ACAD
1000
AcDbSavedByObjectVersion
1070
     0
  0
ACAD_PROXY_OBJECT
  5
E9C
102
{ACAD_REACTORS
330
E89
102
}
330
E89
100
AcDbProxyObject
 90
      499
 91
      502
 93
      452
310
43115919D950DBDB1BDC93D999916409028333333333333E33F0000000000000F9010790141107004050150841D405064090741402480A0350
1001
ACAD
1000
AcDbSavedByObjectVersion
1070
     0
  0
ACAD_PROXY_OBJECT
  5
E98
102
{ACAD_REACTORS
330
E89
102
}
330
E89
100
AcDbProxyObject
 90
      499
 91
      502
 93
      444
310
42D19858D95C185D1D195C9B90F409028333333333333E33F0000000000000F9010790141107004050150841D405064090741402480A0350
1001
ACAD
1000
AcDbSavedByObjectVersion
1070
     0
  0
ACAD_PROXY_OBJECT
  5
E8A
102
{ACAD_REACTORS
330
E89
102
}
330
E89
100
AcDbProxyObject
 90
      499
 91
      502
 93
      380
310
41119B185D240901404333333333333E33F0000000000000F9010740A907004050150841D405064090741402480A1B50
1001
ACAD
1000
AcDbSavedByObjectVersion
1070
     0
  0
ACAD_PROXY_OBJECT
  5
E8B
102
{ACAD_REACTORS
330
E89
102
}
330
E89
100
AcDbProxyObject
 90
      499
 91
      502
 93
      468
310
43519B185D15DA5D1A115919D95CD0140901404333333333333E33F0000000000000F90107409019070040501600405405064090741402480A1B50
1001
ACAD
1000
AcDbSavedByObjectVersion
1070
     0
  0
ACAD_PROXY_OBJECT
  5
E8C
102
{ACAD_REACTORS
330
E89
102
}
330
E89
100
AcDbProxyObject
 90
      499
 91
      502
 93
      404
310
41D1DBDD5C985D5910240902404333333333333E33F0000000000000F9010740A9070040501641D405064090741402480A1B50
1001
ACAD
1000
AcDbSavedByObjectVersion
1070
     0
  0
ACAD_PROXY_OBJECT
  5
E8D
102
{ACAD_REACTORS
330
E89
102
}
330
E89
100
AcDbProxyObject
 90
      499
 91
      502
 93
      492
310
4411DBDD5C985D5915DA5D1A115919D95CD0340902404333333333333E33F0000000000000F90107409019070040501600405405064090741402480A1B50
1001
ACAD
1000
AcDbSavedByObjectVersion
1070
     0
  0
ACAD_PROXY_OBJECT
  5
E90
102
{ACAD_REACTORS
330
E89
102
}
330
E89
100
AcDbProxyObject
 90
      499
 91
      502
 93
      476
310
41921A5919195B90640502408333333333333E33F0000000000000F901079024090700405020000000000001110200405405064090740C02480A0340
1001
ACAD
1000
AcDbSavedByObjectVersion
1070
     0
  0
ACAD_PROXY_OBJECT
  5
E9A
102
{ACAD_REACTORS
330
E89
102
}
330
E89
100
AcDbProxyObject
 90
      499
 91
      502
 93
      428
310
42529A5D1D195C93D999914409028333333333333E33F0000000000000F9010790141107004050150A41D405064090741402480A0350
1001
ACAD
1000
AcDbSavedByObjectVersion
1070
     0
  0
ACAD_PROXY_OBJECT
  5
E97
102
{ACAD_REACTORS
330
E89
102
}
330
E89
100
AcDbProxyObject
 90
      499
 91
      502
 93
      444
310
42D31A5B995C185D1D195C9B90E409028333333333333E33F0000000000000F9010790141107004050750841D405064090741402483A0350
1001
ACAD
1000
AcDbSavedByObjectVersion
1070
     0
  0
ACAD_PROXY_OBJECT
  5
E9B
102
{ACAD_REACTORS
330
E89
102
}
330
E89
100
AcDbProxyObject
 90
      499
 91
      502
 93
      444
310
42D3DD995C9A185B99D3D999915409028333333333333E33F0000000000000F9010790141107004050150941D405064090741402480A0350
1001
ACAD
1000
AcDbSavedByObjectVersion
1070
     0
  0
ACAD_PROXY_OBJECT
  5
E92
102
{ACAD_REACTORS
330
E89
102
}
330
E89
100
AcDbProxyObject
 90
      499
 91
      502
 93
      428
310
425499585B1A5CDD1A58D08409038333333333333E33F0000000000000F9010740A907004050150800405405064090740C02480A1B40
1001
ACAD
1000
AcDbSavedByObjectVersion
1070
     0
  0
ACAD_PROXY_OBJECT
  5
EA1
102
{ACAD_REACTORS
330
E89
102
}
330
E89
100
AcDbProxyObject
 90
      499
 91
      502
 93
      420
310
4194DA1859195911B40902404333333333333E33F0000000000000F9010740A41107004050150800405405064090840C02480A0B40
1001
ACAD
1000
AcDbSavedByObjectVersion
1070
     0
  0
ACAD_PROXY_OBJECT
  5
EA0
102
{ACAD_REACTORS
330
E89
102
}
330
E89
100
AcDbProxyObject
 90
      499
 91
      502
 93
      516
310
4454DA18591959081DDA5D1A08195919D95CD1A40902404333333333333E33F0000000000000F901074090142907004050250800405405064090740C02480A0B40
1001
ACAD
1000
AcDbSavedByObjectVersion
1070
     0
  0
ACAD_PROXY_OBJECT
  5
E9D
102
{ACAD_REACTORS
330
E89
102
}
330
E89
100
AcDbProxyObject
 90
      499
 91
      502
 93
      532
310
4394DA1859195CC81BD98811DC985E5174090240C333333333333E33F0000000000000F901079024090741D01000000000000111010841D405064090740C02480A0340
1001
ACAD
1000
AcDbSavedByObjectVersion
1070
     0
  0
ACAD_PROXY_OBJECT
  5
E9E
102
{ACAD_REACTORS
330
E89
102
}
330
E89
100
AcDbProxyObject
 90
      499
 91
      502
 93
      476
310
41D4DAD95D18DA1E51840502408333333333333E33F0000000000000F901079024090741D01000000000000111010B41D405064090741802480A0340
1001
ACAD
1000
AcDbSavedByObjectVersion
1070
     0
  0
ACAD_PROXY_OBJECT
  5
E96
102
{ACAD_REACTORS
330
E89
102
}
330
E89
100
AcDbProxyObject
 90
      499
 91
      502
 93
      412
310
41D51A1A58DAD95B90D409028333333333333E33F0000000000000F9010790141107004050150C41D405064090741402480A0350
1001
ACAD
1000
AcDbSavedByObjectVersion
1070
     0
  0
ACAD_PROXY_OBJECT
  5
E8F
102
{ACAD_REACTORS
330
E89
102
}
330
E89
100
AcDbProxyObject
 90
      499
 91
      502
 93
      420
310
4255DA5C99599C985B595059028333333333333E33F0000000000000F90107901411070040501600405405064090740C02480A0340
1001
ACAD
1000
AcDbSavedByObjectVersion
1070
     0
  0
ACAD_PROXY_OBJECT
  5
E9F
102
{ACAD_REACTORS
330
E89
102
}
330
E89
100
AcDbProxyObject
 90
      499
 91
      502
 93
      404
310
41560B54985E51940902404000000000000E03F0000000000000F9010740501907004050150841D405064090740C02480A1B40
1001
ACAD
1000
AcDbSavedByObjectVersion
1070
     0
  0
XRECORD
  5
EBD
102
{ACAD_REACTORS
330
EB3
102
}
330
EB3
100
AcDbXrecord
340
0
  0
XRECORD
  5
EBC
102
{ACAD_REACTORS
330
EB3
102
}
330
EB3
100
AcDbXrecord
 90
        0
  0
XRECORD
  5
ED3
102
{ACAD_REACTORS
330
EB3
102
}
330
EB3
100
AcDbXrecord
1000
DSTYLE
1002
{
1070
   271
 70
     3
1070
   272
 70
     3
1070
   279
 70
     2
1070
   340
340
11
1002
}
  0
XRECORD
  5
EBE
102
{ACAD_REACTORS
330
EB3
102
}
330
EB3
100
AcDbXrecord
  1
{FD6646C9-00C3-4A57-91E9-7BA9C158E99E}
  0
XRECORD
  5
EB6
102
{ACAD_REACTORS
330
EB3
102
}
330
EB3
100
AcDbXrecord
  1

  0
XRECORD
  5
EBB
102
{ACAD_REACTORS
330
EB3
102
}
330
EB3
100
AcDbXrecord
 90
        0
  0
XRECORD
  5
EB8
102
{ACAD_REACTORS
330
EB3
102
}
330
EB3
100
AcDbXrecord
340
1A
  0
XRECORD
  5
EBA
102
{ACAD_REACTORS
330
EB3
102
}
330
EB3
100
AcDbXrecord
 90
    10781
  0
XRECORD
  5
EB9
102
{ACAD_REACTORS
330
EB3
102
}
330
EB3
100
AcDbXrecord
340
19
  0
XRECORD
  5
EC0
102
{ACAD_REACTORS
330
EB3
102
}
330
EB3
100
AcDbXrecord
 40
0.0
  0
XRECORD
  5
EC3
102
{ACAD_REACTORS
330
EB3
102
}
330
EB3
100
AcDbXrecord
340
0
  0
XRECORD
  5
EC9
102
{ACAD_REACTORS
330
EB3
102
}
330
EB3
100
AcDbXrecord
 10
0.0
 20
0.0
 30
0.0
  0
XRECORD
  5
EC5
102
{ACAD_REACTORS
330
EB3
102
}
330
EB3
100
AcDbXrecord
 10
0.0
 20
0.0
 30
0.0
  0
XRECORD
  5
EC8
102
{ACAD_REACTORS
330
EB3
102
}
330
EB3
100
AcDbXrecord
 10
0.0
 20
0.0
 30
0.0
  0
XRECORD
  5
EC6
102
{ACAD_REACTORS
330
EB3
102
}
330
EB3
100
AcDbXrecord
 10
0.0
 20
0.0
 30
0.0
  0
XRECORD
  5
EC7
102
{ACAD_REACTORS
330
EB3
102
}
330
EB3
100
AcDbXrecord
 10
0.0
 20
0.0
 30
0.0
  0
XRECORD
  5
EC4
102
{ACAD_REACTORS
330
EB3
102
}
330
EB3
100
AcDbXrecord
 10
0.0
 20
0.0
 30
0.0
  0
XRECORD
  5
EC1
102
{ACAD_REACTORS
330
EB3
102
}
330
EB3
100
AcDbXrecord
340
0
  0
XRECORD
  5
EC2
102
{ACAD_REACTORS
330
EB3
102
}
330
EB3
100
AcDbXrecord
 70
     0
  0
XRECORD
  5
EB7
102
{ACAD_REACTORS
330
EB3
102
}
330
EB3
100
AcDbXrecord
  1

  0
XRECORD
  5
EB4
102
{ACAD_REACTORS
330
EB3
102
}
330
EB3
100
AcDbXrecord
 90
        1
  0
XRECORD
  5
EB5
102
{ACAD_REACTORS
330
EB3
102
}
330
EB3
100
AcDbXrecord
 90
       70
  0
XRECORD
  5
ECC
102
{ACAD_REACTORS
330
EB3
102
}
330
EB3
100
AcDbXrecord
340
0
  0
XRECORD
  5
ED2
102
{ACAD_REACTORS
330
EB3
102
}
330
EB3
100
AcDbXrecord
 10
0.0
 20
0.0
 30
0.0
  0
XRECORD
  5
ECE
102
{ACAD_REACTORS
330
EB3
102
}
330
EB3
100
AcDbXrecord
 10
0.0
 20
0.0
 30
0.0
  0
XRECORD
  5
ED1
102
{ACAD_REACTORS
330
EB3
102
}
330
EB3
100
AcDbXrecord
 10
0.0
 20
0.0
 30
0.0
  0
XRECORD
  5
ECF
102
{ACAD_REACTORS
330
EB3
102
}
330
EB3
100
AcDbXrecord
 10
0.0
 20
0.0
 30
0.0
  0
XRECORD
  5
ED0
102
{ACAD_REACTORS
330
EB3
102
}
330
EB3
100
AcDbXrecord
 10
0.0
 20
0.0
 30
0.0
  0
XRECORD
  5
ECD
102
{ACAD_REACTORS
330
EB3
102
}
330
EB3
100
AcDbXrecord
 10
0.0
 20
0.0
 30
0.0
  0
XRECORD
  5
ECA
102
{ACAD_REACTORS
330
EB3
102
}
330
EB3
100
AcDbXrecord
340
0
  0
XRECORD
  5
ECB
102
{ACAD_REACTORS
330
EB3
102
}
330
EB3
100
AcDbXrecord
 70
     0
  0
XRECORD
  5
EBF
102
{ACAD_REACTORS
330
EB3
102
}
330
EB3
100
AcDbXrecord
  1
{FAEB1C32-E019-11D5-929B-00C0DF256EC4}
  0
DICTIONARYVAR
  5
EAC
102
{ACAD_REACTORS
330
EAB
102
}
330
EAB
100
DictionaryVariables
280
     0
  1
1:1
  0
DICTIONARYVAR
  5
EAE
102
{ACAD_REACTORS
330
EAB
102
}
330
EAB
100
DictionaryVariables
280
     0
  1
Standard
  0
DICTIONARYVAR
  5
EAD
102
{ACAD_REACTORS
330
EAB
102
}
330
EAB
100
DictionaryVariables
280
     0
  1
Standard
  0
DICTIONARYVAR
  5
ED4
102
{ACAD_REACTORS
330
EAB
102
}
330
EAB
100
DictionaryVariables
280
     0
  1
2
  0
DICTIONARYVAR
  5
ED5
102
{ACAD_REACTORS
330
EAB
102
}
330
EAB
100
DictionaryVariables
280
     0
  1
1
  0
DICTIONARYVAR
  5
EAF
102
{ACAD_REACTORS
330
EAB
102
}
330
EAB
100
DictionaryVariables
280
     0
  1
0
  0
DICTIONARY
  5
EDB
330
EA4
100
AcDbDictionary
280
     1
  3
ACAD_XREC_ROUNDTRIP
360
EDC
  0
DICTIONARY
  5
ED9
330
EA3
100
AcDbDictionary
280
     1
  3
ACAD_XREC_ROUNDTRIP
360
EDA
  0
DICTIONARY
  5
EDD
330
EA5
100
AcDbDictionary
280
     1
  3
ACAD_XREC_ROUNDTRIP
360
EDE
  0
XRECORD
  5
EDC
102
{ACAD_REACTORS
330
EDB
102
}
330
EDB
100
AcDbXrecord
102
MATERIAL
148
0.0
149
0.0
149
0.0
 93
        0
 94
      127
282
     0
 72
     1
 77
     1
171
     1
175
     1
179
     1
273
     0
  0
XRECORD
  5
EDA
102
{ACAD_REACTORS
330
ED9
102
}
330
ED9
100
AcDbXrecord
102
MATERIAL
148
0.0
149
0.0
149
0.0
 93
        0
 94
      127
282
     0
 72
     1
 77
     1
171
     1
175
     1
179
     1
273
     0
  0
XRECORD
  5
EDE
102
{ACAD_REACTORS
330
EDD
102
}
330
EDD
100
AcDbXrecord
102
MATERIAL
148
0.0
149
0.0
149
0.0
 93
        0
 94
      127
282
     0
 72
     1
 77
     1
171
     1
175
     1
179
     1
273
     0
  0
ENDSEC
  0
EOF
