%TF.GenerationSoftware,KiCad,Pcbnew,5.1.9+dfsg1-1~bpo10+1*%
%TF.CreationDate,2021-10-15T10:51:03+08:00*%
%TF.ProjectId,NAS,4e41532e-6b69-4636-9164-5f7063625858,rev?*%
%TF.SameCoordinates,Original*%
%TF.FileFunction,Copper,L2,Bot*%
%TF.FilePolarity,Positive*%
%FSLAX46Y46*%
G04 Gerber Fmt 4.6, Leading zero omitted, Abs format (unit mm)*
G04 Created by KiCad (PCBNEW 5.1.9+dfsg1-1~bpo10+1) date 2021-10-15 10:51:03*
%MOMM*%
%LPD*%
G01*
G04 APERTURE LIST*
%TA.AperFunction,ComponentPad*%
%ADD10O,30.000000X4.000000*%
%TD*%
%TA.AperFunction,ComponentPad*%
%ADD11C,3.000000*%
%TD*%
%TA.AperFunction,ComponentPad*%
%ADD12C,2.600000*%
%TD*%
%TA.AperFunction,ComponentPad*%
%ADD13C,1.000000*%
%TD*%
%TA.AperFunction,ViaPad*%
%ADD14C,0.800000*%
%TD*%
%TA.AperFunction,Conductor*%
%ADD15C,0.400000*%
%TD*%
%TA.AperFunction,Conductor*%
%ADD16C,1.500000*%
%TD*%
%TA.AperFunction,Conductor*%
%ADD17C,0.254000*%
%TD*%
%TA.AperFunction,Conductor*%
%ADD18C,0.100000*%
%TD*%
G04 APERTURE END LIST*
D10*
%TO.P,SATA-OUT2,11*%
%TO.N,GND*%
X119761000Y-73475900D03*
D11*
X132949000Y-78809900D03*
X91079000Y-78809900D03*
%TD*%
D10*
%TO.P,SATA-OUT4,11*%
%TO.N,GND*%
X119761000Y-86753700D03*
D11*
X132949000Y-92087700D03*
X91079000Y-92087700D03*
%TD*%
D12*
%TO.P,SATA-IN3,1*%
%TO.N,GND*%
X69316600Y-87572800D03*
%TO.P,SATA-IN3,7*%
X69316600Y-99472800D03*
D13*
X69316600Y-97332800D03*
%TO.P,SATA-IN3,6*%
%TO.N,/B3+*%
X69316600Y-96062800D03*
%TO.P,SATA-IN3,5*%
%TO.N,/B3-*%
X69316600Y-94792800D03*
%TO.P,SATA-IN3,4*%
%TO.N,GND*%
X69316600Y-93522800D03*
%TO.P,SATA-IN3,3*%
%TO.N,/A3-*%
X69316600Y-92252800D03*
%TO.P,SATA-IN3,2*%
%TO.N,/A3+*%
X69316600Y-90982800D03*
%TO.P,SATA-IN3,1*%
%TO.N,GND*%
X69316600Y-89712800D03*
%TD*%
D12*
%TO.P,SATA-IN2,1*%
%TO.N,GND*%
X77978000Y-69411800D03*
%TO.P,SATA-IN2,7*%
X77978000Y-81311800D03*
D13*
X77978000Y-79171800D03*
%TO.P,SATA-IN2,6*%
%TO.N,/B2+*%
X77978000Y-77901800D03*
%TO.P,SATA-IN2,5*%
%TO.N,/B2-*%
X77978000Y-76631800D03*
%TO.P,SATA-IN2,4*%
%TO.N,GND*%
X77978000Y-75361800D03*
%TO.P,SATA-IN2,3*%
%TO.N,/A2-*%
X77978000Y-74091800D03*
%TO.P,SATA-IN2,2*%
%TO.N,/A2+*%
X77978000Y-72821800D03*
%TO.P,SATA-IN2,1*%
%TO.N,GND*%
X77978000Y-71551800D03*
%TD*%
D10*
%TO.P,SATA-OUT1,11*%
%TO.N,GND*%
X119761000Y-60198000D03*
D11*
X132949000Y-65532000D03*
X91079000Y-65532000D03*
%TD*%
D12*
%TO.P,SATA-IN1,1*%
%TO.N,GND*%
X69316600Y-69411800D03*
%TO.P,SATA-IN1,7*%
X69316600Y-81311800D03*
D13*
X69316600Y-79171800D03*
%TO.P,SATA-IN1,6*%
%TO.N,/B1+*%
X69316600Y-77901800D03*
%TO.P,SATA-IN1,5*%
%TO.N,/B1-*%
X69316600Y-76631800D03*
%TO.P,SATA-IN1,4*%
%TO.N,GND*%
X69316600Y-75361800D03*
%TO.P,SATA-IN1,3*%
%TO.N,/A1-*%
X69316600Y-74091800D03*
%TO.P,SATA-IN1,2*%
%TO.N,/A1+*%
X69316600Y-72821800D03*
%TO.P,SATA-IN1,1*%
%TO.N,GND*%
X69316600Y-71551800D03*
%TD*%
D10*
%TO.P,SATA-OUT3,11*%
%TO.N,GND*%
X119761000Y-100032000D03*
D11*
X132949000Y-105366000D03*
X91079000Y-105366000D03*
%TD*%
%TO.P,POWER1,4*%
%TO.N,+5V*%
X86995000Y-71628000D03*
%TO.P,POWER1,3*%
%TO.N,GND*%
X86995000Y-76708000D03*
%TO.P,POWER1,2*%
X86995000Y-81788000D03*
%TO.P,POWER1,1*%
%TO.N,+12V*%
X86995000Y-86868000D03*
%TD*%
D12*
%TO.P,SATA-IN4,1*%
%TO.N,GND*%
X78003400Y-87572800D03*
%TO.P,SATA-IN4,7*%
X78003400Y-99472800D03*
D13*
X78003400Y-97332800D03*
%TO.P,SATA-IN4,6*%
%TO.N,/B4+*%
X78003400Y-96062800D03*
%TO.P,SATA-IN4,5*%
%TO.N,/B4-*%
X78003400Y-94792800D03*
%TO.P,SATA-IN4,4*%
%TO.N,GND*%
X78003400Y-93522800D03*
%TO.P,SATA-IN4,3*%
%TO.N,/A4-*%
X78003400Y-92252800D03*
%TO.P,SATA-IN4,2*%
%TO.N,/A4+*%
X78003400Y-90982800D03*
%TO.P,SATA-IN4,1*%
%TO.N,GND*%
X78003400Y-89712800D03*
%TD*%
D14*
%TO.N,GND*%
X94386400Y-94615000D03*
%TO.N,+5V*%
X88900000Y-73533000D03*
X91186000Y-73787000D03*
X93726000Y-73787000D03*
X96266000Y-73787000D03*
X98806000Y-73787000D03*
X101346000Y-73787000D03*
X103810990Y-72592010D03*
X104028078Y-74914922D03*
X104986978Y-71077978D03*
X107147110Y-70525890D03*
X109687110Y-70525890D03*
X112227110Y-70525890D03*
X114767110Y-70525890D03*
X117307110Y-70525890D03*
X120345200Y-70525890D03*
X105298078Y-76184922D03*
X105539066Y-78483934D03*
X105539066Y-81023934D03*
X106426000Y-83803690D03*
X109109310Y-83803690D03*
X111649310Y-83803690D03*
X114189310Y-83803690D03*
X116729310Y-83803690D03*
X119269310Y-83803690D03*
X104005878Y-85336878D03*
X103810990Y-87832010D03*
X105009178Y-89173822D03*
X107518200Y-89703710D03*
X107518200Y-91744800D03*
X107518200Y-94284800D03*
X107518200Y-96824800D03*
X109801010Y-97081990D03*
X112341010Y-97081990D03*
X114881010Y-97081990D03*
X117421010Y-97081990D03*
X120091200Y-97081990D03*
X104930028Y-97691028D03*
X103810990Y-99262010D03*
X104085028Y-101527972D03*
X105355028Y-102797972D03*
X107710990Y-102982010D03*
X110250990Y-102982010D03*
X112790990Y-102982010D03*
X115330990Y-102982010D03*
X117870990Y-102982010D03*
X120388505Y-102989505D03*
%TO.N,/A2-*%
X94742000Y-80391000D03*
X94742000Y-77851000D03*
%TO.N,/B3+*%
X78834714Y-109607886D03*
X102463600Y-109804200D03*
%TO.N,/A3-*%
X95903514Y-102019000D03*
X98602800Y-102539800D03*
%TD*%
D15*
%TO.N,GND*%
X68416599Y-75168905D02*
X68609494Y-75361800D01*
X68416599Y-71744695D02*
X68416599Y-75168905D01*
X68609494Y-71551800D02*
X68416599Y-71744695D01*
X69316600Y-71551800D02*
X68609494Y-71551800D01*
X68609494Y-79171800D02*
X69316600Y-79171800D01*
X68416599Y-78978905D02*
X68609494Y-79171800D01*
X68416599Y-75554695D02*
X68416599Y-78978905D01*
X68609494Y-75361800D02*
X68416599Y-75554695D01*
X69316600Y-75361800D02*
X68609494Y-75361800D01*
X69316600Y-81311800D02*
X69316600Y-87572800D01*
X77978000Y-87547400D02*
X78003400Y-87572800D01*
X77978000Y-81311800D02*
X77978000Y-87547400D01*
X86518800Y-81311800D02*
X86995000Y-81788000D01*
X77978000Y-81311800D02*
X86518800Y-81311800D01*
X86995000Y-81788000D02*
X86995000Y-76708000D01*
X85094999Y-83688001D02*
X86995000Y-81788000D01*
X90571303Y-88768001D02*
X86082999Y-88768001D01*
X85094999Y-87780001D02*
X85094999Y-83688001D01*
X86082999Y-88768001D02*
X85094999Y-87780001D01*
X94386400Y-94615000D02*
X94386400Y-92583098D01*
X93167151Y-91363849D02*
X90571303Y-88768001D01*
X94386400Y-92583098D02*
X93167151Y-91363849D01*
X94386400Y-102058600D02*
X91079000Y-105366000D01*
X94386400Y-100152200D02*
X94386400Y-100203000D01*
X94386400Y-100152200D02*
X94386400Y-102058600D01*
X94386400Y-94615000D02*
X94386400Y-100152200D01*
X87199200Y-69411800D02*
X91079000Y-65532000D01*
X77978000Y-69411800D02*
X87199200Y-69411800D01*
X77882800Y-69316600D02*
X77978000Y-69411800D01*
X75082400Y-69316600D02*
X77882800Y-69316600D01*
X75082400Y-69316600D02*
X75082400Y-67868800D01*
X77419200Y-65532000D02*
X91079000Y-65532000D01*
X75082400Y-67868800D02*
X77419200Y-65532000D01*
X69316600Y-75361800D02*
X77978000Y-75361800D01*
X75082400Y-71501000D02*
X75133200Y-71551800D01*
X75082400Y-69316600D02*
X75082400Y-71501000D01*
X69316600Y-71551800D02*
X75133200Y-71551800D01*
X75133200Y-71551800D02*
X77978000Y-71551800D01*
X69316600Y-93522800D02*
X78003400Y-93522800D01*
D16*
%TO.N,+5V*%
X102887556Y-73177400D02*
X105539066Y-70525890D01*
X105539066Y-70525890D02*
X120345200Y-70525890D01*
X102887556Y-73177400D02*
X102887556Y-73774400D01*
X103810990Y-98810066D02*
X103810990Y-101253934D01*
X105539066Y-97081990D02*
X103810990Y-98810066D01*
X103810990Y-101253934D02*
X105539066Y-102982010D01*
X105539066Y-102982010D02*
X120396000Y-102982010D01*
X107343090Y-83791910D02*
X107354870Y-83803690D01*
X103810990Y-87975634D02*
X105539066Y-89703710D01*
X103810990Y-85531766D02*
X103810990Y-87975634D01*
X107343090Y-83791910D02*
X105550846Y-83791910D01*
X105550846Y-83791910D02*
X103810990Y-85531766D01*
X105539066Y-89703710D02*
X107340400Y-89703710D01*
X107515010Y-89878320D02*
X107515010Y-97081990D01*
X107340400Y-89703710D02*
X107515010Y-89878320D01*
X107515010Y-97081990D02*
X105539066Y-97081990D01*
X105539066Y-83780130D02*
X105550846Y-83791910D01*
X105539066Y-76425910D02*
X105539066Y-83780130D01*
X107515010Y-97081990D02*
X120091200Y-97081990D01*
X120393310Y-83791910D02*
X120405090Y-83803690D01*
X107343090Y-83791910D02*
X120393310Y-83791910D01*
X103810990Y-74697834D02*
X104155078Y-75041922D01*
X103810990Y-72253966D02*
X103810990Y-74697834D01*
X104351978Y-71712978D02*
X103810990Y-72253966D01*
X102887556Y-73774400D02*
X104155078Y-75041922D01*
X104155078Y-75041922D02*
X105539066Y-76425910D01*
X86995000Y-71628000D02*
X89154000Y-73787000D01*
X102874956Y-73787000D02*
X102887556Y-73774400D01*
X89154000Y-73787000D02*
X91186000Y-73787000D01*
X91186000Y-73787000D02*
X93726000Y-73787000D01*
X93726000Y-73787000D02*
X96266000Y-73787000D01*
X96266000Y-73787000D02*
X98806000Y-73787000D01*
X98806000Y-73787000D02*
X101346000Y-73787000D01*
X101346000Y-73787000D02*
X102874956Y-73787000D01*
X120091200Y-97081990D02*
X120091200Y-97081990D01*
D15*
%TO.N,/A2-*%
X94742000Y-80391000D02*
X94742000Y-77851000D01*
%TO.N,/B3+*%
X78834714Y-109607886D02*
X102267286Y-109607886D01*
X102267286Y-109607886D02*
X102463600Y-109804200D01*
%TO.N,/A3-*%
X95903514Y-102019000D02*
X98082000Y-102019000D01*
X98082000Y-102019000D02*
X98602800Y-102539800D01*
%TD*%
D17*
%TO.N,GND*%
X147731227Y-55167570D02*
X148167832Y-55299389D01*
X148570515Y-55513500D01*
X148923943Y-55801749D01*
X149214651Y-56153155D01*
X149431570Y-56554337D01*
X149566433Y-56990011D01*
X149617326Y-57474229D01*
X149617327Y-107427499D01*
X149569655Y-107913689D01*
X149437836Y-108350295D01*
X149223724Y-108752980D01*
X148935474Y-109106407D01*
X148584071Y-109397113D01*
X148182890Y-109614031D01*
X147747213Y-109748895D01*
X147262996Y-109799788D01*
X103498600Y-109799788D01*
X103498600Y-109702261D01*
X103458826Y-109502302D01*
X103380805Y-109313944D01*
X103267537Y-109144426D01*
X103123374Y-109000263D01*
X102953856Y-108886995D01*
X102765498Y-108808974D01*
X102565539Y-108769200D01*
X102361661Y-108769200D01*
X102331597Y-108775180D01*
X102308305Y-108772886D01*
X102308304Y-108772886D01*
X102267286Y-108768846D01*
X102226268Y-108772886D01*
X79447999Y-108772886D01*
X79324970Y-108690681D01*
X79136612Y-108612660D01*
X78936653Y-108572886D01*
X78732775Y-108572886D01*
X78532816Y-108612660D01*
X78344458Y-108690681D01*
X78174940Y-108803949D01*
X78030777Y-108948112D01*
X77917509Y-109117630D01*
X77839488Y-109305988D01*
X77799714Y-109505947D01*
X77799714Y-109709825D01*
X77817609Y-109799788D01*
X68309763Y-109799788D01*
X67823594Y-109752118D01*
X67386989Y-109620299D01*
X66984303Y-109406187D01*
X66630879Y-109117940D01*
X66340168Y-108766530D01*
X66123254Y-108365356D01*
X65988390Y-107929680D01*
X65937496Y-107445450D01*
X65937496Y-106738766D01*
X66533347Y-106738766D01*
X66533347Y-107180824D01*
X66619589Y-107614387D01*
X66788757Y-108022795D01*
X67034350Y-108390352D01*
X67346932Y-108702934D01*
X67714489Y-108948527D01*
X68122897Y-109117695D01*
X68556460Y-109203937D01*
X68998518Y-109203937D01*
X69432081Y-109117695D01*
X69840489Y-108948527D01*
X70208046Y-108702934D01*
X70520628Y-108390352D01*
X70766221Y-108022795D01*
X70935389Y-107614387D01*
X71021631Y-107180824D01*
X71021631Y-106857653D01*
X89766952Y-106857653D01*
X89922962Y-107173214D01*
X90297745Y-107364020D01*
X90702551Y-107478044D01*
X91121824Y-107510902D01*
X91539451Y-107461334D01*
X91939383Y-107331243D01*
X92235038Y-107173214D01*
X92391048Y-106857653D01*
X131636952Y-106857653D01*
X131792962Y-107173214D01*
X132167745Y-107364020D01*
X132572551Y-107478044D01*
X132991824Y-107510902D01*
X133409451Y-107461334D01*
X133809383Y-107331243D01*
X134105038Y-107173214D01*
X134261048Y-106857653D01*
X132949000Y-105545605D01*
X131636952Y-106857653D01*
X92391048Y-106857653D01*
X91079000Y-105545605D01*
X89766952Y-106857653D01*
X71021631Y-106857653D01*
X71021631Y-106738766D01*
X70935389Y-106305203D01*
X70766221Y-105896795D01*
X70520628Y-105529238D01*
X70400214Y-105408824D01*
X88934098Y-105408824D01*
X88983666Y-105826451D01*
X89113757Y-106226383D01*
X89271786Y-106522038D01*
X89587347Y-106678048D01*
X90899395Y-105366000D01*
X91258605Y-105366000D01*
X92570653Y-106678048D01*
X92886214Y-106522038D01*
X93077020Y-106147255D01*
X93191044Y-105742449D01*
X93217189Y-105408824D01*
X130804098Y-105408824D01*
X130853666Y-105826451D01*
X130983757Y-106226383D01*
X131141786Y-106522038D01*
X131457347Y-106678048D01*
X132769395Y-105366000D01*
X133128605Y-105366000D01*
X134440653Y-106678048D01*
X134756214Y-106522038D01*
X134947020Y-106147255D01*
X135061044Y-105742449D01*
X135093902Y-105323176D01*
X135044334Y-104905549D01*
X134914243Y-104505617D01*
X134756214Y-104209962D01*
X134440653Y-104053952D01*
X133128605Y-105366000D01*
X132769395Y-105366000D01*
X131457347Y-104053952D01*
X131141786Y-104209962D01*
X130950980Y-104584745D01*
X130836956Y-104989551D01*
X130804098Y-105408824D01*
X93217189Y-105408824D01*
X93223902Y-105323176D01*
X93174334Y-104905549D01*
X93044243Y-104505617D01*
X92886214Y-104209962D01*
X92570653Y-104053952D01*
X91258605Y-105366000D01*
X90899395Y-105366000D01*
X89587347Y-104053952D01*
X89271786Y-104209962D01*
X89080980Y-104584745D01*
X88966956Y-104989551D01*
X88934098Y-105408824D01*
X70400214Y-105408824D01*
X70208046Y-105216656D01*
X69840489Y-104971063D01*
X69432081Y-104801895D01*
X68998518Y-104715653D01*
X68556460Y-104715653D01*
X68122897Y-104801895D01*
X67714489Y-104971063D01*
X67346932Y-105216656D01*
X67034350Y-105529238D01*
X66788757Y-105896795D01*
X66619589Y-106305203D01*
X66533347Y-106738766D01*
X65937496Y-106738766D01*
X65937496Y-103874347D01*
X89766952Y-103874347D01*
X91079000Y-105186395D01*
X92391048Y-103874347D01*
X92235038Y-103558786D01*
X91860255Y-103367980D01*
X91455449Y-103253956D01*
X91036176Y-103221098D01*
X90618549Y-103270666D01*
X90218617Y-103400757D01*
X89922962Y-103558786D01*
X89766952Y-103874347D01*
X65937496Y-103874347D01*
X65937496Y-101917061D01*
X94868514Y-101917061D01*
X94868514Y-102120939D01*
X94908288Y-102320898D01*
X94986309Y-102509256D01*
X95099577Y-102678774D01*
X95243740Y-102822937D01*
X95413258Y-102936205D01*
X95601616Y-103014226D01*
X95801575Y-103054000D01*
X96005453Y-103054000D01*
X96205412Y-103014226D01*
X96393770Y-102936205D01*
X96516799Y-102854000D01*
X97612670Y-102854000D01*
X97685595Y-103030056D01*
X97798863Y-103199574D01*
X97943026Y-103343737D01*
X98112544Y-103457005D01*
X98300902Y-103535026D01*
X98500861Y-103574800D01*
X98704739Y-103574800D01*
X98904698Y-103535026D01*
X99093056Y-103457005D01*
X99262574Y-103343737D01*
X99406737Y-103199574D01*
X99520005Y-103030056D01*
X99598026Y-102841698D01*
X99637800Y-102641739D01*
X99637800Y-102437861D01*
X99598026Y-102237902D01*
X99520005Y-102049544D01*
X99406737Y-101880026D01*
X99262574Y-101735863D01*
X99093056Y-101622595D01*
X98904698Y-101544574D01*
X98759574Y-101515707D01*
X98701446Y-101457579D01*
X98675291Y-101425709D01*
X98548146Y-101321364D01*
X98403087Y-101243828D01*
X98245689Y-101196082D01*
X98123019Y-101184000D01*
X98123018Y-101184000D01*
X98082000Y-101179960D01*
X98040982Y-101184000D01*
X96516799Y-101184000D01*
X96393770Y-101101795D01*
X96205412Y-101023774D01*
X96005453Y-100984000D01*
X95801575Y-100984000D01*
X95601616Y-101023774D01*
X95413258Y-101101795D01*
X95243740Y-101215063D01*
X95099577Y-101359226D01*
X94986309Y-101528744D01*
X94908288Y-101717102D01*
X94868514Y-101917061D01*
X65937496Y-101917061D01*
X65937496Y-100822024D01*
X68146981Y-100822024D01*
X68278917Y-101117112D01*
X68619645Y-101287959D01*
X68987157Y-101389050D01*
X69367329Y-101416501D01*
X69745551Y-101369257D01*
X70107290Y-101249133D01*
X70354283Y-101117112D01*
X70486219Y-100822024D01*
X76833781Y-100822024D01*
X76965717Y-101117112D01*
X77306445Y-101287959D01*
X77673957Y-101389050D01*
X78054129Y-101416501D01*
X78432351Y-101369257D01*
X78794090Y-101249133D01*
X79041083Y-101117112D01*
X79173019Y-100822024D01*
X78003400Y-99652405D01*
X76833781Y-100822024D01*
X70486219Y-100822024D01*
X69316600Y-99652405D01*
X68146981Y-100822024D01*
X65937496Y-100822024D01*
X65937496Y-99523529D01*
X67372899Y-99523529D01*
X67420143Y-99901751D01*
X67540267Y-100263490D01*
X67672288Y-100510483D01*
X67967376Y-100642419D01*
X69136995Y-99472800D01*
X69496205Y-99472800D01*
X70665824Y-100642419D01*
X70960912Y-100510483D01*
X71131759Y-100169755D01*
X71232850Y-99802243D01*
X71252975Y-99523529D01*
X76059699Y-99523529D01*
X76106943Y-99901751D01*
X76227067Y-100263490D01*
X76359088Y-100510483D01*
X76654176Y-100642419D01*
X77823795Y-99472800D01*
X78183005Y-99472800D01*
X79352624Y-100642419D01*
X79647712Y-100510483D01*
X79818559Y-100169755D01*
X79919650Y-99802243D01*
X79947101Y-99422071D01*
X79899857Y-99043849D01*
X79779733Y-98682110D01*
X79647712Y-98435117D01*
X79352624Y-98303181D01*
X78183005Y-99472800D01*
X77823795Y-99472800D01*
X76654176Y-98303181D01*
X76359088Y-98435117D01*
X76188241Y-98775845D01*
X76087150Y-99143357D01*
X76059699Y-99523529D01*
X71252975Y-99523529D01*
X71260301Y-99422071D01*
X71213057Y-99043849D01*
X71092933Y-98682110D01*
X70960912Y-98435117D01*
X70665824Y-98303181D01*
X69496205Y-99472800D01*
X69136995Y-99472800D01*
X67967376Y-98303181D01*
X67672288Y-98435117D01*
X67501441Y-98775845D01*
X67400350Y-99143357D01*
X67372899Y-99523529D01*
X65937496Y-99523529D01*
X65937496Y-88922024D01*
X68146981Y-88922024D01*
X68278917Y-89217112D01*
X68291960Y-89223652D01*
X68234142Y-89353626D01*
X68184869Y-89571705D01*
X68179089Y-89795206D01*
X68217023Y-90015540D01*
X68297213Y-90224240D01*
X68325012Y-90276250D01*
X68413880Y-90290870D01*
X68310776Y-90445176D01*
X68225217Y-90651733D01*
X68181600Y-90871012D01*
X68181600Y-91094588D01*
X68225217Y-91313867D01*
X68310776Y-91520424D01*
X68375841Y-91617800D01*
X68310776Y-91715176D01*
X68225217Y-91921733D01*
X68181600Y-92141012D01*
X68181600Y-92364588D01*
X68225217Y-92583867D01*
X68310776Y-92790424D01*
X68413880Y-92944730D01*
X68325012Y-92959350D01*
X68234142Y-93163626D01*
X68184869Y-93381705D01*
X68179089Y-93605206D01*
X68217023Y-93825540D01*
X68297213Y-94034240D01*
X68325012Y-94086250D01*
X68413880Y-94100870D01*
X68310776Y-94255176D01*
X68225217Y-94461733D01*
X68181600Y-94681012D01*
X68181600Y-94904588D01*
X68225217Y-95123867D01*
X68310776Y-95330424D01*
X68375841Y-95427800D01*
X68310776Y-95525176D01*
X68225217Y-95731733D01*
X68181600Y-95951012D01*
X68181600Y-96174588D01*
X68225217Y-96393867D01*
X68310776Y-96600424D01*
X68413880Y-96754730D01*
X68325012Y-96769350D01*
X68234142Y-96973626D01*
X68184869Y-97191705D01*
X68179089Y-97415206D01*
X68217023Y-97635540D01*
X68289074Y-97823059D01*
X68278917Y-97828488D01*
X68146981Y-98123576D01*
X69316600Y-99293195D01*
X70486219Y-98123576D01*
X70354283Y-97828488D01*
X70341240Y-97821948D01*
X70399058Y-97691974D01*
X70448331Y-97473895D01*
X70454111Y-97250394D01*
X70416177Y-97030060D01*
X70335987Y-96821360D01*
X70308188Y-96769350D01*
X70219320Y-96754730D01*
X70322424Y-96600424D01*
X70407983Y-96393867D01*
X70451600Y-96174588D01*
X70451600Y-95951012D01*
X70407983Y-95731733D01*
X70322424Y-95525176D01*
X70257359Y-95427800D01*
X70322424Y-95330424D01*
X70407983Y-95123867D01*
X70451600Y-94904588D01*
X70451600Y-94681012D01*
X70407983Y-94461733D01*
X70322424Y-94255176D01*
X70219320Y-94100870D01*
X70308188Y-94086250D01*
X70399058Y-93881974D01*
X70448331Y-93663895D01*
X70454111Y-93440394D01*
X70416177Y-93220060D01*
X70335987Y-93011360D01*
X70308188Y-92959350D01*
X70219320Y-92944730D01*
X70322424Y-92790424D01*
X70407983Y-92583867D01*
X70451600Y-92364588D01*
X70451600Y-92141012D01*
X70407983Y-91921733D01*
X70322424Y-91715176D01*
X70257359Y-91617800D01*
X70322424Y-91520424D01*
X70407983Y-91313867D01*
X70451600Y-91094588D01*
X70451600Y-90871012D01*
X70407983Y-90651733D01*
X70322424Y-90445176D01*
X70219320Y-90290870D01*
X70308188Y-90276250D01*
X70399058Y-90071974D01*
X70448331Y-89853895D01*
X70454111Y-89630394D01*
X70416177Y-89410060D01*
X70344126Y-89222541D01*
X70354283Y-89217112D01*
X70486219Y-88922024D01*
X76833781Y-88922024D01*
X76965717Y-89217112D01*
X76978760Y-89223652D01*
X76920942Y-89353626D01*
X76871669Y-89571705D01*
X76865889Y-89795206D01*
X76903823Y-90015540D01*
X76984013Y-90224240D01*
X77011812Y-90276250D01*
X77100680Y-90290870D01*
X76997576Y-90445176D01*
X76912017Y-90651733D01*
X76868400Y-90871012D01*
X76868400Y-91094588D01*
X76912017Y-91313867D01*
X76997576Y-91520424D01*
X77062641Y-91617800D01*
X76997576Y-91715176D01*
X76912017Y-91921733D01*
X76868400Y-92141012D01*
X76868400Y-92364588D01*
X76912017Y-92583867D01*
X76997576Y-92790424D01*
X77100680Y-92944730D01*
X77011812Y-92959350D01*
X76920942Y-93163626D01*
X76871669Y-93381705D01*
X76865889Y-93605206D01*
X76903823Y-93825540D01*
X76984013Y-94034240D01*
X77011812Y-94086250D01*
X77100680Y-94100870D01*
X76997576Y-94255176D01*
X76912017Y-94461733D01*
X76868400Y-94681012D01*
X76868400Y-94904588D01*
X76912017Y-95123867D01*
X76997576Y-95330424D01*
X77062641Y-95427800D01*
X76997576Y-95525176D01*
X76912017Y-95731733D01*
X76868400Y-95951012D01*
X76868400Y-96174588D01*
X76912017Y-96393867D01*
X76997576Y-96600424D01*
X77100680Y-96754730D01*
X77011812Y-96769350D01*
X76920942Y-96973626D01*
X76871669Y-97191705D01*
X76865889Y-97415206D01*
X76903823Y-97635540D01*
X76975874Y-97823059D01*
X76965717Y-97828488D01*
X76833781Y-98123576D01*
X78003400Y-99293195D01*
X79173019Y-98123576D01*
X79041083Y-97828488D01*
X79028040Y-97821948D01*
X79085858Y-97691974D01*
X79135131Y-97473895D01*
X79140911Y-97250394D01*
X79102977Y-97030060D01*
X79022787Y-96821360D01*
X78994988Y-96769350D01*
X78906120Y-96754730D01*
X79009224Y-96600424D01*
X79094783Y-96393867D01*
X79138400Y-96174588D01*
X79138400Y-95951012D01*
X79094783Y-95731733D01*
X79009224Y-95525176D01*
X78944159Y-95427800D01*
X79009224Y-95330424D01*
X79094783Y-95123867D01*
X79138400Y-94904588D01*
X79138400Y-94681012D01*
X79094783Y-94461733D01*
X79009224Y-94255176D01*
X78906120Y-94100870D01*
X78994988Y-94086250D01*
X79085858Y-93881974D01*
X79135131Y-93663895D01*
X79137317Y-93579353D01*
X89766952Y-93579353D01*
X89922962Y-93894914D01*
X90297745Y-94085720D01*
X90702551Y-94199744D01*
X91121824Y-94232602D01*
X91539451Y-94183034D01*
X91939383Y-94052943D01*
X92235038Y-93894914D01*
X92391048Y-93579353D01*
X91079000Y-92267305D01*
X89766952Y-93579353D01*
X79137317Y-93579353D01*
X79140911Y-93440394D01*
X79102977Y-93220060D01*
X79022787Y-93011360D01*
X78994988Y-92959350D01*
X78906120Y-92944730D01*
X79009224Y-92790424D01*
X79094783Y-92583867D01*
X79138400Y-92364588D01*
X79138400Y-92141012D01*
X79136314Y-92130524D01*
X88934098Y-92130524D01*
X88983666Y-92548151D01*
X89113757Y-92948083D01*
X89271786Y-93243738D01*
X89587347Y-93399748D01*
X90899395Y-92087700D01*
X91258605Y-92087700D01*
X92570653Y-93399748D01*
X92886214Y-93243738D01*
X93077020Y-92868955D01*
X93191044Y-92464149D01*
X93223902Y-92044876D01*
X93174334Y-91627249D01*
X93044243Y-91227317D01*
X92886214Y-90931662D01*
X92570653Y-90775652D01*
X91258605Y-92087700D01*
X90899395Y-92087700D01*
X89587347Y-90775652D01*
X89271786Y-90931662D01*
X89080980Y-91306445D01*
X88966956Y-91711251D01*
X88934098Y-92130524D01*
X79136314Y-92130524D01*
X79094783Y-91921733D01*
X79009224Y-91715176D01*
X78944159Y-91617800D01*
X79009224Y-91520424D01*
X79094783Y-91313867D01*
X79138400Y-91094588D01*
X79138400Y-90871012D01*
X79094783Y-90651733D01*
X79071718Y-90596047D01*
X89766952Y-90596047D01*
X91079000Y-91908095D01*
X92391048Y-90596047D01*
X92235038Y-90280486D01*
X91860255Y-90089680D01*
X91455449Y-89975656D01*
X91036176Y-89942798D01*
X90618549Y-89992366D01*
X90218617Y-90122457D01*
X89922962Y-90280486D01*
X89766952Y-90596047D01*
X79071718Y-90596047D01*
X79009224Y-90445176D01*
X78906120Y-90290870D01*
X78994988Y-90276250D01*
X79085858Y-90071974D01*
X79135131Y-89853895D01*
X79140911Y-89630394D01*
X79102977Y-89410060D01*
X79030926Y-89222541D01*
X79041083Y-89217112D01*
X79173019Y-88922024D01*
X78003400Y-87752405D01*
X76833781Y-88922024D01*
X70486219Y-88922024D01*
X69316600Y-87752405D01*
X68146981Y-88922024D01*
X65937496Y-88922024D01*
X65937496Y-87623529D01*
X67372899Y-87623529D01*
X67420143Y-88001751D01*
X67540267Y-88363490D01*
X67672288Y-88610483D01*
X67967376Y-88742419D01*
X69136995Y-87572800D01*
X69496205Y-87572800D01*
X70665824Y-88742419D01*
X70960912Y-88610483D01*
X71131759Y-88269755D01*
X71232850Y-87902243D01*
X71252975Y-87623529D01*
X76059699Y-87623529D01*
X76106943Y-88001751D01*
X76227067Y-88363490D01*
X76359088Y-88610483D01*
X76654176Y-88742419D01*
X77823795Y-87572800D01*
X78183005Y-87572800D01*
X79352624Y-88742419D01*
X79647712Y-88610483D01*
X79818559Y-88269755D01*
X79919650Y-87902243D01*
X79947101Y-87522071D01*
X79899857Y-87143849D01*
X79779733Y-86782110D01*
X79713246Y-86657721D01*
X84860000Y-86657721D01*
X84860000Y-87078279D01*
X84942047Y-87490756D01*
X85102988Y-87879302D01*
X85336637Y-88228983D01*
X85634017Y-88526363D01*
X85983698Y-88760012D01*
X86372244Y-88920953D01*
X86784721Y-89003000D01*
X87205279Y-89003000D01*
X87617756Y-88920953D01*
X88006302Y-88760012D01*
X88355983Y-88526363D01*
X88653363Y-88228983D01*
X88887012Y-87879302D01*
X89047953Y-87490756D01*
X89130000Y-87078279D01*
X89130000Y-86657721D01*
X89047953Y-86245244D01*
X88887012Y-85856698D01*
X88653363Y-85507017D01*
X88355983Y-85209637D01*
X88006302Y-84975988D01*
X87617756Y-84815047D01*
X87205279Y-84733000D01*
X86784721Y-84733000D01*
X86372244Y-84815047D01*
X85983698Y-84975988D01*
X85634017Y-85209637D01*
X85336637Y-85507017D01*
X85102988Y-85856698D01*
X84942047Y-86245244D01*
X84860000Y-86657721D01*
X79713246Y-86657721D01*
X79647712Y-86535117D01*
X79352624Y-86403181D01*
X78183005Y-87572800D01*
X77823795Y-87572800D01*
X76654176Y-86403181D01*
X76359088Y-86535117D01*
X76188241Y-86875845D01*
X76087150Y-87243357D01*
X76059699Y-87623529D01*
X71252975Y-87623529D01*
X71260301Y-87522071D01*
X71213057Y-87143849D01*
X71092933Y-86782110D01*
X70960912Y-86535117D01*
X70665824Y-86403181D01*
X69496205Y-87572800D01*
X69136995Y-87572800D01*
X67967376Y-86403181D01*
X67672288Y-86535117D01*
X67501441Y-86875845D01*
X67400350Y-87243357D01*
X67372899Y-87623529D01*
X65937496Y-87623529D01*
X65937496Y-86223576D01*
X68146981Y-86223576D01*
X69316600Y-87393195D01*
X70486219Y-86223576D01*
X76833781Y-86223576D01*
X78003400Y-87393195D01*
X79173019Y-86223576D01*
X79041083Y-85928488D01*
X78700355Y-85757641D01*
X78332843Y-85656550D01*
X77952671Y-85629099D01*
X77574449Y-85676343D01*
X77212710Y-85796467D01*
X76965717Y-85928488D01*
X76833781Y-86223576D01*
X70486219Y-86223576D01*
X70354283Y-85928488D01*
X70013555Y-85757641D01*
X69646043Y-85656550D01*
X69265871Y-85629099D01*
X68887649Y-85676343D01*
X68525910Y-85796467D01*
X68278917Y-85928488D01*
X68146981Y-86223576D01*
X65937496Y-86223576D01*
X65937496Y-83279653D01*
X85682952Y-83279653D01*
X85838962Y-83595214D01*
X86213745Y-83786020D01*
X86618551Y-83900044D01*
X87037824Y-83932902D01*
X87455451Y-83883334D01*
X87855383Y-83753243D01*
X88151038Y-83595214D01*
X88307048Y-83279653D01*
X86995000Y-81967605D01*
X85682952Y-83279653D01*
X65937496Y-83279653D01*
X65937496Y-82661024D01*
X68146981Y-82661024D01*
X68278917Y-82956112D01*
X68619645Y-83126959D01*
X68987157Y-83228050D01*
X69367329Y-83255501D01*
X69745551Y-83208257D01*
X70107290Y-83088133D01*
X70354283Y-82956112D01*
X70486219Y-82661024D01*
X76808381Y-82661024D01*
X76940317Y-82956112D01*
X77281045Y-83126959D01*
X77648557Y-83228050D01*
X78028729Y-83255501D01*
X78406951Y-83208257D01*
X78768690Y-83088133D01*
X79015683Y-82956112D01*
X79147619Y-82661024D01*
X77978000Y-81491405D01*
X76808381Y-82661024D01*
X70486219Y-82661024D01*
X69316600Y-81491405D01*
X68146981Y-82661024D01*
X65937496Y-82661024D01*
X65937496Y-81362529D01*
X67372899Y-81362529D01*
X67420143Y-81740751D01*
X67540267Y-82102490D01*
X67672288Y-82349483D01*
X67967376Y-82481419D01*
X69136995Y-81311800D01*
X69496205Y-81311800D01*
X70665824Y-82481419D01*
X70960912Y-82349483D01*
X71131759Y-82008755D01*
X71232850Y-81641243D01*
X71252975Y-81362529D01*
X76034299Y-81362529D01*
X76081543Y-81740751D01*
X76201667Y-82102490D01*
X76333688Y-82349483D01*
X76628776Y-82481419D01*
X77798395Y-81311800D01*
X78157605Y-81311800D01*
X79327224Y-82481419D01*
X79622312Y-82349483D01*
X79793159Y-82008755D01*
X79842102Y-81830824D01*
X84850098Y-81830824D01*
X84899666Y-82248451D01*
X85029757Y-82648383D01*
X85187786Y-82944038D01*
X85503347Y-83100048D01*
X86815395Y-81788000D01*
X87174605Y-81788000D01*
X88486653Y-83100048D01*
X88802214Y-82944038D01*
X88993020Y-82569255D01*
X89107044Y-82164449D01*
X89139902Y-81745176D01*
X89090334Y-81327549D01*
X88960243Y-80927617D01*
X88802214Y-80631962D01*
X88486653Y-80475952D01*
X87174605Y-81788000D01*
X86815395Y-81788000D01*
X85503347Y-80475952D01*
X85187786Y-80631962D01*
X84996980Y-81006745D01*
X84882956Y-81411551D01*
X84850098Y-81830824D01*
X79842102Y-81830824D01*
X79894250Y-81641243D01*
X79921701Y-81261071D01*
X79874457Y-80882849D01*
X79754333Y-80521110D01*
X79634195Y-80296347D01*
X85682952Y-80296347D01*
X86995000Y-81608395D01*
X88301842Y-80301553D01*
X89766952Y-80301553D01*
X89922962Y-80617114D01*
X90297745Y-80807920D01*
X90702551Y-80921944D01*
X91121824Y-80954802D01*
X91539451Y-80905234D01*
X91939383Y-80775143D01*
X92235038Y-80617114D01*
X92391048Y-80301553D01*
X91079000Y-78989505D01*
X89766952Y-80301553D01*
X88301842Y-80301553D01*
X88307048Y-80296347D01*
X88151038Y-79980786D01*
X87776255Y-79789980D01*
X87371449Y-79675956D01*
X86952176Y-79643098D01*
X86534549Y-79692666D01*
X86134617Y-79822757D01*
X85838962Y-79980786D01*
X85682952Y-80296347D01*
X79634195Y-80296347D01*
X79622312Y-80274117D01*
X79327224Y-80142181D01*
X78157605Y-81311800D01*
X77798395Y-81311800D01*
X76628776Y-80142181D01*
X76333688Y-80274117D01*
X76162841Y-80614845D01*
X76061750Y-80982357D01*
X76034299Y-81362529D01*
X71252975Y-81362529D01*
X71260301Y-81261071D01*
X71213057Y-80882849D01*
X71092933Y-80521110D01*
X70960912Y-80274117D01*
X70665824Y-80142181D01*
X69496205Y-81311800D01*
X69136995Y-81311800D01*
X67967376Y-80142181D01*
X67672288Y-80274117D01*
X67501441Y-80614845D01*
X67400350Y-80982357D01*
X67372899Y-81362529D01*
X65937496Y-81362529D01*
X65937496Y-70761024D01*
X68146981Y-70761024D01*
X68278917Y-71056112D01*
X68291960Y-71062652D01*
X68234142Y-71192626D01*
X68184869Y-71410705D01*
X68179089Y-71634206D01*
X68217023Y-71854540D01*
X68297213Y-72063240D01*
X68325012Y-72115250D01*
X68413880Y-72129870D01*
X68310776Y-72284176D01*
X68225217Y-72490733D01*
X68181600Y-72710012D01*
X68181600Y-72933588D01*
X68225217Y-73152867D01*
X68310776Y-73359424D01*
X68375841Y-73456800D01*
X68310776Y-73554176D01*
X68225217Y-73760733D01*
X68181600Y-73980012D01*
X68181600Y-74203588D01*
X68225217Y-74422867D01*
X68310776Y-74629424D01*
X68413880Y-74783730D01*
X68325012Y-74798350D01*
X68234142Y-75002626D01*
X68184869Y-75220705D01*
X68179089Y-75444206D01*
X68217023Y-75664540D01*
X68297213Y-75873240D01*
X68325012Y-75925250D01*
X68413880Y-75939870D01*
X68310776Y-76094176D01*
X68225217Y-76300733D01*
X68181600Y-76520012D01*
X68181600Y-76743588D01*
X68225217Y-76962867D01*
X68310776Y-77169424D01*
X68375841Y-77266800D01*
X68310776Y-77364176D01*
X68225217Y-77570733D01*
X68181600Y-77790012D01*
X68181600Y-78013588D01*
X68225217Y-78232867D01*
X68310776Y-78439424D01*
X68413880Y-78593730D01*
X68325012Y-78608350D01*
X68234142Y-78812626D01*
X68184869Y-79030705D01*
X68179089Y-79254206D01*
X68217023Y-79474540D01*
X68289074Y-79662059D01*
X68278917Y-79667488D01*
X68146981Y-79962576D01*
X69316600Y-81132195D01*
X70486219Y-79962576D01*
X70354283Y-79667488D01*
X70341240Y-79660948D01*
X70399058Y-79530974D01*
X70448331Y-79312895D01*
X70454111Y-79089394D01*
X70416177Y-78869060D01*
X70335987Y-78660360D01*
X70308188Y-78608350D01*
X70219320Y-78593730D01*
X70322424Y-78439424D01*
X70407983Y-78232867D01*
X70451600Y-78013588D01*
X70451600Y-77790012D01*
X70407983Y-77570733D01*
X70322424Y-77364176D01*
X70257359Y-77266800D01*
X70322424Y-77169424D01*
X70407983Y-76962867D01*
X70451600Y-76743588D01*
X70451600Y-76520012D01*
X70407983Y-76300733D01*
X70322424Y-76094176D01*
X70219320Y-75939870D01*
X70308188Y-75925250D01*
X70399058Y-75720974D01*
X70448331Y-75502895D01*
X70454111Y-75279394D01*
X70416177Y-75059060D01*
X70335987Y-74850360D01*
X70308188Y-74798350D01*
X70219320Y-74783730D01*
X70322424Y-74629424D01*
X70407983Y-74422867D01*
X70451600Y-74203588D01*
X70451600Y-73980012D01*
X70407983Y-73760733D01*
X70322424Y-73554176D01*
X70257359Y-73456800D01*
X70322424Y-73359424D01*
X70407983Y-73152867D01*
X70451600Y-72933588D01*
X70451600Y-72710012D01*
X70407983Y-72490733D01*
X70322424Y-72284176D01*
X70219320Y-72129870D01*
X70308188Y-72115250D01*
X70399058Y-71910974D01*
X70448331Y-71692895D01*
X70454111Y-71469394D01*
X70416177Y-71249060D01*
X70344126Y-71061541D01*
X70354283Y-71056112D01*
X70486219Y-70761024D01*
X76808381Y-70761024D01*
X76940317Y-71056112D01*
X76953360Y-71062652D01*
X76895542Y-71192626D01*
X76846269Y-71410705D01*
X76840489Y-71634206D01*
X76878423Y-71854540D01*
X76958613Y-72063240D01*
X76986412Y-72115250D01*
X77075280Y-72129870D01*
X76972176Y-72284176D01*
X76886617Y-72490733D01*
X76843000Y-72710012D01*
X76843000Y-72933588D01*
X76886617Y-73152867D01*
X76972176Y-73359424D01*
X77037241Y-73456800D01*
X76972176Y-73554176D01*
X76886617Y-73760733D01*
X76843000Y-73980012D01*
X76843000Y-74203588D01*
X76886617Y-74422867D01*
X76972176Y-74629424D01*
X77075280Y-74783730D01*
X76986412Y-74798350D01*
X76895542Y-75002626D01*
X76846269Y-75220705D01*
X76840489Y-75444206D01*
X76878423Y-75664540D01*
X76958613Y-75873240D01*
X76986412Y-75925250D01*
X77075280Y-75939870D01*
X76972176Y-76094176D01*
X76886617Y-76300733D01*
X76843000Y-76520012D01*
X76843000Y-76743588D01*
X76886617Y-76962867D01*
X76972176Y-77169424D01*
X77037241Y-77266800D01*
X76972176Y-77364176D01*
X76886617Y-77570733D01*
X76843000Y-77790012D01*
X76843000Y-78013588D01*
X76886617Y-78232867D01*
X76972176Y-78439424D01*
X77075280Y-78593730D01*
X76986412Y-78608350D01*
X76895542Y-78812626D01*
X76846269Y-79030705D01*
X76840489Y-79254206D01*
X76878423Y-79474540D01*
X76950474Y-79662059D01*
X76940317Y-79667488D01*
X76808381Y-79962576D01*
X77978000Y-81132195D01*
X79147619Y-79962576D01*
X79015683Y-79667488D01*
X79002640Y-79660948D01*
X79060458Y-79530974D01*
X79109731Y-79312895D01*
X79115511Y-79089394D01*
X79077577Y-78869060D01*
X78997387Y-78660360D01*
X78969588Y-78608350D01*
X78880720Y-78593730D01*
X78983824Y-78439424D01*
X79069383Y-78232867D01*
X79075989Y-78199653D01*
X85682952Y-78199653D01*
X85838962Y-78515214D01*
X86213745Y-78706020D01*
X86618551Y-78820044D01*
X87037824Y-78852902D01*
X87039323Y-78852724D01*
X88934098Y-78852724D01*
X88983666Y-79270351D01*
X89113757Y-79670283D01*
X89271786Y-79965938D01*
X89587347Y-80121948D01*
X90899395Y-78809900D01*
X91258605Y-78809900D01*
X92570653Y-80121948D01*
X92886214Y-79965938D01*
X93077020Y-79591155D01*
X93191044Y-79186349D01*
X93223902Y-78767076D01*
X93174334Y-78349449D01*
X93044243Y-77949517D01*
X92937099Y-77749061D01*
X93707000Y-77749061D01*
X93707000Y-77952939D01*
X93746774Y-78152898D01*
X93824795Y-78341256D01*
X93907001Y-78464286D01*
X93907000Y-79777715D01*
X93824795Y-79900744D01*
X93746774Y-80089102D01*
X93707000Y-80289061D01*
X93707000Y-80492939D01*
X93746774Y-80692898D01*
X93824795Y-80881256D01*
X93938063Y-81050774D01*
X94082226Y-81194937D01*
X94251744Y-81308205D01*
X94440102Y-81386226D01*
X94640061Y-81426000D01*
X94843939Y-81426000D01*
X95043898Y-81386226D01*
X95232256Y-81308205D01*
X95401774Y-81194937D01*
X95545937Y-81050774D01*
X95659205Y-80881256D01*
X95737226Y-80692898D01*
X95777000Y-80492939D01*
X95777000Y-80289061D01*
X95737226Y-80089102D01*
X95659205Y-79900744D01*
X95577000Y-79777715D01*
X95577000Y-78464285D01*
X95659205Y-78341256D01*
X95737226Y-78152898D01*
X95777000Y-77952939D01*
X95777000Y-77749061D01*
X95737226Y-77549102D01*
X95659205Y-77360744D01*
X95545937Y-77191226D01*
X95401774Y-77047063D01*
X95232256Y-76933795D01*
X95043898Y-76855774D01*
X94843939Y-76816000D01*
X94640061Y-76816000D01*
X94440102Y-76855774D01*
X94251744Y-76933795D01*
X94082226Y-77047063D01*
X93938063Y-77191226D01*
X93824795Y-77360744D01*
X93746774Y-77549102D01*
X93707000Y-77749061D01*
X92937099Y-77749061D01*
X92886214Y-77653862D01*
X92570653Y-77497852D01*
X91258605Y-78809900D01*
X90899395Y-78809900D01*
X89587347Y-77497852D01*
X89271786Y-77653862D01*
X89080980Y-78028645D01*
X88966956Y-78433451D01*
X88934098Y-78852724D01*
X87039323Y-78852724D01*
X87455451Y-78803334D01*
X87855383Y-78673243D01*
X88151038Y-78515214D01*
X88307048Y-78199653D01*
X86995000Y-76887605D01*
X85682952Y-78199653D01*
X79075989Y-78199653D01*
X79113000Y-78013588D01*
X79113000Y-77790012D01*
X79069383Y-77570733D01*
X78983824Y-77364176D01*
X78918759Y-77266800D01*
X78983824Y-77169424D01*
X79069383Y-76962867D01*
X79111560Y-76750824D01*
X84850098Y-76750824D01*
X84899666Y-77168451D01*
X85029757Y-77568383D01*
X85187786Y-77864038D01*
X85503347Y-78020048D01*
X86815395Y-76708000D01*
X87174605Y-76708000D01*
X88486653Y-78020048D01*
X88802214Y-77864038D01*
X88993020Y-77489255D01*
X89041188Y-77318247D01*
X89766952Y-77318247D01*
X91079000Y-78630295D01*
X92391048Y-77318247D01*
X92235038Y-77002686D01*
X91860255Y-76811880D01*
X91455449Y-76697856D01*
X91036176Y-76664998D01*
X90618549Y-76714566D01*
X90218617Y-76844657D01*
X89922962Y-77002686D01*
X89766952Y-77318247D01*
X89041188Y-77318247D01*
X89107044Y-77084449D01*
X89139902Y-76665176D01*
X89090334Y-76247549D01*
X88960243Y-75847617D01*
X88802214Y-75551962D01*
X88486653Y-75395952D01*
X87174605Y-76708000D01*
X86815395Y-76708000D01*
X85503347Y-75395952D01*
X85187786Y-75551962D01*
X84996980Y-75926745D01*
X84882956Y-76331551D01*
X84850098Y-76750824D01*
X79111560Y-76750824D01*
X79113000Y-76743588D01*
X79113000Y-76520012D01*
X79069383Y-76300733D01*
X78983824Y-76094176D01*
X78880720Y-75939870D01*
X78969588Y-75925250D01*
X79060458Y-75720974D01*
X79109731Y-75502895D01*
X79115511Y-75279394D01*
X79104657Y-75216347D01*
X85682952Y-75216347D01*
X86995000Y-76528395D01*
X88307048Y-75216347D01*
X88151038Y-74900786D01*
X87776255Y-74709980D01*
X87371449Y-74595956D01*
X86952176Y-74563098D01*
X86534549Y-74612666D01*
X86134617Y-74742757D01*
X85838962Y-74900786D01*
X85682952Y-75216347D01*
X79104657Y-75216347D01*
X79077577Y-75059060D01*
X78997387Y-74850360D01*
X78969588Y-74798350D01*
X78880720Y-74783730D01*
X78983824Y-74629424D01*
X79069383Y-74422867D01*
X79113000Y-74203588D01*
X79113000Y-73980012D01*
X79069383Y-73760733D01*
X78983824Y-73554176D01*
X78918759Y-73456800D01*
X78983824Y-73359424D01*
X79069383Y-73152867D01*
X79113000Y-72933588D01*
X79113000Y-72710012D01*
X79069383Y-72490733D01*
X78983824Y-72284176D01*
X78880720Y-72129870D01*
X78969588Y-72115250D01*
X79060458Y-71910974D01*
X79109731Y-71692895D01*
X79115511Y-71469394D01*
X79106615Y-71417721D01*
X84860000Y-71417721D01*
X84860000Y-71838279D01*
X84942047Y-72250756D01*
X85102988Y-72639302D01*
X85336637Y-72988983D01*
X85634017Y-73286363D01*
X85983698Y-73520012D01*
X86372244Y-73680953D01*
X86784721Y-73763000D01*
X87171314Y-73763000D01*
X88126550Y-74718236D01*
X88169919Y-74771081D01*
X88222764Y-74814450D01*
X88222766Y-74814452D01*
X88246867Y-74834231D01*
X88380812Y-74944157D01*
X88621419Y-75072764D01*
X88882493Y-75151960D01*
X89085963Y-75172000D01*
X89085972Y-75172000D01*
X89153999Y-75178700D01*
X89222026Y-75172000D01*
X102326471Y-75172000D01*
X102783545Y-75629074D01*
X102826910Y-75681915D01*
X102879750Y-75725280D01*
X103223844Y-76069374D01*
X103223849Y-76069378D01*
X104154066Y-76999596D01*
X104154067Y-83230003D01*
X102879755Y-84504316D01*
X102826909Y-84547686D01*
X102783540Y-84600531D01*
X102783538Y-84600533D01*
X102756618Y-84633335D01*
X102653833Y-84758579D01*
X102611013Y-84838690D01*
X102525226Y-84999186D01*
X102469282Y-85183610D01*
X102446030Y-85260260D01*
X102425990Y-85463730D01*
X102425990Y-85463737D01*
X102419290Y-85531766D01*
X102425990Y-85599796D01*
X102425991Y-87907595D01*
X102419290Y-87975634D01*
X102446030Y-88247141D01*
X102525226Y-88508214D01*
X102653834Y-88748822D01*
X102783538Y-88906867D01*
X102783541Y-88906870D01*
X102826910Y-88959715D01*
X102879754Y-89003083D01*
X104511616Y-90634946D01*
X104554985Y-90687791D01*
X104607830Y-90731160D01*
X104607832Y-90731162D01*
X104765878Y-90860867D01*
X105006485Y-90989474D01*
X105267559Y-91068670D01*
X105539066Y-91095411D01*
X105607103Y-91088710D01*
X106130010Y-91088710D01*
X106130011Y-95696990D01*
X105607103Y-95696990D01*
X105539066Y-95690289D01*
X105267559Y-95717030D01*
X105006485Y-95796226D01*
X104765878Y-95924833D01*
X104607832Y-96054538D01*
X104607830Y-96054540D01*
X104554985Y-96097909D01*
X104511616Y-96150754D01*
X102879755Y-97782616D01*
X102826909Y-97825986D01*
X102783540Y-97878831D01*
X102783538Y-97878833D01*
X102691349Y-97991166D01*
X102653833Y-98036879D01*
X102614233Y-98110966D01*
X102525226Y-98277486D01*
X102467741Y-98466990D01*
X102446030Y-98538560D01*
X102425990Y-98742030D01*
X102425990Y-98742037D01*
X102419290Y-98810066D01*
X102425990Y-98878096D01*
X102425991Y-101185895D01*
X102419290Y-101253934D01*
X102446030Y-101525441D01*
X102525226Y-101786514D01*
X102653834Y-102027122D01*
X102783538Y-102185167D01*
X102783541Y-102185170D01*
X102826910Y-102238015D01*
X102879754Y-102281383D01*
X104511616Y-103913246D01*
X104554985Y-103966091D01*
X104607830Y-104009460D01*
X104607832Y-104009462D01*
X104765878Y-104139167D01*
X105006485Y-104267774D01*
X105267559Y-104346970D01*
X105539066Y-104373711D01*
X105607103Y-104367010D01*
X120464037Y-104367010D01*
X120667507Y-104346970D01*
X120928581Y-104267774D01*
X121169188Y-104139167D01*
X121380081Y-103966091D01*
X121455373Y-103874347D01*
X131636952Y-103874347D01*
X132949000Y-105186395D01*
X134261048Y-103874347D01*
X134157262Y-103664418D01*
X137262000Y-103664418D01*
X137264784Y-103692690D01*
X137264741Y-103698911D01*
X137265641Y-103708083D01*
X137286368Y-103905284D01*
X137298387Y-103963834D01*
X137309604Y-104022639D01*
X137312268Y-104031461D01*
X137370903Y-104220882D01*
X137394076Y-104276009D01*
X137416493Y-104331492D01*
X137420819Y-104339629D01*
X137515130Y-104514052D01*
X137548575Y-104563636D01*
X137581335Y-104613699D01*
X137587159Y-104620840D01*
X137713554Y-104773624D01*
X137755969Y-104815744D01*
X137797851Y-104858513D01*
X137804952Y-104864387D01*
X137958614Y-104989711D01*
X138008423Y-105022803D01*
X138057795Y-105056610D01*
X138065902Y-105060993D01*
X138240980Y-105154084D01*
X138296275Y-105176875D01*
X138351270Y-105200446D01*
X138360074Y-105203171D01*
X138549900Y-105260482D01*
X138608566Y-105272098D01*
X138667087Y-105284537D01*
X138676252Y-105285500D01*
X138873593Y-105304850D01*
X138873598Y-105304850D01*
X138905581Y-105308000D01*
X142526419Y-105308000D01*
X142554690Y-105305216D01*
X142560911Y-105305259D01*
X142570083Y-105304359D01*
X142767284Y-105283632D01*
X142825834Y-105271613D01*
X142884639Y-105260396D01*
X142893461Y-105257732D01*
X143082882Y-105199097D01*
X143138009Y-105175924D01*
X143193492Y-105153507D01*
X143201629Y-105149181D01*
X143376052Y-105054870D01*
X143425636Y-105021425D01*
X143475699Y-104988665D01*
X143482840Y-104982841D01*
X143635624Y-104856446D01*
X143677744Y-104814031D01*
X143720513Y-104772149D01*
X143726387Y-104765048D01*
X143851711Y-104611386D01*
X143884803Y-104561577D01*
X143918610Y-104512205D01*
X143922993Y-104504098D01*
X144016084Y-104329020D01*
X144038875Y-104273725D01*
X144062446Y-104218730D01*
X144065171Y-104209926D01*
X144122482Y-104020100D01*
X144134098Y-103961434D01*
X144146537Y-103902913D01*
X144147500Y-103893748D01*
X144166850Y-103696407D01*
X144166850Y-103696402D01*
X144170000Y-103664419D01*
X144170000Y-61943581D01*
X144167216Y-61915309D01*
X144167259Y-61909088D01*
X144166359Y-61899917D01*
X144145632Y-61702715D01*
X144133610Y-61644151D01*
X144122396Y-61585362D01*
X144119732Y-61576540D01*
X144061097Y-61387118D01*
X144037929Y-61332005D01*
X144015507Y-61276507D01*
X144011180Y-61268371D01*
X143916870Y-61093947D01*
X143883403Y-61044331D01*
X143850665Y-60994301D01*
X143844841Y-60987160D01*
X143718447Y-60834376D01*
X143676012Y-60792237D01*
X143634149Y-60749487D01*
X143627048Y-60743613D01*
X143473386Y-60618289D01*
X143423544Y-60585174D01*
X143374204Y-60551390D01*
X143366098Y-60547007D01*
X143191020Y-60453916D01*
X143135725Y-60431125D01*
X143080730Y-60407554D01*
X143071927Y-60404829D01*
X142882100Y-60347518D01*
X142823420Y-60335900D01*
X142764913Y-60323463D01*
X142755748Y-60322500D01*
X142558406Y-60303150D01*
X142558402Y-60303150D01*
X142526419Y-60300000D01*
X138905581Y-60300000D01*
X138877309Y-60302784D01*
X138871088Y-60302741D01*
X138861917Y-60303641D01*
X138664715Y-60324368D01*
X138606151Y-60336390D01*
X138547362Y-60347604D01*
X138538540Y-60350268D01*
X138349118Y-60408903D01*
X138294005Y-60432071D01*
X138238507Y-60454493D01*
X138230371Y-60458820D01*
X138055947Y-60553130D01*
X138006331Y-60586597D01*
X137956301Y-60619335D01*
X137949160Y-60625159D01*
X137796376Y-60751553D01*
X137754237Y-60793988D01*
X137711487Y-60835851D01*
X137705613Y-60842952D01*
X137580289Y-60996614D01*
X137547174Y-61046456D01*
X137513390Y-61095796D01*
X137509007Y-61103902D01*
X137415916Y-61278980D01*
X137393125Y-61334275D01*
X137369554Y-61389270D01*
X137366829Y-61398073D01*
X137309518Y-61587900D01*
X137297900Y-61646580D01*
X137285463Y-61705087D01*
X137284500Y-61714252D01*
X137265150Y-61911594D01*
X137265150Y-61911608D01*
X137262001Y-61943581D01*
X137262000Y-103664418D01*
X134157262Y-103664418D01*
X134105038Y-103558786D01*
X133730255Y-103367980D01*
X133325449Y-103253956D01*
X132906176Y-103221098D01*
X132488549Y-103270666D01*
X132088617Y-103400757D01*
X131792962Y-103558786D01*
X131636952Y-103874347D01*
X121455373Y-103874347D01*
X121553157Y-103755198D01*
X121681764Y-103514591D01*
X121760960Y-103253517D01*
X121787701Y-102982010D01*
X121760960Y-102710503D01*
X121747763Y-102667000D01*
X132888000Y-102667000D01*
X133399623Y-102591593D01*
X133886704Y-102417822D01*
X134330525Y-102152365D01*
X134714030Y-101805424D01*
X135022481Y-101390331D01*
X135244025Y-100923038D01*
X135340667Y-100569162D01*
X135233991Y-100159000D01*
X119888000Y-100159000D01*
X119888000Y-100179000D01*
X119634000Y-100179000D01*
X119634000Y-100159000D01*
X119614000Y-100159000D01*
X119614000Y-99905000D01*
X119634000Y-99905000D01*
X119634000Y-99885000D01*
X119888000Y-99885000D01*
X119888000Y-99905000D01*
X135233991Y-99905000D01*
X135340667Y-99494838D01*
X135244025Y-99140962D01*
X135022481Y-98673669D01*
X134714030Y-98258576D01*
X134330525Y-97911635D01*
X133886704Y-97646178D01*
X133399623Y-97472407D01*
X132888000Y-97397000D01*
X121442963Y-97397000D01*
X121456160Y-97353497D01*
X121482901Y-97081990D01*
X121456160Y-96810483D01*
X121376964Y-96549409D01*
X121248357Y-96308802D01*
X121075281Y-96097909D01*
X120864388Y-95924833D01*
X120623781Y-95796226D01*
X120362707Y-95717030D01*
X120159237Y-95696990D01*
X108900010Y-95696990D01*
X108900010Y-93579353D01*
X131636952Y-93579353D01*
X131792962Y-93894914D01*
X132167745Y-94085720D01*
X132572551Y-94199744D01*
X132991824Y-94232602D01*
X133409451Y-94183034D01*
X133809383Y-94052943D01*
X134105038Y-93894914D01*
X134261048Y-93579353D01*
X132949000Y-92267305D01*
X131636952Y-93579353D01*
X108900010Y-93579353D01*
X108900010Y-92130524D01*
X130804098Y-92130524D01*
X130853666Y-92548151D01*
X130983757Y-92948083D01*
X131141786Y-93243738D01*
X131457347Y-93399748D01*
X132769395Y-92087700D01*
X133128605Y-92087700D01*
X134440653Y-93399748D01*
X134756214Y-93243738D01*
X134947020Y-92868955D01*
X135061044Y-92464149D01*
X135093902Y-92044876D01*
X135044334Y-91627249D01*
X134914243Y-91227317D01*
X134756214Y-90931662D01*
X134440653Y-90775652D01*
X133128605Y-92087700D01*
X132769395Y-92087700D01*
X131457347Y-90775652D01*
X131141786Y-90931662D01*
X130950980Y-91306445D01*
X130836956Y-91711251D01*
X130804098Y-92130524D01*
X108900010Y-92130524D01*
X108900010Y-90596047D01*
X131636952Y-90596047D01*
X132949000Y-91908095D01*
X134261048Y-90596047D01*
X134105038Y-90280486D01*
X133730255Y-90089680D01*
X133325449Y-89975656D01*
X132906176Y-89942798D01*
X132488549Y-89992366D01*
X132088617Y-90122457D01*
X131792962Y-90280486D01*
X131636952Y-90596047D01*
X108900010Y-90596047D01*
X108900010Y-89946349D01*
X108906710Y-89878320D01*
X108900010Y-89810291D01*
X108900010Y-89810283D01*
X108879970Y-89606813D01*
X108813806Y-89388700D01*
X119634000Y-89388700D01*
X119634000Y-86880700D01*
X119888000Y-86880700D01*
X119888000Y-89388700D01*
X132888000Y-89388700D01*
X133399623Y-89313293D01*
X133886704Y-89139522D01*
X134330525Y-88874065D01*
X134714030Y-88527124D01*
X135022481Y-88112031D01*
X135244025Y-87644738D01*
X135340667Y-87290862D01*
X135233991Y-86880700D01*
X119888000Y-86880700D01*
X119634000Y-86880700D01*
X119614000Y-86880700D01*
X119614000Y-86626700D01*
X119634000Y-86626700D01*
X119634000Y-86606700D01*
X119888000Y-86606700D01*
X119888000Y-86626700D01*
X135233991Y-86626700D01*
X135340667Y-86216538D01*
X135244025Y-85862662D01*
X135022481Y-85395369D01*
X134714030Y-84980276D01*
X134330525Y-84633335D01*
X133886704Y-84367878D01*
X133399623Y-84194107D01*
X132888000Y-84118700D01*
X121756852Y-84118700D01*
X121770049Y-84075196D01*
X121796790Y-83803689D01*
X121770049Y-83532183D01*
X121690853Y-83271109D01*
X121562246Y-83030502D01*
X121432542Y-82872457D01*
X121420762Y-82860677D01*
X121377391Y-82807829D01*
X121166498Y-82634753D01*
X120925891Y-82506146D01*
X120664817Y-82426950D01*
X120461347Y-82406910D01*
X120461339Y-82406910D01*
X120393310Y-82400210D01*
X120325281Y-82406910D01*
X107411119Y-82406910D01*
X107343090Y-82400210D01*
X107275061Y-82406910D01*
X106924066Y-82406910D01*
X106924066Y-80301553D01*
X131636952Y-80301553D01*
X131792962Y-80617114D01*
X132167745Y-80807920D01*
X132572551Y-80921944D01*
X132991824Y-80954802D01*
X133409451Y-80905234D01*
X133809383Y-80775143D01*
X134105038Y-80617114D01*
X134261048Y-80301553D01*
X132949000Y-78989505D01*
X131636952Y-80301553D01*
X106924066Y-80301553D01*
X106924066Y-78852724D01*
X130804098Y-78852724D01*
X130853666Y-79270351D01*
X130983757Y-79670283D01*
X131141786Y-79965938D01*
X131457347Y-80121948D01*
X132769395Y-78809900D01*
X133128605Y-78809900D01*
X134440653Y-80121948D01*
X134756214Y-79965938D01*
X134947020Y-79591155D01*
X135061044Y-79186349D01*
X135093902Y-78767076D01*
X135044334Y-78349449D01*
X134914243Y-77949517D01*
X134756214Y-77653862D01*
X134440653Y-77497852D01*
X133128605Y-78809900D01*
X132769395Y-78809900D01*
X131457347Y-77497852D01*
X131141786Y-77653862D01*
X130950980Y-78028645D01*
X130836956Y-78433451D01*
X130804098Y-78852724D01*
X106924066Y-78852724D01*
X106924066Y-77318247D01*
X131636952Y-77318247D01*
X132949000Y-78630295D01*
X134261048Y-77318247D01*
X134105038Y-77002686D01*
X133730255Y-76811880D01*
X133325449Y-76697856D01*
X132906176Y-76664998D01*
X132488549Y-76714566D01*
X132088617Y-76844657D01*
X131792962Y-77002686D01*
X131636952Y-77318247D01*
X106924066Y-77318247D01*
X106924066Y-76493939D01*
X106930766Y-76425910D01*
X106924066Y-76357881D01*
X106924066Y-76357873D01*
X106904026Y-76154403D01*
X106890829Y-76110900D01*
X119634000Y-76110900D01*
X119634000Y-73602900D01*
X119888000Y-73602900D01*
X119888000Y-76110900D01*
X132888000Y-76110900D01*
X133399623Y-76035493D01*
X133886704Y-75861722D01*
X134330525Y-75596265D01*
X134714030Y-75249324D01*
X135022481Y-74834231D01*
X135244025Y-74366938D01*
X135340667Y-74013062D01*
X135233991Y-73602900D01*
X119888000Y-73602900D01*
X119634000Y-73602900D01*
X119614000Y-73602900D01*
X119614000Y-73348900D01*
X119634000Y-73348900D01*
X119634000Y-73328900D01*
X119888000Y-73328900D01*
X119888000Y-73348900D01*
X135233991Y-73348900D01*
X135340667Y-72938738D01*
X135244025Y-72584862D01*
X135022481Y-72117569D01*
X134714030Y-71702476D01*
X134330525Y-71355535D01*
X133886704Y-71090078D01*
X133399623Y-70916307D01*
X132888000Y-70840900D01*
X121696963Y-70840900D01*
X121710160Y-70797397D01*
X121736901Y-70525890D01*
X121710160Y-70254383D01*
X121630964Y-69993309D01*
X121502357Y-69752702D01*
X121329281Y-69541809D01*
X121118388Y-69368733D01*
X120877781Y-69240126D01*
X120616707Y-69160930D01*
X120413237Y-69140890D01*
X105607092Y-69140890D01*
X105539065Y-69134190D01*
X105471038Y-69140890D01*
X105471029Y-69140890D01*
X105267559Y-69160930D01*
X105006485Y-69240126D01*
X104765878Y-69368733D01*
X104765876Y-69368734D01*
X104765877Y-69368734D01*
X104607832Y-69498438D01*
X104607830Y-69498440D01*
X104554985Y-69541809D01*
X104511616Y-69594654D01*
X102879753Y-71226518D01*
X102826909Y-71269886D01*
X102783542Y-71322729D01*
X101956321Y-72149950D01*
X101903475Y-72193320D01*
X101860106Y-72246165D01*
X101860104Y-72246167D01*
X101791332Y-72329966D01*
X101732215Y-72402000D01*
X89727686Y-72402000D01*
X89130000Y-71804314D01*
X89130000Y-71417721D01*
X89047953Y-71005244D01*
X88887012Y-70616698D01*
X88653363Y-70267017D01*
X88355983Y-69969637D01*
X88006302Y-69735988D01*
X87617756Y-69575047D01*
X87205279Y-69493000D01*
X86784721Y-69493000D01*
X86372244Y-69575047D01*
X85983698Y-69735988D01*
X85634017Y-69969637D01*
X85336637Y-70267017D01*
X85102988Y-70616698D01*
X84942047Y-71005244D01*
X84860000Y-71417721D01*
X79106615Y-71417721D01*
X79077577Y-71249060D01*
X79005526Y-71061541D01*
X79015683Y-71056112D01*
X79147619Y-70761024D01*
X77978000Y-69591405D01*
X76808381Y-70761024D01*
X70486219Y-70761024D01*
X69316600Y-69591405D01*
X68146981Y-70761024D01*
X65937496Y-70761024D01*
X65937496Y-69462529D01*
X67372899Y-69462529D01*
X67420143Y-69840751D01*
X67540267Y-70202490D01*
X67672288Y-70449483D01*
X67967376Y-70581419D01*
X69136995Y-69411800D01*
X69496205Y-69411800D01*
X70665824Y-70581419D01*
X70960912Y-70449483D01*
X71131759Y-70108755D01*
X71232850Y-69741243D01*
X71252975Y-69462529D01*
X76034299Y-69462529D01*
X76081543Y-69840751D01*
X76201667Y-70202490D01*
X76333688Y-70449483D01*
X76628776Y-70581419D01*
X77798395Y-69411800D01*
X78157605Y-69411800D01*
X79327224Y-70581419D01*
X79622312Y-70449483D01*
X79793159Y-70108755D01*
X79894250Y-69741243D01*
X79921701Y-69361071D01*
X79874457Y-68982849D01*
X79754333Y-68621110D01*
X79622312Y-68374117D01*
X79327224Y-68242181D01*
X78157605Y-69411800D01*
X77798395Y-69411800D01*
X76628776Y-68242181D01*
X76333688Y-68374117D01*
X76162841Y-68714845D01*
X76061750Y-69082357D01*
X76034299Y-69462529D01*
X71252975Y-69462529D01*
X71260301Y-69361071D01*
X71213057Y-68982849D01*
X71092933Y-68621110D01*
X70960912Y-68374117D01*
X70665824Y-68242181D01*
X69496205Y-69411800D01*
X69136995Y-69411800D01*
X67967376Y-68242181D01*
X67672288Y-68374117D01*
X67501441Y-68714845D01*
X67400350Y-69082357D01*
X67372899Y-69462529D01*
X65937496Y-69462529D01*
X65937496Y-68062576D01*
X68146981Y-68062576D01*
X69316600Y-69232195D01*
X70486219Y-68062576D01*
X76808381Y-68062576D01*
X77978000Y-69232195D01*
X79147619Y-68062576D01*
X79015683Y-67767488D01*
X78674955Y-67596641D01*
X78307443Y-67495550D01*
X77927271Y-67468099D01*
X77549049Y-67515343D01*
X77187310Y-67635467D01*
X76940317Y-67767488D01*
X76808381Y-68062576D01*
X70486219Y-68062576D01*
X70354283Y-67767488D01*
X70013555Y-67596641D01*
X69646043Y-67495550D01*
X69265871Y-67468099D01*
X68887649Y-67515343D01*
X68525910Y-67635467D01*
X68278917Y-67767488D01*
X68146981Y-68062576D01*
X65937496Y-68062576D01*
X65937496Y-67023653D01*
X89766952Y-67023653D01*
X89922962Y-67339214D01*
X90297745Y-67530020D01*
X90702551Y-67644044D01*
X91121824Y-67676902D01*
X91539451Y-67627334D01*
X91939383Y-67497243D01*
X92235038Y-67339214D01*
X92391048Y-67023653D01*
X131636952Y-67023653D01*
X131792962Y-67339214D01*
X132167745Y-67530020D01*
X132572551Y-67644044D01*
X132991824Y-67676902D01*
X133409451Y-67627334D01*
X133809383Y-67497243D01*
X134105038Y-67339214D01*
X134261048Y-67023653D01*
X132949000Y-65711605D01*
X131636952Y-67023653D01*
X92391048Y-67023653D01*
X91079000Y-65711605D01*
X89766952Y-67023653D01*
X65937496Y-67023653D01*
X65937496Y-65574824D01*
X88934098Y-65574824D01*
X88983666Y-65992451D01*
X89113757Y-66392383D01*
X89271786Y-66688038D01*
X89587347Y-66844048D01*
X90899395Y-65532000D01*
X91258605Y-65532000D01*
X92570653Y-66844048D01*
X92886214Y-66688038D01*
X93077020Y-66313255D01*
X93191044Y-65908449D01*
X93217189Y-65574824D01*
X130804098Y-65574824D01*
X130853666Y-65992451D01*
X130983757Y-66392383D01*
X131141786Y-66688038D01*
X131457347Y-66844048D01*
X132769395Y-65532000D01*
X133128605Y-65532000D01*
X134440653Y-66844048D01*
X134756214Y-66688038D01*
X134947020Y-66313255D01*
X135061044Y-65908449D01*
X135093902Y-65489176D01*
X135044334Y-65071549D01*
X134914243Y-64671617D01*
X134756214Y-64375962D01*
X134440653Y-64219952D01*
X133128605Y-65532000D01*
X132769395Y-65532000D01*
X131457347Y-64219952D01*
X131141786Y-64375962D01*
X130950980Y-64750745D01*
X130836956Y-65155551D01*
X130804098Y-65574824D01*
X93217189Y-65574824D01*
X93223902Y-65489176D01*
X93174334Y-65071549D01*
X93044243Y-64671617D01*
X92886214Y-64375962D01*
X92570653Y-64219952D01*
X91258605Y-65532000D01*
X90899395Y-65532000D01*
X89587347Y-64219952D01*
X89271786Y-64375962D01*
X89080980Y-64750745D01*
X88966956Y-65155551D01*
X88934098Y-65574824D01*
X65937496Y-65574824D01*
X65937496Y-64040347D01*
X89766952Y-64040347D01*
X91079000Y-65352395D01*
X92391048Y-64040347D01*
X131636952Y-64040347D01*
X132949000Y-65352395D01*
X134261048Y-64040347D01*
X134105038Y-63724786D01*
X133730255Y-63533980D01*
X133325449Y-63419956D01*
X132906176Y-63387098D01*
X132488549Y-63436666D01*
X132088617Y-63566757D01*
X131792962Y-63724786D01*
X131636952Y-64040347D01*
X92391048Y-64040347D01*
X92235038Y-63724786D01*
X91860255Y-63533980D01*
X91455449Y-63419956D01*
X91036176Y-63387098D01*
X90618549Y-63436666D01*
X90218617Y-63566757D01*
X89922962Y-63724786D01*
X89766952Y-64040347D01*
X65937496Y-64040347D01*
X65937496Y-60735162D01*
X104181333Y-60735162D01*
X104277975Y-61089038D01*
X104499519Y-61556331D01*
X104807970Y-61971424D01*
X105191475Y-62318365D01*
X105635296Y-62583822D01*
X106122377Y-62757593D01*
X106634000Y-62833000D01*
X119634000Y-62833000D01*
X119634000Y-60325000D01*
X119888000Y-60325000D01*
X119888000Y-62833000D01*
X132888000Y-62833000D01*
X133399623Y-62757593D01*
X133886704Y-62583822D01*
X134330525Y-62318365D01*
X134714030Y-61971424D01*
X135022481Y-61556331D01*
X135244025Y-61089038D01*
X135340667Y-60735162D01*
X135233991Y-60325000D01*
X119888000Y-60325000D01*
X119634000Y-60325000D01*
X104288009Y-60325000D01*
X104181333Y-60735162D01*
X65937496Y-60735162D01*
X65937496Y-57738864D01*
X66533347Y-57738864D01*
X66533347Y-58180922D01*
X66619589Y-58614485D01*
X66788757Y-59022893D01*
X67034350Y-59390450D01*
X67346932Y-59703032D01*
X67714489Y-59948625D01*
X68122897Y-60117793D01*
X68556460Y-60204035D01*
X68998518Y-60204035D01*
X69432081Y-60117793D01*
X69840489Y-59948625D01*
X70208046Y-59703032D01*
X70250240Y-59660838D01*
X104181333Y-59660838D01*
X104288009Y-60071000D01*
X119634000Y-60071000D01*
X119634000Y-57563000D01*
X119888000Y-57563000D01*
X119888000Y-60071000D01*
X135233991Y-60071000D01*
X135340667Y-59660838D01*
X135244025Y-59306962D01*
X135022481Y-58839669D01*
X134714030Y-58424576D01*
X134330525Y-58077635D01*
X133886704Y-57812178D01*
X133399623Y-57638407D01*
X132888000Y-57563000D01*
X119888000Y-57563000D01*
X119634000Y-57563000D01*
X106634000Y-57563000D01*
X106122377Y-57638407D01*
X105635296Y-57812178D01*
X105191475Y-58077635D01*
X104807970Y-58424576D01*
X104499519Y-58839669D01*
X104277975Y-59306962D01*
X104181333Y-59660838D01*
X70250240Y-59660838D01*
X70520628Y-59390450D01*
X70766221Y-59022893D01*
X70935389Y-58614485D01*
X71021631Y-58180922D01*
X71021631Y-57738864D01*
X70935389Y-57305301D01*
X70766221Y-56896893D01*
X70520628Y-56529336D01*
X70208046Y-56216754D01*
X69840489Y-55971161D01*
X69432081Y-55801993D01*
X68998518Y-55715751D01*
X68556460Y-55715751D01*
X68122897Y-55801993D01*
X67714489Y-55971161D01*
X67346932Y-56216754D01*
X67034350Y-56529336D01*
X66788757Y-56896893D01*
X66619589Y-57305301D01*
X66533347Y-57738864D01*
X65937496Y-57738864D01*
X65937496Y-57492158D01*
X65985165Y-57005998D01*
X66116984Y-56569394D01*
X66331097Y-56166709D01*
X66619345Y-55813282D01*
X66970749Y-55522575D01*
X67371933Y-55305656D01*
X67807604Y-55170794D01*
X68291833Y-55119900D01*
X147245057Y-55119900D01*
X147731227Y-55167570D01*
%TA.AperFunction,Conductor*%
D18*
G36*
X147731227Y-55167570D02*
G01*
X148167832Y-55299389D01*
X148570515Y-55513500D01*
X148923943Y-55801749D01*
X149214651Y-56153155D01*
X149431570Y-56554337D01*
X149566433Y-56990011D01*
X149617326Y-57474229D01*
X149617327Y-107427499D01*
X149569655Y-107913689D01*
X149437836Y-108350295D01*
X149223724Y-108752980D01*
X148935474Y-109106407D01*
X148584071Y-109397113D01*
X148182890Y-109614031D01*
X147747213Y-109748895D01*
X147262996Y-109799788D01*
X103498600Y-109799788D01*
X103498600Y-109702261D01*
X103458826Y-109502302D01*
X103380805Y-109313944D01*
X103267537Y-109144426D01*
X103123374Y-109000263D01*
X102953856Y-108886995D01*
X102765498Y-108808974D01*
X102565539Y-108769200D01*
X102361661Y-108769200D01*
X102331597Y-108775180D01*
X102308305Y-108772886D01*
X102308304Y-108772886D01*
X102267286Y-108768846D01*
X102226268Y-108772886D01*
X79447999Y-108772886D01*
X79324970Y-108690681D01*
X79136612Y-108612660D01*
X78936653Y-108572886D01*
X78732775Y-108572886D01*
X78532816Y-108612660D01*
X78344458Y-108690681D01*
X78174940Y-108803949D01*
X78030777Y-108948112D01*
X77917509Y-109117630D01*
X77839488Y-109305988D01*
X77799714Y-109505947D01*
X77799714Y-109709825D01*
X77817609Y-109799788D01*
X68309763Y-109799788D01*
X67823594Y-109752118D01*
X67386989Y-109620299D01*
X66984303Y-109406187D01*
X66630879Y-109117940D01*
X66340168Y-108766530D01*
X66123254Y-108365356D01*
X65988390Y-107929680D01*
X65937496Y-107445450D01*
X65937496Y-106738766D01*
X66533347Y-106738766D01*
X66533347Y-107180824D01*
X66619589Y-107614387D01*
X66788757Y-108022795D01*
X67034350Y-108390352D01*
X67346932Y-108702934D01*
X67714489Y-108948527D01*
X68122897Y-109117695D01*
X68556460Y-109203937D01*
X68998518Y-109203937D01*
X69432081Y-109117695D01*
X69840489Y-108948527D01*
X70208046Y-108702934D01*
X70520628Y-108390352D01*
X70766221Y-108022795D01*
X70935389Y-107614387D01*
X71021631Y-107180824D01*
X71021631Y-106857653D01*
X89766952Y-106857653D01*
X89922962Y-107173214D01*
X90297745Y-107364020D01*
X90702551Y-107478044D01*
X91121824Y-107510902D01*
X91539451Y-107461334D01*
X91939383Y-107331243D01*
X92235038Y-107173214D01*
X92391048Y-106857653D01*
X131636952Y-106857653D01*
X131792962Y-107173214D01*
X132167745Y-107364020D01*
X132572551Y-107478044D01*
X132991824Y-107510902D01*
X133409451Y-107461334D01*
X133809383Y-107331243D01*
X134105038Y-107173214D01*
X134261048Y-106857653D01*
X132949000Y-105545605D01*
X131636952Y-106857653D01*
X92391048Y-106857653D01*
X91079000Y-105545605D01*
X89766952Y-106857653D01*
X71021631Y-106857653D01*
X71021631Y-106738766D01*
X70935389Y-106305203D01*
X70766221Y-105896795D01*
X70520628Y-105529238D01*
X70400214Y-105408824D01*
X88934098Y-105408824D01*
X88983666Y-105826451D01*
X89113757Y-106226383D01*
X89271786Y-106522038D01*
X89587347Y-106678048D01*
X90899395Y-105366000D01*
X91258605Y-105366000D01*
X92570653Y-106678048D01*
X92886214Y-106522038D01*
X93077020Y-106147255D01*
X93191044Y-105742449D01*
X93217189Y-105408824D01*
X130804098Y-105408824D01*
X130853666Y-105826451D01*
X130983757Y-106226383D01*
X131141786Y-106522038D01*
X131457347Y-106678048D01*
X132769395Y-105366000D01*
X133128605Y-105366000D01*
X134440653Y-106678048D01*
X134756214Y-106522038D01*
X134947020Y-106147255D01*
X135061044Y-105742449D01*
X135093902Y-105323176D01*
X135044334Y-104905549D01*
X134914243Y-104505617D01*
X134756214Y-104209962D01*
X134440653Y-104053952D01*
X133128605Y-105366000D01*
X132769395Y-105366000D01*
X131457347Y-104053952D01*
X131141786Y-104209962D01*
X130950980Y-104584745D01*
X130836956Y-104989551D01*
X130804098Y-105408824D01*
X93217189Y-105408824D01*
X93223902Y-105323176D01*
X93174334Y-104905549D01*
X93044243Y-104505617D01*
X92886214Y-104209962D01*
X92570653Y-104053952D01*
X91258605Y-105366000D01*
X90899395Y-105366000D01*
X89587347Y-104053952D01*
X89271786Y-104209962D01*
X89080980Y-104584745D01*
X88966956Y-104989551D01*
X88934098Y-105408824D01*
X70400214Y-105408824D01*
X70208046Y-105216656D01*
X69840489Y-104971063D01*
X69432081Y-104801895D01*
X68998518Y-104715653D01*
X68556460Y-104715653D01*
X68122897Y-104801895D01*
X67714489Y-104971063D01*
X67346932Y-105216656D01*
X67034350Y-105529238D01*
X66788757Y-105896795D01*
X66619589Y-106305203D01*
X66533347Y-106738766D01*
X65937496Y-106738766D01*
X65937496Y-103874347D01*
X89766952Y-103874347D01*
X91079000Y-105186395D01*
X92391048Y-103874347D01*
X92235038Y-103558786D01*
X91860255Y-103367980D01*
X91455449Y-103253956D01*
X91036176Y-103221098D01*
X90618549Y-103270666D01*
X90218617Y-103400757D01*
X89922962Y-103558786D01*
X89766952Y-103874347D01*
X65937496Y-103874347D01*
X65937496Y-101917061D01*
X94868514Y-101917061D01*
X94868514Y-102120939D01*
X94908288Y-102320898D01*
X94986309Y-102509256D01*
X95099577Y-102678774D01*
X95243740Y-102822937D01*
X95413258Y-102936205D01*
X95601616Y-103014226D01*
X95801575Y-103054000D01*
X96005453Y-103054000D01*
X96205412Y-103014226D01*
X96393770Y-102936205D01*
X96516799Y-102854000D01*
X97612670Y-102854000D01*
X97685595Y-103030056D01*
X97798863Y-103199574D01*
X97943026Y-103343737D01*
X98112544Y-103457005D01*
X98300902Y-103535026D01*
X98500861Y-103574800D01*
X98704739Y-103574800D01*
X98904698Y-103535026D01*
X99093056Y-103457005D01*
X99262574Y-103343737D01*
X99406737Y-103199574D01*
X99520005Y-103030056D01*
X99598026Y-102841698D01*
X99637800Y-102641739D01*
X99637800Y-102437861D01*
X99598026Y-102237902D01*
X99520005Y-102049544D01*
X99406737Y-101880026D01*
X99262574Y-101735863D01*
X99093056Y-101622595D01*
X98904698Y-101544574D01*
X98759574Y-101515707D01*
X98701446Y-101457579D01*
X98675291Y-101425709D01*
X98548146Y-101321364D01*
X98403087Y-101243828D01*
X98245689Y-101196082D01*
X98123019Y-101184000D01*
X98123018Y-101184000D01*
X98082000Y-101179960D01*
X98040982Y-101184000D01*
X96516799Y-101184000D01*
X96393770Y-101101795D01*
X96205412Y-101023774D01*
X96005453Y-100984000D01*
X95801575Y-100984000D01*
X95601616Y-101023774D01*
X95413258Y-101101795D01*
X95243740Y-101215063D01*
X95099577Y-101359226D01*
X94986309Y-101528744D01*
X94908288Y-101717102D01*
X94868514Y-101917061D01*
X65937496Y-101917061D01*
X65937496Y-100822024D01*
X68146981Y-100822024D01*
X68278917Y-101117112D01*
X68619645Y-101287959D01*
X68987157Y-101389050D01*
X69367329Y-101416501D01*
X69745551Y-101369257D01*
X70107290Y-101249133D01*
X70354283Y-101117112D01*
X70486219Y-100822024D01*
X76833781Y-100822024D01*
X76965717Y-101117112D01*
X77306445Y-101287959D01*
X77673957Y-101389050D01*
X78054129Y-101416501D01*
X78432351Y-101369257D01*
X78794090Y-101249133D01*
X79041083Y-101117112D01*
X79173019Y-100822024D01*
X78003400Y-99652405D01*
X76833781Y-100822024D01*
X70486219Y-100822024D01*
X69316600Y-99652405D01*
X68146981Y-100822024D01*
X65937496Y-100822024D01*
X65937496Y-99523529D01*
X67372899Y-99523529D01*
X67420143Y-99901751D01*
X67540267Y-100263490D01*
X67672288Y-100510483D01*
X67967376Y-100642419D01*
X69136995Y-99472800D01*
X69496205Y-99472800D01*
X70665824Y-100642419D01*
X70960912Y-100510483D01*
X71131759Y-100169755D01*
X71232850Y-99802243D01*
X71252975Y-99523529D01*
X76059699Y-99523529D01*
X76106943Y-99901751D01*
X76227067Y-100263490D01*
X76359088Y-100510483D01*
X76654176Y-100642419D01*
X77823795Y-99472800D01*
X78183005Y-99472800D01*
X79352624Y-100642419D01*
X79647712Y-100510483D01*
X79818559Y-100169755D01*
X79919650Y-99802243D01*
X79947101Y-99422071D01*
X79899857Y-99043849D01*
X79779733Y-98682110D01*
X79647712Y-98435117D01*
X79352624Y-98303181D01*
X78183005Y-99472800D01*
X77823795Y-99472800D01*
X76654176Y-98303181D01*
X76359088Y-98435117D01*
X76188241Y-98775845D01*
X76087150Y-99143357D01*
X76059699Y-99523529D01*
X71252975Y-99523529D01*
X71260301Y-99422071D01*
X71213057Y-99043849D01*
X71092933Y-98682110D01*
X70960912Y-98435117D01*
X70665824Y-98303181D01*
X69496205Y-99472800D01*
X69136995Y-99472800D01*
X67967376Y-98303181D01*
X67672288Y-98435117D01*
X67501441Y-98775845D01*
X67400350Y-99143357D01*
X67372899Y-99523529D01*
X65937496Y-99523529D01*
X65937496Y-88922024D01*
X68146981Y-88922024D01*
X68278917Y-89217112D01*
X68291960Y-89223652D01*
X68234142Y-89353626D01*
X68184869Y-89571705D01*
X68179089Y-89795206D01*
X68217023Y-90015540D01*
X68297213Y-90224240D01*
X68325012Y-90276250D01*
X68413880Y-90290870D01*
X68310776Y-90445176D01*
X68225217Y-90651733D01*
X68181600Y-90871012D01*
X68181600Y-91094588D01*
X68225217Y-91313867D01*
X68310776Y-91520424D01*
X68375841Y-91617800D01*
X68310776Y-91715176D01*
X68225217Y-91921733D01*
X68181600Y-92141012D01*
X68181600Y-92364588D01*
X68225217Y-92583867D01*
X68310776Y-92790424D01*
X68413880Y-92944730D01*
X68325012Y-92959350D01*
X68234142Y-93163626D01*
X68184869Y-93381705D01*
X68179089Y-93605206D01*
X68217023Y-93825540D01*
X68297213Y-94034240D01*
X68325012Y-94086250D01*
X68413880Y-94100870D01*
X68310776Y-94255176D01*
X68225217Y-94461733D01*
X68181600Y-94681012D01*
X68181600Y-94904588D01*
X68225217Y-95123867D01*
X68310776Y-95330424D01*
X68375841Y-95427800D01*
X68310776Y-95525176D01*
X68225217Y-95731733D01*
X68181600Y-95951012D01*
X68181600Y-96174588D01*
X68225217Y-96393867D01*
X68310776Y-96600424D01*
X68413880Y-96754730D01*
X68325012Y-96769350D01*
X68234142Y-96973626D01*
X68184869Y-97191705D01*
X68179089Y-97415206D01*
X68217023Y-97635540D01*
X68289074Y-97823059D01*
X68278917Y-97828488D01*
X68146981Y-98123576D01*
X69316600Y-99293195D01*
X70486219Y-98123576D01*
X70354283Y-97828488D01*
X70341240Y-97821948D01*
X70399058Y-97691974D01*
X70448331Y-97473895D01*
X70454111Y-97250394D01*
X70416177Y-97030060D01*
X70335987Y-96821360D01*
X70308188Y-96769350D01*
X70219320Y-96754730D01*
X70322424Y-96600424D01*
X70407983Y-96393867D01*
X70451600Y-96174588D01*
X70451600Y-95951012D01*
X70407983Y-95731733D01*
X70322424Y-95525176D01*
X70257359Y-95427800D01*
X70322424Y-95330424D01*
X70407983Y-95123867D01*
X70451600Y-94904588D01*
X70451600Y-94681012D01*
X70407983Y-94461733D01*
X70322424Y-94255176D01*
X70219320Y-94100870D01*
X70308188Y-94086250D01*
X70399058Y-93881974D01*
X70448331Y-93663895D01*
X70454111Y-93440394D01*
X70416177Y-93220060D01*
X70335987Y-93011360D01*
X70308188Y-92959350D01*
X70219320Y-92944730D01*
X70322424Y-92790424D01*
X70407983Y-92583867D01*
X70451600Y-92364588D01*
X70451600Y-92141012D01*
X70407983Y-91921733D01*
X70322424Y-91715176D01*
X70257359Y-91617800D01*
X70322424Y-91520424D01*
X70407983Y-91313867D01*
X70451600Y-91094588D01*
X70451600Y-90871012D01*
X70407983Y-90651733D01*
X70322424Y-90445176D01*
X70219320Y-90290870D01*
X70308188Y-90276250D01*
X70399058Y-90071974D01*
X70448331Y-89853895D01*
X70454111Y-89630394D01*
X70416177Y-89410060D01*
X70344126Y-89222541D01*
X70354283Y-89217112D01*
X70486219Y-88922024D01*
X76833781Y-88922024D01*
X76965717Y-89217112D01*
X76978760Y-89223652D01*
X76920942Y-89353626D01*
X76871669Y-89571705D01*
X76865889Y-89795206D01*
X76903823Y-90015540D01*
X76984013Y-90224240D01*
X77011812Y-90276250D01*
X77100680Y-90290870D01*
X76997576Y-90445176D01*
X76912017Y-90651733D01*
X76868400Y-90871012D01*
X76868400Y-91094588D01*
X76912017Y-91313867D01*
X76997576Y-91520424D01*
X77062641Y-91617800D01*
X76997576Y-91715176D01*
X76912017Y-91921733D01*
X76868400Y-92141012D01*
X76868400Y-92364588D01*
X76912017Y-92583867D01*
X76997576Y-92790424D01*
X77100680Y-92944730D01*
X77011812Y-92959350D01*
X76920942Y-93163626D01*
X76871669Y-93381705D01*
X76865889Y-93605206D01*
X76903823Y-93825540D01*
X76984013Y-94034240D01*
X77011812Y-94086250D01*
X77100680Y-94100870D01*
X76997576Y-94255176D01*
X76912017Y-94461733D01*
X76868400Y-94681012D01*
X76868400Y-94904588D01*
X76912017Y-95123867D01*
X76997576Y-95330424D01*
X77062641Y-95427800D01*
X76997576Y-95525176D01*
X76912017Y-95731733D01*
X76868400Y-95951012D01*
X76868400Y-96174588D01*
X76912017Y-96393867D01*
X76997576Y-96600424D01*
X77100680Y-96754730D01*
X77011812Y-96769350D01*
X76920942Y-96973626D01*
X76871669Y-97191705D01*
X76865889Y-97415206D01*
X76903823Y-97635540D01*
X76975874Y-97823059D01*
X76965717Y-97828488D01*
X76833781Y-98123576D01*
X78003400Y-99293195D01*
X79173019Y-98123576D01*
X79041083Y-97828488D01*
X79028040Y-97821948D01*
X79085858Y-97691974D01*
X79135131Y-97473895D01*
X79140911Y-97250394D01*
X79102977Y-97030060D01*
X79022787Y-96821360D01*
X78994988Y-96769350D01*
X78906120Y-96754730D01*
X79009224Y-96600424D01*
X79094783Y-96393867D01*
X79138400Y-96174588D01*
X79138400Y-95951012D01*
X79094783Y-95731733D01*
X79009224Y-95525176D01*
X78944159Y-95427800D01*
X79009224Y-95330424D01*
X79094783Y-95123867D01*
X79138400Y-94904588D01*
X79138400Y-94681012D01*
X79094783Y-94461733D01*
X79009224Y-94255176D01*
X78906120Y-94100870D01*
X78994988Y-94086250D01*
X79085858Y-93881974D01*
X79135131Y-93663895D01*
X79137317Y-93579353D01*
X89766952Y-93579353D01*
X89922962Y-93894914D01*
X90297745Y-94085720D01*
X90702551Y-94199744D01*
X91121824Y-94232602D01*
X91539451Y-94183034D01*
X91939383Y-94052943D01*
X92235038Y-93894914D01*
X92391048Y-93579353D01*
X91079000Y-92267305D01*
X89766952Y-93579353D01*
X79137317Y-93579353D01*
X79140911Y-93440394D01*
X79102977Y-93220060D01*
X79022787Y-93011360D01*
X78994988Y-92959350D01*
X78906120Y-92944730D01*
X79009224Y-92790424D01*
X79094783Y-92583867D01*
X79138400Y-92364588D01*
X79138400Y-92141012D01*
X79136314Y-92130524D01*
X88934098Y-92130524D01*
X88983666Y-92548151D01*
X89113757Y-92948083D01*
X89271786Y-93243738D01*
X89587347Y-93399748D01*
X90899395Y-92087700D01*
X91258605Y-92087700D01*
X92570653Y-93399748D01*
X92886214Y-93243738D01*
X93077020Y-92868955D01*
X93191044Y-92464149D01*
X93223902Y-92044876D01*
X93174334Y-91627249D01*
X93044243Y-91227317D01*
X92886214Y-90931662D01*
X92570653Y-90775652D01*
X91258605Y-92087700D01*
X90899395Y-92087700D01*
X89587347Y-90775652D01*
X89271786Y-90931662D01*
X89080980Y-91306445D01*
X88966956Y-91711251D01*
X88934098Y-92130524D01*
X79136314Y-92130524D01*
X79094783Y-91921733D01*
X79009224Y-91715176D01*
X78944159Y-91617800D01*
X79009224Y-91520424D01*
X79094783Y-91313867D01*
X79138400Y-91094588D01*
X79138400Y-90871012D01*
X79094783Y-90651733D01*
X79071718Y-90596047D01*
X89766952Y-90596047D01*
X91079000Y-91908095D01*
X92391048Y-90596047D01*
X92235038Y-90280486D01*
X91860255Y-90089680D01*
X91455449Y-89975656D01*
X91036176Y-89942798D01*
X90618549Y-89992366D01*
X90218617Y-90122457D01*
X89922962Y-90280486D01*
X89766952Y-90596047D01*
X79071718Y-90596047D01*
X79009224Y-90445176D01*
X78906120Y-90290870D01*
X78994988Y-90276250D01*
X79085858Y-90071974D01*
X79135131Y-89853895D01*
X79140911Y-89630394D01*
X79102977Y-89410060D01*
X79030926Y-89222541D01*
X79041083Y-89217112D01*
X79173019Y-88922024D01*
X78003400Y-87752405D01*
X76833781Y-88922024D01*
X70486219Y-88922024D01*
X69316600Y-87752405D01*
X68146981Y-88922024D01*
X65937496Y-88922024D01*
X65937496Y-87623529D01*
X67372899Y-87623529D01*
X67420143Y-88001751D01*
X67540267Y-88363490D01*
X67672288Y-88610483D01*
X67967376Y-88742419D01*
X69136995Y-87572800D01*
X69496205Y-87572800D01*
X70665824Y-88742419D01*
X70960912Y-88610483D01*
X71131759Y-88269755D01*
X71232850Y-87902243D01*
X71252975Y-87623529D01*
X76059699Y-87623529D01*
X76106943Y-88001751D01*
X76227067Y-88363490D01*
X76359088Y-88610483D01*
X76654176Y-88742419D01*
X77823795Y-87572800D01*
X78183005Y-87572800D01*
X79352624Y-88742419D01*
X79647712Y-88610483D01*
X79818559Y-88269755D01*
X79919650Y-87902243D01*
X79947101Y-87522071D01*
X79899857Y-87143849D01*
X79779733Y-86782110D01*
X79713246Y-86657721D01*
X84860000Y-86657721D01*
X84860000Y-87078279D01*
X84942047Y-87490756D01*
X85102988Y-87879302D01*
X85336637Y-88228983D01*
X85634017Y-88526363D01*
X85983698Y-88760012D01*
X86372244Y-88920953D01*
X86784721Y-89003000D01*
X87205279Y-89003000D01*
X87617756Y-88920953D01*
X88006302Y-88760012D01*
X88355983Y-88526363D01*
X88653363Y-88228983D01*
X88887012Y-87879302D01*
X89047953Y-87490756D01*
X89130000Y-87078279D01*
X89130000Y-86657721D01*
X89047953Y-86245244D01*
X88887012Y-85856698D01*
X88653363Y-85507017D01*
X88355983Y-85209637D01*
X88006302Y-84975988D01*
X87617756Y-84815047D01*
X87205279Y-84733000D01*
X86784721Y-84733000D01*
X86372244Y-84815047D01*
X85983698Y-84975988D01*
X85634017Y-85209637D01*
X85336637Y-85507017D01*
X85102988Y-85856698D01*
X84942047Y-86245244D01*
X84860000Y-86657721D01*
X79713246Y-86657721D01*
X79647712Y-86535117D01*
X79352624Y-86403181D01*
X78183005Y-87572800D01*
X77823795Y-87572800D01*
X76654176Y-86403181D01*
X76359088Y-86535117D01*
X76188241Y-86875845D01*
X76087150Y-87243357D01*
X76059699Y-87623529D01*
X71252975Y-87623529D01*
X71260301Y-87522071D01*
X71213057Y-87143849D01*
X71092933Y-86782110D01*
X70960912Y-86535117D01*
X70665824Y-86403181D01*
X69496205Y-87572800D01*
X69136995Y-87572800D01*
X67967376Y-86403181D01*
X67672288Y-86535117D01*
X67501441Y-86875845D01*
X67400350Y-87243357D01*
X67372899Y-87623529D01*
X65937496Y-87623529D01*
X65937496Y-86223576D01*
X68146981Y-86223576D01*
X69316600Y-87393195D01*
X70486219Y-86223576D01*
X76833781Y-86223576D01*
X78003400Y-87393195D01*
X79173019Y-86223576D01*
X79041083Y-85928488D01*
X78700355Y-85757641D01*
X78332843Y-85656550D01*
X77952671Y-85629099D01*
X77574449Y-85676343D01*
X77212710Y-85796467D01*
X76965717Y-85928488D01*
X76833781Y-86223576D01*
X70486219Y-86223576D01*
X70354283Y-85928488D01*
X70013555Y-85757641D01*
X69646043Y-85656550D01*
X69265871Y-85629099D01*
X68887649Y-85676343D01*
X68525910Y-85796467D01*
X68278917Y-85928488D01*
X68146981Y-86223576D01*
X65937496Y-86223576D01*
X65937496Y-83279653D01*
X85682952Y-83279653D01*
X85838962Y-83595214D01*
X86213745Y-83786020D01*
X86618551Y-83900044D01*
X87037824Y-83932902D01*
X87455451Y-83883334D01*
X87855383Y-83753243D01*
X88151038Y-83595214D01*
X88307048Y-83279653D01*
X86995000Y-81967605D01*
X85682952Y-83279653D01*
X65937496Y-83279653D01*
X65937496Y-82661024D01*
X68146981Y-82661024D01*
X68278917Y-82956112D01*
X68619645Y-83126959D01*
X68987157Y-83228050D01*
X69367329Y-83255501D01*
X69745551Y-83208257D01*
X70107290Y-83088133D01*
X70354283Y-82956112D01*
X70486219Y-82661024D01*
X76808381Y-82661024D01*
X76940317Y-82956112D01*
X77281045Y-83126959D01*
X77648557Y-83228050D01*
X78028729Y-83255501D01*
X78406951Y-83208257D01*
X78768690Y-83088133D01*
X79015683Y-82956112D01*
X79147619Y-82661024D01*
X77978000Y-81491405D01*
X76808381Y-82661024D01*
X70486219Y-82661024D01*
X69316600Y-81491405D01*
X68146981Y-82661024D01*
X65937496Y-82661024D01*
X65937496Y-81362529D01*
X67372899Y-81362529D01*
X67420143Y-81740751D01*
X67540267Y-82102490D01*
X67672288Y-82349483D01*
X67967376Y-82481419D01*
X69136995Y-81311800D01*
X69496205Y-81311800D01*
X70665824Y-82481419D01*
X70960912Y-82349483D01*
X71131759Y-82008755D01*
X71232850Y-81641243D01*
X71252975Y-81362529D01*
X76034299Y-81362529D01*
X76081543Y-81740751D01*
X76201667Y-82102490D01*
X76333688Y-82349483D01*
X76628776Y-82481419D01*
X77798395Y-81311800D01*
X78157605Y-81311800D01*
X79327224Y-82481419D01*
X79622312Y-82349483D01*
X79793159Y-82008755D01*
X79842102Y-81830824D01*
X84850098Y-81830824D01*
X84899666Y-82248451D01*
X85029757Y-82648383D01*
X85187786Y-82944038D01*
X85503347Y-83100048D01*
X86815395Y-81788000D01*
X87174605Y-81788000D01*
X88486653Y-83100048D01*
X88802214Y-82944038D01*
X88993020Y-82569255D01*
X89107044Y-82164449D01*
X89139902Y-81745176D01*
X89090334Y-81327549D01*
X88960243Y-80927617D01*
X88802214Y-80631962D01*
X88486653Y-80475952D01*
X87174605Y-81788000D01*
X86815395Y-81788000D01*
X85503347Y-80475952D01*
X85187786Y-80631962D01*
X84996980Y-81006745D01*
X84882956Y-81411551D01*
X84850098Y-81830824D01*
X79842102Y-81830824D01*
X79894250Y-81641243D01*
X79921701Y-81261071D01*
X79874457Y-80882849D01*
X79754333Y-80521110D01*
X79634195Y-80296347D01*
X85682952Y-80296347D01*
X86995000Y-81608395D01*
X88301842Y-80301553D01*
X89766952Y-80301553D01*
X89922962Y-80617114D01*
X90297745Y-80807920D01*
X90702551Y-80921944D01*
X91121824Y-80954802D01*
X91539451Y-80905234D01*
X91939383Y-80775143D01*
X92235038Y-80617114D01*
X92391048Y-80301553D01*
X91079000Y-78989505D01*
X89766952Y-80301553D01*
X88301842Y-80301553D01*
X88307048Y-80296347D01*
X88151038Y-79980786D01*
X87776255Y-79789980D01*
X87371449Y-79675956D01*
X86952176Y-79643098D01*
X86534549Y-79692666D01*
X86134617Y-79822757D01*
X85838962Y-79980786D01*
X85682952Y-80296347D01*
X79634195Y-80296347D01*
X79622312Y-80274117D01*
X79327224Y-80142181D01*
X78157605Y-81311800D01*
X77798395Y-81311800D01*
X76628776Y-80142181D01*
X76333688Y-80274117D01*
X76162841Y-80614845D01*
X76061750Y-80982357D01*
X76034299Y-81362529D01*
X71252975Y-81362529D01*
X71260301Y-81261071D01*
X71213057Y-80882849D01*
X71092933Y-80521110D01*
X70960912Y-80274117D01*
X70665824Y-80142181D01*
X69496205Y-81311800D01*
X69136995Y-81311800D01*
X67967376Y-80142181D01*
X67672288Y-80274117D01*
X67501441Y-80614845D01*
X67400350Y-80982357D01*
X67372899Y-81362529D01*
X65937496Y-81362529D01*
X65937496Y-70761024D01*
X68146981Y-70761024D01*
X68278917Y-71056112D01*
X68291960Y-71062652D01*
X68234142Y-71192626D01*
X68184869Y-71410705D01*
X68179089Y-71634206D01*
X68217023Y-71854540D01*
X68297213Y-72063240D01*
X68325012Y-72115250D01*
X68413880Y-72129870D01*
X68310776Y-72284176D01*
X68225217Y-72490733D01*
X68181600Y-72710012D01*
X68181600Y-72933588D01*
X68225217Y-73152867D01*
X68310776Y-73359424D01*
X68375841Y-73456800D01*
X68310776Y-73554176D01*
X68225217Y-73760733D01*
X68181600Y-73980012D01*
X68181600Y-74203588D01*
X68225217Y-74422867D01*
X68310776Y-74629424D01*
X68413880Y-74783730D01*
X68325012Y-74798350D01*
X68234142Y-75002626D01*
X68184869Y-75220705D01*
X68179089Y-75444206D01*
X68217023Y-75664540D01*
X68297213Y-75873240D01*
X68325012Y-75925250D01*
X68413880Y-75939870D01*
X68310776Y-76094176D01*
X68225217Y-76300733D01*
X68181600Y-76520012D01*
X68181600Y-76743588D01*
X68225217Y-76962867D01*
X68310776Y-77169424D01*
X68375841Y-77266800D01*
X68310776Y-77364176D01*
X68225217Y-77570733D01*
X68181600Y-77790012D01*
X68181600Y-78013588D01*
X68225217Y-78232867D01*
X68310776Y-78439424D01*
X68413880Y-78593730D01*
X68325012Y-78608350D01*
X68234142Y-78812626D01*
X68184869Y-79030705D01*
X68179089Y-79254206D01*
X68217023Y-79474540D01*
X68289074Y-79662059D01*
X68278917Y-79667488D01*
X68146981Y-79962576D01*
X69316600Y-81132195D01*
X70486219Y-79962576D01*
X70354283Y-79667488D01*
X70341240Y-79660948D01*
X70399058Y-79530974D01*
X70448331Y-79312895D01*
X70454111Y-79089394D01*
X70416177Y-78869060D01*
X70335987Y-78660360D01*
X70308188Y-78608350D01*
X70219320Y-78593730D01*
X70322424Y-78439424D01*
X70407983Y-78232867D01*
X70451600Y-78013588D01*
X70451600Y-77790012D01*
X70407983Y-77570733D01*
X70322424Y-77364176D01*
X70257359Y-77266800D01*
X70322424Y-77169424D01*
X70407983Y-76962867D01*
X70451600Y-76743588D01*
X70451600Y-76520012D01*
X70407983Y-76300733D01*
X70322424Y-76094176D01*
X70219320Y-75939870D01*
X70308188Y-75925250D01*
X70399058Y-75720974D01*
X70448331Y-75502895D01*
X70454111Y-75279394D01*
X70416177Y-75059060D01*
X70335987Y-74850360D01*
X70308188Y-74798350D01*
X70219320Y-74783730D01*
X70322424Y-74629424D01*
X70407983Y-74422867D01*
X70451600Y-74203588D01*
X70451600Y-73980012D01*
X70407983Y-73760733D01*
X70322424Y-73554176D01*
X70257359Y-73456800D01*
X70322424Y-73359424D01*
X70407983Y-73152867D01*
X70451600Y-72933588D01*
X70451600Y-72710012D01*
X70407983Y-72490733D01*
X70322424Y-72284176D01*
X70219320Y-72129870D01*
X70308188Y-72115250D01*
X70399058Y-71910974D01*
X70448331Y-71692895D01*
X70454111Y-71469394D01*
X70416177Y-71249060D01*
X70344126Y-71061541D01*
X70354283Y-71056112D01*
X70486219Y-70761024D01*
X76808381Y-70761024D01*
X76940317Y-71056112D01*
X76953360Y-71062652D01*
X76895542Y-71192626D01*
X76846269Y-71410705D01*
X76840489Y-71634206D01*
X76878423Y-71854540D01*
X76958613Y-72063240D01*
X76986412Y-72115250D01*
X77075280Y-72129870D01*
X76972176Y-72284176D01*
X76886617Y-72490733D01*
X76843000Y-72710012D01*
X76843000Y-72933588D01*
X76886617Y-73152867D01*
X76972176Y-73359424D01*
X77037241Y-73456800D01*
X76972176Y-73554176D01*
X76886617Y-73760733D01*
X76843000Y-73980012D01*
X76843000Y-74203588D01*
X76886617Y-74422867D01*
X76972176Y-74629424D01*
X77075280Y-74783730D01*
X76986412Y-74798350D01*
X76895542Y-75002626D01*
X76846269Y-75220705D01*
X76840489Y-75444206D01*
X76878423Y-75664540D01*
X76958613Y-75873240D01*
X76986412Y-75925250D01*
X77075280Y-75939870D01*
X76972176Y-76094176D01*
X76886617Y-76300733D01*
X76843000Y-76520012D01*
X76843000Y-76743588D01*
X76886617Y-76962867D01*
X76972176Y-77169424D01*
X77037241Y-77266800D01*
X76972176Y-77364176D01*
X76886617Y-77570733D01*
X76843000Y-77790012D01*
X76843000Y-78013588D01*
X76886617Y-78232867D01*
X76972176Y-78439424D01*
X77075280Y-78593730D01*
X76986412Y-78608350D01*
X76895542Y-78812626D01*
X76846269Y-79030705D01*
X76840489Y-79254206D01*
X76878423Y-79474540D01*
X76950474Y-79662059D01*
X76940317Y-79667488D01*
X76808381Y-79962576D01*
X77978000Y-81132195D01*
X79147619Y-79962576D01*
X79015683Y-79667488D01*
X79002640Y-79660948D01*
X79060458Y-79530974D01*
X79109731Y-79312895D01*
X79115511Y-79089394D01*
X79077577Y-78869060D01*
X78997387Y-78660360D01*
X78969588Y-78608350D01*
X78880720Y-78593730D01*
X78983824Y-78439424D01*
X79069383Y-78232867D01*
X79075989Y-78199653D01*
X85682952Y-78199653D01*
X85838962Y-78515214D01*
X86213745Y-78706020D01*
X86618551Y-78820044D01*
X87037824Y-78852902D01*
X87039323Y-78852724D01*
X88934098Y-78852724D01*
X88983666Y-79270351D01*
X89113757Y-79670283D01*
X89271786Y-79965938D01*
X89587347Y-80121948D01*
X90899395Y-78809900D01*
X91258605Y-78809900D01*
X92570653Y-80121948D01*
X92886214Y-79965938D01*
X93077020Y-79591155D01*
X93191044Y-79186349D01*
X93223902Y-78767076D01*
X93174334Y-78349449D01*
X93044243Y-77949517D01*
X92937099Y-77749061D01*
X93707000Y-77749061D01*
X93707000Y-77952939D01*
X93746774Y-78152898D01*
X93824795Y-78341256D01*
X93907001Y-78464286D01*
X93907000Y-79777715D01*
X93824795Y-79900744D01*
X93746774Y-80089102D01*
X93707000Y-80289061D01*
X93707000Y-80492939D01*
X93746774Y-80692898D01*
X93824795Y-80881256D01*
X93938063Y-81050774D01*
X94082226Y-81194937D01*
X94251744Y-81308205D01*
X94440102Y-81386226D01*
X94640061Y-81426000D01*
X94843939Y-81426000D01*
X95043898Y-81386226D01*
X95232256Y-81308205D01*
X95401774Y-81194937D01*
X95545937Y-81050774D01*
X95659205Y-80881256D01*
X95737226Y-80692898D01*
X95777000Y-80492939D01*
X95777000Y-80289061D01*
X95737226Y-80089102D01*
X95659205Y-79900744D01*
X95577000Y-79777715D01*
X95577000Y-78464285D01*
X95659205Y-78341256D01*
X95737226Y-78152898D01*
X95777000Y-77952939D01*
X95777000Y-77749061D01*
X95737226Y-77549102D01*
X95659205Y-77360744D01*
X95545937Y-77191226D01*
X95401774Y-77047063D01*
X95232256Y-76933795D01*
X95043898Y-76855774D01*
X94843939Y-76816000D01*
X94640061Y-76816000D01*
X94440102Y-76855774D01*
X94251744Y-76933795D01*
X94082226Y-77047063D01*
X93938063Y-77191226D01*
X93824795Y-77360744D01*
X93746774Y-77549102D01*
X93707000Y-77749061D01*
X92937099Y-77749061D01*
X92886214Y-77653862D01*
X92570653Y-77497852D01*
X91258605Y-78809900D01*
X90899395Y-78809900D01*
X89587347Y-77497852D01*
X89271786Y-77653862D01*
X89080980Y-78028645D01*
X88966956Y-78433451D01*
X88934098Y-78852724D01*
X87039323Y-78852724D01*
X87455451Y-78803334D01*
X87855383Y-78673243D01*
X88151038Y-78515214D01*
X88307048Y-78199653D01*
X86995000Y-76887605D01*
X85682952Y-78199653D01*
X79075989Y-78199653D01*
X79113000Y-78013588D01*
X79113000Y-77790012D01*
X79069383Y-77570733D01*
X78983824Y-77364176D01*
X78918759Y-77266800D01*
X78983824Y-77169424D01*
X79069383Y-76962867D01*
X79111560Y-76750824D01*
X84850098Y-76750824D01*
X84899666Y-77168451D01*
X85029757Y-77568383D01*
X85187786Y-77864038D01*
X85503347Y-78020048D01*
X86815395Y-76708000D01*
X87174605Y-76708000D01*
X88486653Y-78020048D01*
X88802214Y-77864038D01*
X88993020Y-77489255D01*
X89041188Y-77318247D01*
X89766952Y-77318247D01*
X91079000Y-78630295D01*
X92391048Y-77318247D01*
X92235038Y-77002686D01*
X91860255Y-76811880D01*
X91455449Y-76697856D01*
X91036176Y-76664998D01*
X90618549Y-76714566D01*
X90218617Y-76844657D01*
X89922962Y-77002686D01*
X89766952Y-77318247D01*
X89041188Y-77318247D01*
X89107044Y-77084449D01*
X89139902Y-76665176D01*
X89090334Y-76247549D01*
X88960243Y-75847617D01*
X88802214Y-75551962D01*
X88486653Y-75395952D01*
X87174605Y-76708000D01*
X86815395Y-76708000D01*
X85503347Y-75395952D01*
X85187786Y-75551962D01*
X84996980Y-75926745D01*
X84882956Y-76331551D01*
X84850098Y-76750824D01*
X79111560Y-76750824D01*
X79113000Y-76743588D01*
X79113000Y-76520012D01*
X79069383Y-76300733D01*
X78983824Y-76094176D01*
X78880720Y-75939870D01*
X78969588Y-75925250D01*
X79060458Y-75720974D01*
X79109731Y-75502895D01*
X79115511Y-75279394D01*
X79104657Y-75216347D01*
X85682952Y-75216347D01*
X86995000Y-76528395D01*
X88307048Y-75216347D01*
X88151038Y-74900786D01*
X87776255Y-74709980D01*
X87371449Y-74595956D01*
X86952176Y-74563098D01*
X86534549Y-74612666D01*
X86134617Y-74742757D01*
X85838962Y-74900786D01*
X85682952Y-75216347D01*
X79104657Y-75216347D01*
X79077577Y-75059060D01*
X78997387Y-74850360D01*
X78969588Y-74798350D01*
X78880720Y-74783730D01*
X78983824Y-74629424D01*
X79069383Y-74422867D01*
X79113000Y-74203588D01*
X79113000Y-73980012D01*
X79069383Y-73760733D01*
X78983824Y-73554176D01*
X78918759Y-73456800D01*
X78983824Y-73359424D01*
X79069383Y-73152867D01*
X79113000Y-72933588D01*
X79113000Y-72710012D01*
X79069383Y-72490733D01*
X78983824Y-72284176D01*
X78880720Y-72129870D01*
X78969588Y-72115250D01*
X79060458Y-71910974D01*
X79109731Y-71692895D01*
X79115511Y-71469394D01*
X79106615Y-71417721D01*
X84860000Y-71417721D01*
X84860000Y-71838279D01*
X84942047Y-72250756D01*
X85102988Y-72639302D01*
X85336637Y-72988983D01*
X85634017Y-73286363D01*
X85983698Y-73520012D01*
X86372244Y-73680953D01*
X86784721Y-73763000D01*
X87171314Y-73763000D01*
X88126550Y-74718236D01*
X88169919Y-74771081D01*
X88222764Y-74814450D01*
X88222766Y-74814452D01*
X88246867Y-74834231D01*
X88380812Y-74944157D01*
X88621419Y-75072764D01*
X88882493Y-75151960D01*
X89085963Y-75172000D01*
X89085972Y-75172000D01*
X89153999Y-75178700D01*
X89222026Y-75172000D01*
X102326471Y-75172000D01*
X102783545Y-75629074D01*
X102826910Y-75681915D01*
X102879750Y-75725280D01*
X103223844Y-76069374D01*
X103223849Y-76069378D01*
X104154066Y-76999596D01*
X104154067Y-83230003D01*
X102879755Y-84504316D01*
X102826909Y-84547686D01*
X102783540Y-84600531D01*
X102783538Y-84600533D01*
X102756618Y-84633335D01*
X102653833Y-84758579D01*
X102611013Y-84838690D01*
X102525226Y-84999186D01*
X102469282Y-85183610D01*
X102446030Y-85260260D01*
X102425990Y-85463730D01*
X102425990Y-85463737D01*
X102419290Y-85531766D01*
X102425990Y-85599796D01*
X102425991Y-87907595D01*
X102419290Y-87975634D01*
X102446030Y-88247141D01*
X102525226Y-88508214D01*
X102653834Y-88748822D01*
X102783538Y-88906867D01*
X102783541Y-88906870D01*
X102826910Y-88959715D01*
X102879754Y-89003083D01*
X104511616Y-90634946D01*
X104554985Y-90687791D01*
X104607830Y-90731160D01*
X104607832Y-90731162D01*
X104765878Y-90860867D01*
X105006485Y-90989474D01*
X105267559Y-91068670D01*
X105539066Y-91095411D01*
X105607103Y-91088710D01*
X106130010Y-91088710D01*
X106130011Y-95696990D01*
X105607103Y-95696990D01*
X105539066Y-95690289D01*
X105267559Y-95717030D01*
X105006485Y-95796226D01*
X104765878Y-95924833D01*
X104607832Y-96054538D01*
X104607830Y-96054540D01*
X104554985Y-96097909D01*
X104511616Y-96150754D01*
X102879755Y-97782616D01*
X102826909Y-97825986D01*
X102783540Y-97878831D01*
X102783538Y-97878833D01*
X102691349Y-97991166D01*
X102653833Y-98036879D01*
X102614233Y-98110966D01*
X102525226Y-98277486D01*
X102467741Y-98466990D01*
X102446030Y-98538560D01*
X102425990Y-98742030D01*
X102425990Y-98742037D01*
X102419290Y-98810066D01*
X102425990Y-98878096D01*
X102425991Y-101185895D01*
X102419290Y-101253934D01*
X102446030Y-101525441D01*
X102525226Y-101786514D01*
X102653834Y-102027122D01*
X102783538Y-102185167D01*
X102783541Y-102185170D01*
X102826910Y-102238015D01*
X102879754Y-102281383D01*
X104511616Y-103913246D01*
X104554985Y-103966091D01*
X104607830Y-104009460D01*
X104607832Y-104009462D01*
X104765878Y-104139167D01*
X105006485Y-104267774D01*
X105267559Y-104346970D01*
X105539066Y-104373711D01*
X105607103Y-104367010D01*
X120464037Y-104367010D01*
X120667507Y-104346970D01*
X120928581Y-104267774D01*
X121169188Y-104139167D01*
X121380081Y-103966091D01*
X121455373Y-103874347D01*
X131636952Y-103874347D01*
X132949000Y-105186395D01*
X134261048Y-103874347D01*
X134157262Y-103664418D01*
X137262000Y-103664418D01*
X137264784Y-103692690D01*
X137264741Y-103698911D01*
X137265641Y-103708083D01*
X137286368Y-103905284D01*
X137298387Y-103963834D01*
X137309604Y-104022639D01*
X137312268Y-104031461D01*
X137370903Y-104220882D01*
X137394076Y-104276009D01*
X137416493Y-104331492D01*
X137420819Y-104339629D01*
X137515130Y-104514052D01*
X137548575Y-104563636D01*
X137581335Y-104613699D01*
X137587159Y-104620840D01*
X137713554Y-104773624D01*
X137755969Y-104815744D01*
X137797851Y-104858513D01*
X137804952Y-104864387D01*
X137958614Y-104989711D01*
X138008423Y-105022803D01*
X138057795Y-105056610D01*
X138065902Y-105060993D01*
X138240980Y-105154084D01*
X138296275Y-105176875D01*
X138351270Y-105200446D01*
X138360074Y-105203171D01*
X138549900Y-105260482D01*
X138608566Y-105272098D01*
X138667087Y-105284537D01*
X138676252Y-105285500D01*
X138873593Y-105304850D01*
X138873598Y-105304850D01*
X138905581Y-105308000D01*
X142526419Y-105308000D01*
X142554690Y-105305216D01*
X142560911Y-105305259D01*
X142570083Y-105304359D01*
X142767284Y-105283632D01*
X142825834Y-105271613D01*
X142884639Y-105260396D01*
X142893461Y-105257732D01*
X143082882Y-105199097D01*
X143138009Y-105175924D01*
X143193492Y-105153507D01*
X143201629Y-105149181D01*
X143376052Y-105054870D01*
X143425636Y-105021425D01*
X143475699Y-104988665D01*
X143482840Y-104982841D01*
X143635624Y-104856446D01*
X143677744Y-104814031D01*
X143720513Y-104772149D01*
X143726387Y-104765048D01*
X143851711Y-104611386D01*
X143884803Y-104561577D01*
X143918610Y-104512205D01*
X143922993Y-104504098D01*
X144016084Y-104329020D01*
X144038875Y-104273725D01*
X144062446Y-104218730D01*
X144065171Y-104209926D01*
X144122482Y-104020100D01*
X144134098Y-103961434D01*
X144146537Y-103902913D01*
X144147500Y-103893748D01*
X144166850Y-103696407D01*
X144166850Y-103696402D01*
X144170000Y-103664419D01*
X144170000Y-61943581D01*
X144167216Y-61915309D01*
X144167259Y-61909088D01*
X144166359Y-61899917D01*
X144145632Y-61702715D01*
X144133610Y-61644151D01*
X144122396Y-61585362D01*
X144119732Y-61576540D01*
X144061097Y-61387118D01*
X144037929Y-61332005D01*
X144015507Y-61276507D01*
X144011180Y-61268371D01*
X143916870Y-61093947D01*
X143883403Y-61044331D01*
X143850665Y-60994301D01*
X143844841Y-60987160D01*
X143718447Y-60834376D01*
X143676012Y-60792237D01*
X143634149Y-60749487D01*
X143627048Y-60743613D01*
X143473386Y-60618289D01*
X143423544Y-60585174D01*
X143374204Y-60551390D01*
X143366098Y-60547007D01*
X143191020Y-60453916D01*
X143135725Y-60431125D01*
X143080730Y-60407554D01*
X143071927Y-60404829D01*
X142882100Y-60347518D01*
X142823420Y-60335900D01*
X142764913Y-60323463D01*
X142755748Y-60322500D01*
X142558406Y-60303150D01*
X142558402Y-60303150D01*
X142526419Y-60300000D01*
X138905581Y-60300000D01*
X138877309Y-60302784D01*
X138871088Y-60302741D01*
X138861917Y-60303641D01*
X138664715Y-60324368D01*
X138606151Y-60336390D01*
X138547362Y-60347604D01*
X138538540Y-60350268D01*
X138349118Y-60408903D01*
X138294005Y-60432071D01*
X138238507Y-60454493D01*
X138230371Y-60458820D01*
X138055947Y-60553130D01*
X138006331Y-60586597D01*
X137956301Y-60619335D01*
X137949160Y-60625159D01*
X137796376Y-60751553D01*
X137754237Y-60793988D01*
X137711487Y-60835851D01*
X137705613Y-60842952D01*
X137580289Y-60996614D01*
X137547174Y-61046456D01*
X137513390Y-61095796D01*
X137509007Y-61103902D01*
X137415916Y-61278980D01*
X137393125Y-61334275D01*
X137369554Y-61389270D01*
X137366829Y-61398073D01*
X137309518Y-61587900D01*
X137297900Y-61646580D01*
X137285463Y-61705087D01*
X137284500Y-61714252D01*
X137265150Y-61911594D01*
X137265150Y-61911608D01*
X137262001Y-61943581D01*
X137262000Y-103664418D01*
X134157262Y-103664418D01*
X134105038Y-103558786D01*
X133730255Y-103367980D01*
X133325449Y-103253956D01*
X132906176Y-103221098D01*
X132488549Y-103270666D01*
X132088617Y-103400757D01*
X131792962Y-103558786D01*
X131636952Y-103874347D01*
X121455373Y-103874347D01*
X121553157Y-103755198D01*
X121681764Y-103514591D01*
X121760960Y-103253517D01*
X121787701Y-102982010D01*
X121760960Y-102710503D01*
X121747763Y-102667000D01*
X132888000Y-102667000D01*
X133399623Y-102591593D01*
X133886704Y-102417822D01*
X134330525Y-102152365D01*
X134714030Y-101805424D01*
X135022481Y-101390331D01*
X135244025Y-100923038D01*
X135340667Y-100569162D01*
X135233991Y-100159000D01*
X119888000Y-100159000D01*
X119888000Y-100179000D01*
X119634000Y-100179000D01*
X119634000Y-100159000D01*
X119614000Y-100159000D01*
X119614000Y-99905000D01*
X119634000Y-99905000D01*
X119634000Y-99885000D01*
X119888000Y-99885000D01*
X119888000Y-99905000D01*
X135233991Y-99905000D01*
X135340667Y-99494838D01*
X135244025Y-99140962D01*
X135022481Y-98673669D01*
X134714030Y-98258576D01*
X134330525Y-97911635D01*
X133886704Y-97646178D01*
X133399623Y-97472407D01*
X132888000Y-97397000D01*
X121442963Y-97397000D01*
X121456160Y-97353497D01*
X121482901Y-97081990D01*
X121456160Y-96810483D01*
X121376964Y-96549409D01*
X121248357Y-96308802D01*
X121075281Y-96097909D01*
X120864388Y-95924833D01*
X120623781Y-95796226D01*
X120362707Y-95717030D01*
X120159237Y-95696990D01*
X108900010Y-95696990D01*
X108900010Y-93579353D01*
X131636952Y-93579353D01*
X131792962Y-93894914D01*
X132167745Y-94085720D01*
X132572551Y-94199744D01*
X132991824Y-94232602D01*
X133409451Y-94183034D01*
X133809383Y-94052943D01*
X134105038Y-93894914D01*
X134261048Y-93579353D01*
X132949000Y-92267305D01*
X131636952Y-93579353D01*
X108900010Y-93579353D01*
X108900010Y-92130524D01*
X130804098Y-92130524D01*
X130853666Y-92548151D01*
X130983757Y-92948083D01*
X131141786Y-93243738D01*
X131457347Y-93399748D01*
X132769395Y-92087700D01*
X133128605Y-92087700D01*
X134440653Y-93399748D01*
X134756214Y-93243738D01*
X134947020Y-92868955D01*
X135061044Y-92464149D01*
X135093902Y-92044876D01*
X135044334Y-91627249D01*
X134914243Y-91227317D01*
X134756214Y-90931662D01*
X134440653Y-90775652D01*
X133128605Y-92087700D01*
X132769395Y-92087700D01*
X131457347Y-90775652D01*
X131141786Y-90931662D01*
X130950980Y-91306445D01*
X130836956Y-91711251D01*
X130804098Y-92130524D01*
X108900010Y-92130524D01*
X108900010Y-90596047D01*
X131636952Y-90596047D01*
X132949000Y-91908095D01*
X134261048Y-90596047D01*
X134105038Y-90280486D01*
X133730255Y-90089680D01*
X133325449Y-89975656D01*
X132906176Y-89942798D01*
X132488549Y-89992366D01*
X132088617Y-90122457D01*
X131792962Y-90280486D01*
X131636952Y-90596047D01*
X108900010Y-90596047D01*
X108900010Y-89946349D01*
X108906710Y-89878320D01*
X108900010Y-89810291D01*
X108900010Y-89810283D01*
X108879970Y-89606813D01*
X108813806Y-89388700D01*
X119634000Y-89388700D01*
X119634000Y-86880700D01*
X119888000Y-86880700D01*
X119888000Y-89388700D01*
X132888000Y-89388700D01*
X133399623Y-89313293D01*
X133886704Y-89139522D01*
X134330525Y-88874065D01*
X134714030Y-88527124D01*
X135022481Y-88112031D01*
X135244025Y-87644738D01*
X135340667Y-87290862D01*
X135233991Y-86880700D01*
X119888000Y-86880700D01*
X119634000Y-86880700D01*
X119614000Y-86880700D01*
X119614000Y-86626700D01*
X119634000Y-86626700D01*
X119634000Y-86606700D01*
X119888000Y-86606700D01*
X119888000Y-86626700D01*
X135233991Y-86626700D01*
X135340667Y-86216538D01*
X135244025Y-85862662D01*
X135022481Y-85395369D01*
X134714030Y-84980276D01*
X134330525Y-84633335D01*
X133886704Y-84367878D01*
X133399623Y-84194107D01*
X132888000Y-84118700D01*
X121756852Y-84118700D01*
X121770049Y-84075196D01*
X121796790Y-83803689D01*
X121770049Y-83532183D01*
X121690853Y-83271109D01*
X121562246Y-83030502D01*
X121432542Y-82872457D01*
X121420762Y-82860677D01*
X121377391Y-82807829D01*
X121166498Y-82634753D01*
X120925891Y-82506146D01*
X120664817Y-82426950D01*
X120461347Y-82406910D01*
X120461339Y-82406910D01*
X120393310Y-82400210D01*
X120325281Y-82406910D01*
X107411119Y-82406910D01*
X107343090Y-82400210D01*
X107275061Y-82406910D01*
X106924066Y-82406910D01*
X106924066Y-80301553D01*
X131636952Y-80301553D01*
X131792962Y-80617114D01*
X132167745Y-80807920D01*
X132572551Y-80921944D01*
X132991824Y-80954802D01*
X133409451Y-80905234D01*
X133809383Y-80775143D01*
X134105038Y-80617114D01*
X134261048Y-80301553D01*
X132949000Y-78989505D01*
X131636952Y-80301553D01*
X106924066Y-80301553D01*
X106924066Y-78852724D01*
X130804098Y-78852724D01*
X130853666Y-79270351D01*
X130983757Y-79670283D01*
X131141786Y-79965938D01*
X131457347Y-80121948D01*
X132769395Y-78809900D01*
X133128605Y-78809900D01*
X134440653Y-80121948D01*
X134756214Y-79965938D01*
X134947020Y-79591155D01*
X135061044Y-79186349D01*
X135093902Y-78767076D01*
X135044334Y-78349449D01*
X134914243Y-77949517D01*
X134756214Y-77653862D01*
X134440653Y-77497852D01*
X133128605Y-78809900D01*
X132769395Y-78809900D01*
X131457347Y-77497852D01*
X131141786Y-77653862D01*
X130950980Y-78028645D01*
X130836956Y-78433451D01*
X130804098Y-78852724D01*
X106924066Y-78852724D01*
X106924066Y-77318247D01*
X131636952Y-77318247D01*
X132949000Y-78630295D01*
X134261048Y-77318247D01*
X134105038Y-77002686D01*
X133730255Y-76811880D01*
X133325449Y-76697856D01*
X132906176Y-76664998D01*
X132488549Y-76714566D01*
X132088617Y-76844657D01*
X131792962Y-77002686D01*
X131636952Y-77318247D01*
X106924066Y-77318247D01*
X106924066Y-76493939D01*
X106930766Y-76425910D01*
X106924066Y-76357881D01*
X106924066Y-76357873D01*
X106904026Y-76154403D01*
X106890829Y-76110900D01*
X119634000Y-76110900D01*
X119634000Y-73602900D01*
X119888000Y-73602900D01*
X119888000Y-76110900D01*
X132888000Y-76110900D01*
X133399623Y-76035493D01*
X133886704Y-75861722D01*
X134330525Y-75596265D01*
X134714030Y-75249324D01*
X135022481Y-74834231D01*
X135244025Y-74366938D01*
X135340667Y-74013062D01*
X135233991Y-73602900D01*
X119888000Y-73602900D01*
X119634000Y-73602900D01*
X119614000Y-73602900D01*
X119614000Y-73348900D01*
X119634000Y-73348900D01*
X119634000Y-73328900D01*
X119888000Y-73328900D01*
X119888000Y-73348900D01*
X135233991Y-73348900D01*
X135340667Y-72938738D01*
X135244025Y-72584862D01*
X135022481Y-72117569D01*
X134714030Y-71702476D01*
X134330525Y-71355535D01*
X133886704Y-71090078D01*
X133399623Y-70916307D01*
X132888000Y-70840900D01*
X121696963Y-70840900D01*
X121710160Y-70797397D01*
X121736901Y-70525890D01*
X121710160Y-70254383D01*
X121630964Y-69993309D01*
X121502357Y-69752702D01*
X121329281Y-69541809D01*
X121118388Y-69368733D01*
X120877781Y-69240126D01*
X120616707Y-69160930D01*
X120413237Y-69140890D01*
X105607092Y-69140890D01*
X105539065Y-69134190D01*
X105471038Y-69140890D01*
X105471029Y-69140890D01*
X105267559Y-69160930D01*
X105006485Y-69240126D01*
X104765878Y-69368733D01*
X104765876Y-69368734D01*
X104765877Y-69368734D01*
X104607832Y-69498438D01*
X104607830Y-69498440D01*
X104554985Y-69541809D01*
X104511616Y-69594654D01*
X102879753Y-71226518D01*
X102826909Y-71269886D01*
X102783542Y-71322729D01*
X101956321Y-72149950D01*
X101903475Y-72193320D01*
X101860106Y-72246165D01*
X101860104Y-72246167D01*
X101791332Y-72329966D01*
X101732215Y-72402000D01*
X89727686Y-72402000D01*
X89130000Y-71804314D01*
X89130000Y-71417721D01*
X89047953Y-71005244D01*
X88887012Y-70616698D01*
X88653363Y-70267017D01*
X88355983Y-69969637D01*
X88006302Y-69735988D01*
X87617756Y-69575047D01*
X87205279Y-69493000D01*
X86784721Y-69493000D01*
X86372244Y-69575047D01*
X85983698Y-69735988D01*
X85634017Y-69969637D01*
X85336637Y-70267017D01*
X85102988Y-70616698D01*
X84942047Y-71005244D01*
X84860000Y-71417721D01*
X79106615Y-71417721D01*
X79077577Y-71249060D01*
X79005526Y-71061541D01*
X79015683Y-71056112D01*
X79147619Y-70761024D01*
X77978000Y-69591405D01*
X76808381Y-70761024D01*
X70486219Y-70761024D01*
X69316600Y-69591405D01*
X68146981Y-70761024D01*
X65937496Y-70761024D01*
X65937496Y-69462529D01*
X67372899Y-69462529D01*
X67420143Y-69840751D01*
X67540267Y-70202490D01*
X67672288Y-70449483D01*
X67967376Y-70581419D01*
X69136995Y-69411800D01*
X69496205Y-69411800D01*
X70665824Y-70581419D01*
X70960912Y-70449483D01*
X71131759Y-70108755D01*
X71232850Y-69741243D01*
X71252975Y-69462529D01*
X76034299Y-69462529D01*
X76081543Y-69840751D01*
X76201667Y-70202490D01*
X76333688Y-70449483D01*
X76628776Y-70581419D01*
X77798395Y-69411800D01*
X78157605Y-69411800D01*
X79327224Y-70581419D01*
X79622312Y-70449483D01*
X79793159Y-70108755D01*
X79894250Y-69741243D01*
X79921701Y-69361071D01*
X79874457Y-68982849D01*
X79754333Y-68621110D01*
X79622312Y-68374117D01*
X79327224Y-68242181D01*
X78157605Y-69411800D01*
X77798395Y-69411800D01*
X76628776Y-68242181D01*
X76333688Y-68374117D01*
X76162841Y-68714845D01*
X76061750Y-69082357D01*
X76034299Y-69462529D01*
X71252975Y-69462529D01*
X71260301Y-69361071D01*
X71213057Y-68982849D01*
X71092933Y-68621110D01*
X70960912Y-68374117D01*
X70665824Y-68242181D01*
X69496205Y-69411800D01*
X69136995Y-69411800D01*
X67967376Y-68242181D01*
X67672288Y-68374117D01*
X67501441Y-68714845D01*
X67400350Y-69082357D01*
X67372899Y-69462529D01*
X65937496Y-69462529D01*
X65937496Y-68062576D01*
X68146981Y-68062576D01*
X69316600Y-69232195D01*
X70486219Y-68062576D01*
X76808381Y-68062576D01*
X77978000Y-69232195D01*
X79147619Y-68062576D01*
X79015683Y-67767488D01*
X78674955Y-67596641D01*
X78307443Y-67495550D01*
X77927271Y-67468099D01*
X77549049Y-67515343D01*
X77187310Y-67635467D01*
X76940317Y-67767488D01*
X76808381Y-68062576D01*
X70486219Y-68062576D01*
X70354283Y-67767488D01*
X70013555Y-67596641D01*
X69646043Y-67495550D01*
X69265871Y-67468099D01*
X68887649Y-67515343D01*
X68525910Y-67635467D01*
X68278917Y-67767488D01*
X68146981Y-68062576D01*
X65937496Y-68062576D01*
X65937496Y-67023653D01*
X89766952Y-67023653D01*
X89922962Y-67339214D01*
X90297745Y-67530020D01*
X90702551Y-67644044D01*
X91121824Y-67676902D01*
X91539451Y-67627334D01*
X91939383Y-67497243D01*
X92235038Y-67339214D01*
X92391048Y-67023653D01*
X131636952Y-67023653D01*
X131792962Y-67339214D01*
X132167745Y-67530020D01*
X132572551Y-67644044D01*
X132991824Y-67676902D01*
X133409451Y-67627334D01*
X133809383Y-67497243D01*
X134105038Y-67339214D01*
X134261048Y-67023653D01*
X132949000Y-65711605D01*
X131636952Y-67023653D01*
X92391048Y-67023653D01*
X91079000Y-65711605D01*
X89766952Y-67023653D01*
X65937496Y-67023653D01*
X65937496Y-65574824D01*
X88934098Y-65574824D01*
X88983666Y-65992451D01*
X89113757Y-66392383D01*
X89271786Y-66688038D01*
X89587347Y-66844048D01*
X90899395Y-65532000D01*
X91258605Y-65532000D01*
X92570653Y-66844048D01*
X92886214Y-66688038D01*
X93077020Y-66313255D01*
X93191044Y-65908449D01*
X93217189Y-65574824D01*
X130804098Y-65574824D01*
X130853666Y-65992451D01*
X130983757Y-66392383D01*
X131141786Y-66688038D01*
X131457347Y-66844048D01*
X132769395Y-65532000D01*
X133128605Y-65532000D01*
X134440653Y-66844048D01*
X134756214Y-66688038D01*
X134947020Y-66313255D01*
X135061044Y-65908449D01*
X135093902Y-65489176D01*
X135044334Y-65071549D01*
X134914243Y-64671617D01*
X134756214Y-64375962D01*
X134440653Y-64219952D01*
X133128605Y-65532000D01*
X132769395Y-65532000D01*
X131457347Y-64219952D01*
X131141786Y-64375962D01*
X130950980Y-64750745D01*
X130836956Y-65155551D01*
X130804098Y-65574824D01*
X93217189Y-65574824D01*
X93223902Y-65489176D01*
X93174334Y-65071549D01*
X93044243Y-64671617D01*
X92886214Y-64375962D01*
X92570653Y-64219952D01*
X91258605Y-65532000D01*
X90899395Y-65532000D01*
X89587347Y-64219952D01*
X89271786Y-64375962D01*
X89080980Y-64750745D01*
X88966956Y-65155551D01*
X88934098Y-65574824D01*
X65937496Y-65574824D01*
X65937496Y-64040347D01*
X89766952Y-64040347D01*
X91079000Y-65352395D01*
X92391048Y-64040347D01*
X131636952Y-64040347D01*
X132949000Y-65352395D01*
X134261048Y-64040347D01*
X134105038Y-63724786D01*
X133730255Y-63533980D01*
X133325449Y-63419956D01*
X132906176Y-63387098D01*
X132488549Y-63436666D01*
X132088617Y-63566757D01*
X131792962Y-63724786D01*
X131636952Y-64040347D01*
X92391048Y-64040347D01*
X92235038Y-63724786D01*
X91860255Y-63533980D01*
X91455449Y-63419956D01*
X91036176Y-63387098D01*
X90618549Y-63436666D01*
X90218617Y-63566757D01*
X89922962Y-63724786D01*
X89766952Y-64040347D01*
X65937496Y-64040347D01*
X65937496Y-60735162D01*
X104181333Y-60735162D01*
X104277975Y-61089038D01*
X104499519Y-61556331D01*
X104807970Y-61971424D01*
X105191475Y-62318365D01*
X105635296Y-62583822D01*
X106122377Y-62757593D01*
X106634000Y-62833000D01*
X119634000Y-62833000D01*
X119634000Y-60325000D01*
X119888000Y-60325000D01*
X119888000Y-62833000D01*
X132888000Y-62833000D01*
X133399623Y-62757593D01*
X133886704Y-62583822D01*
X134330525Y-62318365D01*
X134714030Y-61971424D01*
X135022481Y-61556331D01*
X135244025Y-61089038D01*
X135340667Y-60735162D01*
X135233991Y-60325000D01*
X119888000Y-60325000D01*
X119634000Y-60325000D01*
X104288009Y-60325000D01*
X104181333Y-60735162D01*
X65937496Y-60735162D01*
X65937496Y-57738864D01*
X66533347Y-57738864D01*
X66533347Y-58180922D01*
X66619589Y-58614485D01*
X66788757Y-59022893D01*
X67034350Y-59390450D01*
X67346932Y-59703032D01*
X67714489Y-59948625D01*
X68122897Y-60117793D01*
X68556460Y-60204035D01*
X68998518Y-60204035D01*
X69432081Y-60117793D01*
X69840489Y-59948625D01*
X70208046Y-59703032D01*
X70250240Y-59660838D01*
X104181333Y-59660838D01*
X104288009Y-60071000D01*
X119634000Y-60071000D01*
X119634000Y-57563000D01*
X119888000Y-57563000D01*
X119888000Y-60071000D01*
X135233991Y-60071000D01*
X135340667Y-59660838D01*
X135244025Y-59306962D01*
X135022481Y-58839669D01*
X134714030Y-58424576D01*
X134330525Y-58077635D01*
X133886704Y-57812178D01*
X133399623Y-57638407D01*
X132888000Y-57563000D01*
X119888000Y-57563000D01*
X119634000Y-57563000D01*
X106634000Y-57563000D01*
X106122377Y-57638407D01*
X105635296Y-57812178D01*
X105191475Y-58077635D01*
X104807970Y-58424576D01*
X104499519Y-58839669D01*
X104277975Y-59306962D01*
X104181333Y-59660838D01*
X70250240Y-59660838D01*
X70520628Y-59390450D01*
X70766221Y-59022893D01*
X70935389Y-58614485D01*
X71021631Y-58180922D01*
X71021631Y-57738864D01*
X70935389Y-57305301D01*
X70766221Y-56896893D01*
X70520628Y-56529336D01*
X70208046Y-56216754D01*
X69840489Y-55971161D01*
X69432081Y-55801993D01*
X68998518Y-55715751D01*
X68556460Y-55715751D01*
X68122897Y-55801993D01*
X67714489Y-55971161D01*
X67346932Y-56216754D01*
X67034350Y-56529336D01*
X66788757Y-56896893D01*
X66619589Y-57305301D01*
X66533347Y-57738864D01*
X65937496Y-57738864D01*
X65937496Y-57492158D01*
X65985165Y-57005998D01*
X66116984Y-56569394D01*
X66331097Y-56166709D01*
X66619345Y-55813282D01*
X66970749Y-55522575D01*
X67371933Y-55305656D01*
X67807604Y-55170794D01*
X68291833Y-55119900D01*
X147245057Y-55119900D01*
X147731227Y-55167570D01*
G37*
%TD.AperFunction*%
D17*
X69510348Y-97318658D02*
X69496205Y-97332800D01*
X69510348Y-97346943D01*
X69330743Y-97526548D01*
X69316600Y-97512405D01*
X69302458Y-97526548D01*
X69122853Y-97346943D01*
X69136995Y-97332800D01*
X69122853Y-97318658D01*
X69243710Y-97197800D01*
X69389490Y-97197800D01*
X69510348Y-97318658D01*
%TA.AperFunction,Conductor*%
D18*
G36*
X69510348Y-97318658D02*
G01*
X69496205Y-97332800D01*
X69510348Y-97346943D01*
X69330743Y-97526548D01*
X69316600Y-97512405D01*
X69302458Y-97526548D01*
X69122853Y-97346943D01*
X69136995Y-97332800D01*
X69122853Y-97318658D01*
X69243710Y-97197800D01*
X69389490Y-97197800D01*
X69510348Y-97318658D01*
G37*
%TD.AperFunction*%
D17*
X69510348Y-93508658D02*
X69496205Y-93522800D01*
X69510348Y-93536943D01*
X69389490Y-93657800D01*
X69243710Y-93657800D01*
X69122853Y-93536943D01*
X69136995Y-93522800D01*
X69122853Y-93508658D01*
X69243710Y-93387800D01*
X69389490Y-93387800D01*
X69510348Y-93508658D01*
%TA.AperFunction,Conductor*%
D18*
G36*
X69510348Y-93508658D02*
G01*
X69496205Y-93522800D01*
X69510348Y-93536943D01*
X69389490Y-93657800D01*
X69243710Y-93657800D01*
X69122853Y-93536943D01*
X69136995Y-93522800D01*
X69122853Y-93508658D01*
X69243710Y-93387800D01*
X69389490Y-93387800D01*
X69510348Y-93508658D01*
G37*
%TD.AperFunction*%
D17*
X69510348Y-89698658D02*
X69496205Y-89712800D01*
X69510348Y-89726943D01*
X69389490Y-89847800D01*
X69243710Y-89847800D01*
X69122853Y-89726943D01*
X69136995Y-89712800D01*
X69122853Y-89698658D01*
X69302458Y-89519053D01*
X69316600Y-89533195D01*
X69330743Y-89519053D01*
X69510348Y-89698658D01*
%TA.AperFunction,Conductor*%
D18*
G36*
X69510348Y-89698658D02*
G01*
X69496205Y-89712800D01*
X69510348Y-89726943D01*
X69389490Y-89847800D01*
X69243710Y-89847800D01*
X69122853Y-89726943D01*
X69136995Y-89712800D01*
X69122853Y-89698658D01*
X69302458Y-89519053D01*
X69316600Y-89533195D01*
X69330743Y-89519053D01*
X69510348Y-89698658D01*
G37*
%TD.AperFunction*%
D17*
X78197148Y-97318658D02*
X78183005Y-97332800D01*
X78197148Y-97346943D01*
X78017543Y-97526548D01*
X78003400Y-97512405D01*
X77989258Y-97526548D01*
X77809653Y-97346943D01*
X77823795Y-97332800D01*
X77809653Y-97318658D01*
X77930510Y-97197800D01*
X78076290Y-97197800D01*
X78197148Y-97318658D01*
%TA.AperFunction,Conductor*%
D18*
G36*
X78197148Y-97318658D02*
G01*
X78183005Y-97332800D01*
X78197148Y-97346943D01*
X78017543Y-97526548D01*
X78003400Y-97512405D01*
X77989258Y-97526548D01*
X77809653Y-97346943D01*
X77823795Y-97332800D01*
X77809653Y-97318658D01*
X77930510Y-97197800D01*
X78076290Y-97197800D01*
X78197148Y-97318658D01*
G37*
%TD.AperFunction*%
D17*
X78197148Y-93508658D02*
X78183005Y-93522800D01*
X78197148Y-93536943D01*
X78076290Y-93657800D01*
X77930510Y-93657800D01*
X77809653Y-93536943D01*
X77823795Y-93522800D01*
X77809653Y-93508658D01*
X77930510Y-93387800D01*
X78076290Y-93387800D01*
X78197148Y-93508658D01*
%TA.AperFunction,Conductor*%
D18*
G36*
X78197148Y-93508658D02*
G01*
X78183005Y-93522800D01*
X78197148Y-93536943D01*
X78076290Y-93657800D01*
X77930510Y-93657800D01*
X77809653Y-93536943D01*
X77823795Y-93522800D01*
X77809653Y-93508658D01*
X77930510Y-93387800D01*
X78076290Y-93387800D01*
X78197148Y-93508658D01*
G37*
%TD.AperFunction*%
D17*
X78197148Y-89698658D02*
X78183005Y-89712800D01*
X78197148Y-89726943D01*
X78076290Y-89847800D01*
X77930510Y-89847800D01*
X77809653Y-89726943D01*
X77823795Y-89712800D01*
X77809653Y-89698658D01*
X77989258Y-89519053D01*
X78003400Y-89533195D01*
X78017543Y-89519053D01*
X78197148Y-89698658D01*
%TA.AperFunction,Conductor*%
D18*
G36*
X78197148Y-89698658D02*
G01*
X78183005Y-89712800D01*
X78197148Y-89726943D01*
X78076290Y-89847800D01*
X77930510Y-89847800D01*
X77809653Y-89726943D01*
X77823795Y-89712800D01*
X77809653Y-89698658D01*
X77989258Y-89519053D01*
X78003400Y-89533195D01*
X78017543Y-89519053D01*
X78197148Y-89698658D01*
G37*
%TD.AperFunction*%
D17*
X78171748Y-79157658D02*
X78157605Y-79171800D01*
X78171748Y-79185943D01*
X77992143Y-79365548D01*
X77978000Y-79351405D01*
X77963858Y-79365548D01*
X77784253Y-79185943D01*
X77798395Y-79171800D01*
X77784253Y-79157658D01*
X77905110Y-79036800D01*
X78050890Y-79036800D01*
X78171748Y-79157658D01*
%TA.AperFunction,Conductor*%
D18*
G36*
X78171748Y-79157658D02*
G01*
X78157605Y-79171800D01*
X78171748Y-79185943D01*
X77992143Y-79365548D01*
X77978000Y-79351405D01*
X77963858Y-79365548D01*
X77784253Y-79185943D01*
X77798395Y-79171800D01*
X77784253Y-79157658D01*
X77905110Y-79036800D01*
X78050890Y-79036800D01*
X78171748Y-79157658D01*
G37*
%TD.AperFunction*%
D17*
X78171748Y-75347658D02*
X78157605Y-75361800D01*
X78171748Y-75375943D01*
X78050890Y-75496800D01*
X77905110Y-75496800D01*
X77784253Y-75375943D01*
X77798395Y-75361800D01*
X77784253Y-75347658D01*
X77905110Y-75226800D01*
X78050890Y-75226800D01*
X78171748Y-75347658D01*
%TA.AperFunction,Conductor*%
D18*
G36*
X78171748Y-75347658D02*
G01*
X78157605Y-75361800D01*
X78171748Y-75375943D01*
X78050890Y-75496800D01*
X77905110Y-75496800D01*
X77784253Y-75375943D01*
X77798395Y-75361800D01*
X77784253Y-75347658D01*
X77905110Y-75226800D01*
X78050890Y-75226800D01*
X78171748Y-75347658D01*
G37*
%TD.AperFunction*%
D17*
X78171748Y-71537658D02*
X78157605Y-71551800D01*
X78171748Y-71565943D01*
X78050890Y-71686800D01*
X77905110Y-71686800D01*
X77784253Y-71565943D01*
X77798395Y-71551800D01*
X77784253Y-71537658D01*
X77963858Y-71358053D01*
X77978000Y-71372195D01*
X77992143Y-71358053D01*
X78171748Y-71537658D01*
%TA.AperFunction,Conductor*%
D18*
G36*
X78171748Y-71537658D02*
G01*
X78157605Y-71551800D01*
X78171748Y-71565943D01*
X78050890Y-71686800D01*
X77905110Y-71686800D01*
X77784253Y-71565943D01*
X77798395Y-71551800D01*
X77784253Y-71537658D01*
X77963858Y-71358053D01*
X77978000Y-71372195D01*
X77992143Y-71358053D01*
X78171748Y-71537658D01*
G37*
%TD.AperFunction*%
D17*
X69510348Y-79157658D02*
X69496205Y-79171800D01*
X69510348Y-79185943D01*
X69330743Y-79365548D01*
X69316600Y-79351405D01*
X69302458Y-79365548D01*
X69122853Y-79185943D01*
X69136995Y-79171800D01*
X69122853Y-79157658D01*
X69243710Y-79036800D01*
X69389490Y-79036800D01*
X69510348Y-79157658D01*
%TA.AperFunction,Conductor*%
D18*
G36*
X69510348Y-79157658D02*
G01*
X69496205Y-79171800D01*
X69510348Y-79185943D01*
X69330743Y-79365548D01*
X69316600Y-79351405D01*
X69302458Y-79365548D01*
X69122853Y-79185943D01*
X69136995Y-79171800D01*
X69122853Y-79157658D01*
X69243710Y-79036800D01*
X69389490Y-79036800D01*
X69510348Y-79157658D01*
G37*
%TD.AperFunction*%
D17*
X69510348Y-75347658D02*
X69496205Y-75361800D01*
X69510348Y-75375943D01*
X69389490Y-75496800D01*
X69243710Y-75496800D01*
X69122853Y-75375943D01*
X69136995Y-75361800D01*
X69122853Y-75347658D01*
X69243710Y-75226800D01*
X69389490Y-75226800D01*
X69510348Y-75347658D01*
%TA.AperFunction,Conductor*%
D18*
G36*
X69510348Y-75347658D02*
G01*
X69496205Y-75361800D01*
X69510348Y-75375943D01*
X69389490Y-75496800D01*
X69243710Y-75496800D01*
X69122853Y-75375943D01*
X69136995Y-75361800D01*
X69122853Y-75347658D01*
X69243710Y-75226800D01*
X69389490Y-75226800D01*
X69510348Y-75347658D01*
G37*
%TD.AperFunction*%
D17*
X69510348Y-71537658D02*
X69496205Y-71551800D01*
X69510348Y-71565943D01*
X69389490Y-71686800D01*
X69243710Y-71686800D01*
X69122853Y-71565943D01*
X69136995Y-71551800D01*
X69122853Y-71537658D01*
X69302458Y-71358053D01*
X69316600Y-71372195D01*
X69330743Y-71358053D01*
X69510348Y-71537658D01*
%TA.AperFunction,Conductor*%
D18*
G36*
X69510348Y-71537658D02*
G01*
X69496205Y-71551800D01*
X69510348Y-71565943D01*
X69389490Y-71686800D01*
X69243710Y-71686800D01*
X69122853Y-71565943D01*
X69136995Y-71551800D01*
X69122853Y-71537658D01*
X69302458Y-71358053D01*
X69316600Y-71372195D01*
X69330743Y-71358053D01*
X69510348Y-71537658D01*
G37*
%TD.AperFunction*%
%TD*%
M02*
