%TF.GenerationSoftware,KiCad,Pcbnew,5.1.9+dfsg1-1~bpo10+1*%
%TF.CreationDate,2021-10-15T10:51:03+08:00*%
%TF.ProjectId,NAS,4e41532e-6b69-4636-9164-5f7063625858,rev?*%
%TF.SameCoordinates,Original*%
%TF.FileFunction,Legend,Bot*%
%TF.FilePolarity,Positive*%
%FSLAX46Y46*%
G04 Gerber Fmt 4.6, Leading zero omitted, Abs format (unit mm)*
G04 Created by KiCad (PCBNEW 5.1.9+dfsg1-1~bpo10+1) date 2021-10-15 10:51:03*
%MOMM*%
%LPD*%
G01*
G04 APERTURE LIST*
%ADD10C,0.120000*%
%ADD11C,0.150000*%
G04 APERTURE END LIST*
D10*
%TO.C,SATA-IN3*%
X70074600Y-88892800D02*
X70074600Y-98152800D01*
X70074600Y-98152800D02*
X71094600Y-98152800D01*
X66776600Y-85902800D02*
X66776600Y-101142800D01*
X66776600Y-101142800D02*
X71856600Y-101142800D01*
X71856600Y-101142800D02*
X71856600Y-85902800D01*
X71856600Y-85902800D02*
X66776600Y-85902800D01*
%TO.C,SATA-IN2*%
X78736000Y-70731800D02*
X78736000Y-79991800D01*
X78736000Y-79991800D02*
X79756000Y-79991800D01*
X75438000Y-67741800D02*
X75438000Y-82981800D01*
X75438000Y-82981800D02*
X80518000Y-82981800D01*
X80518000Y-82981800D02*
X80518000Y-67741800D01*
X80518000Y-67741800D02*
X75438000Y-67741800D01*
%TO.C,SATA-IN1*%
X70074600Y-70731800D02*
X70074600Y-79991800D01*
X70074600Y-79991800D02*
X71094600Y-79991800D01*
X66776600Y-67741800D02*
X66776600Y-82981800D01*
X66776600Y-82981800D02*
X71856600Y-82981800D01*
X71856600Y-82981800D02*
X71856600Y-67741800D01*
X71856600Y-67741800D02*
X66776600Y-67741800D01*
%TO.C,POWER1*%
X89535000Y-90678000D02*
X90805000Y-89408000D01*
X89535000Y-67818000D02*
X90805000Y-69088000D01*
X90805000Y-89408000D02*
X90805000Y-69088000D01*
X83185000Y-90678000D02*
X89535000Y-90678000D01*
X83185000Y-67818000D02*
X83185000Y-90678000D01*
X89535000Y-67818000D02*
X83185000Y-67818000D01*
%TO.C,SATA-IN4*%
X78761400Y-88892800D02*
X78761400Y-98152800D01*
X78761400Y-98152800D02*
X79781400Y-98152800D01*
X75463400Y-85902800D02*
X75463400Y-101142800D01*
X75463400Y-101142800D02*
X80543400Y-101142800D01*
X80543400Y-101142800D02*
X80543400Y-85902800D01*
X80543400Y-85902800D02*
X75463400Y-85902800D01*
%TO.C,SATA-IN3*%
D11*
X71397761Y-89710047D02*
X71445380Y-89852904D01*
X71445380Y-90091000D01*
X71397761Y-90186238D01*
X71350142Y-90233857D01*
X71254904Y-90281476D01*
X71159666Y-90281476D01*
X71064428Y-90233857D01*
X71016809Y-90186238D01*
X70969190Y-90091000D01*
X70921571Y-89900523D01*
X70873952Y-89805285D01*
X70826333Y-89757666D01*
X70731095Y-89710047D01*
X70635857Y-89710047D01*
X70540619Y-89757666D01*
X70493000Y-89805285D01*
X70445380Y-89900523D01*
X70445380Y-90138619D01*
X70493000Y-90281476D01*
X71159666Y-90662428D02*
X71159666Y-91138619D01*
X71445380Y-90567190D02*
X70445380Y-90900523D01*
X71445380Y-91233857D01*
X70445380Y-91424333D02*
X70445380Y-91995761D01*
X71445380Y-91710047D02*
X70445380Y-91710047D01*
X71159666Y-92281476D02*
X71159666Y-92757666D01*
X71445380Y-92186238D02*
X70445380Y-92519571D01*
X71445380Y-92852904D01*
X71064428Y-93186238D02*
X71064428Y-93948142D01*
X71445380Y-94424333D02*
X70445380Y-94424333D01*
X71445380Y-94900523D02*
X70445380Y-94900523D01*
X71445380Y-95471952D01*
X70445380Y-95471952D01*
X70445380Y-95852904D02*
X70445380Y-96471952D01*
X70826333Y-96138619D01*
X70826333Y-96281476D01*
X70873952Y-96376714D01*
X70921571Y-96424333D01*
X71016809Y-96471952D01*
X71254904Y-96471952D01*
X71350142Y-96424333D01*
X71397761Y-96376714D01*
X71445380Y-96281476D01*
X71445380Y-95995761D01*
X71397761Y-95900523D01*
X71350142Y-95852904D01*
%TO.C,SATA-IN2*%
X80033761Y-72006247D02*
X80081380Y-72149104D01*
X80081380Y-72387200D01*
X80033761Y-72482438D01*
X79986142Y-72530057D01*
X79890904Y-72577676D01*
X79795666Y-72577676D01*
X79700428Y-72530057D01*
X79652809Y-72482438D01*
X79605190Y-72387200D01*
X79557571Y-72196723D01*
X79509952Y-72101485D01*
X79462333Y-72053866D01*
X79367095Y-72006247D01*
X79271857Y-72006247D01*
X79176619Y-72053866D01*
X79129000Y-72101485D01*
X79081380Y-72196723D01*
X79081380Y-72434819D01*
X79129000Y-72577676D01*
X79795666Y-72958628D02*
X79795666Y-73434819D01*
X80081380Y-72863390D02*
X79081380Y-73196723D01*
X80081380Y-73530057D01*
X79081380Y-73720533D02*
X79081380Y-74291961D01*
X80081380Y-74006247D02*
X79081380Y-74006247D01*
X79795666Y-74577676D02*
X79795666Y-75053866D01*
X80081380Y-74482438D02*
X79081380Y-74815771D01*
X80081380Y-75149104D01*
X79700428Y-75482438D02*
X79700428Y-76244342D01*
X80081380Y-76720533D02*
X79081380Y-76720533D01*
X80081380Y-77196723D02*
X79081380Y-77196723D01*
X80081380Y-77768152D01*
X79081380Y-77768152D01*
X79176619Y-78196723D02*
X79129000Y-78244342D01*
X79081380Y-78339580D01*
X79081380Y-78577676D01*
X79129000Y-78672914D01*
X79176619Y-78720533D01*
X79271857Y-78768152D01*
X79367095Y-78768152D01*
X79509952Y-78720533D01*
X80081380Y-78149104D01*
X80081380Y-78768152D01*
%TO.C,SATA-IN1*%
X71397761Y-72184047D02*
X71445380Y-72326904D01*
X71445380Y-72565000D01*
X71397761Y-72660238D01*
X71350142Y-72707857D01*
X71254904Y-72755476D01*
X71159666Y-72755476D01*
X71064428Y-72707857D01*
X71016809Y-72660238D01*
X70969190Y-72565000D01*
X70921571Y-72374523D01*
X70873952Y-72279285D01*
X70826333Y-72231666D01*
X70731095Y-72184047D01*
X70635857Y-72184047D01*
X70540619Y-72231666D01*
X70493000Y-72279285D01*
X70445380Y-72374523D01*
X70445380Y-72612619D01*
X70493000Y-72755476D01*
X71159666Y-73136428D02*
X71159666Y-73612619D01*
X71445380Y-73041190D02*
X70445380Y-73374523D01*
X71445380Y-73707857D01*
X70445380Y-73898333D02*
X70445380Y-74469761D01*
X71445380Y-74184047D02*
X70445380Y-74184047D01*
X71159666Y-74755476D02*
X71159666Y-75231666D01*
X71445380Y-74660238D02*
X70445380Y-74993571D01*
X71445380Y-75326904D01*
X71064428Y-75660238D02*
X71064428Y-76422142D01*
X71445380Y-76898333D02*
X70445380Y-76898333D01*
X71445380Y-77374523D02*
X70445380Y-77374523D01*
X71445380Y-77945952D01*
X70445380Y-77945952D01*
X71445380Y-78945952D02*
X71445380Y-78374523D01*
X71445380Y-78660238D02*
X70445380Y-78660238D01*
X70588238Y-78565000D01*
X70683476Y-78469761D01*
X70731095Y-78374523D01*
%TO.C,POWER1*%
X86685380Y-91448285D02*
X85685380Y-91448285D01*
X85685380Y-91829238D01*
X85733000Y-91924476D01*
X85780619Y-91972095D01*
X85875857Y-92019714D01*
X86018714Y-92019714D01*
X86113952Y-91972095D01*
X86161571Y-91924476D01*
X86209190Y-91829238D01*
X86209190Y-91448285D01*
X85685380Y-92638761D02*
X85685380Y-92829238D01*
X85733000Y-92924476D01*
X85828238Y-93019714D01*
X86018714Y-93067333D01*
X86352047Y-93067333D01*
X86542523Y-93019714D01*
X86637761Y-92924476D01*
X86685380Y-92829238D01*
X86685380Y-92638761D01*
X86637761Y-92543523D01*
X86542523Y-92448285D01*
X86352047Y-92400666D01*
X86018714Y-92400666D01*
X85828238Y-92448285D01*
X85733000Y-92543523D01*
X85685380Y-92638761D01*
X85685380Y-93400666D02*
X86685380Y-93638761D01*
X85971095Y-93829238D01*
X86685380Y-94019714D01*
X85685380Y-94257809D01*
X86161571Y-94638761D02*
X86161571Y-94972095D01*
X86685380Y-95114952D02*
X86685380Y-94638761D01*
X85685380Y-94638761D01*
X85685380Y-95114952D01*
X86685380Y-96114952D02*
X86209190Y-95781619D01*
X86685380Y-95543523D02*
X85685380Y-95543523D01*
X85685380Y-95924476D01*
X85733000Y-96019714D01*
X85780619Y-96067333D01*
X85875857Y-96114952D01*
X86018714Y-96114952D01*
X86113952Y-96067333D01*
X86161571Y-96019714D01*
X86209190Y-95924476D01*
X86209190Y-95543523D01*
X86685380Y-97067333D02*
X86685380Y-96495904D01*
X86685380Y-96781619D02*
X85685380Y-96781619D01*
X85828238Y-96686380D01*
X85923476Y-96591142D01*
X85971095Y-96495904D01*
%TO.C,SATA-IN4*%
X80033761Y-90218047D02*
X80081380Y-90360904D01*
X80081380Y-90599000D01*
X80033761Y-90694238D01*
X79986142Y-90741857D01*
X79890904Y-90789476D01*
X79795666Y-90789476D01*
X79700428Y-90741857D01*
X79652809Y-90694238D01*
X79605190Y-90599000D01*
X79557571Y-90408523D01*
X79509952Y-90313285D01*
X79462333Y-90265666D01*
X79367095Y-90218047D01*
X79271857Y-90218047D01*
X79176619Y-90265666D01*
X79129000Y-90313285D01*
X79081380Y-90408523D01*
X79081380Y-90646619D01*
X79129000Y-90789476D01*
X79795666Y-91170428D02*
X79795666Y-91646619D01*
X80081380Y-91075190D02*
X79081380Y-91408523D01*
X80081380Y-91741857D01*
X79081380Y-91932333D02*
X79081380Y-92503761D01*
X80081380Y-92218047D02*
X79081380Y-92218047D01*
X79795666Y-92789476D02*
X79795666Y-93265666D01*
X80081380Y-92694238D02*
X79081380Y-93027571D01*
X80081380Y-93360904D01*
X79700428Y-93694238D02*
X79700428Y-94456142D01*
X80081380Y-94932333D02*
X79081380Y-94932333D01*
X80081380Y-95408523D02*
X79081380Y-95408523D01*
X80081380Y-95979952D01*
X79081380Y-95979952D01*
X79414714Y-96884714D02*
X80081380Y-96884714D01*
X79033761Y-96646619D02*
X79748047Y-96408523D01*
X79748047Y-97027571D01*
%TD*%
M02*
