M48
; DRILL file {KiCad 5.1.9+dfsg1-1~bpo10+1} date Fri Oct 15 10:56:18 2021
; FORMAT={-:-/ absolute / inch / decimal}
; #@! TF.CreationDate,2021-10-15T10:56:18+08:00
; #@! TF.GenerationSoftware,Kicad,Pcbnew,5.1.9+dfsg1-1~bpo10+1
; #@! TF.FileFunction,Plated,1,2,PTH
FMAT,2
INCH
T1C0.0157
T2C0.0197
T3C0.0551
T4C0.0591
T5C0.0630
T6C0.1181
%
G90
G05
T1
X3.1037Y-4.3153
X3.5Y-2.895
X3.59Y-2.905
X3.69Y-2.905
X3.716Y-3.725
X3.73Y-3.065
X3.73Y-3.165
X3.7757Y-4.0165
X3.79Y-2.905
X3.882Y-4.037
X3.89Y-2.905
X3.99Y-2.905
X4.034Y-4.323
X4.087Y-2.858
X4.087Y-3.458
X4.087Y-3.908
X4.0947Y-3.3597
X4.0956Y-2.9494
X4.0978Y-3.9972
X4.1311Y-3.8461
X4.1333Y-2.7983
X4.1342Y-3.5108
X4.1456Y-2.9994
X4.1478Y-4.0472
X4.1551Y-3.0899
X4.1551Y-3.1899
X4.19Y-3.2994
X4.2184Y-2.7766
X4.233Y-3.5316
X4.233Y-3.612
X4.233Y-3.712
X4.233Y-3.812
X4.2406Y-4.0544
X4.2956Y-3.2994
X4.3184Y-2.7766
X4.3229Y-3.8221
X4.3406Y-4.0544
X4.3956Y-3.2994
X4.4184Y-2.7766
X4.4229Y-3.8221
X4.4406Y-4.0544
X4.4956Y-3.2994
X4.5184Y-2.7766
X4.5229Y-3.8221
X4.5406Y-4.0544
X4.5956Y-3.2994
X4.6184Y-2.7766
X4.6229Y-3.8221
X4.6406Y-4.0544
X4.6956Y-3.2994
X4.728Y-3.8221
X4.738Y-2.7766
X4.7397Y-4.0547
T2
X2.729Y-2.817
X2.729Y-2.867
X2.729Y-2.917
X2.729Y-2.967
X2.729Y-3.017
X2.729Y-3.067
X2.729Y-3.117
X2.729Y-3.532
X2.729Y-3.582
X2.729Y-3.632
X2.729Y-3.682
X2.729Y-3.732
X2.729Y-3.782
X2.729Y-3.832
X3.07Y-2.817
X3.07Y-2.867
X3.07Y-2.917
X3.07Y-2.967
X3.07Y-3.017
X3.07Y-3.067
X3.07Y-3.117
X3.071Y-3.532
X3.071Y-3.582
X3.071Y-3.632
X3.071Y-3.682
X3.071Y-3.732
X3.071Y-3.782
X3.071Y-3.832
T3
X2.729Y-2.7327
X2.729Y-3.2013
X2.729Y-3.4477
X2.729Y-3.9163
X3.07Y-2.7327
X3.07Y-3.2013
X3.071Y-3.4477
X3.071Y-3.9163
T4
X3.425Y-2.82
X3.425Y-3.02
X3.425Y-3.22
X3.425Y-3.42
T5
X3.5858Y-2.58
X3.5858Y-3.1028
X3.5858Y-3.6255
X3.5858Y-4.1483
X5.2342Y-2.58
X5.2342Y-3.1028
X5.2342Y-3.6255
X5.2342Y-4.1483
T6
G00X4.2032Y-2.37
M15
G01X5.2268Y-2.37
M16
G05
G00X4.2032Y-2.8928
M15
G01X5.2268Y-2.8928
M16
G05
G00X4.2032Y-3.4155
M15
G01X5.2268Y-3.4155
M16
G05
G00X4.2032Y-3.9383
M15
G01X5.2268Y-3.9383
M16
G05
T0
M30
